<?xml version="1.0" encoding="UTF-8" standalone="no"?>
<!-- Created with Inkscape (http://www.inkscape.org/) -->

<svg
   width="94.723106mm"
   height="38.921848mm"
   viewBox="0 0 94.723106 38.921848"
   version="1.1"
   id="svg3825"
   inkscape:version="1.1 (c68e22c387, 2021-05-23)"
   sodipodi:docname="1517.svg"
   xmlns:inkscape="http://www.inkscape.org/namespaces/inkscape"
   xmlns:sodipodi="http://sodipodi.sourceforge.net/DTD/sodipodi-0.dtd"
   xmlns="http://www.w3.org/2000/svg"
   xmlns:svg="http://www.w3.org/2000/svg">
  <sodipodi:namedview
     id="namedview3827"
     pagecolor="#505050"
     bordercolor="#eeeeee"
     borderopacity="1"
     inkscape:pageshadow="0"
     inkscape:pageopacity="0"
     inkscape:pagecheckerboard="0"
     inkscape:document-units="mm"
     showgrid="false"
     inkscape:zoom="1.4823793"
     inkscape:cx="176.40559"
     inkscape:cy="262.75326"
     inkscape:window-width="1920"
     inkscape:window-height="1017"
     inkscape:window-x="-8"
     inkscape:window-y="-8"
     inkscape:window-maximized="1"
     inkscape:current-layer="layer1" />
  <defs
     id="defs3822" />
  <g
     inkscape:label="Layer 1"
     inkscape:groupmode="layer"
     id="layer1"
     transform="translate(-58.666306,-44.712255)">
    <path
       style="fill:#ffffff;stroke-width:0.264583;fill-opacity:1"
       d="m 142.43579,83.249684 c -0.52182,-0.52182 -0.95299,-2.08183 -0.94819,-3.43065 0.0143,-4.01992 1.60615,-9.124688 4.79701,-15.383174 1.29517,-2.540304 2.81663,-5.773775 3.38104,-7.185491 0.91841,-2.297139 1.19961,-3.339333 1.70982,-6.337067 l 0.14635,-0.859896 h -5.45279 c -3.50529,0 -5.83499,0.114507 -6.52288,0.320606 -1.38119,0.413813 -2.7529,1.789387 -2.97733,2.985707 -0.21548,1.148618 -0.52645,1.376816 -0.90706,0.665635 -0.30288,-0.565942 0.25133,-4.685165 0.88761,-6.597163 l 0.3013,-0.905423 7.67292,-0.04549 c 4.2201,-0.02502 7.95823,0.05868 8.30695,0.185993 0.61744,0.225422 0.62995,0.288416 0.47783,2.406121 -0.18209,2.535045 -0.43176,3.385602 -3.93903,13.419431 -1.44968,4.147344 -2.8831,8.552656 -3.18537,9.789583 -0.73649,3.013818 -0.788,7.049768 -0.1124,8.806068 0.58671,1.52522 0.40221,1.85439 -1.27627,2.27704 -1.53974,0.38771 -1.8759,0.37178 -2.35951,-0.11183 z m -56.120525,-2.09766 c -2.320414,-0.42478 -3.836458,-1.05075 -3.836458,-1.58407 0,-0.52001 -0.131643,-0.53379 2.709267,0.28352 2.820139,0.81133 4.709174,0.76954 7.155612,-0.1583 1.754828,-0.66555 4.353199,-2.90833 5.341169,-4.61023 1.62726,-2.803154 1.85512,-6.880245 0.5353,-9.577882 -0.80572,-1.64684 -1.82863,-2.58219 -3.835098,-3.506856 -1.482711,-0.683294 -2.028441,-0.72232 -6.879166,-0.491966 l -1.190626,0.05654 0.01315,-1.058333 c 0.0072,-0.582083 0.399182,-2.78474 0.870995,-4.894792 0.471813,-2.110052 1.086866,-4.906615 1.366785,-6.214584 0.318127,-1.486521 0.680117,-2.503294 0.965512,-2.711979 0.332166,-0.242886 1.925445,-0.333853 5.847358,-0.333853 5.504975,0 6.051775,-0.08523 7.019935,-1.094214 1.21592,-1.267196 1.2667,-0.220469 0.10442,2.152547 -1.23527,2.522051 -1.57617,2.644912 -7.340189,2.645422 -3.32949,2.91e-4 -4.77556,0.09531 -5.10382,0.335336 -0.306703,0.224265 -0.677492,1.382566 -1.122236,3.505729 -0.36531,1.743944 -0.731099,3.490657 -0.812866,3.881584 l -0.148667,0.710779 2.873979,-0.149722 c 4.355317,-0.226894 7.053144,0.634317 9.479059,3.025949 3.90538,3.85017 3.16452,11.528597 -1.569075,16.262195 -3.41765,3.41765 -7.194646,4.48819 -12.44434,3.52718 z m -26.689194,-0.35239 c -0.217126,-0.35131 -0.01535,-0.47366 1.156902,-0.70145 1.635158,-0.31774 2.364344,-0.71851 2.908077,-1.59828 0.513435,-0.83076 0.531507,-1.30269 0.531507,-13.879852 V 51.600201 l -0.773398,-0.773397 c -0.871414,-0.871414 -1.4661,-0.950277 -2.839288,-0.376523 -0.99386,0.415262 -1.943565,0.522407 -1.943565,0.219271 0,-0.501648 1.048623,-1.204169 2.361675,-1.582196 1.814164,-0.522297 3.720038,-1.456762 5.378001,-2.636878 1.724439,-1.227432 1.880715,-1.179525 1.611716,0.494074 -0.122796,0.763985 -0.223266,7.877969 -0.223266,15.808854 0,13.298508 0.03643,14.486468 0.468527,15.277198 0.663125,1.21352 1.572617,1.71632 3.43033,1.89643 0.934699,0.0906 1.661092,0.2959 1.724399,0.48731 0.08476,0.25627 -0.952903,0.33109 -4.609021,0.33231 -2.595121,8e-4 -5.68355,0.0767 -6.863176,0.16858 -1.40954,0.10974 -2.204643,0.0701 -2.31942,-0.1156 z m 51.104189,0.0714 c -0.36523,-0.38159 0.0881,-0.64081 1.43264,-0.81917 1.91042,-0.25342 2.78538,-1.11257 3.14208,-3.08525 0.40327,-2.230279 0.22092,-25.007812 -0.20617,-25.752481 -0.17634,-0.307463 -0.69991,-0.71613 -1.16348,-0.908148 -0.72281,-0.299396 -1.02137,-0.285722 -2.09614,0.096 -1.53575,0.545447 -1.84373,0.555062 -1.84373,0.05756 0,-0.480469 0.61589,-0.816389 2.9562,-1.612379 1.85865,-0.632169 4.64292,-2.168308 5.24501,-2.893791 0.9022,-1.087079 0.9281,-0.622635 0.84488,15.14624 -0.0889,16.843599 -0.0699,17.105159 1.3214,18.137449 0.44203,0.32798 1.33319,0.58729 2.36006,0.68673 0.96025,0.093 1.69559,0.29801 1.75925,0.4905 0.0846,0.25587 -0.90453,0.33073 -4.36993,0.33073 -2.46363,0 -5.53941,0.0733 -6.83507,0.16291 -1.29567,0.0896 -2.44181,0.073 -2.547,-0.0369 z"
       id="path3898" />
  </g>
</svg>
