<?xml version="1.0" encoding="UTF-8" standalone="no"?>
<!-- Created with Inkscape (http://www.inkscape.org/) -->

<svg
   width="250.56036mm"
   height="30.818729mm"
   viewBox="0 0 250.56036 30.818729"
   version="1.1"
   id="svg5"
   inkscape:version="1.1 (c68e22c387, 2021-05-23)"
   sodipodi:docname="Atlassian.svg"
   xmlns:inkscape="http://www.inkscape.org/namespaces/inkscape"
   xmlns:sodipodi="http://sodipodi.sourceforge.net/DTD/sodipodi-0.dtd"
   xmlns="http://www.w3.org/2000/svg"
   xmlns:svg="http://www.w3.org/2000/svg">
  <sodipodi:namedview
     id="namedview7"
     pagecolor="#505050"
     bordercolor="#eeeeee"
     borderopacity="1"
     inkscape:pageshadow="0"
     inkscape:pageopacity="0"
     inkscape:pagecheckerboard="0"
     inkscape:document-units="mm"
     showgrid="false"
     inkscape:zoom="0.73406285"
     inkscape:cx="389.61241"
     inkscape:cy="187.31366"
     inkscape:window-width="1920"
     inkscape:window-height="1009"
     inkscape:window-x="-8"
     inkscape:window-y="-8"
     inkscape:window-maximized="1"
     inkscape:current-layer="layer1" />
  <defs
     id="defs2" />
  <g
     inkscape:label="Layer 1"
     inkscape:groupmode="layer"
     id="layer1"
     transform="translate(19.421078,-99.288732)">
    <path
       style="fill:#ffffff;stroke-width:0.264583;fill-opacity:1"
       d="m 123.32163,129.82936 c -1.01864,-0.19522 -2.56645,-0.63893 -3.43958,-0.98604 l -1.5875,-0.63111 -0.0748,-2.97561 c -0.0412,-1.63659 -0.007,-2.97562 0.0767,-2.97562 0.0833,0 0.59323,0.22471 1.13314,0.49935 2.70596,1.37651 7.63653,2.29761 9.97748,1.86394 2.8955,-0.5364 3.05838,-3.10225 0.26458,-4.16792 -0.43656,-0.16653 -1.86152,-0.54797 -3.16658,-0.84765 -4.32001,-0.99199 -6.70143,-2.4926 -7.67885,-4.83867 -0.61881,-1.48534 -0.59086,-4.56848 0.0546,-6.02277 0.68171,-1.53593 2.27914,-2.94347 4.20777,-3.70756 1.3742,-0.54444 1.98869,-0.61529 5.26014,-0.60656 3.30136,0.009 3.94153,0.088 5.88698,0.72829 l 2.18281,0.7184 v 2.84627 2.84627 l -2.63763,-0.88105 c -5.90156,-1.97132 -10.14933,-1.23996 -9.4306,1.62369 0.21159,0.84303 1.69608,1.53347 5.17922,2.40885 3.53919,0.88947 5.24489,1.70551 6.57028,3.1434 2.4059,2.61009 2.03608,7.96568 -0.70625,10.22768 -1.67331,1.38024 -3.48338,1.89333 -7.04481,1.99696 -1.95114,0.0568 -3.88892,-0.0444 -5.02709,-0.26254 z m 25.5323,0.21086 c -1.69467,-0.30634 -3.167,-0.69471 -4.56407,-1.20388 l -1.52135,-0.55447 v -2.99589 -2.99588 l 1.52135,0.67378 c 3.43352,1.52064 8.66256,2.23677 10.56835,1.44737 1.04312,-0.43208 1.53546,-1.50559 1.15249,-2.5129 -0.34541,-0.9085 -1.6886,-1.51984 -5.04011,-2.29396 -4.75172,-1.09753 -7.0214,-2.67785 -7.82726,-5.44991 -0.88109,-3.03086 0.0294,-6.27851 2.23099,-7.95771 2.84338,-2.16872 8.82837,-2.52677 13.99679,-0.83735 l 1.65365,0.54053 v 2.8534 2.8534 l -2.63696,-0.90285 c -4.55752,-1.56041 -8.6588,-1.46435 -9.4669,0.22173 -0.80338,1.67621 0.49285,2.66677 4.91933,3.75928 6.25875,1.54474 8.22456,3.34548 8.23705,7.54537 0.008,2.76314 -0.39912,3.89312 -1.9696,5.46375 -1.79543,1.79561 -3.27404,2.27024 -7.4173,2.38094 -1.74625,0.0466 -3.47265,0.031 -3.83645,-0.0348 z m -167.957508,-0.42383 c -0.174625,-0.17462 -0.3175,-0.47307 -0.3175,-0.66322 0,-0.63918 7.680844,-15.70768 8.085879,-15.8631 0.941943,-0.36146 3.2150656,2.9017 4.2544576,6.10745 1.136618,3.50561 0.986041,8.03161 -0.337381,10.14106 -0.367819,0.58627 -0.456938,0.59531 -5.8707206,0.59531 -3.92285,0 -5.588167,-0.0909 -5.814735,-0.3175 z m 18.56600558,0.11501 c -0.58429998,-0.38013 -6.19253598,-11.99425 -6.76871298,-14.01735 -0.828202,-2.90801 -0.821637,-7.54533 0.0149,-10.52507 0.777478,-2.76937 2.393357,-5.785451 3.159836,-5.897911 0.506635,-0.0743 1.38643,1.553741 8.05161,14.899641 7.1802204,14.37718 7.4620544,14.99847 6.9692334,15.36314 -0.406746,0.30098 -1.6176754,0.3792 -5.8208334,0.37599 -2.918984,-0.002 -5.44169602,-0.0915 -5.60602902,-0.19844 z M 24.356056,127.36206 c 0.496252,-1.42315 2.458002,-7.04091 4.359446,-12.48391 1.901444,-5.443 3.457171,-9.93761 3.457171,-9.98802 0,-0.0504 1.785937,-0.0916 3.96875,-0.0916 2.182812,0 3.96875,0.0412 3.96875,0.0916 0,0.0504 1.555726,4.54502 3.45717,9.98802 1.901444,5.443 3.863194,11.06076 4.359447,12.48391 l 0.902277,2.58755 -3.339545,-0.074 -3.339547,-0.074 -0.591232,-1.98437 -0.591233,-1.98438 -1.156272,0.12669 c -1.519618,0.1665 -5.580721,0.16871 -7.210721,0.004 l -1.29195,-0.1306 -0.568169,1.98437 -0.568171,1.98438 -3.359224,0.074 -3.359224,0.074 0.902277,-2.58755 z m 13.581792,-6.40192 c 0.624232,-0.12069 1.201875,-0.28635 1.283647,-0.36813 0.164508,-0.1645 -2.86875,-10.76592 -3.080072,-10.76504 -0.227997,10e-4 -3.261305,10.58381 -3.084309,10.76081 0.491072,0.49107 3.198516,0.69763 4.880734,0.37236 z m 17.253575,-0.94812 v -9.92187 h -3.307292 -3.307292 v -2.64584 -2.64583 h 9.657292 9.657292 v 2.64583 2.64584 h -3.439584 -3.439583 v 9.92187 9.92187 h -2.910417 -2.910416 z m 17.4625,-2.64087 v -12.57267 h 2.910418 2.91042 v 9.78958 9.78958 h 3.98658 c 3.81357,0 3.97957,0.0221 3.82502,0.50902 -0.0889,0.27996 -0.49459,1.50035 -0.90162,2.71198 l -0.74007,2.20296 -5.99537,0.0711 -5.995378,0.0711 z m 16.403658,12.36431 c -2.6e-4,-0.10915 1.93449,-5.76547 4.29948,-12.56962 l 4.29999,-12.37118 3.944099,0.0681 3.94409,0.068 4.15342,11.90625 c 2.28438,6.54844 4.23827,12.17414 4.34197,12.50156 l 0.18854,0.59531 h -3.29935 -3.29935 l -0.55494,-1.82701 c -0.30522,-1.00485 -0.55494,-1.97087 -0.55494,-2.14671 0,-0.23707 -0.32481,-0.26065 -1.25677,-0.0912 -1.57105,0.28561 -5.621499,0.29668 -7.236359,0.0198 l -1.21708,-0.2087 -0.60562,2.12693 -0.60561,2.12692 h -3.27053 c -1.79879,0 -3.27076,-0.0893 -3.27104,-0.19843 z m 15.481089,-9.00067 c 0.25569,-0.14774 -0.032,-1.44007 -1.21418,-5.45465 -0.85208,-2.89357 -1.60983,-5.32163 -1.68389,-5.39568 -0.16817,-0.16817 -0.0979,-0.38095 -1.851599,5.60996 -0.80617,2.75407 -1.40861,5.06455 -1.33876,5.1344 0.51991,0.51991 5.230129,0.60189 6.088429,0.10597 z m 64.68817,-3.36861 v -12.5677 h 2.77813 2.77812 v 12.5677 12.56771 h -2.77812 -2.77813 z m 11.48501,9.33441 c 0.63212,-1.78694 2.61053,-7.44594 4.39646,-12.57555 l 3.24714,-9.32656 h 3.90458 3.90457 l 0.39354,1.12448 c 4.34237,12.40768 6.76092,19.344 7.47534,21.43904 l 0.88235,2.58748 -3.33084,-0.0739 -3.33085,-0.0739 -0.59055,-1.98437 -0.59055,-1.98438 -1.28924,0.13003 c -1.97582,0.19928 -5.64509,0.15886 -7.02594,-0.0774 l -1.23877,-0.21195 -0.62273,2.06404 -0.62273,2.06403 -3.35555,0.074 -3.35555,0.074 z m 13.47293,-5.74571 c 0.55724,-0.12932 1.08193,-0.30391 1.166,-0.38798 0.17359,-0.17359 -2.87041,-10.74261 -3.09296,-10.73898 -0.22284,0.004 -3.25301,10.60339 -3.08052,10.77588 0.48593,0.48592 3.51224,0.6981 5.00748,0.35108 z m 14.99415,-3.5887 v -12.5677 l 4.29947,2.6e-4 4.29948,2.7e-4 3.2248,6.15123 c 1.77363,3.38317 3.55957,6.97619 3.96875,7.98448 l 0.74395,1.83326 0.07,-7.98482 0.07,-7.98482 h 2.64197 2.64194 v 12.57561 12.57561 l -3.3334,-0.074 -3.33344,-0.074 -3.58362,-6.61458 c -1.97101,-3.63802 -4.11797,-7.80521 -4.77102,-9.26042 -0.65304,-1.4552 -1.29085,-2.75894 -1.41732,-2.89718 -0.1306,-0.14277 -0.22995,3.88653 -0.22995,9.32656 v 9.57792 h -2.64583 -2.64583 v -12.56771 z"
       id="path836" />
  </g>
</svg>
