<?xml version="1.0" encoding="UTF-8" standalone="no"?>
<!-- Created with Inkscape (http://www.inkscape.org/) -->

<svg
   width="228.31963mm"
   height="51.63356mm"
   viewBox="0 0 228.31963 51.63356"
   version="1.1"
   id="svg2579"
   inkscape:version="1.1 (c68e22c387, 2021-05-23)"
   sodipodi:docname="Balsamiq.svg"
   xmlns:inkscape="http://www.inkscape.org/namespaces/inkscape"
   xmlns:sodipodi="http://sodipodi.sourceforge.net/DTD/sodipodi-0.dtd"
   xmlns="http://www.w3.org/2000/svg"
   xmlns:svg="http://www.w3.org/2000/svg">
  <sodipodi:namedview
     id="namedview2581"
     pagecolor="#505050"
     bordercolor="#eeeeee"
     borderopacity="1"
     inkscape:pageshadow="0"
     inkscape:pageopacity="0"
     inkscape:pagecheckerboard="0"
     inkscape:document-units="mm"
     showgrid="false"
     inkscape:zoom="0.74118967"
     inkscape:cx="429.71457"
     inkscape:cy="178.76666"
     inkscape:window-width="1920"
     inkscape:window-height="1017"
     inkscape:window-x="-8"
     inkscape:window-y="-8"
     inkscape:window-maximized="1"
     inkscape:current-layer="layer1" />
  <defs
     id="defs2576" />
  <g
     inkscape:label="Layer 1"
     inkscape:groupmode="layer"
     id="layer1"
     transform="translate(8.7141861,-101.48963)">
    <path
       style="fill:#ffffff;fill-opacity:1;stroke-width:0.264583"
       d="m 193.75415,145.24186 c -0.0123,-6.21053 -0.0824,-7.77355 -0.33073,-7.37307 -2.03589,3.28288 -6.58186,5.17885 -10.54693,4.39878 -4.52976,-0.89118 -8.08841,-4.46952 -9.34266,-9.39435 -0.57582,-2.26096 -0.52238,-6.46521 0.11381,-8.95266 1.13497,-4.43773 3.21057,-7.13754 6.80777,-8.85515 2.00184,-0.95585 2.16468,-0.98817 4.97993,-0.98817 2.65473,0 3.04348,0.0653 4.425,0.74375 0.95135,0.46718 2.00905,1.29853 2.84427,2.23563 l 1.32969,1.49188 v -2.03719 -2.03719 h 2.38297 2.38298 l -0.0679,19.24844 -0.0679,19.24843 -2.44739,0.0761 -2.4474,0.0761 -0.0156,-7.88128 z m -5.29163,-7.10744 c 1.69022,-0.50194 3.54503,-2.23138 4.51887,-4.21343 0.61465,-1.251 0.65015,-1.57462 0.65301,-5.95312 0.002,-3.83344 -0.076,-4.80496 -0.45625,-5.64573 -0.78255,-1.73035 -1.99927,-3.01969 -3.57894,-3.79255 -1.23966,-0.60652 -1.82765,-0.72986 -3.3623,-0.70533 -2.27343,0.0363 -3.48841,0.52911 -5.16027,2.09294 -2.37309,2.21975 -3.51657,6.29405 -2.91312,10.37963 0.92023,6.23025 5.07207,9.38983 10.299,7.83759 z m -185.2457072,4.1074 c -2.62727096,-0.39841 -5.3335555,-2.1049 -6.6165095,-4.17214 l -0.6042813,-0.97369 -0.1800016,1.19063 c -0.099001,0.65484 -0.1888268,1.69664 -0.1996134,2.3151 l -0.019612,1.12448 h -2.1554905 -2.1554906 l 0.1711156,-2.02429 c 0.094114,-1.11337 0.1711155,-10.16212 0.1711155,-20.10834 v -18.08404 h 2.38125 2.38125 v 8.59896 c 0,4.72943 0.089297,8.59168 0.1984375,8.58279 0.1091407,-0.009 0.5571115,-0.51016 0.9954909,-1.11394 1.81431931,-2.49885 4.9719888,-3.76142 8.969961,-3.58656 3.1557756,0.13802 5.2700116,1.09222 7.2709036,3.28152 2.512116,2.74865 3.59773,5.96773 3.5624,10.56328 -0.0446,5.80179 -1.999903,10.08733 -5.742751,12.58671 -2.4231721,1.61813 -5.4488439,2.27133 -8.4281742,1.81953 z m 4.1025032,-4.31353 c 2.176793,-0.90953 4.271382,-3.69268 4.930383,-6.55118 0.385446,-1.67191 0.334802,-5.16577 -0.09847,-6.79342 -1.155874,-4.34222 -3.8655098,-6.72427 -7.6987106,-6.76796 -3.1900682,-0.0364 -5.5158737,1.47222 -7.2025674,4.6718 -0.7079863,1.34302 -0.727112,1.49413 -0.727112,5.74492 0,4.24809 0.019989,4.40633 0.7424605,5.87757 0.8920155,1.8165 2.61355075,3.40427 4.3405126,4.00326 1.4892097,0.51652 4.2483609,0.42718 5.7135059,-0.18499 z m 21.145672,4.29667 c -1.687462,-0.28012 -3.642466,-1.23913 -4.607232,-2.26002 -2.516912,-2.66335 -2.743988,-7.50642 -0.497366,-10.60779 2.034704,-2.80883 7.302801,-4.79496 12.783801,-4.81963 l 2.050521,-0.009 v -1.14349 c 0,-2.96725 -1.715135,-5.18039 -4.465712,-5.76238 -1.940052,-0.4105 -5.032684,0.0122 -7.197584,0.98375 -0.867275,0.38921 -1.623428,0.66052 -1.680335,0.60291 -0.05691,-0.0576 -0.339095,-0.72573 -0.627083,-1.48471 l -0.523616,-1.37996 0.930746,-0.54916 c 2.935237,-1.73183 8.660244,-2.37353 11.974092,-1.34215 2.902693,0.90342 4.436406,2.36265 5.617927,5.34509 0.520522,1.31393 0.577868,2.11122 0.749376,10.41865 0.102145,4.9477 0.273069,9.56138 0.379828,10.2526 l 0.194112,1.25677 h -2.248178 -2.248178 l -0.184155,-1.71964 -0.184158,-1.71963 -1.17276,1.17276 c -2.237965,2.23796 -5.750642,3.31199 -9.044046,2.76527 z m 6.384015,-4.29872 c 1.332248,-0.78075 2.465633,-2.02039 2.988929,-3.26914 0.230248,-0.54945 0.35678,-1.94564 0.35678,-3.93677 v -3.08537 l -2.182812,0.18337 c -4.672989,0.39257 -7.315558,1.43761 -8.620004,3.40892 -0.580525,0.87729 -0.702744,1.35437 -0.685175,2.6745 0.03102,2.3306 1.130109,4.08284 2.920597,4.65621 1.361843,0.4361 3.929687,0.12545 5.221685,-0.63172 z m 56.86316,4.31833 c -2.495855,-0.35113 -4.531691,-1.72854 -5.849909,-3.95795 -0.635971,-1.07557 -0.704,-1.4463 -0.704,-3.83646 0,-3.14172 0.463206,-4.27909 2.550255,-6.26199 2.293488,-2.17903 7.071479,-3.65989 11.80865,-3.65989 h 1.986461 l -0.13968,-1.5405 c -0.38046,-4.19572 -3.284661,-6.12278 -8.100372,-5.37492 -1.110943,0.17253 -2.756424,0.65817 -3.656623,1.07919 l -1.636723,0.76551 -0.530196,-1.56999 -0.530196,-1.57 0.63283,-0.41464 c 2.74714,-1.8 8.804754,-2.50861 12.31931,-1.44109 1.62634,0.49398 2.14228,0.80865 3.41855,2.08492 1.05347,1.05347 1.68825,1.97745 2.12193,3.08868 0.59143,1.51543 0.62773,2.00682 0.82065,11.11055 0.11101,5.23875 0.28251,9.85242 0.38111,10.25261 l 0.17927,0.7276 h -2.24518 -2.24519 l -0.16399,-0.99219 c -0.0902,-0.5457 -0.16531,-1.34489 -0.16691,-1.77599 l -0.003,-0.7838 -1.25677,1.21947 c -2.396448,2.32533 -5.570871,3.33195 -8.990365,2.85088 z m 6.372256,-4.31833 c 1.332249,-0.78075 2.465631,-2.02039 2.988931,-3.26914 0.23025,-0.54945 0.35678,-1.94564 0.35678,-3.93677 v -3.08537 l -2.182814,0.18337 c -5.967222,0.5013 -8.837157,2.136 -9.339993,5.32003 -0.347072,2.1977 1.064565,4.84237 2.884583,5.40421 1.44608,0.44641 3.983271,0.15094 5.292513,-0.61633 z m -31.787904,3.96082 c -1.916197,-0.48513 -3.495553,-1.22898 -3.495553,-1.64632 0,-0.37241 1.042987,-3.27704 1.176713,-3.27704 0.0442,0 0.751364,0.29675 1.571482,0.65945 5.287153,2.33823 10.216388,0.87114 10.216388,-3.0407 0,-2.26168 -1.051546,-3.28251 -5.291666,-5.13713 -4.944595,-2.16274 -6.879167,-4.28483 -6.879167,-7.54595 0,-3.19281 1.465797,-5.48854 4.438198,-6.95112 1.721982,-0.84731 1.86028,-0.87067 5.082122,-0.85875 2.804903,0.0104 3.544892,0.10442 4.833326,0.61432 0.836745,0.33113 1.521354,0.68946 1.521354,0.79627 0,0.10681 -0.245668,0.92166 -0.545928,1.81078 l -0.545928,1.61658 -1.120156,-0.4955 c -1.797063,-0.79492 -4.582475,-1.16186 -5.974453,-0.78704 -1.32728,0.3574 -2.804242,1.67578 -3.07185,2.74202 -0.289292,1.15263 0.09441,2.40063 1.008462,3.28006 0.472176,0.45428 2.316626,1.47525 4.106723,2.27322 3.601812,1.60556 4.759433,2.37684 5.871419,3.91189 2.099908,2.89884 1.515917,7.59062 -1.247595,10.02316 -1.833028,1.6135 -3.615931,2.177 -7.211944,2.27941 -1.94908,0.0555 -3.545631,-0.0407 -4.441947,-0.26761 z m -15.072738,-20.20305 0.06781,-20.04218 2.447396,-0.0761 2.447396,-0.0761 v 20.11826 20.11826 H 53.671173 51.15597 Z m 63.168023,7.40834 c -0.002,-6.94862 -0.0775,-13.08542 -0.16874,-13.63733 l -0.16583,-1.00348 2.21926,0.0774 2.21926,0.0774 0.0773,2.05052 c 0.0425,1.12779 0.16841,2.05052 0.27979,2.05052 0.11139,0 0.57004,-0.5214 1.01923,-1.15866 1.75653,-2.49201 4.60355,-3.74138 8.08974,-3.55003 3.18621,0.17488 5.11033,1.35594 6.74034,4.13734 l 0.69432,1.18476 0.39828,-0.63743 c 0.75886,-1.21451 3.08005,-3.29936 4.39686,-3.94918 1.15105,-0.56803 1.68383,-0.65311 4.10104,-0.65493 2.50272,-0.002 2.91093,0.068 4.11783,0.70497 1.59823,0.84349 3.15666,2.49499 3.86459,4.09538 1.10569,2.49959 1.26857,4.26286 1.2734,13.78455 l 0.005,9.06198 h -2.36311 -2.3631 l -0.0908,-9.32656 c -0.0868,-8.91525 -0.11682,-9.39151 -0.68037,-10.79915 -0.97147,-2.42653 -2.73669,-3.69093 -5.13895,-3.68098 -1.8036,0.007 -3.25768,0.68014 -4.53677,2.09872 -1.88933,2.09538 -1.87294,1.99262 -1.9748,12.38141 l -0.0914,9.32656 h -2.34821 -2.34822 l -0.0785,-9.59114 -0.0785,-9.59115 -0.75367,-1.53485 c -0.95694,-1.94881 -2.26278,-2.87347 -4.29619,-3.0421 -1.95029,-0.16173 -3.48356,0.45547 -4.87115,1.96082 -2.11848,2.29828 -2.10516,2.21877 -2.11172,12.60415 l -0.006,9.19427 h -2.51355 -2.51354 l -0.003,-12.63385 z m 47.36333,-0.99219 v -13.62604 h 2.38125 2.38125 v 13.62604 13.62604 h -2.38125 -2.38125 z m 48.72788,-2.67319 c -2.88709,-1.4387 -4.14331,-4.5201 -3.076,-7.54516 1.74481,-4.94534 9.10573,-5.43341 11.49006,-0.76186 0.7258,1.42204 0.86937,2.50112 0.54234,4.0764 -0.8407,4.04962 -5.19355,6.10573 -8.9564,4.23062 z m 4.92953,-1.00584 c 3.20031,-1.66512 3.59238,-6.31465 0.7174,-8.50751 -1.29653,-0.9889 -3.52745,-1.1876 -4.8911,-0.4356 -1.60191,0.88338 -2.47113,2.22459 -2.60046,4.01251 -0.22526,3.1141 1.69092,5.29454 4.65749,5.29983 0.77121,10e-4 1.72371,-0.16477 2.11667,-0.36923 z m -4.38716,-4.32462 0.0745,-3.10885 1.44107,-0.0818 c 0.79259,-0.045 1.70699,-0.015 2.03202,0.0666 1.46743,0.3683 1.88164,1.86399 0.76045,2.74592 -0.53012,0.417 -0.58181,0.55063 -0.26061,0.67388 0.40482,0.15535 0.69872,0.75599 1.02045,2.08553 0.16161,0.66782 0.1126,0.72761 -0.59643,0.72761 -0.67464,0 -0.80218,-0.1257 -1.00675,-0.99219 -0.16266,-0.689 -0.45399,-1.09782 -0.95339,-1.33787 -0.98033,-0.47121 -1.24618,-0.2248 -1.24618,1.15505 0,1.08088 -0.0537,1.17501 -0.66986,1.17501 h -0.66985 z m 3.0473,-0.73484 c 0.68835,-0.48214 0.53035,-1.12203 -0.36071,-1.46081 -0.95792,-0.3642 -1.42142,-0.0488 -1.42142,0.96719 0,0.75781 0.0939,0.89773 0.60258,0.89773 0.33143,0 0.86222,-0.18185 1.17955,-0.40411 z M 162.63191,109.2105 c -1.06868,-0.67048 -1.40595,-1.30675 -1.40595,-2.65231 0,-3.24921 4.80684,-4.02005 5.82528,-0.93417 0.41387,1.25406 -0.0174,2.85221 -0.93135,3.45103 -1.04354,0.68376 -2.5225,0.74119 -3.48798,0.13545 z"
       id="path2652" />
  </g>
</svg>
