<?xml version="1.0" encoding="UTF-8" standalone="no"?>
<!-- Created with Inkscape (http://www.inkscape.org/) -->

<svg
   width="231.6055mm"
   height="103.6768mm"
   viewBox="0 0 231.6055 103.6768"
   version="1.1"
   id="svg1112"
   inkscape:version="1.1 (c68e22c387, 2021-05-23)"
   sodipodi:docname="Boston University.svg"
   xmlns:inkscape="http://www.inkscape.org/namespaces/inkscape"
   xmlns:sodipodi="http://sodipodi.sourceforge.net/DTD/sodipodi-0.dtd"
   xmlns="http://www.w3.org/2000/svg"
   xmlns:svg="http://www.w3.org/2000/svg">
  <sodipodi:namedview
     id="namedview1114"
     pagecolor="#505050"
     bordercolor="#eeeeee"
     borderopacity="1"
     inkscape:pageshadow="0"
     inkscape:pageopacity="0"
     inkscape:pagecheckerboard="0"
     inkscape:document-units="mm"
     showgrid="false"
     inkscape:zoom="0.52410025"
     inkscape:cx="584.81179"
     inkscape:cy="476.05397"
     inkscape:window-width="1920"
     inkscape:window-height="1017"
     inkscape:window-x="-8"
     inkscape:window-y="-8"
     inkscape:window-maximized="1"
     inkscape:current-layer="layer1" />
  <defs
     id="defs1109" />
  <g
     inkscape:label="Layer 1"
     inkscape:groupmode="layer"
     id="layer1"
     transform="translate(12.639682,-37.794233)">
    <path
       style="fill:#ffffff;fill-opacity:1;stroke-width:0.121259"
       d="M -12.639682,89.632635 V 37.794233 H 103.16306 218.96581 V 89.632635 141.47103 H 103.16306 -12.639682 Z m 227.846452,0 V 41.553276 H 103.16306 -8.88064 v 48.079359 48.079355 h 112.0437 112.04371 z m -222.511038,0 V 43.129649 H 103.10243 213.50914 V 89.632635 136.13562 H 103.10243 -7.304268 Z m 27.62014,30.867715 c 2.67048,-0.55107 4.73296,-2.16509 5.613859,-4.3932 0.527915,-1.33529 0.59738,-2.15384 0.59738,-7.0393 0,-3.11068 0.04516,-4.76417 0.138647,-5.0762 0.243424,-0.81247 1.039766,-1.32363 2.062117,-1.32363 0.452809,0 0.466943,-0.0129 0.466943,-0.42441 v -0.42441 h -3.577153 -3.577153 v 0.40688 0.40687 l 0.801638,0.0749 c 0.989044,0.0924 1.490308,0.36841 1.80544,0.99429 0.230598,0.45799 0.242519,0.72306 0.242519,5.39267 0,5.23374 -0.03287,5.59816 -0.618291,6.85567 -0.604583,1.29867 -1.65731,2.1593 -3.29306,2.69217 -0.798899,0.26025 -1.174263,0.30719 -2.515399,0.31456 -1.116749,0.006 -1.796449,-0.0506 -2.331172,-0.19446 -2.20803,-0.59418 -3.544715,-1.88471 -4.123902,-3.9815 -0.189043,-0.68439 -0.214194,-1.37343 -0.214194,-5.86833 0,-4.63306 0.01927,-5.12816 0.213459,-5.4834 0.28226,-0.51636 0.597747,-0.67015 1.544803,-0.75308 0.784193,-0.0687 0.788379,-0.071 0.826184,-0.4631 l 0.038,-0.3941 H 10.528552 6.6405675 v 0.42441 0.42441 h 0.610192 c 0.335605,0 0.78578,0.0734 1.00039,0.1631 0.782148,0.32695 0.746778,0.0627 0.8287,6.19109 0.0829,6.20122 0.0924,6.28194 0.9268765,7.87469 0.983088,1.87639 3.104325,3.3041 5.500424,3.70208 1.209467,0.20089 3.594283,0.15197 4.808724,-0.0986 z m 62.406782,-8.01032 c 1.958702,-5.06095 3.315972,-8.40027 3.556033,-8.749 0.442782,-0.64321 1.198424,-1.07301 1.886493,-1.07301 0.429736,0 0.446754,-0.0162 0.446754,-0.42441 v -0.42441 h -3.516523 -3.516523 v 0.40708 0.40708 l 0.988082,0.0677 c 1.37112,0.094 1.624582,0.29256 1.60321,1.25607 -0.01354,0.61056 -0.320091,1.50392 -2.158218,6.28957 -1.178337,3.06787 -2.262291,5.89169 -2.408786,6.27518 -0.146494,0.38348 -0.293914,0.69618 -0.3276,0.69488 -0.121564,-0.005 -5.336032,-13.1905 -5.336032,-13.49321 0,-0.58995 0.893048,-0.98864 2.425188,-1.08269 0.518015,-0.0318 0.545668,-0.0519 0.545668,-0.39728 v -0.36378 l -4.153135,-0.0319 -4.153135,-0.0319 v 0.426 c 0,0.4245 0.0019,0.426 0.549562,0.426 0.754305,0 1.311501,0.26026 1.66223,0.7764 0.162576,0.23925 1.817838,4.22979 3.678357,8.86786 l 3.382762,8.43286 0.838914,-0.0351 0.838914,-0.035 z m 56.762446,8.06113 c 2.42277,-0.61853 4.08154,-2.36969 4.2599,-4.49714 0.19742,-2.35481 -1.0512,-3.95246 -5.13806,-6.57438 -2.60441,-1.67086 -3.37072,-2.3041 -3.84682,-3.17886 -1.49202,-2.74131 1.73724,-5.01409 4.87259,-3.42939 0.78086,0.39468 1.83173,1.47278 2.2607,2.3193 0.25558,0.50438 0.37934,0.63007 0.62037,0.63007 0.24744,0 0.30126,-0.0594 0.30196,-0.33346 0.001,-0.32616 -0.32252,-2.85503 -0.43414,-3.39526 -0.0664,-0.32124 -0.41237,-0.35995 -0.82145,-0.0919 -0.23895,0.15656 -0.35678,0.15872 -0.87486,0.016 -0.32931,-0.0907 -0.92395,-0.25399 -1.32145,-0.36282 -0.93545,-0.25613 -2.92456,-0.26108 -3.88998,-0.01 -1.38173,0.3598 -2.5007,1.22271 -3.07447,2.37093 -0.46563,0.93181 -0.57335,1.78854 -0.33813,2.6893 0.47522,1.81983 1.62239,2.9282 5.7377,5.54366 1.85679,1.18007 3.08102,2.36116 3.37528,3.25633 0.66153,2.01243 -0.80551,3.90029 -3.27083,4.20908 -1.38254,0.17317 -2.932,-0.40812 -3.94612,-1.4804 -0.58889,-0.62267 -1.3279,-1.94563 -1.32809,-2.37754 -7e-5,-0.16166 -0.10118,-0.2122 -0.42451,-0.2122 -0.23342,0 -0.4244,0.0179 -0.4244,0.0398 0,0.23243 0.63555,4.51727 0.68092,4.59066 0.0956,0.15472 0.35935,0.11665 0.75166,-0.10851 0.34691,-0.1991 0.41194,-0.19452 1.67715,0.11813 1.78049,0.43998 1.66983,0.42286 2.83682,0.43871 0.57839,0.008 1.3546,-0.0674 1.75826,-0.17044 z m -9.37292,-0.23913 c 0.0707,-0.36988 -0.0686,-0.48986 -0.69645,-0.59958 -0.819,-0.14313 -1.73524,-0.63461 -2.33938,-1.25485 -0.63128,-0.64813 -5.41602,-6.68532 -5.34436,-6.74331 0.0244,-0.0198 0.34084,-0.19434 0.70317,-0.38796 0.95657,-0.51118 1.77199,-1.3608 2.22607,-2.31944 0.35586,-0.75127 0.38852,-0.92013 0.3816,-1.97353 -0.0101,-1.52848 -0.3062,-2.30351 -1.24759,-3.26468 -0.76934,-0.78551 -1.95066,-1.41465 -3.35271,-1.78556 -0.73995,-0.19575 -1.33095,-0.22427 -4.60786,-0.22239 -2.06747,0.001 -4.29107,0.0472 -4.94132,0.10226 l -1.18228,0.10011 v 0.35246 c 0,0.33827 0.0232,0.35285 0.57598,0.36222 0.9105,0.0154 1.6129,0.25064 1.89848,0.63574 0.25111,0.33863 0.25388,0.42246 0.25388,7.69998 0,8.07233 0.015,7.90034 -0.72182,8.25351 -0.19571,0.0938 -0.72724,0.19712 -1.18118,0.2296 -0.81387,0.0582 -0.82534,0.0639 -0.82534,0.40654 v 0.34748 h 4.24408 4.24408 v -0.34645 c 0,-0.34566 -0.002,-0.3466 -0.93976,-0.41192 -1.9715,-0.13735 -2.01926,-0.2298 -2.06938,-4.00525 l -0.0383,-2.88411 0.76584,0.0723 c 0.42121,0.0398 1.25694,0.0195 1.85717,-0.0451 0.77067,-0.0829 1.13857,-0.0785 1.25209,0.015 0.0884,0.0728 0.91399,1.0908 1.83461,2.26224 4.01675,5.11112 4.78053,5.64089 8.20661,5.69226 0.96001,0.0144 0.98779,0.007 1.04405,-0.2876 z m -14.91554,-13.1271 0.0317,-4.6988 1.39448,0.01 c 3.80208,0.0265 5.45667,1.43914 5.45667,4.65877 0,3.25596 -1.73832,4.72077 -5.60966,4.72702 l -1.30497,0.002 0.0317,-4.69881 z m -63.205051,4.78642 c 0,-9.47335 -0.04823,-8.93498 0.822076,-9.17668 0.248132,-0.0689 0.764907,-0.1256 1.14839,-0.12597 l 0.697241,-6.8e-4 v -0.42441 -0.42441 H 51.07446 47.489625 l 0.038,0.3941 c 0.03281,0.34025 0.08769,0.39829 0.401777,0.42483 1.430189,0.12088 1.665847,0.18034 2.040223,0.51477 l 0.384965,0.34388 0.02824,6.2852 0.02824,6.2852 -0.998313,-1.05809 c -0.549071,-0.58195 -3.617515,-3.78705 -6.818764,-7.12244 l -5.820452,-6.06434 -2.394874,-0.002 -2.394873,-0.002 v 0.40757 0.40757 l 0.699822,0.0634 c 0.384901,0.0349 0.916927,0.16568 1.182279,0.29062 l 0.482457,0.22716 0.03122,7.66579 0.03122,7.66579 -0.336602,0.37673 c -0.283134,0.31688 -0.475893,0.39865 -1.213497,0.5148 l -0.876896,0.13807 v 0.39943 0.39943 l 3.486208,-0.0322 3.486208,-0.0322 0.038,-0.39409 c 0.03704,-0.38416 0.026,-0.39409 -0.438172,-0.39409 -0.8497,0 -1.768803,-0.23434 -2.059583,-0.52512 -0.462763,-0.46276 -0.51932,-1.39903 -0.483707,-8.00756 l 0.03324,-6.16813 3.577153,3.74261 c 12.050843,12.60823 11.372817,11.92827 11.894441,11.92827 h 0.47402 z m 13.922202,7.94582 c 0.03553,-0.36854 0.01346,-0.39409 -0.340397,-0.39409 -0.653586,0 -1.424911,-0.25458 -1.718724,-0.56726 l -0.282806,-0.30098 -0.03305,-7.39333 c -0.03727,-8.33669 -0.06646,-8.04227 0.833036,-8.40217 0.262983,-0.10523 0.722596,-0.19132 1.021363,-0.19132 0.540407,0 0.543213,-0.002 0.543213,-0.42619 v -0.42618 l -3.668097,0.0321 -3.668098,0.0321 v 0.36211 c 0,0.34495 0.03056,0.36651 0.644967,0.45493 0.822434,0.11836 1.060451,0.25004 1.324244,0.73261 0.196948,0.3603 0.213459,0.94389 0.213459,7.54481 0,7.78491 -0.0097,7.90575 -0.658064,8.24106 -0.184094,0.0952 -0.616083,0.21041 -0.959976,0.25603 -0.583484,0.0774 -0.625259,0.10553 -0.625259,0.42099 0,0.18593 0.06821,0.36437 0.151574,0.39653 0.08337,0.0322 1.73401,0.0504 3.668097,0.0404 l 3.516524,-0.0181 z m 90.336929,0.0179 0.0367,-0.37616 -0.73696,-0.077 c -0.40531,-0.0424 -0.88756,-0.15492 -1.07164,-0.25011 -0.70613,-0.36516 -0.68992,-0.1727 -0.68992,-8.19035 0,-6.7991 0.016,-7.37788 0.21221,-7.6773 0.29238,-0.44619 0.63578,-0.60495 1.48542,-0.68674 0.71199,-0.0685 0.72756,-0.0778 0.72756,-0.43382 v -0.36378 l -3.6681,-0.0321 -3.6681,-0.0321 v 0.40929 c 0,0.4032 0.009,0.41042 0.63489,0.48449 0.76168,0.0902 1.19412,0.38279 1.38937,0.94002 0.17623,0.50296 0.2155,13.96559 0.0429,14.70965 -0.15436,0.66545 -0.45129,0.90628 -1.31554,1.06701 -0.69764,0.12974 -0.75162,0.16291 -0.75162,0.46194 0,0.17719 0.0372,0.35934 0.0826,0.40477 0.0454,0.0454 1.69608,0.0682 3.6681,0.0505 l 3.58548,-0.0321 z m 17.46146,-10e-4 0.0368,-0.37757 -1.21163,-0.0583 c -0.86775,-0.0418 -1.30264,-0.11798 -1.53232,-0.26848 -0.66778,-0.43754 -0.66422,-0.39165 -0.66422,-8.55426 v -7.52198 h 2.77261 c 2.65416,0 2.7868,0.0111 3.10431,0.26091 0.37824,0.29752 0.68791,0.95453 0.9058,1.92176 0.24973,1.10856 0.23991,1.09133 0.62228,1.09133 0.19558,0 0.3556,-0.0433 0.3556,-0.0962 0,-0.30302 -0.49152,-4.80108 -0.5287,-4.83825 -0.17093,-0.17093 -0.63884,-0.12237 -0.83344,0.0865 -0.21829,0.23431 -0.4052,0.24009 -7.7578,0.24009 -7.00522,0 -7.55058,-0.0149 -7.76856,-0.2122 -0.3321,-0.30061 -0.81012,-0.28714 -0.87383,0.0246 -0.0716,0.35042 -0.42658,4.06585 -0.42658,4.46489 0,0.28201 0.0504,0.33054 0.34313,0.33054 0.32974,0 0.35102,-0.0366 0.54544,-0.93976 0.25524,-1.18558 0.62112,-1.92976 1.06052,-2.15698 0.27104,-0.14016 0.9159,-0.17726 3.08066,-0.17726 h 2.73785 l -0.0338,7.60903 c -0.0304,6.84843 -0.0541,7.64606 -0.23691,7.97951 -0.28809,0.52549 -0.72869,0.69091 -2.00988,0.75463 l -1.12165,0.0558 v 0.41136 0.41137 l 4.6988,-0.0317 4.69881,-0.0317 0.0368,-0.37757 z m 20.37146,0.002 0.0366,-0.37598 -0.8672,-0.0727 c -0.93002,-0.078 -1.3209,-0.26119 -1.65991,-0.77807 -0.18406,-0.28063 -0.2195,-0.6912 -0.25413,-2.94347 l -0.0402,-2.61735 2.62339,-4.42135 c 1.53395,-2.58526 2.83125,-4.63394 3.12392,-4.93326 0.60508,-0.61885 1.13056,-0.88581 2.09378,-1.06369 0.6944,-0.12824 0.72756,-0.15066 0.72756,-0.49198 v -0.35761 l -3.42558,-0.0322 -3.42558,-0.0322 v 0.42629 c 0,0.42224 0.005,0.4263 0.52758,0.4263 1.08372,0 1.53144,0.35374 1.35401,1.06977 -0.0443,0.17859 -1.04504,1.97234 -2.22394,3.98611 -1.62075,2.76851 -2.17686,3.62607 -2.28039,3.51652 -0.33522,-0.35466 -4.79836,-7.38544 -4.88908,-7.70175 -0.0557,-0.19422 -0.0651,-0.4116 -0.021,-0.48305 0.13503,-0.2185 0.72683,-0.3876 1.35647,-0.3876 h 0.5984 v -0.42441 -0.42441 h -4.00156 -4.00156 v 0.42441 c 0,0.41094 0.0147,0.42441 0.46303,0.42441 0.84023,0 1.70326,0.3408 2.24662,0.88716 0.58206,0.58527 0.6356,0.66443 3.98668,5.89432 l 2.51938,3.93189 v 2.40781 c 0,2.72181 -0.0814,3.09607 -0.74831,3.44223 -0.2245,0.11652 -0.79383,0.2348 -1.28278,0.26652 -0.86035,0.0558 -0.87913,0.064 -0.87913,0.38464 0,0.18019 0.0371,0.36472 0.0824,0.41005 0.0453,0.0453 1.91424,0.0681 4.15314,0.0505 l 4.0707,-0.0319 0.0366,-0.37597 z m -88.3213,0.0425 c 0.0812,-0.38536 0.43221,-3.66779 0.43221,-4.04128 0,-0.26404 -0.0475,-0.30418 -0.32152,-0.27148 -0.28332,0.0338 -0.37628,0.17524 -0.78238,1.19033 -0.5543,1.38554 -0.98767,1.84851 -1.91692,2.04779 -0.83758,0.17963 -5.790649,0.17864 -6.306719,-0.001 -0.22636,-0.0789 -0.43787,-0.26063 -0.50313,-0.4323 -0.0619,-0.16289 -0.1126,-1.82048 -0.1126,-3.68353 v -3.38737 h 2.6716 c 3.155329,0 3.380819,0.0532 3.672019,0.86678 0.10388,0.29023 0.22212,0.73233 0.26276,0.98242 0.066,0.40619 0.11211,0.45473 0.43216,0.45473 h 0.35828 v -2.91023 -2.91023 h -0.348 c -0.32959,0 -0.35578,0.0395 -0.49492,0.74677 -0.10494,0.53339 -0.24537,0.84522 -0.49149,1.09133 l -0.34457,0.34457 h -2.858919 -2.85892 v -3.45589 -3.45589 h 3.31828 c 3.184589,0 3.331289,0.0102 3.641159,0.25398 0.42917,0.33758 0.78959,1.06895 0.97369,1.97583 0.14482,0.71333 0.16537,0.74251 0.54969,0.78016 l 0.39925,0.0391 -0.0719,-0.76667 c -0.0396,-0.42168 -0.10745,-1.40784 -0.15088,-2.19148 l -0.0789,-1.4248 h -7.139769 -7.139766 v 0.42441 0.42441 h 0.85271 c 1.105338,0 1.648218,0.22522 1.879991,0.77993 0.275379,0.65907 0.263934,14.70748 -0.01242,15.24189 -0.263053,0.50869 -0.879947,0.7341 -2.204931,0.80568 l -1.121649,0.0606 v 0.34726 0.34725 h 7.879555 7.879549 z M 57.774258,86.548564 c 3.101227,-0.632855 5.719273,-1.974473 7.878275,-4.037223 2.394413,-2.287666 3.917686,-5.127526 4.47565,-8.344023 0.272578,-1.571327 0.187942,-4.513654 -0.167901,-5.836983 -1.205229,-4.482076 -4.793032,-8.108007 -9.621198,-9.72344 -4.401397,-1.472644 -9.79518,-1.121146 -13.824898,0.90093 -2.839748,1.424961 -5.268179,3.802553 -6.617767,6.479223 -1.057206,2.096784 -1.531881,4.192913 -1.537735,6.790528 -0.0043,1.903255 0.09627,2.596702 0.614107,4.234726 1.175991,3.719908 4.378413,6.952326 8.47157,8.550917 1.709324,0.66758 2.69283,0.901915 5.335414,1.271241 0.880044,0.122995 3.813679,-0.04493 4.994483,-0.285896 z M 53.749851,85.44024 c -4.132224,-0.565251 -7.53184,-3.068967 -9.5103,-7.004054 -1.659908,-3.301499 -1.957128,-8.035816 -0.733735,-11.687402 1.308121,-3.904481 3.867788,-6.483992 7.306844,-7.363495 4.007728,-1.024933 8.45572,0.251803 11.34477,3.256361 3.472341,3.611171 4.691427,9.71252 3.042809,15.228822 -0.889676,2.976872 -3.090279,5.668246 -5.529801,6.763039 -1.656219,0.743265 -4.024985,1.06603 -5.920587,0.806729 z m 34.073897,1.105962 c 0.533541,-0.135191 1.488459,-0.499528 2.12204,-0.809639 0.952605,-0.46626 1.319878,-0.734028 2.122232,-1.547257 1.484768,-1.504894 2.121847,-3.001621 2.121847,-4.984981 0,-1.900947 -0.671103,-3.466459 -2.168221,-5.057905 -1.236256,-1.314146 -2.398327,-2.196726 -5.469119,-4.153728 -1.43279,-0.913111 -2.946059,-1.903524 -3.36282,-2.200918 -1.121353,-0.800182 -2.225828,-1.961846 -2.703982,-2.843994 -0.393548,-0.726063 -0.42258,-0.854598 -0.42258,-1.870958 0,-0.954482 0.04336,-1.179633 0.345756,-1.795473 0.667834,-1.360056 2.074716,-2.131009 4.080296,-2.235949 2.972922,-0.155557 5.631085,1.507388 7.074041,4.425515 0.361061,0.730182 0.391523,0.757872 0.833764,0.757872 0.252456,0 0.459012,-0.03722 0.459012,-0.08271 0,-0.209894 -0.740072,-5.573506 -0.787512,-5.707428 -0.08023,-0.226496 -0.559183,-0.181626 -0.97075,0.09094 -0.506639,0.335535 -0.932578,0.305103 -2.468085,-0.176329 -1.69768,-0.532278 -3.132509,-0.725299 -4.686221,-0.630415 -1.562427,0.09542 -2.555216,0.339496 -3.759042,0.924174 -3.471548,1.68607 -4.703049,5.326876 -2.931262,8.665971 0.472713,0.89087 2.009949,2.531696 3.271743,3.492219 0.522417,0.397682 2.106499,1.470518 3.520183,2.384079 1.413683,0.913562 2.896778,1.899711 3.295766,2.191443 1.221097,0.89284 2.403505,2.175829 2.860192,3.103492 0.376091,0.763949 0.411636,0.93084 0.411084,1.930141 -4.85e-4,0.978472 -0.0416,1.180566 -0.389155,1.915449 -1.379028,2.915851 -5.47726,3.982744 -8.886586,2.313444 -0.664685,-0.325448 -1.156444,-0.693012 -1.827201,-1.365741 -1.030851,-1.033877 -1.529649,-1.832458 -1.976096,-3.16375 L 77.22809,79.20432 76.735781,79.16703 c -0.446553,-0.03382 -0.492308,-0.01079 -0.492308,0.247818 0,0.156808 0.190984,1.664054 0.424408,3.349436 0.233424,1.685382 0.424408,3.142658 0.424408,3.23839 0,0.267706 0.812061,0.220574 1.179506,-0.06846 0.408455,-0.321291 0.525394,-0.31251 2.381929,0.178861 0.87565,0.231758 2.028624,0.503544 2.562166,0.603969 1.255083,0.236234 3.300577,0.160391 4.607858,-0.170851 z m 60.898312,0.0014 c 7.03826,-1.434306 11.96047,-6.843738 12.51733,-13.756345 0.40155,-4.984628 -1.77504,-9.41681 -6.00855,-12.235173 -2.65987,-1.770744 -5.54002,-2.690063 -8.89942,-2.840621 -7.83055,-0.350939 -14.46465,3.972196 -16.43341,10.708893 -0.35626,1.219077 -0.65862,3.237837 -0.66109,4.41389 -0.003,1.186572 0.31173,3.031055 0.72926,4.28088 1.73862,5.204244 6.87899,8.920154 13.37642,9.669653 1.37358,0.158446 3.99523,0.04091 5.37946,-0.241177 z m -4.02765,-1.107304 c -2.46428,-0.335052 -4.80583,-1.437961 -6.60911,-3.112998 -2.84545,-2.643085 -4.36298,-6.367286 -4.36438,-10.710594 -0.002,-5.178991 2.3522,-9.620142 6.09387,-11.497633 1.59946,-0.80258 2.6168,-1.020137 4.75837,-1.01757 1.57378,0.0019 1.9823,0.04528 3.03148,0.322047 3.45329,0.910932 6.08078,3.110706 7.69488,6.44228 1.11438,2.300107 1.57938,4.392174 1.58075,7.111941 0.003,5.284738 -2.38111,9.792164 -6.12288,11.577549 -1.67346,0.798486 -4.09714,1.152258 -6.06298,0.884978 z m 51.13902,-11.80501 c 0.0323,-12.822795 0.0341,-12.907461 0.2828,-13.247591 0.39909,-0.545715 1.03118,-0.787982 2.21342,-0.848365 1.62665,-0.08308 1.61846,-0.07954 1.57489,-0.680245 l -0.0371,-0.51134 h -5.27478 -5.27479 l -0.0371,0.511341 c -0.0433,0.596484 -0.0642,0.58713 1.54492,0.691442 1.13514,0.07359 1.96094,0.398642 2.33538,0.919257 0.42894,0.596411 0.46377,1.446291 0.43199,10.543447 l -0.0311,8.903704 -9.92677,-10.360187 C 178.17547,63.858606 173.49759,58.991057 173.2399,58.739934 l -0.46853,-0.456586 -3.48892,0.03218 -3.4889,0.03218 -0.0387,0.472695 c -0.0458,0.558864 0.0868,0.674824 0.77457,0.677413 0.60199,0.0023 1.61219,0.292218 2.38956,0.685868 l 0.57898,0.293185 -0.0333,11.36451 -0.0333,11.36451 -0.27879,0.565938 c -0.15333,0.311266 -0.41109,0.652629 -0.57281,0.758585 -0.42525,0.27864 -1.58379,0.554998 -2.32663,0.554998 h -0.64145 v 0.545667 0.545668 h 5.27479 5.27478 v -0.545671 -0.545667 h -0.74794 c -1.07376,0 -2.22295,-0.226589 -2.67836,-0.528102 -0.21635,-0.143239 -0.52978,-0.53319 -0.69652,-0.866557 l -0.30314,-0.606121 -0.028,-10.246421 -0.028,-10.246421 1.05875,1.121072 c 0.58231,0.61659 5.72419,6.002705 11.42642,11.969145 l 10.36768,10.848074 0.63446,0.0052 0.63446,0.0052 0.0325,-12.905272 z M 25.860184,85.841472 c 0.533542,-0.147745 1.486101,-0.522694 2.116799,-0.833219 2.767579,-1.362625 4.491839,-4.20654 4.491839,-7.408633 0,-3.111442 -2.016119,-5.718698 -5.457479,-7.057636 l -0.860022,-0.334611 0.763877,-0.277676 c 2.755817,-1.001764 4.346708,-3.452226 3.970506,-6.115804 -0.331495,-2.347051 -2.227901,-4.335542 -4.843631,-5.078824 -2.967417,-0.843215 -6.067586,-0.950877 -15.73341,-0.546384 l -3.4255785,0.143353 v 0.504992 0.504993 l 1.426138,0.0806 c 1.7582135,0.09936 2.2732905,0.235703 2.7710725,0.733485 0.729731,0.729731 0.713796,0.460158 0.713796,12.075804 0,11.639911 0.01605,11.371858 -0.722422,12.068324 -0.548228,0.517045 -1.2083035,0.684684 -3.0366205,0.771205 l -1.576372,0.0746 -0.03753,0.52034 -0.03753,0.52034 9.2532475,-0.03831 c 9.120628,-0.03776 9.26715,-0.04216 10.223322,-0.306936 z m -7.291503,-1.29283 C 17.349249,84.270319 16.677303,83.799007 16.218908,82.90048 15.799587,82.078542 15.735023,81.16173 15.735023,76.02931 v -5.009996 l 3.00117,0.0021 c 2.167218,0.0015 3.237036,0.05163 3.849987,0.180318 2.749638,0.577293 4.940216,2.787483 5.404349,5.452734 0.406057,2.331748 -0.458345,5.126472 -1.991551,6.438947 -0.599159,0.512899 -1.716714,1.0813 -2.63011,1.337703 -0.94172,0.264354 -3.845394,0.335444 -4.800187,0.117521 z M 15.735023,64.562084 v -5.398282 l 2.152354,-0.08593 c 3.726929,-0.148785 5.70601,0.323684 7.196743,1.718091 0.703112,0.657679 1.112544,1.325324 1.36249,2.221763 0.291468,1.045353 0.348283,1.809356 0.20278,2.7268 -0.258211,1.628113 -0.933662,2.658593 -2.177018,3.321294 -1.177336,0.627514 -2.004858,0.750655 -5.55429,0.826514 l -3.18306,0.06803 z m 103.798067,21.06899 v -0.545667 h -1.32789 c -2.15355,0 -2.96863,-0.293106 -3.49653,-1.257354 -0.19153,-0.349827 -0.21046,-1.291666 -0.2411,-11.990238 l -0.0333,-11.610589 h 4.12966 c 3.21352,0 4.21747,0.03669 4.52551,0.165401 0.83035,0.346942 1.34548,1.337115 1.82204,3.502251 l 0.26013,1.181836 0.52278,4.85e-4 0.52278,4.85e-4 -0.069,-0.515353 c -0.0622,-0.464947 -0.67345,-6.648621 -0.67345,-6.813073 0,-0.03766 -0.21578,-0.06848 -0.47952,-0.06848 -0.34983,0 -0.56153,0.082 -0.78268,0.303148 l -0.30315,0.303148 h -11.47004 -11.47004 l -0.30315,-0.303148 c -0.21524,-0.215247 -0.4346,-0.303148 -0.756499,-0.303148 h -0.45336 l -0.36324,3.698411 -0.36325,3.698413 h 0.51037 0.51036 l 0.13621,-0.697242 c 0.381459,-1.95277 0.974039,-3.358575 1.605589,-3.809029 0.39609,-0.282513 0.41196,-0.283594 4.6742,-0.318221 l 4.27675,-0.03474 -0.0327,11.675649 -0.0327,11.675648 -0.29225,0.470128 c -0.47226,0.759713 -1.08346,0.963208 -3.0727,1.023011 l -1.66732,0.05013 v 0.531907 0.531907 h 7.09368 7.09368 z"
       id="path1277" />
  </g>
</svg>
