<?xml version="1.0" encoding="UTF-8" standalone="no"?>
<!-- Created with Inkscape (http://www.inkscape.org/) -->

<svg
   width="165.00388mm"
   height="165.09856mm"
   viewBox="0 0 165.00388 165.09856"
   version="1.1"
   id="svg5"
   inkscape:version="1.1 (c68e22c387, 2021-05-23)"
   sodipodi:docname="BU Spark.svg"
   xmlns:inkscape="http://www.inkscape.org/namespaces/inkscape"
   xmlns:sodipodi="http://sodipodi.sourceforge.net/DTD/sodipodi-0.dtd"
   xmlns="http://www.w3.org/2000/svg"
   xmlns:svg="http://www.w3.org/2000/svg">
  <sodipodi:namedview
     id="namedview7"
     pagecolor="#505050"
     bordercolor="#eeeeee"
     borderopacity="1"
     inkscape:pageshadow="0"
     inkscape:pageopacity="0"
     inkscape:pagecheckerboard="0"
     inkscape:document-units="mm"
     showgrid="false"
     inkscape:zoom="0.74118967"
     inkscape:cx="301.54225"
     inkscape:cy="309.63734"
     inkscape:window-width="1920"
     inkscape:window-height="1017"
     inkscape:window-x="-8"
     inkscape:window-y="-8"
     inkscape:window-maximized="1"
     inkscape:current-layer="layer1" />
  <defs
     id="defs2" />
  <g
     inkscape:label="Layer 1"
     inkscape:groupmode="layer"
     id="layer1"
     transform="translate(-25.303348,-9.5860905)">
    <path
       style="fill:#ffffff;fill-opacity:1;stroke-width:0.264583"
       d="M 103.30737,174.62536 C 85.25294,173.26675 70.620897,167.75885 56.843826,157.13522 52.973972,154.15114 45.752706,146.92987 42.768624,143.06001 33.05688,130.46551 27.602419,117.03572 25.616972,100.8298 c -0.418165,-3.413208 -0.418165,-14.049282 0,-17.462494 C 27.602419,67.161387 33.05688,53.7316 42.768624,41.137095 45.752706,37.267241 52.973972,30.045975 56.843826,27.061893 69.438331,17.350149 82.868118,11.895688 99.074037,9.9102415 c 1.455213,-0.178283 5.384273,-0.324151 8.731253,-0.324151 8.00426,0 13.66151,0.7040195 20.90208,2.6011675 14.52623,3.806112 26.68346,10.808947 37.44187,21.567352 13.65022,13.650223 21.41877,29.814159 23.84436,49.612696 0.41817,3.413212 0.41817,14.049286 0,17.462494 -1.98544,16.20592 -7.4399,29.63571 -17.15165,42.23021 -2.98408,3.86986 -10.20535,11.09113 -14.0752,14.07521 -12.34407,9.51863 -25.83841,15.09048 -41.13815,16.98605 -3.17721,0.39364 -11.76977,0.69609 -14.32123,0.50409 z M 83.094982,168.2823 c 0.252955,-0.71866 0.469146,-1.43375 0.480425,-1.58908 0.01127,-0.15532 -0.664104,-0.49784 -1.500849,-0.76115 -6.317564,-1.98802 -15.728507,-7.26196 -22.291145,-12.49205 -3.045201,-2.42688 -8.670876,-8.09506 -11.298782,-11.38416 C 30.396241,119.41632 26.583187,89.089357 38.489757,62.562042 48.743036,39.718188 70.262794,23.181305 95.237579,18.954108 c 8.905331,-1.507304 18.971451,-1.358219 27.642041,0.409396 2.01044,0.409855 7.97406,1.984235 8.90664,2.35133 0.34384,0.135346 0.54548,-0.162457 0.97877,-1.445492 l 0.54572,-1.615958 -0.71419,-0.272421 c -2.77352,-1.057937 -9.48521,-2.626299 -14.20794,-3.32006 -4.01981,-0.590503 -16.12446,-0.669889 -19.976041,-0.131009 -11.091315,1.551803 -20.427473,4.628334 -29.570354,9.744274 -19.74243,11.046967 -33.834703,30.015327 -38.789303,52.210847 -4.753476,21.294527 -0.602881,43.338995 11.607247,61.647915 2.99971,4.49802 5.179857,7.16948 9.250188,11.33477 8.503666,8.70206 17.309621,14.47212 28.981389,18.98993 1.236927,0.47878 2.360189,0.8392 2.496137,0.80093 0.135951,-0.0383 0.454144,-0.65759 0.707099,-1.37626 z m 35.161348,-6.71964 c 23.57652,-3.74092 43.08335,-18.97455 52.5155,-41.01138 l 0.91026,-2.12668 h -1.78414 -1.78415 l -1.40146,3.01165 c -7.44636,16.00178 -21.46245,28.62155 -37.89437,34.11921 -5.52615,1.8489 -11.08878,2.96246 -16.27942,3.25892 l -3.01347,0.17211 V 138.70554 118.4246 h -1.5875 -1.5875 v 22.00182 22.00181 l 4.29948,-0.1704 c 2.36471,-0.0937 5.78776,-0.40654 7.60677,-0.69517 z m 46.50577,-11.91723 c 6.93675,-6.88606 13.42681,-16.94063 17.22329,-26.68278 2.499,-6.41267 4.37643,-14.27183 5.05686,-21.16869 0.66164,-6.706298 0.21451,-16.170004 -1.08303,-22.92316 -3.27816,-17.061474 -12.71447,-33.514786 -25.60958,-44.653334 l -2.80269,-2.420904 -0.077,2.02341 -0.077,2.02341 3.92556,3.918213 c 2.15907,2.155015 4.87262,5.107437 6.03012,6.560936 7.44635,9.350513 12.88264,20.914638 15.17589,32.282275 3.79918,18.832566 0.58737,38.032284 -9.08798,54.326594 -3.02039,5.08666 -5.64531,8.53983 -10.53316,13.85669 l -2.60275,2.83121 0.18275,2.01678 0.18276,2.01677 1.44827,-1.4084 c 0.79655,-0.77462 1.988,-1.94418 2.64767,-2.59902 z m -75.768309,3.07065 c 1.390443,-0.58096 1.745871,-1.31382 1.745871,-3.59982 0,-2.21084 -0.312256,-2.91242 -1.590421,-3.57338 -1.357788,-0.70215 -3.140993,-0.42645 -4.219847,0.6524 -0.461714,0.46171 -0.539732,0.87727 -0.539732,2.87486 0,2.08548 0.06365,2.39277 0.595313,2.87428 1.334672,1.20877 2.449216,1.42331 4.008816,0.77166 z m -2.377094,-1.84175 c -0.07568,-0.19723 -0.101711,-1.11996 -0.05784,-2.05052 l 0.07976,-1.69192 h 0.926041 0.926042 l 0.08178,1.44106 c 0.122468,2.15814 -0.07019,2.65998 -1.021164,2.65998 -0.438357,0 -0.858936,-0.16137 -0.934619,-0.3586 z m 12.525452,1.68776 c 1.411721,-0.64079 1.725131,-1.40003 1.603891,-3.88545 -0.10671,-2.18771 -0.51728,-2.83094 -2.111952,-3.30871 -1.308089,-0.39191 -2.887139,0.0464 -3.646898,1.01226 -0.441661,0.56147 -0.543361,1.07359 -0.543361,2.73607 0,2.34383 0.480063,3.25614 1.934874,3.67705 1.234144,0.35707 1.520092,0.33315 2.763446,-0.23122 z m -2.258198,-1.47646 c -0.492498,-0.34495 -0.588039,-0.6607 -0.588039,-1.94337 0,-1.14766 0.121264,-1.64123 0.483854,-1.96937 1.190041,-1.07697 1.897396,-0.33622 1.897396,1.98698 0,1.49879 -0.08322,1.8344 -0.511773,2.06375 -0.643329,0.3443 -0.583716,0.35072 -1.281438,-0.13799 z m 19.784879,-1.96937 v -3.96875 h -1.3078 -1.30779 v 3.96875 3.96875 h 1.30779 1.3078 z m 8.83746,3.59982 c 1.39958,-0.58478 1.74587,-1.30966 1.74587,-3.65452 0,-1.89517 -0.0596,-2.12028 -0.77204,-2.91769 -0.71369,-0.79875 -0.89533,-0.86407 -2.40296,-0.86407 -1.50762,0 -1.68927,0.0653 -2.40295,0.86407 -0.71248,0.79741 -0.77205,1.02252 -0.77205,2.91769 0,2.31784 0.34285,3.058 1.6876,3.64327 1.06743,0.46457 1.8246,0.46749 2.91653,0.0113 z m -2.37061,-1.82485 c -0.0793,-0.20652 -0.10819,-1.13686 -0.0643,-2.06742 l 0.0798,-1.69192 h 0.92604 0.92605 v 1.98437 1.98438 l -0.86172,0.083 c -0.56085,0.054 -0.91202,-0.0481 -1.00581,-0.29245 z m 10.99565,-3.15061 v -2.59311 h -1.19062 -1.19063 v 3.17156 3.17156 l 1.19063,-0.57845 1.19062,-0.57845 z m -54.107292,-0.21186 v -2.38125 h -1.256771 -1.256771 v 1.71472 1.71472 l 1.256771,0.65421 c 0.691224,0.35982 1.256771,0.65976 1.256771,0.66653 0,0.007 0,-1.05924 0,-2.36893 z m 60.662152,-0.75538 c 1.92211,-1.2586 2.12892,-1.62587 0.91551,-1.62587 -1.13358,0 -2.48362,0.82565 -2.87271,1.75689 -0.63391,1.51715 -0.55144,1.51163 1.9572,-0.13102 z m -67.938194,-9.56337 v -3.96875 h -1.322917 -1.322916 v 3.96875 3.96875 h 1.322916 1.322917 z m 7.196637,5.3e-4 -0.0794,-3.96915 H 78.687867 77.5105 v 3.96875 3.96875 l 1.256771,5.3e-4 1.256771,2.7e-4 -0.0794,-3.96915 z m 9.211657,3.47714 c 1.220785,-0.65047 1.574776,-1.41797 1.579472,-3.42453 0.0059,-2.51155 -0.42102,-3.11487 -2.736413,-3.86723 -0.79656,-0.25884 -2.480355,0.33321 -3.066333,1.07816 -0.440431,0.55978 -0.543354,1.07366 -0.543354,2.71274 0,2.28402 0.347962,3.02872 1.687592,3.61176 1.140145,0.49621 1.997366,0.4653 3.079036,-0.11104 z m -2.49877,-1.51206 c -0.284104,-0.28424 -0.415774,-0.91073 -0.415774,-1.97841 0,-1.36322 0.0821,-1.61629 0.643715,-1.98428 0.500737,-0.3281 0.765194,-0.35677 1.190625,-0.12908 0.470083,0.25158 0.54691,0.54413 0.54691,2.08255 0,1.03934 -0.133133,1.92299 -0.3175,2.10736 -0.439439,0.43944 -1.152803,0.3969 -1.647976,-0.0983 z m 12.545128,1.53984 c 0.507299,-0.25443 1.071092,-0.76026 1.252872,-1.12407 0.45438,-0.90936 0.42601,-3.82542 -0.0461,-4.73837 -0.831981,-1.60887 -3.69644,-1.93154 -5.143872,-0.57943 -0.784727,0.73291 -0.821732,0.86132 -0.821732,2.85141 0,2.3504 0.338021,3.08621 1.687592,3.67358 1.123333,0.4889 1.976577,0.46577 3.071227,-0.0833 z m -2.482945,-1.62349 c -0.662749,-0.73233 -0.498678,-3.40839 0.237668,-3.8764 0.349477,-0.22213 0.731316,-0.25794 1.124479,-0.10545 0.536744,0.20817 0.595312,0.40874 0.595312,2.03858 0,1.05321 -0.132516,1.94021 -0.3175,2.12519 -0.462402,0.46241 -1.123188,0.3891 -1.639959,-0.18192 z m 19.949127,-1.89646 v -3.98324 l -1.25677,0.0806 -1.25677,0.0806 -0.0732,3.90261 -0.0732,3.9026 h 1.32999 1.32999 z m 8.85146,3.60848 c 1.46009,-0.61007 1.80351,-1.39835 1.69076,-3.88104 -0.0845,-1.86014 -0.17916,-2.21219 -0.7108,-2.64268 -0.96853,-0.78427 -2.37623,-1.07429 -3.53265,-0.72782 -1.5876,0.47566 -1.91822,1.03413 -2.02673,3.42339 -0.10891,2.39845 0.23846,3.20943 1.63491,3.81686 1.08475,0.47184 1.83536,0.47472 2.94451,0.0113 z m -2.21535,-1.58366 c -0.16931,-0.20401 -0.34575,-1.05419 -0.39208,-1.88927 -0.0667,-1.20308 0.0179,-1.6205 0.40774,-2.01032 0.58035,-0.58035 0.76948,-0.60261 1.37003,-0.16125 0.57199,0.42036 0.71593,3.38948 0.19477,4.01744 -0.42684,0.51431 -1.17264,0.53479 -1.58046,0.0434 z m 10.82639,-2.01032 v -3.96875 h -1.19062 -1.19063 v 3.96875 3.96875 h 1.19063 1.19062 z m 8.64788,3.68654 c 1.62485,-0.61564 1.93545,-1.19105 1.93545,-3.58561 0,-1.88827 -0.0816,-2.28264 -0.59531,-2.87815 -1.15626,-1.3403 -3.69789,-1.34536 -4.95253,-0.01 -0.7875,0.83825 -1.04008,3.55755 -0.45951,4.94707 0.61404,1.46958 2.42769,2.14952 4.0719,1.52655 z m -1.98038,-1.62279 c -0.18437,-0.18437 -0.3175,-1.06802 -0.3175,-2.10736 0,-1.53842 0.0768,-1.83097 0.54691,-2.08255 0.42543,-0.22769 0.68989,-0.19902 1.19062,0.12908 0.56162,0.36799 0.64372,0.62106 0.64372,1.98428 0,1.06768 -0.13167,1.69417 -0.41577,1.97828 -0.49518,0.49517 -1.20854,0.53771 -1.64798,0.0983 z m 10.795,-3.57405 v -2.45845 h -1.19063 -1.19062 v 3.62697 3.62696 l 1.19062,-1.16851 1.19063,-1.16851 z m -85.989584,1.55642 c 0,-2.10609 -0.06072,-2.39217 -0.61909,-2.91673 -1.190641,-1.11855 -2.944284,-1.27224 -4.366848,-0.38272 l -0.620313,0.38788 0.575265,0.61234 c 0.516896,0.55021 0.643578,0.5769 1.248545,0.26304 1.252226,-0.64967 1.920219,-0.0563 1.926307,1.71101 0.0031,0.91253 0.163401,1.34247 0.71501,1.91823 0.391028,0.40815 0.807747,0.74208 0.926042,0.74208 0.118295,0 0.215082,-1.05081 0.215082,-2.33513 z m -5.086633,-8.5139 c 1.135594,-0.69237 1.449176,-1.58936 1.328529,-3.80019 -0.09033,-1.65527 -0.175115,-1.88481 -0.952823,-2.57969 -0.674804,-0.60294 -1.105019,-0.76275 -2.053262,-0.76275 -1.348756,0 -2.610046,0.54683 -3.017552,1.30826 -0.149833,0.27997 -0.272425,1.44708 -0.272425,2.59359 0,1.93332 0.05279,2.13375 0.727604,2.76251 0.400182,0.37287 0.906198,0.74294 1.124479,0.82236 0.865613,0.31498 2.293067,0.15732 3.11545,-0.34409 z m -2.699676,-1.47299 c -0.282498,-0.2825 -0.415774,-0.90821 -0.415774,-1.95198 0,-1.73747 0.345869,-2.21609 1.505355,-2.08314 0.725289,0.0832 0.745543,0.12984 0.82238,1.89502 0.08291,1.90472 -0.176519,2.55587 -1.018317,2.55587 -0.26283,0 -0.66497,-0.1871 -0.893644,-0.41577 z m 12.284226,-1.83319 v -3.83645 h -1.322917 -1.322917 v 3.83645 3.83646 h 1.322917 1.322917 z m 10.315829,3.4411 c 1.270799,-0.65716 1.590421,-1.36585 1.590421,-3.52643 0,-1.8671 -0.03911,-1.99107 -0.899584,-2.85154 -0.765982,-0.76598 -1.082923,-0.89958 -2.13406,-0.89958 -2.488017,0 -3.302251,0.91855 -3.310472,3.73463 -0.0049,1.66322 0.09284,2.14034 0.559827,2.73402 0.960053,1.22051 2.735635,1.56298 4.193868,0.8089 z m -2.491722,-1.60791 c -0.475141,-0.47514 -0.558128,-2.35036 -0.15136,-3.42024 0.221895,-0.58363 0.402704,-0.68212 1.124479,-0.61254 l 0.860065,0.0829 0.07878,1.80975 c 0.08291,1.90472 -0.176519,2.55587 -1.018317,2.55587 -0.26283,0 -0.66497,-0.1871 -0.893644,-0.41577 z m 11.755059,-1.96548 v -3.96875 h -1.322917 -1.322916 v 3.96875 3.96875 h 1.322916 1.322917 z m 9.786662,3.57339 c 1.270799,-0.65716 1.590419,-1.36585 1.590419,-3.52643 0,-1.8671 -0.0391,-1.99107 -0.89958,-2.85154 -0.765091,-0.76509 -1.083507,-0.89958 -2.129807,-0.89958 -1.376381,0 -2.637758,0.54137 -3.048185,1.30826 -0.149834,0.27997 -0.272426,1.39377 -0.272426,2.47512 0,1.60779 0.103095,2.09715 0.565711,2.68527 0.960054,1.22051 2.735636,1.56298 4.193868,0.8089 z m -2.491721,-1.60791 c -0.475142,-0.47514 -0.558128,-2.35036 -0.15136,-3.42024 0.221895,-0.58363 0.402703,-0.68212 1.124479,-0.61254 l 0.860065,0.0829 0.07878,1.80975 c 0.08291,1.90472 -0.17652,2.55587 -1.018318,2.55587 -0.262829,0 -0.664969,-0.1871 -0.893643,-0.41577 z m 19.69256,-1.83319 v -3.83645 h -1.32292 -1.32291 v 3.83645 3.83646 h 1.32291 1.32292 z m 11.00667,2.93688 c 0.87676,-0.87676 0.89958,-0.95462 0.89958,-3.06885 0,-2.06642 -0.0374,-2.20422 -0.78932,-2.9066 -1.44658,-1.35131 -3.89047,-1.26236 -5.02737,0.18299 -0.43287,0.5503 -0.53331,1.07319 -0.53331,2.77637 0,1.15411 0.12206,2.32644 0.27124,2.60519 0.41872,0.7824 1.58473,1.28824 2.99636,1.29989 1.11359,0.009 1.40216,-0.10833 2.18282,-0.88899 z m -3.04941,-1.06098 c -0.18929,-0.22808 -0.27899,-1.07635 -0.23083,-2.18281 0.0723,-1.66077 0.12899,-1.81687 0.68865,-1.89621 1.04271,-0.14781 1.3745,0.38958 1.3745,2.22621 0,1.38829 -0.0884,1.72539 -0.51177,1.95198 -0.68321,0.36564 -0.9515,0.3455 -1.32055,-0.0992 z m 12.15107,-1.8759 v -3.83645 h -1.25677 -1.25677 v 3.83645 3.83646 h 1.25677 1.25677 z m 10.59061,3.38558 c 1.14851,-0.79158 1.29848,-1.18348 1.30723,-3.41604 0.007,-1.77335 -0.0862,-2.26738 -0.53494,-2.8379 -0.7254,-0.92219 -2.30721,-1.34044 -3.67579,-0.97192 -1.67315,0.45054 -2.13192,1.27306 -2.12497,3.80982 0.006,2.24685 0.27858,2.916 1.44932,3.55983 0.81664,0.44909 2.83668,0.36794 3.57915,-0.14379 z m -2.60019,-1.45412 c -0.18407,-0.18406 -0.3175,-1.06613 -0.3175,-2.09883 0,-1.54897 0.069,-1.80325 0.52917,-1.94929 0.29104,-0.0924 0.76729,-0.0924 1.05833,0 0.46014,0.14604 0.52917,0.40032 0.52917,1.94929 0,1.80848 -0.26624,2.41633 -1.05834,2.41633 -0.23283,0 -0.56621,-0.14287 -0.74083,-0.3175 z m 14.5496,0.87649 c 0.66293,-0.74195 0.74332,-1.02991 0.74332,-2.66261 0,-1.00687 -0.11395,-2.13038 -0.25322,-2.49669 -0.74983,-1.9722 -4.90766,-1.95339 -5.80966,0.0263 -0.3687,0.80922 -0.37252,3.92009 -0.006,4.60559 0.93554,1.74807 3.96636,2.04825 5.32522,0.52743 z m -3.17174,-0.78479 c -0.24326,-0.15431 -0.3203,-0.7887 -0.26459,-2.17876 l 0.0786,-1.96106 h 0.90701 c 0.78057,0 0.93889,0.11065 1.13574,0.79375 0.28747,0.99759 0.0449,3.0781 -0.39114,3.35503 -0.42465,0.26968 -1.03223,0.26596 -1.46562,-0.009 z m 16.7371,-12.7868 c 0.22392,-0.75402 0.40712,-1.4684 0.40712,-1.5875 0,-0.11911 -29.05125,-0.21656 -64.55833,-0.21656 H 44.172997 v 1.5875 1.5875 h 64.151213 64.1512 z M 54.368615,107.55259 c 3.024237,-0.55906 5.031536,-1.93742 6.18605,-4.24781 0.644761,-1.29028 0.815938,-1.97199 0.814772,-3.24484 -0.0024,-2.523308 -0.401842,-3.555558 -1.967241,-5.082708 -1.521915,-1.48473 -2.822451,-2.0763 -7.027116,-3.1964 -4.212396,-1.12216 -5.55625,-2.037205 -5.55625,-3.783318 0,-3.470275 5.827016,-3.923741 10.472195,-0.814964 l 0.814906,0.545373 1.235615,-1.808388 c 0.67959,-0.994611 1.235617,-1.874044 1.235617,-1.954289 0,-0.08025 -0.6038,-0.53336 -1.341779,-1.00692 -3.207626,-2.058328 -7.690882,-2.865638 -11.093637,-1.997659 -4.345084,1.10835 -6.75332,4.597545 -6.075689,8.802814 0.57486,3.567491 2.374967,4.903111 9.056975,6.719971 4.271374,1.1614 5.250081,1.81195 5.298555,3.521988 0.03407,1.20204 -0.441701,2.06489 -1.487554,2.69779 -0.662524,0.40093 -1.340397,0.50782 -3.220413,0.50782 -2.043559,0 -2.60105,-0.10296 -3.931188,-0.72605 -0.852466,-0.39933 -2.111926,-1.13859 -2.798801,-1.6428 L 43.73477,99.925452 42.366383,101.5632 c -0.752612,0.90076 -1.368386,1.76003 -1.368386,1.90949 0,0.35715 2.98291,2.3586 4.497916,3.01797 1.476595,0.64266 4.496781,1.30035 6.102969,1.32903 0.664499,0.0118 1.910877,-0.10833 2.769733,-0.2671 z m 16.262714,-4.30506 v -4.064558 l 3.770313,-0.14182 c 6.2347,-0.23452 8.971232,-1.52274 10.78177,-5.07548 0.85198,-1.67181 0.92478,-1.99899 0.910268,-4.091084 -0.01868,-2.692041 -0.739117,-4.56551 -2.376398,-6.179677 -2.342319,-2.309255 -5.123243,-2.90747 -12.953661,-2.78651 l -5.027083,0.07766 -0.06862,13.163021 -0.06862,13.163028 h 2.516011 2.516012 z m 0,-13.270112 v -4.695973 l 3.405632,0.122978 c 2.922855,0.105542 3.586655,0.213664 4.682604,0.76272 1.610781,0.806982 2.202333,1.622464 2.386097,3.289332 0.202846,1.839991 -0.64195,3.458907 -2.272249,4.354407 -1.059257,0.58183 -1.577433,0.66549 -4.696354,0.75825 l -3.50573,0.10426 z m 20.786878,14.291972 1.280404,-3.04271 h 5.899692 c 3.244837,0 5.986007,-0.0114 6.091507,-0.0253 0.10549,-0.0139 0.77862,1.35531 1.49583,3.04271 l 1.30402,3.06801 h 2.59668 c 2.41419,0 2.58334,-0.0342 2.40678,-0.48703 -0.10445,-0.26787 -2.69023,-6.2213 -5.74616,-13.229838 l -5.55626,-12.742814 -2.328668,0.06682 -2.328672,0.06682 -5.522656,12.626934 c -3.037461,6.944808 -5.599223,12.868168 -5.692804,13.163018 -0.162668,0.51252 -0.06048,0.53609 2.324878,0.53609 h 2.495026 z m 3.290205,-7.687778 c 0,-0.22665 4.047207,-9.653565 4.111771,-9.577301 0.129704,0.153207 4.090317,9.411031 4.090317,9.561001 0,0.0899 -1.84547,0.16345 -4.101046,0.16345 -2.255573,0 -4.101042,-0.0662 -4.101042,-0.14715 z m 25.929168,6.232568 v -4.497918 l 2.71198,0.004 2.71198,0.004 3.16187,4.494298 3.16188,4.49431 h 2.85739 c 1.57157,3e-5 2.8574,-0.0569 2.8574,-0.12644 0,-0.0695 -1.48828,-2.20361 -3.30729,-4.74235 -1.81901,-2.538738 -3.30729,-4.720098 -3.30729,-4.847468 0,-0.12737 0.4363,-0.38935 0.96956,-0.58218 0.53326,-0.19283 1.65444,-1.02042 2.4915,-1.83909 1.24172,-1.21442 1.60501,-1.77713 1.97309,-3.05615 0.93636,-3.253663 -0.0474,-7.131643 -2.25213,-8.877816 -2.53429,-2.007195 -5.01184,-2.443673 -13.23619,-2.331857 l -5.68854,0.07734 -0.0686,13.163013 -0.0686,13.163028 h 2.51601 2.51601 z m 0,-13.264054 v -4.268221 l 4.18485,0.120608 c 3.80816,0.109754 4.29042,0.178514 5.35781,0.763913 2.93932,1.61204 2.78781,5.509676 -0.2743,7.056606 -1.06894,0.54002 -1.55413,0.59532 -5.22338,0.59532 h -4.04498 z m 26.45833,13.957714 v -3.804238 l 1.74457,-1.8843 c 0.95951,-1.03636 1.84708,-1.88429 1.97238,-1.88429 0.12531,0 2.16563,2.55985 4.53407,5.688538 l 4.30625,5.68855 h 2.9998 2.9998 l -0.52388,-0.72761 c -0.28813,-0.40018 -2.84287,-3.76069 -5.67722,-7.467798 l -5.15335,-6.7402 5.36918,-5.562924 c 2.95304,-3.05961 5.31406,-5.652225 5.24671,-5.761366 -0.0674,-0.109141 -1.35749,-0.198437 -2.86697,-0.198437 h -2.74452 l -6.03727,6.372396 -6.03726,6.372401 -0.13229,-6.306255 -0.13229,-6.306251 h -2.38125 -2.38125 l -0.0686,13.163016 -0.0686,13.163028 h 2.51601 2.51601 z m 26.66603,1.09228 -0.0754,-2.71198 h -2.64584 -2.64583 l -0.0754,2.71198 -0.0754,2.71198 h 2.79663 2.79664 z m -0.9353,-5.659928 0.99219,-0.164 V 89.81498 80.853765 h -2.81914 -2.81915 l 0.17331,3.613708 c 0.0953,1.987539 0.17331,6.027385 0.17331,8.977429 0,5.35202 0.001,5.36397 0.59532,5.47839 0.96319,0.18552 2.6378,0.19316 3.70416,0.0169 z m 0.46302,-23.594655 c 0,-0.119108 -0.1832,-0.833483 -0.40712,-1.5875 l -0.40713,-1.370939 H 107.93758 43.399747 l -0.407125,1.370939 c -0.223919,0.754017 -0.407125,1.468392 -0.407125,1.5875 0,0.11911 29.408437,0.216561 65.352083,0.216561 35.94365,0 65.35208,-0.09745 65.35208,-0.216561 z M 48.519861,68.219911 c 5.083216,-11.938069 15.014555,-23.189303 26.318626,-29.816425 2.044245,-1.198459 2.163636,-1.323829 3.43308,-3.605054 0.723353,-1.299879 1.244891,-2.363416 1.158976,-2.363416 -0.25821,0 -6.613488,3.387581 -7.815038,4.165681 -9.316534,6.03322 -16.447492,13.362911 -22.074329,22.689526 -1.850122,3.066619 -5.103596,9.722816 -5.103596,10.44131 0,0.160232 0.690743,0.274315 1.660915,0.274315 h 1.660916 z M 109.52508,49.598806 V 29.191761 l 2.4474,0.181538 c 11.6253,0.862313 22.32939,4.470879 31.68773,10.682574 7.4239,4.927692 13.39706,10.909022 18.54753,18.572892 1.65582,2.463845 5.79026,10.33771 5.79026,11.027293 0,0.25449 0.47341,0.34979 1.73762,0.34979 2.02133,0 1.99025,0.222031 0.46287,-3.307291 -1.91669,-4.428927 -4.78512,-9.262023 -8.16553,-13.758334 -10.66667,-14.187865 -27.28744,-23.902206 -44.84423,-26.210109 -3.45972,-0.454792 -9.14276,-0.835662 -10.36529,-0.694667 l -0.71727,0.08272 -0.01,21.768037 c -0.005,11.972419 0.0694,21.847145 0.16605,21.943837 0.0967,0.09669 0.87035,0.175805 1.71922,0.175805 h 1.5434 z M 80.024038,62.99439 V 59.02564 L 78.767267,58.945 77.510496,58.86436 v 4.130035 4.130035 l 1.256771,-0.08064 1.256771,-0.08064 z m 54.107292,-0.02416 v -4.10588 l -1.25677,0.08064 -1.25677,0.08064 -0.074,3.691425 c -0.0407,2.030285 -0.0205,3.830695 0.0448,4.000912 0.0653,0.170217 0.66415,0.320435 1.33073,0.333814 l 1.21197,0.02433 V 62.97023 Z m -77.253037,3.461002 c 1.095796,-0.566658 1.31762,-1.145257 1.31762,-3.436845 0,-2.316123 -0.219054,-2.868755 -1.373838,-3.465917 -0.801151,-0.41429 -0.845111,-0.407721 -1.30919,0.195699 -0.61377,0.798052 -0.609653,0.84415 0.103341,1.156956 0.513082,0.225103 0.606276,0.492787 0.674682,1.937925 0.08643,1.825784 -0.189384,2.424295 -1.117182,2.424295 -0.87189,0 -1.210318,-0.510452 -1.219158,-1.838854 l -0.008,-1.203854 -0.906044,1.579912 c -0.860745,1.500917 -0.883494,1.605002 -0.455012,2.081749 0.908825,1.011193 2.92168,1.277962 4.29279,0.568934 z m 8.329078,-3.436845 V 59.157932 H 63.9506 62.69383 v 3.836458 3.836458 h 1.25677 1.256771 z m 7.496993,-5.29e-4 0.08866,-3.835948 h -1.345427 -1.34543 v 3.836458 3.836459 l 1.256771,-5.3e-4 1.25677,-5.29e-4 0.08866,-3.835945 z m 17.192582,2.947868 c 0.658804,-0.658789 0.710425,-0.872942 0.710425,-2.947339 0,-2.069367 -0.05274,-2.28967 -0.704046,-2.940979 -1.401657,-1.401656 -4.641427,-1.038521 -5.260446,0.589627 -0.326641,0.859128 -0.327162,3.842202 -7.93e-4,4.70054 0.616815,1.622351 3.861376,1.991682 5.254889,0.59817 z m -3.3377,-1.015881 c -0.177546,-0.177546 -0.3175,-1.028935 -0.3175,-1.931458 0,-1.71346 0.283498,-2.248958 1.190625,-2.248958 0.907126,0 1.190625,0.535498 1.190625,2.248958 0,1.71346 -0.283499,2.248958 -1.190625,2.248958 -0.305594,0 -0.6985,-0.142875 -0.873125,-0.3175 z m 13.485284,0.883185 c 0.68093,-0.762101 0.7493,-1.018908 0.7493,-2.814643 0,-1.787448 -0.0703,-2.054656 -0.73619,-2.799964 -1.385251,-1.550365 -4.526659,-1.280967 -5.318105,0.456068 -0.162639,0.356952 -0.295706,1.488744 -0.295706,2.515095 0,1.782119 0.04193,1.908026 0.931865,2.797958 0.889897,0.889897 0.999138,0.926282 2.425695,0.807982 1.263568,-0.104786 1.609333,-0.253148 2.243141,-0.962496 z m -3.466456,-1.062006 c -0.360349,-0.673317 -0.365442,-2.822443 -0.0083,-3.489822 0.150641,-0.281475 0.537594,-0.50995 0.859896,-0.507723 1.122161,0.0078 1.277183,0.319487 1.193773,2.400512 l -0.07859,1.961063 -0.842317,0.0816 c -0.623684,0.06042 -0.915557,-0.05525 -1.12448,-0.445627 z M 116.66883,62.99439 v -3.836458 h -1.29743 -1.29743 l -0.0365,3.836458 -0.0365,3.836458 h 1.33391 1.33391 z m 9.68375,2.936875 c 0.8649,-0.864905 0.89958,-0.976937 0.89958,-2.906242 0,-1.843283 -0.0628,-2.07701 -0.77204,-2.870729 -0.71369,-0.798753 -0.89533,-0.864071 -2.40296,-0.864071 -1.50762,0 -1.68927,0.06532 -2.40295,0.864071 -0.70919,0.793719 -0.77205,1.027446 -0.77205,2.870729 0,1.929305 0.0347,2.041337 0.89959,2.906242 0.79239,0.792393 1.06352,0.899583 2.27541,0.899583 1.2119,0 1.48303,-0.10719 2.27542,-0.899583 z m -3.27778,-1.150938 c -0.2537,-0.51695 -0.20448,-3.315962 0.066,-3.753619 0.28721,-0.464731 1.68784,-0.332505 1.92517,0.181744 0.258,0.559044 0.23196,3.29342 -0.0355,3.726146 -0.29963,0.484809 -1.69613,0.37465 -1.9557,-0.154271 z m 20.32224,1.650908 c 1.0958,-0.566658 1.31762,-1.145257 1.31762,-3.436845 0,-1.110541 -0.12259,-2.248228 -0.27242,-2.528197 -0.68875,-1.286936 -3.18259,-1.700167 -4.69511,-0.777983 -1.05035,0.640397 -1.38247,1.43466 -1.38247,3.30618 0,0.781418 0.1161,1.726112 0.25799,2.09932 0.56642,1.48979 3.1048,2.200905 4.77439,1.337525 z m -2.59821,-1.505387 c -0.41443,-0.414433 -0.41443,-3.448484 0,-3.862916 0.17462,-0.174625 0.56753,-0.3175 0.87312,-0.3175 0.90713,0 1.19063,0.535498 1.19063,2.248958 0,1.71346 -0.2835,2.248958 -1.19063,2.248958 -0.30559,0 -0.6985,-0.142875 -0.87312,-0.3175 z m 10.795,-1.931458 v -3.836458 h -1.19063 -1.19062 v 3.836458 3.836458 h 1.19062 1.19063 z m 10.80844,3.545991 c 0.95084,-0.331465 0.9919,-0.487305 0.41988,-1.593477 -0.2869,-0.554797 -0.50949,-0.723824 -0.72761,-0.552511 -1.14256,0.897403 -3.46856,0.359979 -3.778,-0.872911 -0.25308,-1.008372 0.25253,-1.887117 1.30475,-2.267601 l 0.91597,-0.331221 -0.56911,-0.876464 c -0.42744,-0.658283 -0.70084,-0.838091 -1.09828,-0.722315 -1.24622,0.363032 -2.15382,1.108078 -2.71087,2.225344 -0.63457,1.272757 -0.55102,2.254943 0.30268,3.557847 0.92188,1.406967 3.93246,2.133343 5.94059,1.433309 z M 72.747996,51.220432 v -3.96875 h -1.322917 -1.322916 v 3.96875 3.96875 h 1.322916 1.322917 z m 79.053064,1.321636 0.075,-2.51482 -1.33172,-1.311693 -1.33171,-1.31169 v 3.907155 3.907155 l 1.25677,-0.08064 1.25677,-0.08064 z M 64.830848,54.1512 c 0.731845,-0.731843 0.773181,-0.89177 0.769347,-2.976562 -0.005,-2.713842 -0.158945,-3.019981 -1.108127,-2.203527 -0.610381,0.525026 -0.724869,0.851958 -0.792801,2.263868 -0.05576,1.15892 -0.205054,1.729091 -0.501464,1.915133 -0.598697,0.375767 -1.825086,0.01114 -1.835251,-0.545658 -0.0066,-0.360381 -0.147542,-0.299778 -0.661458,0.284377 -0.359204,0.408297 -0.653098,0.848032 -0.653098,0.977185 0,0.551043 1.243108,1.058582 2.592766,1.058582 1.213038,0 1.527868,-0.111177 2.190086,-0.773398 z m 15.19319,-3.06306 v -3.836458 h -1.256771 -1.256771 v 3.836458 3.836458 h 1.256771 1.256771 z m 9.708864,3.073704 c 0.777708,-0.694883 0.862491,-0.924425 0.952822,-2.579687 0.05453,-0.999313 -0.02711,-2.1443 -0.181443,-2.544416 -0.352285,-0.913347 -1.749057,-1.783773 -2.864495,-1.78507 -1.163371,-0.0013 -2.608689,0.73278 -2.959807,1.503403 -0.366376,0.804108 -0.379653,4.184303 -0.01908,4.858038 0.41593,0.777171 1.58183,1.28819 2.965735,1.299892 1.01531,0.0086 1.414315,-0.1339 2.106268,-0.75216 z m -2.93143,-0.99187 c -0.468281,-0.327998 -0.559726,-0.661921 -0.559726,-2.043919 0,-1.762763 0.277571,-2.286873 1.211146,-2.286873 0.939305,0 1.202073,0.594574 1.116589,2.526551 -0.06806,1.538282 -0.155588,1.808713 -0.64353,1.988362 -0.367094,0.135152 -0.760653,0.07071 -1.124479,-0.184121 z m 12.631068,1.377593 c 1.0023,-0.518311 1.36129,-1.453253 1.36129,-3.545297 0,-1.977673 -0.34857,-2.71304 -1.590422,-3.355224 -1.4648,-0.757475 -3.439658,-0.309988 -4.346644,0.984912 -0.479967,0.685252 -0.578943,4.16516 -0.1417,4.982154 0.642585,1.200682 3.216016,1.709891 4.717476,0.933455 z m -2.8072,-1.516041 c -0.39859,-0.39859 -0.437346,-2.967151 -0.05554,-3.680571 0.319677,-0.597321 1.375711,-0.677675 1.82301,-0.138713 0.189291,0.228081 0.278998,1.076356 0.230834,2.182812 -0.07825,1.797677 -0.08408,1.810274 -0.873829,1.887826 -0.43728,0.04294 -0.943295,-0.07017 -1.124479,-0.251354 z m 20.04349,-1.943386 v -3.836458 h -1.32292 -1.32291 v 3.836458 3.836458 h 1.32291 1.32292 z m 9.22204,3.459427 c 1.0023,-0.518311 1.36129,-1.453253 1.36129,-3.545297 0,-1.977673 -0.34857,-2.71304 -1.59042,-3.355224 -1.4648,-0.757475 -3.43965,-0.309988 -4.34664,0.984912 -0.51858,0.740373 -0.54769,4.031308 -0.0437,4.940601 0.19276,0.347784 0.63503,0.790049 0.98281,0.982811 0.83974,0.465431 2.72938,0.461375 3.63667,-0.0078 z m -2.50675,-1.33314 c -0.5987,-0.43778 -0.72773,-3.445838 -0.17166,-4.001905 0.41332,-0.413327 1.08398,-0.477985 1.59471,-0.153749 0.34276,0.217593 0.53075,3.472164 0.22878,3.960754 -0.26844,0.434356 -1.17765,0.541634 -1.65183,0.1949 z m 10.74721,-2.126287 v -3.836458 h -1.19062 -1.19063 v 3.836458 3.836458 h 1.19063 1.19062 z m 9.26571,3.436845 c 1.10103,-0.569362 1.31762,-1.145011 1.31762,-3.501853 0,-1.750277 -0.0888,-2.179534 -0.55457,-2.679435 -1.11335,-1.195041 -2.98375,-1.433129 -4.41296,-0.561737 -1.13559,0.692372 -1.44918,1.58936 -1.32853,3.800197 0.0903,1.655262 0.17512,1.884804 0.95282,2.579687 0.67481,0.602936 1.10502,0.762754 2.05327,0.762754 0.65977,0 1.54733,-0.179826 1.97235,-0.399613 z m -2.73932,-1.364276 c -0.097,-0.09701 -0.17639,-0.975403 -0.17639,-1.951977 0,-2.077823 0.37557,-2.618105 1.53716,-2.211305 0.65803,0.230446 0.71779,0.375523 0.79117,1.9207 0.0477,1.004411 -0.0444,1.820585 -0.23084,2.045197 -0.3174,0.38245 -1.60386,0.514628 -1.9211,0.197385 z M 80.761429,42.619905 c 0.81212,-0.334682 1.246984,-1.575181 1.246984,-3.557167 0,-1.025872 -0.05549,-1.865223 -0.123315,-1.865223 -0.06782,0 -0.544073,0.200647 -1.058333,0.445879 -0.911019,0.434435 -0.935019,0.485132 -0.935019,1.975067 0,1.274934 -0.09093,1.577853 -0.54691,1.821884 -0.827071,0.442634 -1.83434,-0.306631 -1.83434,-1.364494 V 39.262218 L 76.6506,39.80423 c -1.074494,0.677283 -1.196435,1.359659 -0.406982,2.277451 0.93322,1.084932 2.684836,1.293609 4.517811,0.538224 z m 8.860827,-3.371869 0.07322,-3.902604 h -1.329991 -1.329989 v 3.983247 3.983246 l 1.256771,-0.08064 1.25677,-0.08064 z m 10.304655,3.280304 c 0.840179,-0.449651 1.202659,-1.688779 1.087929,-3.719128 -0.11998,-2.123483 -0.54317,-2.77208 -2.116169,-3.243362 -1.308089,-0.391912 -2.887138,0.04638 -3.646897,1.012257 -0.442738,0.562848 -0.543362,1.07341 -0.543362,2.757001 0,1.77637 0.08562,2.165771 0.610331,2.775783 0.952968,1.107893 2.975684,1.291127 4.608168,0.417449 z m -2.837249,-1.362075 c -0.537019,-0.537019 -0.705654,-2.092848 -0.364694,-3.364674 0.192821,-0.719257 0.95503,-0.99614 1.677618,-0.609425 0.462862,0.247716 0.53916,0.548012 0.53916,2.122016 0,1.541904 -0.08138,1.87702 -0.511773,2.107359 -0.682715,0.365376 -0.728351,0.356684 -1.340311,-0.255276 z m 19.579168,-1.852083 v -3.96875 h -1.29889 -1.29889 l -0.0327,3.715467 c -0.018,2.043507 0.0378,3.829444 0.12388,3.96875 0.0861,0.139306 0.6853,0.253283 1.33155,0.253283 h 1.17501 z m 10.75171,3.226491 c 0.8627,-0.461704 1.22666,-1.684137 1.11097,-3.731461 -0.11999,-2.123483 -0.54317,-2.77208 -2.11617,-3.243362 -1.30809,-0.391912 -2.88714,0.04638 -3.6469,1.012257 -0.44274,0.562848 -0.54336,1.07341 -0.54336,2.757001 0,1.76558 0.0872,2.167644 0.5995,2.763189 0.95263,1.107498 2.98724,1.303335 4.59596,0.442376 z m -2.75534,-1.257118 c -0.49413,-0.346107 -0.58804,-0.659969 -0.58804,-1.965478 0,-1.63299 0.40646,-2.385145 1.2889,-2.385145 0.82827,0 1.09235,0.58624 1.09235,2.424859 0,1.49879 -0.0832,1.834396 -0.51177,2.06375 -0.64333,0.344299 -0.58372,0.350718 -1.28144,-0.137986 z m 12.11196,-0.244205 v -2.243579 l -1.04779,-0.534546 c -0.57629,-0.293997 -1.14183,-0.534794 -1.25677,-0.535101 -0.11494,-2.65e-4 -0.17155,1.249849 -0.12581,2.778125 l 0.0832,2.778683 h 1.1736 1.1736 z"
       id="path932" />
  </g>
</svg>
