<?xml version="1.0" encoding="UTF-8" standalone="no"?>
<!-- Created with Inkscape (http://www.inkscape.org/) -->

<svg
   width="189.25691mm"
   height="67.399361mm"
   viewBox="0 0 189.25691 67.399361"
   version="1.1"
   id="svg2308"
   inkscape:version="1.1 (c68e22c387, 2021-05-23)"
   sodipodi:docname="Capital One.svg"
   xmlns:inkscape="http://www.inkscape.org/namespaces/inkscape"
   xmlns:sodipodi="http://sodipodi.sourceforge.net/DTD/sodipodi-0.dtd"
   xmlns="http://www.w3.org/2000/svg"
   xmlns:svg="http://www.w3.org/2000/svg">
  <sodipodi:namedview
     id="namedview2310"
     pagecolor="#505050"
     bordercolor="#eeeeee"
     borderopacity="1"
     inkscape:pageshadow="0"
     inkscape:pageopacity="0"
     inkscape:pagecheckerboard="0"
     inkscape:document-units="mm"
     showgrid="false"
     inkscape:zoom="0.74118967"
     inkscape:cx="382.49319"
     inkscape:cy="147.73546"
     inkscape:window-width="1920"
     inkscape:window-height="1017"
     inkscape:window-x="-8"
     inkscape:window-y="-8"
     inkscape:window-maximized="1"
     inkscape:current-layer="layer1" />
  <defs
     id="defs2305" />
  <g
     inkscape:label="Layer 1"
     inkscape:groupmode="layer"
     id="layer1"
     transform="translate(-3.9041262,-109.46494)">
    <path
       style="fill:#ffffff;fill-opacity:1;stroke-width:0.264583"
       d="m 104.34488,176.58267 c 0.21828,-0.14631 3.37343,-2.11455 7.01145,-4.37386 3.63803,-2.25931 9.76974,-6.21037 13.62605,-8.78013 3.8563,-2.56976 7.08319,-4.70625 7.17086,-4.74775 0.0877,-0.0415 0.40683,0.51992 0.70924,1.24759 l 0.54983,1.32305 -1.37069,0.76736 c -9.14086,5.11733 -27.44397,14.87207 -27.85472,14.84532 -0.13139,-0.009 -0.0603,-0.13527 0.15798,-0.28158 z m 36.3802,-11.9801 c -5.80791,-1.84162 -8.53818,-7.8386 -6.75067,-14.82769 1.48644,-5.81192 6.02926,-10.46456 11.64547,-11.92699 2.51903,-0.65594 6.27217,-0.4431 8.26364,0.46862 1.75611,0.80398 3.62937,2.45544 4.52805,3.99191 0.78008,1.33372 1.49581,3.65619 1.49581,4.85378 0,0.52865 0.13234,0.87802 0.33259,0.87802 0.30821,0 4.01458,-0.98018 5.45856,-1.44356 0.56383,-0.18094 0.61711,-0.13556 0.49541,0.42197 -0.075,0.3436 -0.4486,2.03323 -0.83022,3.75474 -0.38161,1.72151 -0.69384,3.22012 -0.69384,3.33024 0,0.11012 1.39898,-1.1933 3.10885,-2.8965 3.55685,-3.54297 5.39179,-4.74814 7.23503,-4.75191 2.61386,-0.005 2.65463,0.95432 0.39286,9.2467 -0.81198,2.97699 -1.47633,5.67863 -1.47633,6.00365 0,1.40186 1.48137,1.07594 2.7679,-0.60897 0.75688,-0.99126 0.93687,-1.45971 0.93941,-2.44492 0.0107,-4.16694 3.32049,-9.28056 7.29021,-11.26347 2.11844,-1.05819 5.33142,-1.25716 6.67934,-0.41363 1.10305,0.69029 1.74279,2.14246 1.50417,3.4144 -0.63248,3.37142 -3.87884,5.37346 -9.90427,6.10799 -1.22794,0.14969 -2.33528,0.42152 -2.46075,0.60407 -0.37538,0.54612 -0.0141,3.05487 0.57787,4.01269 0.69388,1.12272 1.97843,1.74318 3.60893,1.74318 1.66374,0 3.26274,-0.79701 4.86536,-2.42511 1.50686,-1.53081 1.98755,-1.28447 0.81608,0.41822 -0.96745,1.40614 -2.2388,2.4913 -3.92669,3.35164 -1.01143,0.51553 -1.65312,0.63653 -3.38309,0.63792 -1.88779,0.002 -2.2624,-0.0826 -3.23638,-0.7265 -0.66827,-0.44181 -1.34451,-1.20643 -1.71945,-1.94418 l -0.61797,-1.21597 -1.01195,1.32695 c -1.33621,1.75215 -2.36076,2.4757 -3.72306,2.62925 -0.89554,0.10094 -1.23291,0.0139 -1.68057,-0.43379 -0.86058,-0.86059 -0.71305,-2.09974 0.92217,-7.74555 1.57536,-5.43911 1.86641,-7.49466 1.12871,-7.97145 -0.80357,-0.51938 -2.14197,0.3852 -5.68414,3.84168 l -3.47005,3.38611 -0.87416,4.22914 -0.87416,4.22914 h -1.41048 c -0.77576,0 -1.41048,-0.10707 -1.41048,-0.23794 0,-0.22533 1.48805,-6.7394 2.6738,-11.70482 0.68773,-2.87992 0.62014,-3.50666 -0.39066,-3.62217 -0.41777,-0.0477 -1.04285,-0.0157 -1.38906,0.0712 -0.53944,0.13539 -0.62949,0.3189 -0.62949,1.28275 0,1.60938 -0.94028,4.78083 -2.03518,6.86443 -1.8714,3.56127 -5.72249,6.54698 -9.63377,7.46895 -2.03757,0.4803 -6.05122,0.49942 -7.51335,0.0358 z m 7.86853,-1.81236 c 4.41059,-2.01923 7.63313,-8.88612 7.26129,-15.47305 -0.29932,-5.30228 -3.27612,-8.80194 -7.48691,-8.80194 -2.15422,0 -3.70047,0.67792 -5.56209,2.43856 -1.8453,1.74521 -3.2814,4.15511 -4.305,7.22417 -2.38649,7.1554 -0.39728,13.55706 4.73601,15.24135 1.17232,0.38465 3.82215,0.0735 5.3567,-0.62909 z m 34.91481,-7.10739 c 4.34508,-0.9139 7.39443,-4.13754 6.67212,-7.05347 -0.29595,-1.1947 -1.29405,-1.7777 -2.56748,-1.49969 -1.32433,0.28912 -4.09473,3.27744 -5.25937,5.67306 -1.34373,2.76401 -1.44487,3.175 -0.78133,3.175 0.29368,0 1.16491,-0.1327 1.93606,-0.2949 z m -133.319753,8.43829 c 0.07946,-0.33152 0.811641,-4.41276 1.627058,-9.06943 0.815417,-4.65667 1.606029,-9.09174 1.756913,-9.85573 l 0.274336,-1.38906 h 3.288532 c 1.808692,0 3.285691,0.0893 3.28222,0.19844 -0.0035,0.10914 -0.109995,0.64492 -0.23672,1.19062 -0.126722,0.54571 -0.175469,0.99219 -0.108326,0.99219 0.06715,0 0.523822,-0.30642 1.014839,-0.68094 1.322609,-1.0088 3.458943,-1.73138 5.599668,-1.894 3.483393,-0.26461 5.797052,0.76019 7.093323,3.14187 0.672565,1.23572 0.71968,1.51472 0.612487,3.62703 -0.09055,1.7843 -0.275149,2.62065 -0.838087,3.79708 -0.826796,1.72784 -2.890464,3.73676 -4.589002,4.46726 -2.404263,1.03401 -5.942547,1.23948 -7.995486,0.4643 -0.373271,-0.14095 -1.006097,-0.56862 -1.406279,-0.95039 -0.400182,-0.38177 -0.735023,-0.64209 -0.744093,-0.57848 -0.0091,0.0636 -0.280347,1.66346 -0.60284,3.55523 l -0.586353,3.43958 -3.793337,0.0736 -3.793337,0.0736 z m 14.942698,-9.91073 c 1.143175,-0.84764 1.899124,-2.41229 1.894491,-3.9212 -0.0081,-2.64372 -2.205741,-3.76555 -4.942705,-2.52311 -2.527088,1.14716 -3.353451,5.36931 -1.303134,6.65813 1.072642,0.67425 3.301336,0.56474 4.351348,-0.21382 z m -52.067743,4.99292 c -5.3410718,-1.26151 -8.503821,-3.90093 -9.1129491,-7.60508 -0.226635,-1.37819 0.4031818,-4.42211 1.2631627,-6.1049 2.0722776,-4.05499 6.9459784,-6.97631 13.2528494,-7.94383 3.233759,-0.49608 7.259243,-0.33867 9.545896,0.37327 1.813367,0.56458 1.788985,0.48457 1.204172,3.95173 l -0.317023,1.87953 -1.6342,-0.69589 c -1.395405,-0.59419 -2.020817,-0.69665 -4.280033,-0.70116 -1.964617,-0.004 -2.986441,0.12374 -3.96875,0.49586 -2.779324,1.05287 -4.819338,3.11469 -5.463045,5.52144 -0.636194,2.37865 0.465355,4.39291 2.998276,5.48254 1.262286,0.54302 1.660013,0.58001 4.830572,0.44925 1.900267,-0.0784 3.763084,-0.22073 4.139593,-0.31636 l 0.684562,-0.17388 -0.483949,2.71037 c -0.266172,1.49071 -0.541446,2.76787 -0.61172,2.83815 -0.07027,0.0703 -2.363206,0.16824 -5.095405,0.2177 -4.061025,0.0735 -5.329788,0.004 -6.952009,-0.37874 z m 17.373481,-0.10962 c -0.558284,-0.14791 -1.419788,-0.67365 -1.914455,-1.16832 -1.424827,-1.42483 -1.50676,-2.56681 -0.311422,-4.34058 1.222253,-1.8137 3.561965,-2.59112 9.855521,-3.27471 3.995957,-0.43404 4.785011,-0.68109 5.219258,-1.63416 0.281446,-0.6177 0.24732,-0.75505 -0.297145,-1.19593 -0.947142,-0.76695 -5.009052,-0.74428 -9.155446,0.0511 -1.455208,0.27914 -2.670008,0.50789 -2.699554,0.50833 -0.02955,5.3e-4 0.262871,-0.87946 0.649822,-1.95534 l 0.703543,-1.95614 2.260594,-0.30864 c 1.243328,-0.16976 4.025046,-0.37864 6.181596,-0.4642 5.979612,-0.23722 8.726736,0.45289 9.677924,2.43121 0.331742,0.68996 0.269769,1.34184 -0.602732,6.34012 -0.534868,3.0641 -0.96915,5.7403 -0.96507,5.94713 0.0041,0.20682 0.204464,0.59377 0.445301,0.85989 0.422384,0.46673 0.295953,0.48386 -3.571875,0.48386 h -4.009757 v -0.92605 c 0,-0.50932 -0.104249,-0.92604 -0.231662,-0.92604 -0.127412,0 -0.871553,0.28215 -1.653645,0.62699 -0.782093,0.34485 -2.052924,0.76157 -2.82407,0.92605 -1.689174,0.36028 -5.354429,0.34695 -6.756726,-0.0246 z m 10.180185,-3.55375 c 1.066377,-0.62449 1.762229,-1.5977 1.862537,-2.60492 0.05892,-0.59156 -0.0213,-0.77088 -0.314931,-0.70397 -0.216688,0.0494 -1.584605,0.31512 -3.039813,0.59053 -2.155079,0.40787 -2.756252,0.62706 -3.241146,1.18175 -0.805178,0.92107 -0.74105,1.29726 0.330729,1.94018 0.734192,0.44042 3.374755,0.19837 4.402624,-0.40357 z m 33.829668,3.63394 c 0,-0.21568 0.687644,-4.13455 2.429494,-13.84563 l 0.27288,-1.52135 h 3.801573 3.801574 l -0.173025,0.8599 c -0.09516,0.47294 -0.717806,3.95552 -1.383654,7.73906 l -1.210633,6.87916 -3.769103,0.0734 c -2.322087,0.0452 -3.769106,-0.0256 -3.769106,-0.18455 z m 11.90625,-0.38031 c 0,-0.34307 0.47625,-3.158 1.058333,-6.25542 0.582083,-3.09742 1.058333,-5.67423 1.058333,-5.72625 0,-0.052 -0.664302,-0.0946 -1.476232,-0.0946 h -1.476229 l 0.153313,-0.79375 c 0.08432,-0.43656 0.222305,-1.15094 0.30663,-1.5875 0.149498,-0.77399 0.191834,-0.79375 1.700753,-0.79375 h 1.547439 l 0.184407,-1.47595 c 0.14437,-1.15549 0.306483,-1.52654 0.746643,-1.70894 0.921166,-0.38171 7.07735,-1.63298 7.23898,-1.47135 0.082,0.0821 0.0123,0.97785 -0.15492,1.99066 -0.46814,2.83467 -0.5682,2.66558 1.57741,2.66558 h 1.881534 l -0.17902,0.95429 c -0.40606,2.16444 -0.46916,2.22071 -2.490474,2.22071 -1.6779,0 -1.84213,0.0495 -1.97654,0.59531 -0.0806,0.32742 -0.57368,2.97656 -1.095671,5.88698 -0.521991,2.91042 -1.012738,5.50003 -1.090546,5.75469 -0.125895,0.41205 -0.547291,0.46302 -3.827807,0.46302 h -3.686336 z m 13.55478,0.29241 c -0.47576,-0.15252 -1.27943,-0.73602 -1.78594,-1.29667 -0.73824,-0.81714 -0.92092,-1.23607 -0.92092,-2.11184 0,-3.21096 2.78521,-4.50734 11.780944,-5.48345 2.82416,-0.30644 3.78275,-0.68489 4.008,-1.58233 0.12409,-0.49443 0.0152,-0.78269 -0.43253,-1.14526 -0.80992,-0.65583 -5.23989,-0.64351 -8.87412,0.0247 -1.45521,0.26756 -2.69083,0.44565 -2.74581,0.39576 -0.055,-0.0499 0.19806,-0.899 0.56233,-1.88691 l 0.6623,-1.79621 2.2158,-0.35487 c 3.06621,-0.49106 11.65015,-0.54606 13.18002,-0.0844 1.61117,0.48615 2.9264,1.83607 2.9264,3.00356 0,0.49355 -0.41969,3.26026 -0.93265,6.14823 -0.85845,4.8331 -0.90007,5.3006 -0.52307,5.87596 l 0.40959,0.6251 h -3.97486 -3.97484 v -0.92604 c 0,-1.07923 -0.0733,-1.09829 -1.52518,-0.39681 -1.88766,0.91202 -4.00849,1.32428 -6.66635,1.29584 -1.38825,-0.0149 -2.91335,-0.1518 -3.389114,-0.30433 z m 9.812214,-3.22699 c 0.55534,-0.19806 1.24045,-0.56893 1.52247,-0.82416 0.49583,-0.44871 1.20031,-2.42428 0.95276,-2.67182 -0.2288,-0.2288 -5.80575,0.95512 -6.43197,1.36543 -0.79819,0.523 -0.81627,1.55603 -0.0368,2.102 0.71905,0.50365 2.62323,0.51726 3.99353,0.0285 z m 11.02884,3.20781 c 0,-0.19279 0.64216,-3.91349 1.42701,-8.26823 0.78485,-4.35474 1.64207,-9.15554 1.90493,-10.66844 l 0.47791,-2.75073 3.69234,0.16796 c 2.03079,0.0924 3.72213,0.19911 3.75853,0.23719 0.0364,0.0381 -0.10171,1.02172 -0.30692,2.18589 -0.74885,4.24832 -3.28088,19.13408 -3.28088,19.28826 0,0.0872 -1.72641,0.15862 -3.83646,0.15862 -3.00829,0 -3.83646,-0.0757 -3.83646,-0.35052 z m 40.48125,-14.72068 c 0,-0.87866 -1.88654,-4.00447 -3.23045,-5.35251 l -1.51066,-1.51532 0.94328,-1.39976 c 3.87855,-5.7555 3.88831,-9.96555 0.0316,-13.6131 -2.84873,-2.69421 -7.99996,-4.62017 -15.41602,-5.7638 -4.61051,-0.71098 -7.99737,-0.95106 -15.74271,-1.11592 -17.93761,-0.3818 -41.151028,1.69676 -67.03889,6.00274 -3.051257,0.50752 -4.338421,0.63711 -4.11198,0.41399 0.339326,-0.33435 23.729884,-4.74809 32.389411,-6.1118 5.709719,-0.89917 16.178959,-2.43543 18.785419,-2.75657 1.16417,-0.14344 3.48589,-0.43873 5.15938,-0.6562 17.04515,-2.21503 31.79245,-3.18475 45.4422,-2.9881 9.67371,0.13938 12.44772,0.35363 17.69712,1.36686 7.51487,1.45052 12.01832,4.53981 11.99606,8.22912 -0.0145,2.41254 -2.07729,6.02156 -5.54997,9.71033 -3.9454,4.19093 -8.92763,8.28447 -16.53646,13.58684 -3.32902,2.3199 -3.30729,2.307 -3.30729,1.9632 z m -82.265603,-2.57312 c -1.203743,-0.63711 -1.521076,-1.19082 -1.20028,-2.09435 0.794888,-2.2388 6.865864,-2.64696 7.831987,-0.52654 0.65909,1.44654 -1.168371,2.81205 -4.00358,2.99153 -1.310878,0.083 -1.938218,-0.006 -2.628127,-0.37064 z"
       id="path2381" />
  </g>
</svg>
