<?xml version="1.0" encoding="UTF-8" standalone="no"?>
<!-- Created with Inkscape (http://www.inkscape.org/) -->

<svg
   width="152.44171mm"
   height="28.106495mm"
   viewBox="0 0 152.44171 28.106495"
   version="1.1"
   id="svg5"
   inkscape:version="1.1 (c68e22c387, 2021-05-23)"
   sodipodi:docname="MasTec.svg"
   xmlns:inkscape="http://www.inkscape.org/namespaces/inkscape"
   xmlns:sodipodi="http://sodipodi.sourceforge.net/DTD/sodipodi-0.dtd"
   xmlns="http://www.w3.org/2000/svg"
   xmlns:svg="http://www.w3.org/2000/svg">
  <sodipodi:namedview
     id="namedview7"
     pagecolor="#505050"
     bordercolor="#eeeeee"
     borderopacity="1"
     inkscape:pageshadow="0"
     inkscape:pageopacity="0"
     inkscape:pagecheckerboard="0"
     inkscape:document-units="mm"
     showgrid="false"
     fit-margin-top="0"
     fit-margin-left="0"
     fit-margin-right="0"
     fit-margin-bottom="0"
     inkscape:zoom="1.0482005"
     inkscape:cx="159.79767"
     inkscape:cy="58.671982"
     inkscape:window-width="1920"
     inkscape:window-height="1017"
     inkscape:window-x="-8"
     inkscape:window-y="-8"
     inkscape:window-maximized="1"
     inkscape:current-layer="layer1" />
  <defs
     id="defs2" />
  <g
     inkscape:label="Layer 1"
     inkscape:groupmode="layer"
     id="layer1"
     transform="translate(-31.527428,-24.912937)">
    <path
       style="fill:#ffffff;stroke-width:0.119095;fill-opacity:1"
       d="m 83.810171,52.751433 c -3.099679,-1.060654 -4.769619,-3.963726 -4.289655,-7.457257 0.176524,-1.284867 0.485369,-2.096889 1.131217,-2.97421 0.912208,-1.239147 2.522432,-2.191915 4.647126,-2.7497 1.059057,-0.278028 3.950776,-0.67734 5.767141,-0.796373 0.650315,-0.04262 1.245788,-0.116668 1.323272,-0.164556 0.20481,-0.126581 -0.05774,-1.25363 -0.419817,-1.802144 -0.571015,-0.865036 -2.089039,-1.321606 -4.407789,-1.325714 -1.631995,-0.0029 -2.53329,0.187003 -4.631085,0.975729 -0.713032,0.268085 -1.424202,0.487427 -1.580379,0.487427 h -0.283956 l 0.03214,-2.525612 0.03214,-2.525611 0.535928,-0.157517 c 0.294761,-0.08663 1.286227,-0.295483 2.203259,-0.464107 2.043522,-0.375763 5.800194,-0.517325 7.626858,-0.287402 3.907349,0.491821 5.974108,2.015501 6.727025,4.959375 0.222597,0.870348 0.235265,1.342214 0.235265,8.76315 v 7.84327 l -3.007151,-0.03182 -3.007151,-0.03182 -0.03441,-1.042082 c -0.01893,-0.573145 -0.05993,-1.042082 -0.09113,-1.042082 -0.03119,0 -0.464813,0.324301 -0.963599,0.720668 -1.744594,1.386365 -3.225248,1.901529 -5.450372,1.896349 -1.047944,-0.0024 -1.480675,-0.05779 -2.094887,-0.267964 z m 6.78842,-4.595531 c 0.360262,-0.141867 0.909588,-0.445265 1.220724,-0.67422 l 0.565702,-0.416279 v -2.219204 -2.219204 l -0.863439,0.07959 c -1.632588,0.150485 -3.3345,0.445415 -4.003936,0.693856 -0.953634,0.353913 -1.612512,1.041537 -1.788489,1.866518 -0.338835,1.588473 0.300081,2.765868 1.694391,3.122422 0.691063,0.176718 2.464557,0.0463 3.175047,-0.233477 z m 84.033149,4.675228 c -4.34265,-0.784221 -7.20889,-3.320843 -8.19445,-7.252101 -0.23004,-0.917564 -0.26831,-1.38044 -0.26583,-3.215568 0.003,-2.544258 0.21961,-3.637794 1.05953,-5.359279 1.25042,-2.562795 3.36091,-4.208027 6.43642,-5.017484 0.97462,-0.256514 1.54481,-0.32403 3.13896,-0.371687 2.64241,-0.07899 3.83056,0.124899 6.23978,1.070775 l 0.92299,0.36237 v 2.841453 2.841452 h -0.36087 c -0.26432,0 -0.56693,-0.174803 -1.13101,-0.653326 -0.85773,-0.727633 -2.03868,-1.367572 -3.08516,-1.671791 -0.51923,-0.150945 -1.00853,-0.189401 -1.95796,-0.153883 -1.59109,0.05952 -2.44637,0.403392 -3.33172,1.33952 -0.63728,0.673822 -0.87242,1.069756 -1.23642,2.081859 -0.34082,0.947645 -0.43159,3.668402 -0.16086,4.821463 0.47322,2.015549 1.7211,3.337813 3.54766,3.759146 0.68835,0.158781 2.31954,0.15414 3.09554,-0.0088 1.00021,-0.210029 2.2265,-0.845249 3.16091,-1.637354 0.55662,-0.471859 0.96839,-0.73112 1.16117,-0.73112 h 0.29872 v 2.843617 2.843615 l -0.62525,0.269543 c -1.05227,0.453631 -2.22003,0.820001 -3.21562,1.008859 -1.20103,0.227835 -4.20661,0.221672 -5.49653,-0.01127 z m -68.25305,-0.09467 c -1.24774,-0.204192 -2.64547,-0.572701 -3.91616,-1.032491 l -1.02629,-0.371354 v -2.727923 -2.727924 h 0.30428 c 0.16735,0 0.62991,0.221141 1.02793,0.491426 2.30659,1.566376 5.24942,2.336157 8.06959,2.11083 1.84076,-0.147074 2.71145,-0.763826 2.58087,-1.828138 -0.11585,-0.944201 -0.76791,-1.261053 -3.70556,-1.800641 -3.36311,-0.617735 -5.14167,-1.287957 -6.34114,-2.389552 -1.92616,-1.768995 -2.37573,-4.776157 -1.07803,-7.210891 0.8324,-1.561743 3.02172,-3.088148 5.24467,-3.656603 3.16452,-0.809236 7.42266,-0.527718 10.72895,0.709324 l 0.67542,0.252708 v 2.611535 c 0,3.044802 0.0603,2.943091 -1.26938,2.141124 -1.91729,-1.156375 -3.77328,-1.699287 -5.87632,-1.718937 -1.77522,-0.01659 -2.77222,0.225427 -3.41117,0.828034 -0.85913,0.810262 -0.2922,2.027086 1.13435,2.434688 0.23696,0.06771 1.48202,0.335727 2.7668,0.5956 2.73083,0.55237 3.71318,0.835343 4.68591,1.349813 2.2815,1.20667 3.37643,3.794722 2.74268,6.482796 -0.59933,2.542039 -2.67309,4.351643 -5.99889,5.234747 -1.0326,0.274187 -1.40393,0.30781 -3.76566,0.340965 -1.76195,0.02473 -2.93214,-0.01429 -3.57285,-0.119136 z m 46.44708,-0.199834 c -4.36623,-0.602124 -7.33442,-2.57632 -8.67052,-5.766926 -1.26229,-3.014364 -1.11831,-7.304997 0.34285,-10.21645 1.90723,-3.800278 6.10828,-5.803306 11.17998,-5.330532 3.67576,0.342646 5.91242,1.726598 7.22647,4.471419 0.77817,1.625463 1.05059,3.110315 1.05426,5.746338 l 0.002,1.697105 h -7.14571 -7.1457 v 0.404288 c 0,0.642448 0.44093,1.868543 0.89153,2.479105 0.8154,1.104846 2.1293,1.734686 4.19108,2.009056 2.41734,0.321689 5.06796,-0.304508 7.37902,-1.743271 0.46742,-0.290997 0.99098,-0.529086 1.16346,-0.529086 h 0.31359 l -0.0321,2.646472 -0.032,2.646471 -1.46706,0.508766 c -2.32037,0.804691 -3.41217,0.991996 -6.09547,1.045716 -1.2773,0.02557 -2.69751,-0.0052 -3.15602,-0.06847 z m 4.94038,-13.418505 c -0.005,-0.541476 -0.37956,-1.896348 -0.65222,-2.361617 -0.61674,-1.052386 -1.56624,-1.494496 -3.2163,-1.49758 -1.57651,-0.0029 -2.74832,0.491352 -3.46379,1.461112 -0.3518,0.476837 -0.70885,1.419132 -0.79586,2.100348 l -0.0647,0.506154 h 4.09746 c 3.82371,0 4.0973,-0.01392 4.09537,-0.208417 z M 47.367074,46.76998 v -5.537922 h 3.275115 3.275115 v 5.537922 5.537921 h -3.275115 -3.275115 z m 21.611814,5.389052 c -0.03081,-0.08188 -0.06932,-4.195124 -0.08558,-9.140548 l -0.02957,-8.991679 -2.370293,5.597469 c -1.303661,3.078608 -2.424797,5.719113 -2.491412,5.867788 -0.120939,0.269916 -0.124776,0.270271 -2.570966,0.23819 l -2.449847,-0.03213 -2.389065,-5.635754 c -1.313987,-3.099664 -2.450216,-5.72571 -2.524954,-5.835659 -0.107515,-0.158165 -0.13735,-0.0072 -0.142892,0.723081 l -0.007,0.922987 h -3.275115 -3.275115 v -5.478374 -5.478374 h 4.092039 4.092038 l 3.020259,6.786099 c 1.661142,3.732355 3.059248,6.746949 3.106901,6.699099 0.04765,-0.04785 1.419801,-3.088197 3.04922,-6.756326 l 2.962579,-6.669324 4.129893,-0.03132 4.129892,-0.03132 v 13.697486 13.697478 h -3.4575 c -2.656724,0 -3.470469,-0.03448 -3.513512,-0.148869 z m 59.224592,-10.956748 -0.0304,-11.105617 -4.13855,-0.03132 -4.13856,-0.03132 v -2.559001 -2.559001 h 11.67132 11.67132 v 2.560544 2.560545 h -4.10878 -4.10878 v 11.135391 11.13539 h -3.3936 -3.39359 z M 36.767612,43.85215 v -2.620092 h 2.620092 2.620092 v 2.620092 2.620092 h -2.620092 -2.620092 z m -5.240184,-5.359279 v -2.620092 h 2.620092 2.620092 v -2.620092 -2.620092 h 2.620092 2.620092 v 2.620092 2.620092 h 2.620091 2.620092 v 2.620092 2.620092 h -2.620092 -2.620091 v -2.620092 -2.620092 h -2.620092 -2.620092 v 2.620092 2.620092 H 34.14752 31.527428 Z"
       id="path854" />
  </g>
</svg>
