<?xml version="1.0" encoding="UTF-8" standalone="no"?>
<!-- Created with Inkscape (http://www.inkscape.org/) -->

<svg
   width="127.26018mm"
   height="27.157751mm"
   viewBox="0 0 127.26018 27.157751"
   version="1.1"
   id="svg1475"
   inkscape:version="1.1 (c68e22c387, 2021-05-23)"
   sodipodi:docname="Microsoft.svg"
   xmlns:inkscape="http://www.inkscape.org/namespaces/inkscape"
   xmlns:sodipodi="http://sodipodi.sourceforge.net/DTD/sodipodi-0.dtd"
   xmlns="http://www.w3.org/2000/svg"
   xmlns:svg="http://www.w3.org/2000/svg">
  <sodipodi:namedview
     id="namedview1477"
     pagecolor="#505050"
     bordercolor="#eeeeee"
     borderopacity="1"
     inkscape:pageshadow="0"
     inkscape:pageopacity="0"
     inkscape:pagecheckerboard="0"
     inkscape:document-units="mm"
     showgrid="false"
     inkscape:zoom="1.0482005"
     inkscape:cx="260.92337"
     inkscape:cy="87.292461"
     inkscape:window-width="1920"
     inkscape:window-height="1017"
     inkscape:window-x="-8"
     inkscape:window-y="-8"
     inkscape:window-maximized="1"
     inkscape:current-layer="layer1" />
  <defs
     id="defs1472" />
  <g
     inkscape:label="Layer 1"
     inkscape:groupmode="layer"
     id="layer1"
     transform="translate(-41.056946,-91.368141)">
    <g
       id="g2032"
       transform="translate(4.3687915,6.9969824)"
       style="fill:#ffffff;fill-opacity:1">
      <path
         style="fill:#ffffff;fill-opacity:1;stroke-width:0.0369242"
         d="m 36.688155,105.08564 c 10e-7,-3.55396 0.0043,-5.00238 0.0096,-3.21872 0.0053,1.78366 0.0053,4.69144 -10e-7,6.46174 -0.0053,1.77029 -0.0096,0.31093 -0.0096,-3.24302 z m 14.234689,0 v -6.443278 h 6.461735 6.461735 v 6.443278 6.44327 h -6.461735 -6.461735 z m 51.612036,1.28354 c 0.1073,-0.007 0.27346,-0.007 0.36924,0 0.0958,0.008 0.008,0.0137 -0.19509,0.0136 -0.20308,0 -0.28145,-0.006 -0.17415,-0.0138 z m 18.2024,0 c 0.10661,-0.007 0.28108,-0.007 0.3877,0 0.10662,0.007 0.0194,0.0136 -0.19385,0.0136 -0.21324,0 -0.30047,-0.006 -0.19385,-0.0136 z m 10.57878,0 c 0.0965,-0.008 0.25431,-0.008 0.35078,0 0.0965,0.008 0.0175,0.0138 -0.17539,0.0138 -0.19293,0 -0.27186,-0.006 -0.17539,-0.0138 z m 11.72343,0 c 0.10662,-0.007 0.28109,-0.007 0.38771,0 0.10662,0.007 0.0194,0.0136 -0.19386,0.0136 -0.21323,0 -0.30047,-0.006 -0.19385,-0.0136 z m 18.64672,3.7e-4 c 0.0863,-0.008 0.22755,-0.008 0.31386,0 0.0863,0.008 0.0157,0.0141 -0.15693,0.0141 -0.17262,0 -0.24324,-0.006 -0.15693,-0.0141 z m -59.78028,-0.0343 c 0.0254,-0.0102 0.0669,-0.0102 0.0923,0 0.0254,0.0102 0.005,0.0186 -0.0461,0.0186 -0.0508,0 -0.0715,-0.008 -0.0462,-0.0186 z m 1.53306,-0.001 c 0.0359,-0.009 0.0858,-0.009 0.11077,0.001 0.025,0.0101 -0.004,0.0178 -0.0653,0.017 -0.0609,-7.4e-4 -0.0814,-0.009 -0.0455,-0.0184 z m 16.68974,0 c 0.0359,-0.009 0.0858,-0.009 0.11077,0.001 0.025,0.0101 -0.004,0.0178 -0.0653,0.017 -0.0609,-7.4e-4 -0.0814,-0.009 -0.0455,-0.0184 z m 1.55081,0 c 0.0359,-0.009 0.0858,-0.009 0.11078,0.001 0.025,0.0101 -0.004,0.0178 -0.0653,0.017 -0.0609,-7.4e-4 -0.0814,-0.009 -0.0455,-0.0184 z m 9.06419,0.001 c 0.0254,-0.0102 0.0669,-0.0102 0.0923,0 0.0254,0.0102 0.005,0.0186 -0.0461,0.0186 -0.0508,0 -0.0715,-0.008 -0.0462,-0.0186 z m 1.44005,0 c 0.0254,-0.0102 0.0669,-0.0102 0.0923,0 0.0254,0.0102 0.005,0.0186 -0.0462,0.0186 -0.0508,0 -0.0715,-0.008 -0.0461,-0.0186 z m 10.21024,-0.001 c 0.0359,-0.009 0.0858,-0.009 0.11077,0.001 0.025,0.0101 -0.004,0.0178 -0.0653,0.017 -0.0609,-7.4e-4 -0.0814,-0.009 -0.0454,-0.0184 z m 1.55082,0 c 0.0359,-0.009 0.0858,-0.009 0.11077,0.001 0.025,0.0101 -0.004,0.0178 -0.0653,0.017 -0.0609,-7.4e-4 -0.0814,-0.009 -0.0454,-0.0184 z m 17.26367,3.7e-4 c 0.0267,-0.0107 0.0585,-0.009 0.0708,0.003 0.0123,0.0123 -0.01,0.021 -0.0485,0.0194 -0.043,-0.002 -0.0518,-0.0105 -0.0223,-0.0223 z m 1.21619,7.8e-4 c 0.0254,-0.0102 0.0669,-0.0102 0.0923,0 0.0254,0.0102 0.005,0.0186 -0.0462,0.0186 -0.0508,0 -0.0715,-0.008 -0.0462,-0.0186 z m -58.63332,-0.0377 c 0.0266,-0.0107 0.0585,-0.009 0.0708,0.003 0.0123,0.0123 -0.01,0.021 -0.0485,0.0194 -0.043,-0.002 -0.0518,-0.0105 -0.0223,-0.0223 z m 16.0251,0 c 0.0267,-0.0107 0.0585,-0.009 0.0708,0.003 0.0123,0.0123 -0.01,0.021 -0.0485,0.0194 -0.043,-0.002 -0.0518,-0.0105 -0.0223,-0.0223 z m 2.21545,0 c 0.0267,-0.0107 0.0585,-0.009 0.0708,0.003 0.0123,0.0123 -0.01,0.021 -0.0485,0.0194 -0.043,-0.002 -0.0518,-0.0105 -0.0223,-0.0223 z m 10.48647,0 c 0.0267,-0.0107 0.0585,-0.009 0.0708,0.003 0.0123,0.0123 -0.01,0.021 -0.0485,0.0194 -0.043,-0.002 -0.0518,-0.0105 -0.0223,-0.0223 z m 11.77882,0 c 0.0267,-0.0107 0.0585,-0.009 0.0708,0.003 0.0123,0.0123 -0.01,0.021 -0.0485,0.0194 -0.043,-0.002 -0.0518,-0.0105 -0.0223,-0.0223 z m -40.24738,-0.0369 c 0.0267,-0.0107 0.0585,-0.009 0.0708,0.003 0.0123,0.0123 -0.01,0.021 -0.0485,0.0194 -0.043,-0.002 -0.0518,-0.0105 -0.0223,-0.0223 z m 37.81039,0 c 0.0266,-0.0107 0.0585,-0.009 0.0708,0.003 0.0123,0.0123 -0.01,0.021 -0.0485,0.0194 -0.043,-0.002 -0.0518,-0.0105 -0.0223,-0.0223 z m -49.601194,-5.99356 c 0,-3.21887 0.0044,-4.535679 0.0097,-2.926246 0.0053,1.609434 0.0053,4.243056 0,5.852486 -0.0053,1.60943 -0.0097,0.29262 -0.0097,-2.92624 z m 15.840484,0 c 0,-3.21887 0.004,-4.535679 0.01,-2.926246 0.005,1.609434 0.005,4.243056 0,5.852486 -0.005,1.60943 -0.01,0.29262 -0.01,-2.92624 z m 46.18325,1.11695 -0.009,-4.735525 2.07699,0.0089 2.07698,0.0089 -2.05838,0.0099 -2.05838,0.0099 -0.01,4.716765 -0.01,4.71675 z m -25.91317,3.0001 c 1e-5,-0.75141 0.005,-1.05357 0.0109,-0.67146 0.006,0.38211 0.006,0.9969 -2e-5,1.3662 -0.006,0.3693 -0.0109,0.0567 -0.0109,-0.69474 z m -22.37431,-0.0405 c 0,-0.69869 0.0125,-1.27035 0.0277,-1.27035 0.0152,0 0.0277,0.56395 0.0277,1.25324 0,0.68928 -0.0125,1.26095 -0.0277,1.27036 -0.0152,0.009 -0.0277,-0.55455 -0.0277,-1.25325 z m 18.81288,0.85731 c 0,-0.008 0.0291,-0.0367 0.0646,-0.0646 0.0586,-0.0459 0.0599,-0.0446 0.0139,0.0139 -0.0482,0.0615 -0.0786,0.0811 -0.0786,0.0507 z m -25.925501,-0.0876 c -0.04593,-0.0586 -0.04462,-0.0599 0.01394,-0.0139 0.06151,0.0482 0.08107,0.0786 0.05068,0.0786 -0.0077,0 -0.03674,-0.0291 -0.06462,-0.0646 z m -0.384732,-0.35078 -0.145958,-0.15693 0.156928,0.14596 c 0.145943,0.13574 0.173895,0.1679 0.145958,0.1679 -0.006,0 -0.07665,-0.0706 -0.156928,-0.15693 z m 18.129783,0 -0.14596,-0.15693 0.15693,0.14596 c 0.14594,0.13574 0.17389,0.1679 0.14596,0.1679 -0.006,0 -0.0767,-0.0706 -0.15693,-0.15693 z m -18.446611,-0.35078 c -0.04593,-0.0586 -0.04462,-0.0599 0.01394,-0.0139 0.03554,0.0279 0.06462,0.057 0.06462,0.0646 0,0.0304 -0.03032,0.0108 -0.07856,-0.0507 z m 33.282651,-0.2203 c 0.0558,-0.008 0.14723,-0.008 0.20308,0 0.0558,0.008 0.0101,0.0154 -0.10154,0.0154 -0.1117,0 -0.15739,-0.007 -0.10154,-0.0154 z m -0.42463,-0.0349 c 0.0254,-0.0103 0.0669,-0.0103 0.0923,0 0.0254,0.0102 0.005,0.0186 -0.0462,0.0186 -0.0508,0 -0.0715,-0.008 -0.0462,-0.0186 z m 1.03618,-7.8e-4 c 0.0267,-0.0107 0.0585,-0.009 0.0708,0.003 0.0123,0.0123 -0.01,0.021 -0.0485,0.0194 -0.043,-0.002 -0.0518,-0.0105 -0.0223,-0.0223 z m -29.26473,-0.0741 c 0.0355,-0.009 0.0937,-0.009 0.12923,0 0.0355,0.009 0.006,0.0169 -0.0646,0.0169 -0.0711,0 -0.10015,-0.008 -0.0646,-0.0169 z m 0.68309,10e-4 c 0.0254,-0.0102 0.0669,-0.0102 0.0923,0 0.0254,0.0102 0.005,0.0186 -0.0462,0.0186 -0.0508,0 -0.0715,-0.008 -0.0462,-0.0186 z m 17.18822,-10e-4 c 0.0355,-0.009 0.0937,-0.009 0.12923,0 0.0355,0.009 0.006,0.0169 -0.0646,0.0169 -0.0711,0 -0.10016,-0.008 -0.0646,-0.0169 z m 0.73918,0 c 0.0359,-0.009 0.0858,-0.009 0.11078,10e-4 0.025,0.0101 -0.004,0.0178 -0.0653,0.017 -0.0609,-7.4e-4 -0.0814,-0.009 -0.0455,-0.0184 z m 21.56374,0 c 0.0359,-0.009 0.0858,-0.009 0.11077,10e-4 0.025,0.0101 -0.004,0.0178 -0.0653,0.017 -0.0609,-7.4e-4 -0.0814,-0.009 -0.0454,-0.0184 z m 0.70156,0 c 0.0359,-0.009 0.0858,-0.009 0.11077,10e-4 0.025,0.0101 -0.004,0.0178 -0.0653,0.017 -0.0609,-7.4e-4 -0.0814,-0.009 -0.0454,-0.0184 z m 18.7014,10e-4 c 0.0254,-0.0102 0.0669,-0.0102 0.0923,0 0.0254,0.0102 0.005,0.0186 -0.0461,0.0186 -0.0508,0 -0.0715,-0.008 -0.0462,-0.0186 z m 0.48233,-7.8e-4 c 0.0266,-0.0107 0.0585,-0.009 0.0708,0.003 0.0123,0.0123 -0.01,0.021 -0.0485,0.0194 -0.043,-0.002 -0.0518,-0.0105 -0.0223,-0.0223 z m -60.33415,-0.0369 c 0.0267,-0.0107 0.0585,-0.009 0.0708,0.003 0.0123,0.0123 -0.01,0.021 -0.0485,0.0194 -0.043,-0.002 -0.0518,-0.0105 -0.0223,-0.0223 z m 19.20059,0 c 0.0266,-0.0107 0.0585,-0.009 0.0708,0.003 0.0123,0.0123 -0.01,0.021 -0.0485,0.0194 -0.043,-0.002 -0.0518,-0.0105 -0.0223,-0.0223 z m 36.71249,-0.51325 c 0.002,-0.043 0.0105,-0.0518 0.0223,-0.0223 0.0107,0.0267 0.009,0.0585 -0.003,0.0708 -0.0123,0.0123 -0.021,-0.01 -0.0194,-0.0485 z M 123.10966,103.431 c 0,-0.006 0.054,-0.0603 0.12,-0.12 l 0.12,-0.10845 -0.10845,0.12 c -0.10109,0.11187 -0.13155,0.13698 -0.13155,0.10845 z m 35.3081,-0.24691 c 0,-0.0711 0.008,-0.10016 0.0169,-0.0646 0.009,0.0355 0.009,0.0937 0,0.12924 -0.009,0.0355 -0.0169,0.006 -0.0169,-0.0646 z m -22.3448,0.0154 c 0.002,-0.043 0.0105,-0.0518 0.0223,-0.0223 0.0107,0.0267 0.009,0.0585 -0.003,0.0708 -0.0123,0.0123 -0.021,-0.01 -0.0194,-0.0485 z m 9.48661,0.0445 c 0,-0.008 0.0291,-0.0367 0.0646,-0.0646 0.0586,-0.0459 0.0599,-0.0446 0.0139,0.0139 -0.0482,0.0615 -0.0786,0.0811 -0.0786,0.0507 z m -44.83069,-0.0876 c -0.0459,-0.0586 -0.0446,-0.0599 0.0139,-0.014 0.0355,0.0279 0.0646,0.057 0.0646,0.0646 0,0.0304 -0.0303,0.0108 -0.0786,-0.0507 z m 32.61461,-0.12001 c 0,-0.0508 0.008,-0.0715 0.0186,-0.0461 0.0102,0.0254 0.0102,0.0669 0,0.0923 -0.0102,0.0254 -0.0186,0.005 -0.0186,-0.0462 z m 27.84085,-0.29539 c 0,-0.0508 0.008,-0.0715 0.0186,-0.0462 0.0102,0.0254 0.0102,0.0669 0,0.0923 -0.0102,0.0254 -0.0186,0.005 -0.0186,-0.0461 z m -0.0246,-3.212407 3.7e-4,-2.861626 1.38466,-6.64e-4 1.38466,-6.65e-4 -1.3752,0.01034 -1.3752,0.01034 -0.01,2.851952 -0.01,2.85195 3.7e-4,-2.861624 z m -25.08382,2.732387 c 0,-0.0508 0.008,-0.0715 0.0186,-0.0461 0.0102,0.0254 0.0102,0.0669 0,0.0923 -0.0102,0.0254 -0.0186,0.005 -0.0186,-0.0462 z m -3.1491,-0.13846 c -0.0459,-0.0586 -0.0446,-0.0599 0.0139,-0.0139 0.0615,0.0482 0.0811,0.0786 0.0507,0.0786 -0.008,0 -0.0367,-0.0291 -0.0646,-0.0646 z m -35.956545,-0.43694 c 0.0018,-0.043 0.01052,-0.0518 0.02231,-0.0223 0.01067,0.0267 0.0094,0.0585 -0.0029,0.0708 -0.01227,0.0123 -0.021,-0.01 -0.0194,-0.0485 z m 18.129785,-0.14769 c 0.002,-0.043 0.0105,-0.0518 0.0223,-0.0223 0.0107,0.0267 0.009,0.0585 -0.003,0.0708 -0.0123,0.0123 -0.021,-0.01 -0.0194,-0.0485 z m 11.81574,-0.0369 c 0.002,-0.043 0.0105,-0.0518 0.0223,-0.0223 0.0107,0.0267 0.009,0.0585 -0.003,0.0708 -0.0123,0.0123 -0.021,-0.01 -0.0194,-0.0485 z m 10.44955,-0.0369 c 0.002,-0.043 0.0105,-0.0518 0.0223,-0.0223 0.0107,0.0266 0.009,0.0585 -0.003,0.0708 -0.0123,0.0123 -0.021,-0.01 -0.0194,-0.0485 z m -40.431999,-0.0369 c 0.0018,-0.043 0.01052,-0.0518 0.02231,-0.0223 0.01067,0.0267 0.0094,0.0585 -0.0029,0.0708 -0.01227,0.0123 -0.021,-0.01 -0.0194,-0.0485 z m 52.284669,-0.11077 c 0.002,-0.043 0.0105,-0.0518 0.0223,-0.0223 0.0107,0.0267 0.009,0.0585 -0.003,0.0708 -0.0123,0.0123 -0.021,-0.01 -0.0194,-0.0485 z m -31.2748,-0.0369 c 0.002,-0.043 0.0105,-0.0518 0.0223,-0.0223 0.0107,0.0267 0.009,0.0585 -0.003,0.0708 -0.0123,0.0123 -0.021,-0.01 -0.0194,-0.0485 z m -2.8758,-0.0708 c 7.3e-4,-0.0609 0.009,-0.0814 0.0184,-0.0455 0.009,0.0359 0.009,0.0858 -0.001,0.11077 -0.0101,0.025 -0.0178,-0.004 -0.017,-0.0653 z m 9.04214,0.0339 c 0.002,-0.043 0.0105,-0.0518 0.0223,-0.0223 0.0107,0.0267 0.009,0.0585 -0.003,0.0708 -0.0123,0.0123 -0.021,-0.01 -0.0194,-0.0485 z m 2.84317,0 c 0.002,-0.043 0.0105,-0.0518 0.0223,-0.0223 0.0107,0.0267 0.009,0.0585 -0.003,0.0708 -0.0123,0.0123 -0.021,-0.01 -0.0194,-0.0485 z m 10.38135,-0.12616 c 0,-0.0711 0.008,-0.10015 0.0169,-0.0646 0.009,0.0355 0.009,0.0937 0,0.12923 -0.009,0.0355 -0.0169,0.006 -0.0169,-0.0646 z m -40.431254,-0.0923 c 4.06e-4,-0.0812 0.008,-0.11012 0.0168,-0.0642 0.0088,0.0459 0.0085,0.11239 -7.39e-4,0.14769 -0.0092,0.0353 -0.01647,-0.002 -0.01606,-0.0835 z m 2.873688,0.0708 c 0.0018,-0.043 0.01052,-0.0518 0.02231,-0.0223 0.01067,0.0267 0.0094,0.0585 -0.0029,0.0708 -0.01227,0.0123 -0.021,-0.01 -0.0194,-0.0485 z m 18.132696,-0.0892 c 0,-0.0508 0.008,-0.0715 0.0186,-0.0461 0.0102,0.0254 0.0102,0.0669 0,0.0923 -0.0102,0.0254 -0.0186,0.005 -0.0186,-0.0462 z m 28.50685,-0.0185 c 7.4e-4,-0.0609 0.009,-0.0814 0.0184,-0.0455 0.009,0.0359 0.009,0.0858 -0.001,0.11077 -0.0101,0.025 -0.0178,-0.004 -0.017,-0.0653 z m 2.84317,0 c 7.3e-4,-0.0609 0.009,-0.0814 0.0184,-0.0455 0.009,0.0359 0.009,0.0858 -10e-4,0.11077 -0.0101,0.025 -0.0178,-0.004 -0.017,-0.0653 z m -25.10846,-0.0738 c 7.4e-4,-0.0609 0.009,-0.0814 0.0184,-0.0455 0.009,0.0359 0.009,0.0858 -10e-4,0.11077 -0.0101,0.025 -0.0178,-0.004 -0.017,-0.0653 z m 16.0251,0 c 7.4e-4,-0.0609 0.009,-0.0814 0.0184,-0.0455 0.009,0.0359 0.009,0.0858 -10e-4,0.11077 -0.0101,0.025 -0.0178,-0.004 -0.017,-0.0653 z m -13.18194,-0.0369 c 7.4e-4,-0.0609 0.009,-0.0814 0.0184,-0.0455 0.009,0.0359 0.009,0.0858 -0.001,0.11078 -0.0101,0.025 -0.0178,-0.004 -0.017,-0.0653 z m -27.247195,-0.16616 c 0,-0.0914 0.0072,-0.12878 0.016,-0.0831 0.0088,0.0457 0.0088,0.12046 0,0.16616 -0.0088,0.0457 -0.016,0.008 -0.016,-0.0831 z m 15.290655,-0.31386 c 0,-0.2437 0.006,-0.33859 0.0133,-0.21087 0.007,0.12773 0.007,0.32712 0,0.4431 -0.007,0.11597 -0.0132,0.0115 -0.0131,-0.23223 z m 20.20017,0.12001 -0.14596,-0.15693 0.15693,0.14596 c 0.14594,0.13574 0.17389,0.16789 0.14595,0.16789 -0.006,0 -0.0766,-0.0706 -0.15692,-0.15692 z m -17.35779,-0.21232 c 0,-0.19293 0.006,-0.27185 0.0138,-0.17539 0.008,0.0965 0.008,0.25432 0,0.35078 -0.008,0.0965 -0.0138,0.0175 -0.0138,-0.17539 z m 19.42026,0.0923 c 3.7e-4,-0.12185 0.007,-0.16724 0.0153,-0.10088 0.008,0.0664 0.008,0.16606 -3.7e-4,0.22155 -0.008,0.0555 -0.0152,0.001 -0.0149,-0.12067 z m 9.15924,-0.1477 c 0,-0.20308 0.006,-0.281446 0.0138,-0.17415 0.007,0.1073 0.007,0.27346 0,0.36924 -0.008,0.0958 -0.0137,0.008 -0.0136,-0.19509 z m 2.84391,-0.0923 c 0,-0.253849 0.006,-0.357699 0.0131,-0.230772 0.007,0.126932 0.007,0.334622 0,0.461552 -0.007,0.12693 -0.0131,0.0231 -0.0131,-0.23078 z m -22.26808,-0.0185 c 3.7e-4,-0.12185 0.007,-0.167242 0.0153,-0.10088 0.008,0.0664 0.008,0.16606 -3.7e-4,0.22155 -0.008,0.0555 -0.0152,0.001 -0.0149,-0.12067 z m -30.131528,-0.0923 c 0,-0.09139 0.0072,-0.128771 0.016,-0.08308 0.0088,0.0457 0.0088,0.12047 0,0.16616 -0.0088,0.0457 -0.016,0.008 -0.016,-0.0831 z m 2.842417,-0.09231 c 4.06e-4,-0.08123 0.008,-0.110119 0.0168,-0.06418 0.0088,0.04593 0.0085,0.11239 -7.38e-4,0.14769 -0.0092,0.0353 -0.01647,-0.002 -0.01606,-0.08351 z m 40.429881,-0.258469 c 7.4e-4,-0.06093 0.009,-0.08138 0.0184,-0.04545 0.009,0.03593 0.009,0.08577 -10e-4,0.110773 -0.0101,0.025 -0.0178,-0.0044 -0.017,-0.06532 z m -2.84179,-0.05539 c 0,-0.07108 0.008,-0.100157 0.0169,-0.06462 0.009,0.03554 0.009,0.09369 0,0.129235 -0.009,0.03554 -0.0169,0.0065 -0.0169,-0.06462 z m -26.47602,-0.01846 c 7.4e-4,-0.06092 0.009,-0.08138 0.0184,-0.04545 0.009,0.03593 0.009,0.08577 -10e-4,0.110772 -0.0101,0.025 -0.0178,-0.0044 -0.017,-0.06532 z m 13.29271,0 c 7.4e-4,-0.06092 0.009,-0.08138 0.0184,-0.04545 0.009,0.03593 0.009,0.08577 -10e-4,0.110772 -0.0101,0.025 -0.0178,-0.0044 -0.017,-0.06532 z m -27.214502,-0.01846 c 0,-0.05077 0.0084,-0.07154 0.01862,-0.04615 0.01024,0.02539 0.01024,0.06692 0,0.09231 -0.01024,0.02538 -0.01862,0.0046 -0.01862,-0.04616 z m 20.972942,0 c 0,-0.05077 0.008,-0.07154 0.0186,-0.04615 0.0102,0.02539 0.0102,0.06692 0,0.09231 -0.0102,0.02538 -0.0186,0.0046 -0.0186,-0.04616 z m -18.132696,-0.02154 c 0.0018,-0.04302 0.01052,-0.05177 0.02231,-0.02231 0.01067,0.02666 0.0094,0.0585 -0.0029,0.07077 -0.01227,0.01227 -0.021,-0.0095 -0.0194,-0.04846 z m 15.290906,-0.03385 c 7.3e-4,-0.06092 0.009,-0.08138 0.0184,-0.04545 0.009,0.03593 0.009,0.08577 -0.001,0.110773 -0.0101,0.025 -0.0178,-0.0044 -0.017,-0.06532 z m 31.34728,-0.01846 c 0,-0.05077 0.008,-0.07154 0.0186,-0.04615 0.0102,0.02538 0.0102,0.06692 0,0.09231 -0.0102,0.02539 -0.0186,0.0046 -0.0186,-0.04615 z m -19.42077,-0.129235 c 7.4e-4,-0.06093 0.009,-0.08138 0.0184,-0.04545 0.009,0.03593 0.009,0.08577 -0.001,0.110772 -0.0101,0.025 -0.0178,-0.0044 -0.017,-0.06532 z m 13.21458,-0.04 c 0.002,-0.04302 0.0105,-0.05176 0.0223,-0.02231 0.0107,0.02665 0.009,0.0585 -0.003,0.07077 -0.0123,0.01227 -0.021,-0.0095 -0.0194,-0.04846 z m 9.04935,-0.05231 c 0,-0.05077 0.008,-0.07154 0.0186,-0.04615 0.0102,0.02538 0.0102,0.06693 0,0.09231 -0.0102,0.02538 -0.0186,0.0046 -0.0186,-0.04616 z m -38.36716,-0.02154 c 0.002,-0.04302 0.0105,-0.05176 0.0223,-0.02231 0.0107,0.02666 0.009,0.0585 -0.003,0.07077 -0.0123,0.01227 -0.021,-0.0095 -0.0194,-0.04846 z m 26.47465,0 c 0.002,-0.04302 0.0105,-0.05176 0.0223,-0.02231 0.0107,0.02666 0.009,0.0585 -0.003,0.07077 -0.0123,0.01227 -0.021,-0.0095 -0.0194,-0.04846 z m -22.26529,-0.07385 c 0.002,-0.04302 0.0105,-0.05177 0.0223,-0.02231 0.0107,0.02666 0.009,0.0585 -0.003,0.07077 -0.0123,0.01227 -0.021,-0.0095 -0.0194,-0.04846 z m 31.27479,0 c 0.002,-0.04302 0.0105,-0.05177 0.0223,-0.02231 0.0107,0.02666 0.009,0.0585 -0.003,0.07077 -0.0123,0.01227 -0.021,-0.0095 -0.0194,-0.04846 z m -19.42212,-0.184621 c 0.002,-0.04302 0.0105,-0.05176 0.0223,-0.02231 0.0107,0.02665 0.009,0.0585 -0.003,0.07077 -0.0123,0.01227 -0.021,-0.0095 -0.0194,-0.04846 z m 1.44004,-0.664636 c 0.002,-0.04302 0.0105,-0.05176 0.0223,-0.02231 0.0107,0.02666 0.009,0.0585 -0.003,0.07077 -0.0123,0.01227 -0.021,-0.0095 -0.0194,-0.04846 z m -0.0262,-0.606174 c 0,-0.213237 0.006,-0.30047 0.0136,-0.193852 0.007,0.106619 0.007,0.281086 0,0.387704 -0.007,0.106619 -0.0136,0.01939 -0.0136,-0.193852 z m 2.76497,-0.240007 c 4.1e-4,-0.08123 0.008,-0.110119 0.0168,-0.06419 0.009,0.04593 0.008,0.112393 -7.4e-4,0.147697 -0.009,0.0353 -0.0165,-0.0023 -0.0161,-0.08351 z m -25.1011,-1.440044 c -1e-5,-0.731099 0.005,-1.035417 0.011,-0.676266 0.006,0.359154 0.006,0.957326 2e-5,1.329271 -0.006,0.371948 -0.011,0.07809 -0.011,-0.653005 z m 17.16922,1.153882 -0.10845,-0.120004 0.12001,0.10845 c 0.11186,0.101091 0.13697,0.131557 0.10845,0.131557 -0.006,0 -0.0604,-0.054 -0.12001,-0.120003 z m -69.015312,0.05539 c 1.783662,-0.0053 4.691443,-0.0053 6.461735,0 1.770292,0.0053 0.310933,0.0096 -3.243022,0.0096 -3.553954,0 -5.002375,-0.0043 -3.218713,-0.0096 z M 36.688565,90.823663 v -6.452504 h 6.424811 6.424811 l -6.415476,0.0095 -6.415477,0.0095 -0.0093,6.443169 -0.0093,6.44286 z m 14.252585,-0.0092 1.48e-4,-6.443273 h 6.443273 6.443272 l -6.433938,0.0095 -6.433938,0.0095 -0.0095,6.433938 -0.0095,6.433939 1.48e-4,-6.443273 z m 84.53809,5.106583 c -0.0101,-0.714871 -0.006,-1.287063 0.01,-1.271543 0.0155,0.01552 0.0238,0.600413 0.0184,1.299761 l -0.01,1.271547 z m -20.58693,-0.140278 c -10e-6,-0.771716 0.005,-1.092665 0.0109,-0.713221 0.006,0.379444 0.006,1.010848 2e-5,1.40312 -0.006,0.392271 -0.0109,0.08182 -0.0109,-0.689899 z m 30.441,1.32004 c -0.0459,-0.05857 -0.0446,-0.05987 0.0139,-0.01394 0.0615,0.04824 0.0811,0.07856 0.0507,0.07856 -0.008,0 -0.0367,-0.02908 -0.0646,-0.06462 z m -13.95263,-0.281643 c 0,-0.0077 0.0291,-0.03674 0.0646,-0.06462 0.0586,-0.04593 0.0599,-0.04462 0.0139,0.01394 -0.0482,0.06151 -0.0786,0.08107 -0.0786,0.05068 z m -18.46903,-0.08513 c 0.0267,-0.01067 0.0585,-0.0094 0.0708,0.0029 0.0123,0.01227 -0.01,0.021 -0.0485,0.0194 -0.043,-0.0018 -0.0518,-0.01052 -0.0223,-0.02231 z m 0.77541,0 c 0.0267,-0.01067 0.0585,-0.0094 0.0708,0.0029 0.0123,0.01227 -0.01,0.021 -0.0485,0.0194 -0.043,-0.0018 -0.0518,-0.01052 -0.0223,-0.02231 z m -0.42623,-0.03729 c 0.0359,-0.0094 0.0858,-0.0087 0.11077,0.0014 0.025,0.01011 -0.004,0.01777 -0.0653,0.01702 -0.0609,-7.39e-4 -0.0814,-0.009 -0.0455,-0.01839 z m 36.79426,-0.03893 c 0.26909,-0.0063 0.70941,-0.0063 0.97849,0 0.26909,0.0063 0.0489,0.01147 -0.48924,0.01147 -0.53817,0 -0.75833,-0.0052 -0.48925,-0.01147 z m -47.26067,-0.219171 c 0.0267,-0.01067 0.0585,-0.0094 0.0708,0.0029 0.0123,0.01227 -0.01,0.021 -0.0485,0.0194 -0.043,-0.0018 -0.0518,-0.01052 -0.0223,-0.02231 z m 0.9208,7.76e-4 c 0.0254,-0.01024 0.0669,-0.01024 0.0923,0 0.0254,0.01024 0.005,0.01862 -0.0462,0.01862 -0.0508,0 -0.0715,-0.0084 -0.0461,-0.01862 z m 16.87667,-7.76e-4 c 0.0266,-0.01067 0.0585,-0.0094 0.0708,0.0029 0.0123,0.01227 -0.01,0.021 -0.0485,0.0194 -0.043,-0.0018 -0.0518,-0.01052 -0.0223,-0.02231 z m 0.9231,0 c 0.0267,-0.01067 0.0585,-0.0094 0.0708,0.0029 0.0123,0.01227 -0.01,0.021 -0.0485,0.0194 -0.043,-0.0018 -0.0518,-0.01052 -0.0223,-0.02231 z m 21.33988,7.76e-4 c 0.0254,-0.01024 0.0669,-0.01024 0.0923,0 0.0254,0.01024 0.005,0.01862 -0.0462,0.01862 -0.0508,0 -0.0715,-0.0084 -0.0462,-0.01862 z m 0.92541,-7.76e-4 c 0.0267,-0.01067 0.0585,-0.0094 0.0708,0.0029 0.0123,0.01227 -0.01,0.021 -0.0485,0.0194 -0.043,-0.0018 -0.0518,-0.01052 -0.0223,-0.02231 z m -10.44954,-0.07385 c 0.0267,-0.01067 0.0585,-0.0094 0.0708,0.0029 0.0123,0.01227 -0.01,0.021 -0.0485,0.0194 -0.043,-0.0018 -0.0518,-0.01052 -0.0223,-0.02231 z m -0.72233,-0.03884 c 0.0965,-0.0076 0.25431,-0.0076 0.35078,0 0.0965,0.0076 0.0175,0.01383 -0.17539,0.01383 -0.19293,0 -0.27186,-0.0062 -0.17539,-0.01383 z M 98.407366,96.08065 c 0,-0.0077 0.02908,-0.03674 0.06462,-0.06462 0.05857,-0.04593 0.05987,-0.04462 0.01394,0.01394 -0.04824,0.06151 -0.07856,0.08107 -0.07856,0.05068 z m 49.473714,-0.198372 c -0.0459,-0.05857 -0.0446,-0.05987 0.0139,-0.01394 0.0355,0.02787 0.0646,0.05695 0.0646,0.06462 0,0.03039 -0.0303,0.01083 -0.0786,-0.05067 z m -22.3564,-0.09231 -0.0703,-0.08308 0.0831,0.07034 c 0.0781,0.0661 0.0999,0.09582 0.0703,0.09582 -0.007,0 -0.0444,-0.03739 -0.0831,-0.08308 z m -26.784997,-0.04164 c 0,-0.0077 0.02908,-0.03674 0.06462,-0.06462 0.05857,-0.04593 0.05987,-0.04462 0.01394,0.01394 -0.04824,0.0615 -0.07856,0.08107 -0.07856,0.05067 z m 26.582627,-0.161447 -0.0895,-0.101542 0.10154,0.08952 c 0.0949,0.08367 0.11847,0.113568 0.0895,0.113568 -0.007,0 -0.0523,-0.04569 -0.10154,-0.101541 z m 13.84937,0.0092 c 0.0477,-0.05077 0.095,-0.09231 0.10518,-0.09231 0.0102,0 -0.0206,0.04154 -0.0683,0.09231 -0.0477,0.05077 -0.095,0.09231 -0.10519,0.09231 -0.0102,0 0.0206,-0.04154 0.0683,-0.09231 z m -22.22837,-0.0324 c 0,-0.0077 0.0291,-0.03674 0.0646,-0.06462 0.0586,-0.04593 0.0599,-0.04462 0.0139,0.01394 -0.0482,0.0615 -0.0786,0.08107 -0.0786,0.05067 z m 8.08169,-0.235296 c -0.0459,-0.05857 -0.0446,-0.05987 0.0139,-0.01394 0.0615,0.04824 0.0811,0.07856 0.0507,0.07856 -0.008,0 -0.0367,-0.02908 -0.0646,-0.06462 z M 86.825282,95.005328 c 0,-0.142158 0.0068,-0.19579 0.01483,-0.11918 0.008,0.07661 0.0079,0.192922 -3.69e-4,0.25847 -0.0082,0.06555 -0.0147,0.0029 -0.01453,-0.13929 z m 24.893258,0.05539 c 0.0793,-0.08123 0.15253,-0.147697 0.16268,-0.147697 0.0102,0 -0.0464,0.06646 -0.12576,0.147697 -0.0793,0.08123 -0.15253,0.147697 -0.16268,0.147697 -0.0102,0 0.0464,-0.06646 0.12576,-0.147697 z m -37.11347,-0.49848 c 0,-0.223391 0.0062,-0.310019 0.01351,-0.192504 0.0073,0.117515 0.0073,0.30029 0,0.406166 -0.0074,0.105876 -0.01345,0.0097 -0.01336,-0.213662 z m 79.68458,-1.015415 c 0,-0.497554 0.005,-0.701099 0.0116,-0.452322 0.006,0.248777 0.006,0.655866 0,0.904643 -0.006,0.248777 -0.0116,0.04523 -0.0116,-0.452321 z m 6.86898,-0.867719 c -10e-6,-0.954491 0.005,-1.350263 0.0106,-0.879494 0.006,0.470773 0.006,1.251719 2e-5,1.735437 -0.006,0.483722 -0.0106,0.09855 -0.0106,-0.855943 z M 86.861157,94.13761 c 0,-0.111696 0.0069,-0.15739 0.01538,-0.101542 0.0085,0.05585 0.0085,0.147235 0,0.203083 -0.0085,0.05585 -0.01538,0.01015 -0.01538,-0.101541 z m 47.208063,0.122474 c 0.0267,-0.01067 0.0585,-0.0094 0.0708,0.0029 0.0123,0.01227 -0.01,0.021 -0.0485,0.0194 -0.043,-0.0018 -0.0518,-0.01052 -0.0223,-0.02231 z m 7.9387,0 c 0.0267,-0.01067 0.0585,-0.0094 0.0708,0.0029 0.0123,0.01227 -0.01,0.021 -0.0485,0.0194 -0.043,-0.0018 -0.0518,-0.01052 -0.0223,-0.02231 z m -40.02583,-0.03693 c 0.0267,-0.01067 0.0585,-0.0094 0.0708,0.0029 0.0123,0.01227 -0.01,0.021 -0.0485,0.0194 -0.043,-0.0018 -0.0518,-0.01052 -0.0223,-0.02231 z m 11.64728,-0.0019 c 0.0965,-0.0076 0.25431,-0.0076 0.35078,0 0.0965,0.0076 0.0175,0.01383 -0.17539,0.01383 -0.19293,0 -0.27186,-0.0062 -0.17539,-0.01383 z m 6.33481,0.0019 c 0.0267,-0.01067 0.0585,-0.0094 0.0708,0.0029 0.0123,0.01227 -0.01,0.021 -0.0485,0.0194 -0.043,-0.0018 -0.0518,-0.01052 -0.0223,-0.02231 z m 11.77881,0 c 0.0267,-0.01067 0.0585,-0.0094 0.0708,0.0029 0.0123,0.01227 -0.01,0.021 -0.0485,0.0194 -0.043,-0.0018 -0.0518,-0.01052 -0.0223,-0.02231 z m 2.10468,0 c 0.0267,-0.01067 0.0585,-0.0094 0.0708,0.0029 0.0123,0.01227 -0.01,0.021 -0.0485,0.0194 -0.043,-0.0018 -0.0518,-0.01052 -0.0223,-0.02231 z m 8.3818,0 c 0.0267,-0.01067 0.0585,-0.0094 0.0708,0.0029 0.0123,0.01227 -0.01,0.021 -0.0485,0.0194 -0.043,-0.0018 -0.0518,-0.01052 -0.0223,-0.02231 z m 2.43699,0 c 0.0267,-0.01067 0.0585,-0.0094 0.0708,0.0029 0.0123,0.01227 -0.01,0.021 -0.0485,0.0194 -0.043,-0.0018 -0.0518,-0.01052 -0.0223,-0.02231 z m -42.39128,-0.03616 c 0.0254,-0.01024 0.0669,-0.01024 0.0923,0 0.0254,0.01024 0.005,0.01863 -0.0462,0.01863 -0.0508,0 -0.0715,-0.0084 -0.0461,-0.01863 z m 1.70082,-7.75e-4 c 0.0267,-0.01067 0.0585,-0.0094 0.0708,0.0029 0.0123,0.01227 -0.01,0.021 -0.0485,0.0194 -0.043,-0.0018 -0.0518,-0.01052 -0.0223,-0.02231 z m 16.28126,7.75e-4 c 0.0254,-0.01024 0.0669,-0.01024 0.0923,0 0.0254,0.01024 0.005,0.01863 -0.0461,0.01863 -0.0508,0 -0.0715,-0.0084 -0.0462,-0.01863 z m 1.80929,0 c 0.0254,-0.01024 0.0669,-0.01024 0.0923,0 0.0254,0.01024 0.005,0.01863 -0.0462,0.01863 -0.0508,0 -0.0715,-0.0084 -0.0461,-0.01863 z m 9.93491,-7.75e-4 c 0.0267,-0.01067 0.0585,-0.0094 0.0708,0.0029 0.0123,0.01227 -0.01,0.021 -0.0485,0.0194 -0.043,-0.0018 -0.0518,-0.01052 -0.0223,-0.02231 z m 1.54851,7.75e-4 c 0.0254,-0.01024 0.0669,-0.01024 0.0923,0 0.0254,0.01024 0.005,0.01863 -0.0462,0.01863 -0.0508,0 -0.0715,-0.0084 -0.0462,-0.01863 z m 8.97258,0 c 0.0254,-0.01024 0.0669,-0.01024 0.0923,0 0.0254,0.01024 0.005,0.01863 -0.0461,0.01863 -0.0508,0 -0.0715,-0.0084 -0.0462,-0.01863 z m 1.84852,-7.75e-4 c 0.0267,-0.01067 0.0585,-0.0094 0.0708,0.0029 0.0123,0.01227 -0.01,0.021 -0.0485,0.0194 -0.043,-0.0018 -0.0518,-0.01052 -0.0223,-0.02231 z m -41.6528,-0.0384 c 0.066,-0.0082 0.174,-0.0082 0.24,0 0.066,0.0082 0.012,0.01489 -0.12,0.01489 -0.132,0 -0.18601,-0.0067 -0.12,-0.01489 z m 0.68309,3.69e-4 c 0.0559,-0.0085 0.14724,-0.0085 0.20309,0 0.0558,0.0085 0.0101,0.01538 -0.10154,0.01538 -0.1117,0 -0.15739,-0.0069 -0.10155,-0.01538 z m 17.33658,-3.69e-4 c 0.0664,-0.0082 0.16606,-0.008 0.22154,3.69e-4 0.0555,0.0084 0.001,0.01515 -0.12066,0.01494 -0.12185,-3.69e-4 -0.16725,-0.0071 -0.10088,-0.01532 z m 0.73782,0 c 0.066,-0.0082 0.174,-0.0082 0.24001,0 0.066,0.0082 0.012,0.01489 -0.12001,0.01489 -0.132,0 -0.186,-0.0067 -0.12,-0.01489 z m 10.93022,0 c 0.0664,-0.0082 0.16607,-0.008 0.22155,3.69e-4 0.0555,0.0084 0.001,0.01515 -0.12067,0.01494 -0.12185,-3.69e-4 -0.16724,-0.0071 -0.10088,-0.01532 z m 0.60859,3.69e-4 c 0.0559,-0.0085 0.14724,-0.0085 0.20309,0 0.0558,0.0085 0.0102,0.01538 -0.10155,0.01538 -0.11169,0 -0.15739,-0.0069 -0.10154,-0.01538 z m 9.988,-3.69e-4 c 0.066,-0.0082 0.174,-0.0082 0.24001,0 0.066,0.0082 0.012,0.01489 -0.12001,0.01489 -0.132,0 -0.186,-0.0067 -0.12,-0.01489 z m 0.73848,0 c 0.066,-0.0082 0.17401,-0.0082 0.24001,0 0.066,0.0082 0.012,0.01489 -0.12,0.01489 -0.13201,0 -0.18601,-0.0067 -0.12001,-0.01489 z M 74.563645,93.52836 c 4.06e-4,-0.08123 0.008,-0.110119 0.0168,-0.06419 0.0088,0.04593 0.0085,0.112394 -7.39e-4,0.147697 -0.0092,0.0353 -0.01647,-0.0023 -0.01606,-0.08351 z m 12.333931,-0.147696 c 3.69e-4,-0.101542 0.0074,-0.138699 0.01594,-0.08257 0.0085,0.05613 0.0083,0.139208 -5.17e-4,0.184621 -0.0088,0.04542 -0.01571,-5.17e-4 -0.01543,-0.102047 z M 74.524605,93.08527 c 7.38e-4,-0.06092 0.009,-0.08138 0.01839,-0.04545 0.0094,0.03593 0.0087,0.08577 -0.0014,0.110773 -0.01011,0.025 -0.01777,-0.0044 -0.01702,-0.06532 z m 19.055427,-0.451125 c 0.05613,-0.0085 0.139208,-0.0083 0.184621,5.17e-4 0.04542,0.0088 -5.17e-4,0.01571 -0.102047,0.01543 -0.101542,-3.7e-4 -0.138698,-0.0074 -0.08257,-0.01594 z m 57.933648,-0.139662 c 4e-4,-0.08123 0.008,-0.110119 0.0168,-0.06419 0.009,0.04593 0.008,0.112393 -7.4e-4,0.147696 -0.009,0.0353 -0.0165,-0.0023 -0.0161,-0.08351 z M 94.862642,92.162165 c 0.0477,-0.05077 0.09503,-0.09231 0.105183,-0.09231 0.01015,0 -0.02056,0.04154 -0.06826,0.09231 -0.0477,0.05077 -0.09503,0.09231 -0.105183,0.09231 -0.01015,0 0.02056,-0.04154 0.06826,-0.09231 z m 56.681558,-0.07692 c 0.002,-0.04302 0.0105,-0.05176 0.0223,-0.02231 0.0107,0.02666 0.009,0.0585 -0.003,0.07077 -0.0123,0.01227 -0.021,-0.0095 -0.0194,-0.04846 z M 95.312929,91.23906 c 7.39e-4,-0.06092 0.009,-0.08138 0.01839,-0.04545 0.0094,0.03593 0.0087,0.08577 -0.0014,0.110773 -0.01011,0.025 -0.01777,-0.0044 -0.01702,-0.06532 z m -3.320316,-0.166159 c 0,-0.09139 0.0072,-0.128773 0.016,-0.08308 0.0088,0.04569 0.0088,0.120465 0,0.166159 -0.0088,0.04569 -0.016,0.0083 -0.016,-0.08308 z m 65.325357,-1.070802 c 0,-0.66002 0.005,-0.930028 0.0111,-0.600018 0.006,0.33001 0.006,0.870027 0,1.200037 -0.006,0.33001 -0.0111,0.06 -0.0111,-0.600019 z m -62.005041,0.904643 c 7.39e-4,-0.06092 0.009,-0.08138 0.01839,-0.04545 0.0094,0.03593 0.0087,0.08577 -0.0014,0.110772 -0.01011,0.025 -0.01777,-0.0044 -0.01702,-0.06532 z m 60.356951,-0.0068 c 0.0266,-0.01067 0.0585,-0.0094 0.0708,0.0029 0.0123,0.01227 -0.01,0.021 -0.0485,0.0194 -0.043,-0.0018 -0.0518,-0.01052 -0.0223,-0.02231 z m 0.66463,0 c 0.0267,-0.01067 0.0585,-0.0094 0.0708,0.0029 0.0123,0.01227 -0.01,0.021 -0.0485,0.0194 -0.043,-0.0018 -0.0518,-0.01052 -0.0223,-0.02231 z m -3.68549,-1.100965 c 0.0689,-0.07108 0.13356,-0.129234 0.14372,-0.129234 0.0101,0 -0.0379,0.05815 -0.1068,0.129234 -0.0689,0.07108 -0.13357,0.129235 -0.14372,0.129235 -0.0101,0 0.0379,-0.05816 0.1068,-0.129235 z M 93.580032,89.458664 c 0.05613,-0.0085 0.139208,-0.0083 0.184621,5.17e-4 0.04542,0.0088 -5.17e-4,0.01571 -0.102047,0.01543 -0.101542,-3.69e-4 -0.138698,-0.0074 -0.08257,-0.01594 z m 63.123718,-0.774135 c 0.0267,-0.01067 0.0585,-0.0094 0.0708,0.0029 0.0123,0.01227 -0.01,0.021 -0.0485,0.0194 -0.043,-0.0018 -0.0518,-0.01052 -0.0223,-0.02231 z m -1.58774,-0.03692 c 0.0267,-0.01067 0.0585,-0.0094 0.0708,0.0029 0.0123,0.01227 -0.01,0.021 -0.0485,0.0194 -0.043,-0.0018 -0.0518,-0.01052 -0.0223,-0.02231 z m 1.29004,7.76e-4 c 0.0254,-0.01024 0.0669,-0.01024 0.0923,0 0.0254,0.01024 0.005,0.01862 -0.0461,0.01862 -0.0508,0 -0.0715,-0.0084 -0.0462,-0.01862 z m -0.77443,-0.03955 c 0.0868,-0.0078 0.21978,-0.0077 0.29539,3.7e-4 0.0756,0.0079 0.005,0.01432 -0.1579,0.01418 -0.16247,0 -0.22434,-0.0066 -0.13749,-0.01443 z"
         id="path2036" />
      <path
         style="fill:#ffffff;fill-opacity:1;stroke-width:0.0369242"
         d="m 36.707027,105.08564 v -6.443278 h 6.443273 6.443273 v 6.443278 6.44327 H 43.1503 36.707027 Z m 65.208133,1.25075 c -0.97946,-0.12053 -1.88925,-0.4455 -2.640076,-0.94303 -0.3903,-0.25863 -1.088078,-0.96005 -1.357954,-1.36505 -0.767894,-1.15236 -1.102959,-2.52278 -0.989923,-4.048771 0.0484,-0.653378 0.175435,-1.342313 0.338481,-1.835654 0.155717,-0.471156 0.53978,-1.235432 0.81485,-1.621518 0.711618,-0.99883 1.893067,-1.795362 3.150052,-2.123766 1.46229,-0.38204 3.26225,-0.291937 4.51546,0.226043 l 0.2677,0.110643 v 1.32535 1.325346 l -0.27884,-0.187324 c -0.38244,-0.256915 -0.96245,-0.52744 -1.38275,-0.644929 -0.49663,-0.138831 -1.33586,-0.166624 -1.84658,-0.06115 -1.4742,0.30444 -2.47446,1.43884 -2.716758,3.081085 -0.07346,0.497875 -0.05335,1.365555 0.04174,1.801085 0.327418,1.49961 1.263268,2.42519 2.707918,2.6782 0.81603,0.14291 1.67116,0.002 2.57063,-0.42417 0.20308,-0.0962 0.4836,-0.25221 0.62337,-0.34673 0.13977,-0.0945 0.26023,-0.17186 0.2677,-0.17186 0.007,0 0.0136,0.55625 0.0136,1.23611 v 1.23611 l -0.092,0.0603 c -0.15918,0.1043 -0.75017,0.34585 -1.08333,0.44279 -0.62758,0.1826 -1.10567,0.24436 -1.98172,0.25602 -0.44678,0.006 -0.87049,0.004 -0.94157,-0.005 z m 18.09286,-0.016 c -0.98291,-0.1211 -1.87899,-0.4424 -2.61992,-0.93939 -0.15139,-0.10154 -0.431,-0.33321 -0.62136,-0.51482 -0.96327,-0.91899 -1.51781,-2.11167 -1.67261,-3.59741 -0.062,-0.59509 -0.0255,-1.786973 0.0714,-2.331044 0.45847,-2.574839 2.11114,-4.238308 4.64006,-4.670372 0.84688,-0.144692 2.07346,-0.135929 2.88459,0.0206 1.94428,0.375206 3.36244,1.602271 3.98281,3.446121 0.37733,1.121491 0.45636,2.704455 0.20114,4.028625 -0.25783,1.3377 -0.96998,2.55478 -1.95313,3.33793 -0.77947,0.62091 -1.57562,0.96841 -2.67902,1.16932 -0.39194,0.0714 -1.8051,0.10327 -2.23392,0.0504 z m 2.08523,-2.34076 c 1.07791,-0.3205 1.68856,-1.05972 1.98408,-2.40182 0.10747,-0.4881 0.1343,-1.728104 0.0499,-2.307766 -0.0691,-0.474476 -0.26112,-1.095556 -0.4339,-1.40312 -0.28707,-0.511031 -0.69962,-0.906146 -1.19294,-1.142531 -0.4885,-0.23407 -0.72087,-0.279073 -1.44005,-0.278896 -0.54459,0 -0.66655,0.01138 -0.92101,0.08493 -0.51066,0.14759 -0.84566,0.346722 -1.22059,0.725549 -0.3546,0.358283 -0.51349,0.594259 -0.68667,1.01981 -0.2419,0.594435 -0.34298,1.199645 -0.34179,2.046594 0.002,1.28366 0.30405,2.20563 0.94509,2.88284 0.42879,0.45299 0.85685,0.68974 1.50495,0.83238 0.47392,0.10429 1.29895,0.077 1.75291,-0.058 z m 8.65971,2.35627 c -0.67522,-0.0846 -1.6137,-0.305 -2.06775,-0.48566 l -0.27693,-0.11019 -0.01,-1.33288 -0.01,-1.33288 0.30508,0.19811 c 0.59823,0.38847 1.22301,0.64845 1.96667,0.81836 0.37051,0.0847 0.52476,0.10085 0.94157,0.0989 1.18097,-0.006 1.76328,-0.40252 1.74711,-1.19083 -0.009,-0.41533 -0.15319,-0.6974 -0.4824,-0.9405 -0.2305,-0.17023 -0.90175,-0.51235 -1.52318,-0.77635 -1.61178,-0.68471 -2.26097,-1.18204 -2.66789,-2.04379 -0.20055,-0.42471 -0.28495,-0.860464 -0.28556,-1.474336 -7.8e-4,-0.787981 0.14568,-1.312038 0.51751,-1.8518 0.32533,-0.472246 0.6818,-0.797352 1.2149,-1.10801 1.03713,-0.604368 2.49054,-0.79212 4.01672,-0.518878 0.46759,0.08372 0.86203,0.18269 1.14143,0.28641 l 0.17994,0.0668 0.01,1.267445 0.01,1.267445 -0.12049,-0.07933 c -0.24935,-0.164169 -0.76036,-0.403696 -1.09899,-0.515126 -1.7343,-0.5707 -3.11566,-0.155144 -3.11592,0.937365 0,0.617291 0.24675,0.928256 1.04817,1.320144 0.27416,0.134064 0.68956,0.320852 0.9231,0.415083 1.83986,0.742346 2.71641,1.593058 2.9354,2.848848 0.19849,1.13824 -0.12919,2.23414 -0.89653,2.99836 -0.58697,0.58457 -1.42548,0.98952 -2.42657,1.1719 -0.32218,0.0587 -1.6722,0.1034 -1.97545,0.0654 z m 11.64959,-0.002 c -0.36461,-0.0335 -1.02906,-0.17292 -1.3756,-0.28869 -0.84223,-0.28136 -1.47767,-0.66979 -2.07916,-1.27095 -0.93515,-0.93461 -1.4401,-2.07933 -1.58899,-3.60224 -0.0524,-0.53556 -0.0237,-1.582234 0.0577,-2.104287 0.51054,-3.275498 2.98741,-5.110191 6.60145,-4.889912 0.96978,0.05911 1.69013,0.237042 2.39974,0.592755 1.416,0.70982 2.32514,1.927709 2.69972,3.616574 0.12713,0.573222 0.17147,1.025983 0.17147,1.751 0,1.56552 -0.31499,2.71877 -1.0409,3.81101 -0.77291,1.16293 -2.04248,1.98884 -3.50077,2.2774 -0.59266,0.11727 -1.68953,0.16749 -2.34469,0.10734 z m 1.65087,-2.28095 c 0.59203,-0.10324 1.05581,-0.33924 1.44961,-0.73762 0.30566,-0.30922 0.46507,-0.56574 0.63952,-1.02908 0.40641,-1.07939 0.43886,-2.708073 0.0763,-3.828154 -0.33691,-1.04079 -1.12097,-1.762108 -2.14389,-1.972339 -0.37137,-0.07632 -1.09025,-0.07641 -1.4593,-3.7e-4 -1.1149,0.230289 -1.89786,0.998889 -2.25872,2.217287 -0.25603,0.864455 -0.25534,2.299256 0.002,3.170726 0.35158,1.19277 1.18179,1.97098 2.32301,2.17749 0.37211,0.0673 0.99172,0.0682 1.37197,0.002 z m 17.0359,2.26606 c -1.35748,-0.19799 -2.21574,-0.98764 -2.53084,-2.32855 -0.13455,-0.57256 -0.14929,-0.98791 -0.14929,-4.207007 V 96.64847 h -2.06775 -2.06776 v 4.7263 4.7263 h -1.38466 -1.38465 v -4.7263 -4.7263 h -0.96003 -0.96003 v -1.107726 -1.107726 h 0.95497 0.95498 l 0.0209,-1.116957 c 0.0178,-0.947682 0.0329,-1.172827 0.0999,-1.485627 0.18026,-0.841546 0.49062,-1.43079 1.05241,-1.998116 0.64939,-0.655792 1.39306,-1.020267 2.36315,-1.15819 0.5767,-0.08199 1.66608,-0.02309 2.12701,0.115011 l 0.14382,0.04309 v 1.168381 1.168385 l -0.37847,-0.127827 c -0.4782,-0.161514 -1.05767,-0.201895 -1.41542,-0.09864 -0.61044,0.176191 -0.97217,0.56912 -1.1458,1.244615 -0.0454,0.17659 -0.0644,0.478741 -0.0779,1.239686 l -0.0179,1.006184 h 2.07163 2.07163 l 3.7e-4,-1.32004 3.7e-4,-1.32004 0.6551,-0.199443 c 0.36031,-0.109694 0.94588,-0.288869 1.30128,-0.398168 0.35539,-0.109296 0.67508,-0.207543 0.71042,-0.218325 0.0603,-0.0184 0.0648,0.0861 0.0738,1.708977 l 0.01,1.728577 1.39388,0.0097 1.39389,0.0097 v 1.106836 1.106836 l -1.39389,0.0097 -1.39388,0.0097 v 3.027785 c 0,3.017952 3.7e-4,3.028792 0.0826,3.337602 0.0993,0.37232 0.2154,0.58083 0.4219,0.75759 0.45874,0.39266 1.31738,0.41763 2.01138,0.0585 l 0.27188,-0.14069 v 1.1249 1.1249 l -0.15692,0.069 c -0.60013,0.26387 -1.91818,0.40641 -2.70157,0.29215 z M 72.006563,97.959264 v -8.141786 h 1.991288 1.991286 l 0.590724,1.486199 c 0.324896,0.81741 1.250061,3.139481 2.055928,5.160157 1.636883,4.104426 1.795838,4.516606 2.010062,5.212106 0.08271,0.26853 0.157839,0.4957 0.166956,0.50481 0.01983,0.0198 -8.86e-4,0.0746 0.423665,-1.11985 0.187678,-0.52802 1.280254,-3.253025 2.427947,-6.055572 1.147696,-2.802546 2.094828,-5.116309 2.104746,-5.141694 0.0141,-0.0361 0.435476,-0.04616 1.934133,-0.04616 h 1.916108 v 8.141786 8.14179 h -1.40312 -1.403119 l 8.12e-4,-5.28939 c 4.43e-4,-2.90917 0.01624,-5.621715 0.03508,-6.027881 0.07418,-1.598803 0.08401,-1.993892 0.04872,-1.956982 -0.01942,0.02031 -0.09491,0.286162 -0.167747,0.590787 -0.109285,0.457055 -0.229388,0.792655 -0.687148,1.920058 -0.305094,0.751408 -1.410051,3.476414 -2.455452,6.055578 l -1.90074,4.68937 -0.918825,0.01 -0.918826,0.01 -1.334935,-3.24072 c -0.734216,-1.7824 -1.833811,-4.450782 -2.443551,-5.929748 -1.147597,-2.783582 -1.216092,-2.965268 -1.390976,-3.689628 -0.05761,-0.238623 -0.120107,-0.433859 -0.138879,-0.433859 -0.0202,0 -0.02351,0.116831 -0.0081,0.286162 0.06944,0.763622 0.09234,2.614566 0.09389,7.587923 l 0.0017,5.41863 h -1.310809 -1.310809 z m 20.271385,2.307766 v -5.834027 h 1.366196 1.366195 v 5.834027 5.83402 h -1.366195 -1.366196 z m 15.840482,0 v -5.834027 h 1.3662 1.36619 l 7.4e-4,1.024647 7.4e-4,1.024646 0.16489,-0.345038 c 0.43627,-0.912914 1.02997,-1.481007 1.84597,-1.766365 0.2798,-0.09784 0.3295,-0.103317 0.94157,-0.103672 0.51583,-3.69e-4 0.689,0.01286 0.85849,0.06527 l 0.21231,0.06565 v 1.382512 1.382513 l -0.13058,-0.08861 c -0.28721,-0.194908 -0.9659,-0.363641 -1.45524,-0.361798 -0.61781,0.0023 -1.10521,0.220109 -1.54515,0.690401 -0.37627,0.402238 -0.62939,0.902103 -0.79217,1.564353 -0.0772,0.314003 -0.0792,0.395503 -0.0917,3.727278 l -0.0128,3.40626 h -1.36475 -1.36475 v -5.83402 z M 36.707027,90.832894 v -6.443273 h 6.443273 6.443273 v 6.443273 6.443273 H 43.1503 36.707027 Z m 14.243717,0 0.0094,-6.443273 h 6.443067 6.443066 v 6.443273 6.443273 H 57.39381 50.941306 Z m 42.167669,1.71912 c -0.427202,-0.136564 -0.778642,-0.438216 -0.972236,-0.834498 -0.09962,-0.203928 -0.107497,-0.25104 -0.107852,-0.64539 -3.69e-4,-0.407721 0.0047,-0.43578 0.12247,-0.674964 0.164103,-0.333333 0.429787,-0.593364 0.772617,-0.756174 0.235185,-0.111688 0.320576,-0.131963 0.622287,-0.147745 0.432294,-0.02261 0.734031,0.05005 1.046484,0.251993 0.385747,0.249323 0.63778,0.64185 0.701637,1.092753 0.110012,0.776823 -0.340116,1.478397 -1.098905,1.712763 -0.307246,0.0949 -0.791828,0.09546 -1.086502,0.0013 z"
         id="path2034" />
    </g>
  </g>
</svg>
