<?xml version="1.0" encoding="UTF-8" standalone="no"?>
<!-- Created with Inkscape (http://www.inkscape.org/) -->

<svg
   width="127.81462mm"
   height="95.007515mm"
   viewBox="0 0 127.81462 95.007515"
   version="1.1"
   id="svg1498"
   inkscape:version="1.1 (c68e22c387, 2021-05-23)"
   sodipodi:docname="Pega.svg"
   xmlns:inkscape="http://www.inkscape.org/namespaces/inkscape"
   xmlns:sodipodi="http://sodipodi.sourceforge.net/DTD/sodipodi-0.dtd"
   xmlns="http://www.w3.org/2000/svg"
   xmlns:svg="http://www.w3.org/2000/svg">
  <sodipodi:namedview
     id="namedview1500"
     pagecolor="#505050"
     bordercolor="#eeeeee"
     borderopacity="1"
     inkscape:pageshadow="0"
     inkscape:pageopacity="0"
     inkscape:pagecheckerboard="0"
     inkscape:document-units="mm"
     showgrid="false"
     fit-margin-top="0"
     fit-margin-left="0"
     fit-margin-right="0"
     fit-margin-bottom="0"
     inkscape:zoom="1.0482005"
     inkscape:cx="123.54507"
     inkscape:cy="213.22257"
     inkscape:window-width="1920"
     inkscape:window-height="1017"
     inkscape:window-x="-8"
     inkscape:window-y="-8"
     inkscape:window-maximized="1"
     inkscape:current-layer="layer1" />
  <defs
     id="defs1495" />
  <g
     inkscape:label="Layer 1"
     inkscape:groupmode="layer"
     id="layer1"
     transform="translate(-40.9353,-45.887088)">
    <path
       style="fill:#fbfcfe;fill-opacity:1;stroke-width:0.352778"
       d="m 113.44044,140.71238 c -2.19276,-0.35727 -5.43021,-1.77245 -7.15926,-3.12952 -5.54164,-4.34945 -7.168261,-12.57759 -3.79206,-19.18189 1.19279,-2.33323 4.08372,-5.0195 6.88696,-6.39939 2.391,-1.17695 2.58436,-1.21192 6.70277,-1.21192 4.16416,0 4.29023,0.0236 6.98016,1.30808 1.50668,0.71945 2.83403,1.55466 2.94968,1.85604 0.17711,0.46154 -0.68613,1.79783 -2.69316,4.169 -0.12922,0.15266 -1.08765,-0.16484 -2.12986,-0.70556 -2.56072,-1.32854 -6.69071,-1.39975 -9.22903,-0.15912 -6.84618,3.34614 -6.87389,13.77188 -0.0452,16.98176 2.32479,1.09278 6.08846,1.06904 9.02548,-0.0569 0.94477,-0.3622 0.97014,-0.4446 0.97014,-3.15135 v -2.77942 h -3.19046 -3.19045 l 0.10365,-2.55764 0.10365,-2.55764 6.08541,-0.0965 6.08542,-0.0965 v 6.68147 6.68146 l -1.38081,1.09362 c -3.32957,2.63707 -8.77099,4.01457 -13.08308,3.312 z M 49.234885,125.78272 v -14.11111 h 6.45227 c 7.110381,0 9.492999,0.39445 11.865264,1.96434 4.609874,3.05067 5.235158,10.68579 1.208902,14.76146 -1.946303,1.97019 -4.415186,2.78435 -9.115999,3.0062 l -4.236826,0.19994 -0.09939,4.14514 -0.09939,4.14514 h -2.987415 -2.987416 z m 14.846349,-1.32849 c 1.978423,-2.21584 1.032662,-6.00655 -1.687026,-6.76179 -0.737697,-0.20485 -2.650955,-0.37334 -4.251684,-0.37442 l -2.910417,-0.002 v 4.26455 4.26454 l 3.910238,-0.1194 3.910238,-0.11941 z m 11.964761,1.32849 v -14.11111 h 10.583333 10.583331 v 2.82222 2.82222 h -7.584721 -7.584721 v 2.81389 2.81389 l 6.085421,0.0965 6.085411,0.0965 0.10303,2.73403 0.10304,2.73403 h -6.188451 -6.188451 v 2.81534 2.81534 l 7.672921,0.0951 7.672911,0.0951 0.10303,2.73403 0.10304,2.73403 H 86.820555 76.045995 Z m 55.033335,13.79675 c 0,-0.28236 2.65833,-6.61318 11.02065,-26.24564 l 0.71949,-1.68917 2.82958,0.10167 2.82959,0.10166 1.16782,2.64584 c 1.82203,4.12803 10.71342,25.10381 10.71342,25.27416 0,0.0838 -1.44924,0.10667 -3.22054,0.0509 l -3.22054,-0.10143 -1.25757,-3.08681 -1.25757,-3.0868 -5.84064,7e-4 -5.84064,7.1e-4 -1.25967,3.08608 -1.25968,3.08608 -3.06185,0.10193 c -1.81076,0.0603 -3.06185,-0.0377 -3.06185,-0.23986 z m 17.92934,-11.76828 c -0.27022,-1.04469 -3.30535,-8.37342 -3.46545,-8.36781 -0.14109,0.005 -2.30742,5.25824 -3.37795,8.19142 -0.20522,0.56229 0.095,0.61736 3.36607,0.61736 2.69876,0 3.56304,-0.1096 3.47733,-0.44097 z M 41.090586,101.34465 c 0.729319,-1.918264 4.840805,-9.823212 6.830554,-13.132772 2.393999,-3.981951 6.382558,-9.647968 9.560931,-13.581944 2.79648,-3.461293 11.31517,-11.986373 14.723014,-14.734056 11.954576,-9.638767 26.270324,-15.20725 31.705905,-12.332846 2.79529,1.478184 3.30092,3.505806 2.25624,9.047744 -0.4365,2.315619 -0.52532,4.268508 -0.3783,8.317769 0.19692,5.423891 0.77607,8.520278 2.32836,12.448476 0.40537,1.025829 0.73704,1.922244 0.73704,1.992034 0,0.06979 -1.38906,0.31883 -3.08681,0.553424 -18.355343,2.536324 -39.96345,9.603207 -59.178468,19.354187 -2.910417,1.476944 -5.411989,2.740534 -5.559051,2.807974 -0.147061,0.0674 -0.119797,-0.26555 0.06059,-0.73999 z M 147.65988,87.360706 c -2.37882,-1.759772 -7.58304,-4.39772 -10.58333,-5.36455 -6.17705,-1.990524 -9.31935,-2.451516 -18.20902,-2.671361 l -8.15486,-0.201672 -0.19918,-2.863956 c -0.3753,-5.39617 0.45397,-11.464663 2.20689,-16.149767 2.35861,-6.303952 8.51426,-11.68352 15.2106,-13.29291 7.59171,-1.824581 17.72582,-0.890439 23.52606,2.168585 l 1.5041,0.793256 -1.23952,1.314122 c -0.68173,0.722764 -1.23708,1.432814 -1.23411,1.577883 0.0106,0.517053 0.56017,1.047232 3.34598,3.22785 2.60696,2.040618 2.84041,2.329649 3.06067,3.789383 0.29376,1.946797 1.55592,3.616551 7.50953,9.934529 5.02728,5.33497 5.07335,5.456315 3.24051,8.535613 -0.93738,1.574846 -1.3969,2.001101 -2.43987,2.263211 -1.15518,0.290308 -1.5987,0.159949 -4.39054,-1.290437 -4.70498,-2.444291 -6.84157,-3.058463 -9.8594,-2.834131 -3.06503,0.227838 -7.6068,-0.392328 -10.23288,-1.397272 -1.06581,-0.40786 -2.69713,-1.424241 -3.62517,-2.258624 -1.84113,-1.655339 -2.46406,-1.676263 -1.5098,-0.05071 1.19378,2.033559 4.90102,4.533508 8.78082,5.921272 2.13227,0.762695 2.18984,0.817764 2.89603,2.770064 0.39628,1.095545 0.86982,2.6269 1.05229,3.403011 0.89988,3.827297 0.89984,3.827413 -0.6558,2.676606 z m 7.06681,-25.989543 c 0.42623,-1.121054 0.18884,-1.557895 -0.84659,-1.557895 -0.93488,0 -2.35804,1.019482 -1.77233,1.269605 0.21502,0.09182 0.69127,0.394303 1.05834,0.672175 0.93772,0.709874 1.1661,0.653694 1.56058,-0.383885 z"
       id="path2347"
       sodipodi:nodetypes="csssssssssssscccccccccsccccssssccccccssccccccscccccccccccccccccccccccccsscccssscccccccsssscsssssssssssssscssssscsssscsssssssssssssscsssssss" />
  </g>
</svg>
