<?xml version="1.0" encoding="UTF-8" standalone="no"?>
<!-- Created with Inkscape (http://www.inkscape.org/) -->

<svg
   width="200.88391mm"
   height="46.668545mm"
   viewBox="0 0 200.88391 46.668545"
   version="1.1"
   id="svg3554"
   inkscape:version="1.1 (c68e22c387, 2021-05-23)"
   sodipodi:docname="Progress.svg"
   xmlns:inkscape="http://www.inkscape.org/namespaces/inkscape"
   xmlns:sodipodi="http://sodipodi.sourceforge.net/DTD/sodipodi-0.dtd"
   xmlns="http://www.w3.org/2000/svg"
   xmlns:svg="http://www.w3.org/2000/svg">
  <sodipodi:namedview
     id="namedview3556"
     pagecolor="#505050"
     bordercolor="#eeeeee"
     borderopacity="1"
     inkscape:pageshadow="0"
     inkscape:pageopacity="0"
     inkscape:pagecheckerboard="0"
     inkscape:document-units="mm"
     showgrid="false"
     inkscape:zoom="0.74118967"
     inkscape:cx="381.144"
     inkscape:cy="177.41747"
     inkscape:window-width="1920"
     inkscape:window-height="1017"
     inkscape:window-x="-8"
     inkscape:window-y="-8"
     inkscape:window-maximized="1"
     inkscape:current-layer="layer1" />
  <defs
     id="defs3551" />
  <g
     inkscape:label="Layer 1"
     inkscape:groupmode="layer"
     id="layer1"
     transform="translate(-4.1763459,-44.698791)">
    <path
       style="fill:#ffffff;fill-opacity:1;stroke-width:0.233646"
       d="m 113.64537,91.188981 c -1.28375,-0.325328 -3.00368,-1.257512 -3.72361,-2.018155 -0.7745,-0.81831 -1.57886,-2.547838 -1.58575,-3.409653 l -0.005,-0.642526 h 1.98599 c 1.52237,0 1.98599,0.07446 1.98599,0.31896 0,1.136958 2.20285,2.472176 4.0888,2.478356 2.32081,0.0076 3.86435,-0.788349 4.72452,-2.436277 0.30728,-0.588699 0.81386,-4.566664 0.58155,-4.566664 -0.0441,0 -0.42213,0.260789 -0.84002,0.579531 -1.16552,0.888989 -2.58546,1.289636 -4.57062,1.289636 -2.11156,0 -3.44724,-0.407964 -4.95792,-1.514334 -2.28084,-1.670399 -3.48062,-4.276681 -3.6495,-7.927816 -0.17875,-3.864588 0.84111,-6.86858 3.0256,-8.91192 1.57797,-1.476002 2.93194,-2.032798 5.25016,-2.159025 2.14247,-0.116658 3.68181,0.268891 5.01447,1.255944 l 0.79562,0.589288 0.0732,-0.71284 0.0732,-0.712839 h 1.97118 1.97119 l -0.004,8.703307 c -0.004,9.420449 -0.21559,13.194607 -0.84056,15.001327 -0.58056,1.678346 -2.59387,3.65278 -4.41267,4.327469 -1.58458,0.587806 -5.45217,0.848298 -6.95192,0.468231 z M 119.394,78.418072 c 2.84724,-2.001118 3.30064,-8.521012 0.78299,-11.259654 -1.23908,-1.347852 -3.47206,-1.776713 -5.18921,-0.996631 -2.07617,0.943187 -3.15221,3.109203 -3.15221,6.345258 0,4.416103 1.98575,6.952887 5.23474,6.687332 1.01597,-0.08304 1.62842,-0.287648 2.32369,-0.776305 z M 17.387391,76.673761 17.32583,68.929815 10.900569,65.208001 C 7.3666761,63.161004 4.346253,61.412181 4.1885178,61.321727 3.8225284,61.11185 12.394042,56.146563 13.122337,56.146563 c 0.290594,0 3.405501,1.663731 6.922016,3.697179 l 6.393664,3.697177 0.06151,7.712451 c 0.05712,7.16128 0.03161,7.739513 -0.356966,8.091167 -0.372462,0.337073 -8.413415,5.073173 -8.613237,5.073173 -0.04421,0 -0.108076,-3.484777 -0.141935,-7.743949 z m 75.294884,6.201164 c -4.284422,-1.151329 -6.781393,-4.883216 -6.781393,-10.135241 0,-4.638982 1.864697,-7.996136 5.373854,-9.674947 1.438611,-0.688246 1.666551,-0.726559 4.322448,-0.726559 2.541055,0 2.926778,0.05769 4.116842,0.615696 3.535784,1.657893 5.366714,4.917379 5.383664,9.584164 0.009,2.359823 -0.3778,4.18131 -1.24922,5.889446 -0.67395,1.321057 -2.4645,3.14695 -3.69996,3.773006 -2.031619,1.0295 -5.110109,1.307583 -7.466235,0.674435 z m 5.03425,-3.806025 c 2.059552,-0.935429 3.138655,-3.149212 3.136385,-6.4343 -0.002,-2.304038 -0.25495,-3.273773 -1.231628,-4.714076 -1.704586,-2.513744 -5.15279,-2.92266 -7.41457,-0.879277 -3.110326,2.80999 -2.616291,9.997528 0.820368,11.935258 1.194442,0.673475 3.31795,0.715313 4.689445,0.09239 z m 70.284875,3.832824 c -1.8376,-0.399737 -3.03453,-1.026375 -4.09548,-2.144139 -1.03352,-1.088869 -1.53975,-2.054558 -1.74285,-3.324725 l -0.15337,-0.959109 h 1.96891 1.96892 l 0.29153,0.806198 c 0.57394,1.587226 2.23451,2.461005 4.6818,2.46354 3.05803,0.0032 4.78838,-1.384702 4.15828,-3.335247 -0.27722,-0.858147 -0.97681,-1.189407 -4.78699,-2.266676 -3.90828,-1.105002 -5.08977,-1.598665 -6.23718,-2.606107 -1.10444,-0.969709 -1.51972,-1.936856 -1.51312,-3.523865 0.01,-2.369627 1.34912,-4.104774 3.96684,-5.1394 1.68006,-0.664024 6.27791,-0.717131 7.94396,-0.09176 2.30933,0.866835 3.7525,2.542176 4.10869,4.769651 l 0.15666,0.979705 -1.95744,-0.0024 -1.95744,-0.0024 -0.3841,-0.914819 c -0.55771,-1.328284 -1.90557,-1.977347 -4.05827,-1.954253 -2.70977,0.02907 -4.14397,0.977987 -3.76433,2.490613 0.23535,0.937693 1.19948,1.401174 5.06027,2.432582 4.39592,1.17437 5.11465,1.463039 6.29282,2.527448 1.05626,0.954268 1.44356,1.930188 1.45926,3.67706 0.0408,4.53679 -5.36026,7.433494 -11.40737,6.118053 z m 19.09257,-0.02199 c -3.19711,-0.859753 -5.1048,-2.73595 -5.5383,-5.446871 l -0.15337,-0.959116 h 1.97089 1.97089 l 0.41724,0.9457 c 0.63985,1.450264 1.81863,2.108007 4.03845,2.253416 1.4301,0.09368 2.07663,0.02513 2.98281,-0.316246 2.12992,-0.802382 2.60853,-2.879108 0.89426,-3.880295 -0.4073,-0.237874 -2.22473,-0.847907 -4.03874,-1.355624 -4.7253,-1.322557 -6.46569,-2.292017 -7.26179,-4.045087 -0.92449,-2.035787 -0.33905,-4.56826 1.38474,-5.990119 1.55981,-1.286592 3.08896,-1.71672 6.11223,-1.719269 3.06526,-0.0026 4.16578,0.249728 5.75129,1.31859 1.24224,0.837447 2.08329,2.225895 2.33334,3.851981 l 0.1527,0.992995 -1.95744,-0.0085 -1.95744,-0.0085 -0.4673,-0.972289 c -0.66018,-1.373644 -1.82402,-1.924712 -3.99514,-1.89166 -2.6155,0.03981 -4.11088,1.036971 -3.74446,2.4969 0.2364,0.941871 1.20085,1.40224 5.14675,2.456719 4.17844,1.116624 5.58362,1.735748 6.62097,2.917225 0.82945,0.944693 1.30333,2.756784 1.08234,4.138781 -0.24721,1.545971 -1.4462,3.271201 -2.86092,4.11659 -2.28802,1.367244 -6.13065,1.845024 -8.884,1.104607 z m -39.4003,-0.303933 c -3.65054,-1.315029 -5.63108,-3.965222 -6.17529,-8.263271 -0.51138,-4.038806 1.04837,-8.397079 3.70963,-10.365543 2.51765,-1.86223 6.57782,-2.253926 9.53632,-0.919992 3.23054,1.456585 5.20228,4.886632 5.20228,9.049888 v 1.82676 h -7.24302 c -5.83934,0 -7.24302,0.0597 -7.24302,0.308062 0,0.851342 0.80429,2.83079 1.44819,3.564153 1.0902,1.241662 2.31912,1.776108 4.13485,1.798204 2.02688,0.02466 3.27307,-0.594145 4.12538,-2.048514 l 0.6164,-1.051801 h 1.96379 c 1.48581,0 1.96379,0.07622 1.96379,0.313151 0,0.172232 -0.32149,0.956492 -0.71441,1.742799 -0.94466,1.890427 -2.59207,3.362809 -4.47343,3.998157 -1.88855,0.637774 -5.1507,0.660599 -6.85146,0.04794 z m 7.94092,-12.936195 c -0.48434,-2.249053 -2.49654,-3.913567 -4.73104,-3.913567 -2.55304,0 -4.45017,1.526013 -5.09598,4.099106 l -0.14401,0.57381 h 5.06728 5.06727 z M 51.78859,68.978084 V 55.17398 l 6.600495,0.08798 c 5.584605,0.07444 6.780299,0.152047 7.768724,0.504238 2.494057,0.888672 4.301588,2.655023 5.05154,4.93646 0.498387,1.516156 0.366997,4.665758 -0.262803,6.29962 -0.691461,1.793832 -2.302173,3.398547 -4.143515,4.128083 -1.185745,0.469789 -1.889085,0.548476 -5.902253,0.66032 l -4.556094,0.126977 -0.06272,5.432266 -0.06272,5.432266 h -2.21533 -2.215329 z m 11.331823,-1.157486 c 1.784377,-0.253821 2.514976,-0.664463 3.349089,-1.882393 0.477827,-0.697699 0.535551,-1.018493 0.466275,-2.591259 -0.08871,-2.014036 -0.480175,-2.76978 -1.853797,-3.578872 -0.693604,-0.408546 -1.300015,-0.477061 -4.823728,-0.545003 l -4.030391,-0.07771 v 4.302808 c 0,2.366543 0.07009,4.372902 0.155765,4.45857 0.236646,0.236649 4.885457,0.177207 6.736787,-0.08614 z m 11.098177,4.91482 V 62.688647 h 1.869167 1.869166 v 1.100053 1.100054 l 1.013521,-0.994696 c 1.513399,-1.485289 3.563337,-2.000249 5.569663,-1.399139 0.809296,0.242471 0.899689,0.342058 0.795279,0.876172 -0.06479,0.331434 -0.238489,1.249075 -0.386001,2.039203 l -0.268207,1.436594 -0.733613,-0.217323 c -1.020551,-0.302326 -2.805944,-0.02248 -3.689735,0.578341 -1.703278,1.157921 -2.064046,2.949419 -2.065908,10.25884 l -0.0014,5.315443 H 76.20458 74.21859 Z m 55.37406,0 V 62.688647 h 1.86917 1.86917 v 1.051406 c 0,0.578273 0.0593,1.051406 0.1319,1.051406 0.0726,0 0.4012,-0.320031 0.73033,-0.711183 1.23399,-1.466508 3.62851,-2.166906 5.55969,-1.62621 1.154,0.3231 1.16522,0.352894 0.81032,2.150659 -0.49168,2.490592 -0.35311,2.28043 -1.32642,2.011686 -1.2527,-0.345887 -3.14192,0.120005 -4.01106,0.989151 -1.28657,1.286559 -1.46372,2.287923 -1.59989,9.043424 l -0.12363,6.133203 h -1.95479 -1.95479 z M 30.938057,71.859246 30.877288,61.169949 21.585507,55.796148 c -8.020843,-4.638769 -9.237556,-5.413452 -8.895346,-5.663683 1.185368,-0.866762 9.422707,-5.434415 9.799129,-5.433674 0.244222,4.67e-4 0.79916,0.217372 1.233197,0.481986 0.434037,0.26461 4.429381,2.585826 8.878542,5.158255 4.449161,2.572429 8.22081,4.846436 8.381441,5.053348 0.223464,0.287847 0.292058,2.777157 0.292058,10.598937 v 10.22273 l -0.525703,0.579921 c -0.436171,0.481153 -9.264277,5.754575 -9.633592,5.754575 -0.06403,0 -0.143753,-4.810184 -0.177176,-10.689297 z M 8.3946231,79.42789 c -2.7378359,-1.579535 -4.3801313,-2.657334 -4.205625,-2.760047 0.157471,-0.09269 2.1788421,-1.26444 4.4919358,-2.603899 l 4.2056251,-2.435377 0.06594,2.66942 c 0.03627,1.468182 0.03627,3.806122 0,5.195424 l -0.06594,2.526004 z M 200.70348,64.107732 c -1.40425,-0.856263 -1.59947,-3.005265 -0.38789,-4.269885 1.68298,-1.75665 4.74467,-0.532544 4.74467,1.896985 0,2.250215 -2.40754,3.56147 -4.35678,2.3729 z m 3.21361,-0.672482 c 1.85681,-1.659056 0.17509,-4.643414 -2.2447,-3.983414 -2.63783,0.719473 -2.16261,4.638686 0.56246,4.638686 0.70951,0 1.13387,-0.165298 1.68224,-0.655272 z m -2.59517,-1.694621 v -1.41531 l 0.9692,0.07185 c 1.20212,0.08911 1.60305,0.59658 1.14602,1.450546 -0.25693,0.480072 -0.26051,0.658816 -0.019,0.949794 0.24766,0.298412 0.23048,0.358433 -0.10256,0.358433 -0.22003,0 -0.59739,-0.236566 -0.8386,-0.525703 l -0.43856,-0.525703 -0.008,0.525703 c -0.005,0.308074 -0.15286,0.525703 -0.35824,0.525703 -0.27296,0 -0.35047,-0.31302 -0.35047,-1.415309 z m 1.3734,-0.197667 c 0.37697,-0.23877 0.15201,-0.723482 -0.33578,-0.723482 -0.18517,0 -0.33668,0.210281 -0.33668,0.467292 0,0.507266 0.17238,0.572937 0.67246,0.25619 z"
       id="path3627" />
  </g>
</svg>
