<?xml version="1.0" encoding="UTF-8" standalone="no"?>
<!-- Created with Inkscape (http://www.inkscape.org/) -->

<svg
   width="141.85451mm"
   height="34.715927mm"
   viewBox="0 0 141.8545 34.715927"
   version="1.1"
   id="svg1119"
   inkscape:version="1.1 (c68e22c387, 2021-05-23)"
   sodipodi:docname="Robinhood.svg"
   xmlns:inkscape="http://www.inkscape.org/namespaces/inkscape"
   xmlns:sodipodi="http://sodipodi.sourceforge.net/DTD/sodipodi-0.dtd"
   xmlns="http://www.w3.org/2000/svg"
   xmlns:svg="http://www.w3.org/2000/svg">
  <sodipodi:namedview
     id="namedview1121"
     pagecolor="#505050"
     bordercolor="#eeeeee"
     borderopacity="1"
     inkscape:pageshadow="0"
     inkscape:pageopacity="0"
     inkscape:pagecheckerboard="0"
     inkscape:document-units="mm"
     showgrid="false"
     fit-margin-top="0"
     fit-margin-left="0"
     fit-margin-right="0"
     fit-margin-bottom="0"
     inkscape:zoom="1.0482005"
     inkscape:cx="243.75108"
     inkscape:cy="185.5561"
     inkscape:window-width="1904"
     inkscape:window-height="1001"
     inkscape:window-x="52"
     inkscape:window-y="0"
     inkscape:window-maximized="0"
     inkscape:current-layer="layer1" />
  <defs
     id="defs1116" />
  <g
     inkscape:label="Layer 1"
     inkscape:groupmode="layer"
     id="layer1"
     transform="translate(-34.135627,-18.051289)">
    <path
       style="fill:#ffffff;stroke-width:0.264583;fill-opacity:1"
       d="m 34.855563,49.312949 c 0.500779,-1.93697 1.213734,-4.435303 1.584344,-5.551855 0.658398,-1.983581 0.664833,-2.074507 0.280854,-3.96875 -0.888618,-4.38372 -0.906322,-4.192984 0.589723,-6.353541 0.736967,-1.064314 2.113711,-2.900838 3.059429,-4.081165 l 1.719489,-2.146048 2.722767,-0.557138 c 3.800163,-0.777597 5.837591,-1.119969 5.956605,-1.000955 0.05584,0.05584 -0.938954,1.394981 -2.21066,2.975861 -5.109467,6.351669 -9.179453,13.326674 -12.407099,21.262869 -0.862756,2.121361 -1.25706,2.797554 -1.667911,2.860305 -0.518621,0.07921 -0.505173,-0.04498 0.372459,-3.439583 z m 3.53382,-0.505939 c 0.277494,-0.619805 0.781889,-1.271133 1.120877,-1.447398 0.832301,-0.432776 5.246551,-1.979216 5.246551,-1.838018 0,0.06182 -0.13307,0.404458 -0.29571,0.761413 -0.209679,0.460195 -1.152632,1.057764 -3.241146,2.053984 -1.61999,0.772734 -3.033112,1.44816 -3.140271,1.500952 -0.10716,0.05279 0.0322,-0.411131 0.309699,-1.030933 z m 2.468378,-5.601314 C 43.644645,37.940179 47.058815,32.758804 50.5253,28.53415 l 1.568214,-1.911202 0.168106,2.241932 c 0.09246,1.233062 0.233659,3.224197 0.313778,4.424744 l 0.145671,2.182812 -2.196191,3.66196 -2.196192,3.661961 -2.645834,0.866085 c -1.455208,0.476347 -3.458854,1.178133 -4.452546,1.559525 l -1.806713,0.693435 z m 27.182383,-4.955135 v -6.614583 h 0.926042 c 0.863846,0 0.926041,0.05641 0.926041,0.83987 v 0.839871 l 0.595313,-0.557663 c 0.833728,-0.781001 1.868379,-1.122078 3.403801,-1.122078 1.261721,0 2.880053,0.572591 2.880053,1.019007 0,0.116418 -0.273685,0.468782 -0.60819,0.783032 -0.566909,0.532586 -0.648845,0.542885 -1.207264,0.151753 -1.450605,-1.016043 -3.70957,-0.350671 -4.52446,1.332665 -0.476557,0.984434 -0.539253,1.627185 -0.539253,5.528328 v 4.414381 H 68.966186 68.040144 Z M 80.67335,44.31763 c -1.987751,-1.049351 -3.090132,-4.066771 -2.692625,-7.370208 0.458404,-3.809501 2.237849,-5.460431 5.676088,-5.266153 2.077781,0.117405 3.363645,0.908066 4.226068,2.598554 1.109861,2.175509 0.925766,6.617022 -0.35291,8.514452 -1.333955,1.979453 -4.612751,2.707914 -6.856621,1.523355 z m 4.801253,-1.71845 c 0.995236,-0.837436 1.347693,-2.042676 1.349071,-4.613202 0.0019,-3.229597 -1.205867,-4.864052 -3.567374,-4.828352 -2.486054,0.03758 -3.43308,1.403817 -3.438541,4.960643 -0.0043,2.775755 0.387397,3.943778 1.562759,4.660512 1.227354,0.74844 3.088185,0.666808 4.094085,-0.179601 z m 6.113458,-7.259036 v -9.524999 h 0.79375 0.79375 v 3.571875 c 0,1.964531 0.05424,3.571875 0.120541,3.571875 0.0663,0 0.559163,-0.297657 1.095256,-0.661459 0.777314,-0.527499 1.302967,-0.661458 2.595565,-0.661458 2.111132,0 3.272207,0.614699 4.063437,2.151267 1.13785,2.209734 1.04396,7.586726 -0.16111,9.225816 -0.26747,0.363802 -0.892075,0.939649 -1.388018,1.27966 -0.769948,0.527867 -1.157287,0.604234 -2.650701,0.522605 -1.415712,-0.07738 -1.932493,-0.235561 -2.71198,-0.830104 l -0.96299,-0.734508 v 0.807215 c 0,0.720517 -0.08525,0.807215 -0.79375,0.807215 h -0.79375 z m 6.998332,7.524895 c 2.056907,-1.347733 1.964957,-8.26159 -0.12474,-9.379961 -0.863024,-0.461876 -2.771053,-0.410122 -3.543673,0.09612 -1.208025,0.791528 -1.584733,1.901484 -1.584733,4.669364 0,2.706023 0.360699,3.825132 1.487173,4.614147 0.764116,0.535207 2.949358,0.535399 3.765973,3.44e-4 z m 6.759997,-4.614478 v -6.614583 h 0.79375 0.79375 v 6.614583 6.614583 h -0.79375 -0.79375 z m 5.82084,0 v -6.614583 h 0.79375 c 0.67027,0 0.79375,0.102893 0.79375,0.661458 0,0.810822 0.0979,0.816454 1.14978,0.06615 1.20525,-0.8597 4.42851,-0.862683 5.63062,-0.0052 1.57161,1.121043 1.79981,2.024732 1.90547,7.545836 l 0.0949,4.960937 h -0.95082 -0.95083 v -4.506414 c 0,-4.903986 -0.21916,-5.952818 -1.40644,-6.730753 -0.8326,-0.545541 -2.46845,-0.617168 -3.57999,-0.156752 -1.52914,0.633388 -1.74922,1.431132 -1.84773,6.697565 l -0.0879,4.696354 h -0.77232 -0.77232 v -6.614583 z m 14.02291,-2.910417 v -9.524999 h 0.92605 0.92604 v 3.571875 c 0,1.964531 0.0542,3.571875 0.12054,3.571875 0.0663,0 0.55916,-0.297657 1.09525,-0.661459 0.77732,-0.527499 1.30297,-0.661458 2.59557,-0.661458 2.02003,0 3.2528,0.61155 4.05564,2.011918 0.55489,0.967884 0.59122,1.341618 0.59531,6.124019 l 0.004,5.093229 h -0.77232 -0.77232 L 133.876,40.16879 c -0.0941,-5.029072 -0.33133,-6.032524 -1.58489,-6.703414 -0.85107,-0.455475 -3.02567,-0.372829 -3.81602,0.145027 -1.21583,0.796641 -1.43326,1.820396 -1.43326,6.748327 v 4.506414 h -0.92604 -0.92605 z m 16.22523,8.872369 c -0.60774,-0.372364 -1.34962,-1.072862 -1.64863,-1.556661 -0.75051,-1.214349 -1.10334,-3.978808 -0.79011,-6.190608 0.4818,-3.402099 2.29235,-4.967165 5.53435,-4.783975 2.09828,0.118563 3.34461,0.897543 4.29109,2.682016 0.50022,0.943113 0.58829,1.525032 0.58829,3.887276 0,3.208587 -0.46631,4.454675 -2.14663,5.736317 -0.81414,0.62098 -1.27164,0.752968 -2.84671,0.821275 -1.63182,0.07077 -2.02083,-0.007 -2.98165,-0.59564 z m 4.80553,-1.508459 c 1.07596,-0.846349 1.45888,-2.030798 1.45842,-4.511141 -5.3e-4,-3.429082 -1.15243,-5.071817 -3.53084,-5.035862 -2.48092,0.03751 -3.45597,1.431395 -3.47045,4.961218 -0.0114,2.776372 0.37784,3.941671 1.55665,4.660512 1.1439,0.697548 3.04985,0.661819 3.98622,-0.07473 z m 9.13174,1.865172 c -2.0047,-0.795187 -3.175,-3.124238 -3.175,-6.318665 0,-3.250287 1.18394,-5.55168 3.25837,-6.333772 1.40156,-0.528407 3.5955,-0.345921 4.87813,0.405749 1.77389,1.039571 2.44091,2.66709 2.44425,5.963956 0.002,2.273158 -0.0767,2.701198 -0.72873,3.949382 -0.94477,1.808492 -2.38305,2.636896 -4.53582,2.612496 -0.81386,-0.0092 -1.77739,-0.134839 -2.1412,-0.279146 z m 3.97741,-1.692935 c 1.28289,-0.663404 1.68574,-1.768854 1.68574,-4.62573 0,-2.895035 -0.40168,-3.96172 -1.75551,-4.661809 -1.85921,-0.961435 -3.82587,-0.340298 -4.76712,1.505617 -0.57824,1.134003 -0.63806,4.871921 -0.0986,6.162975 0.77645,1.85831 3.03805,2.600161 4.93551,1.618947 z m 8.43099,1.393158 c -0.5031,-0.333357 -1.18216,-1.166863 -1.54196,-1.892656 -0.55992,-1.129494 -0.64294,-1.662285 -0.64294,-4.126232 0,-2.463947 0.083,-2.996738 0.64294,-4.126232 0.88697,-1.789229 2.0127,-2.488351 4.00675,-2.488351 1.63904,0 2.32709,0.235963 3.31692,1.137517 l 0.59531,0.542224 v -3.750287 -3.750287 h 0.92604 0.92604 v 9.524999 9.525 h -0.92604 c -0.86384,0 -0.92604,-0.05641 -0.92604,-0.83987 v -0.839871 l -0.59531,0.542224 c -0.98983,0.901554 -1.67788,1.137517 -3.31692,1.137517 -1.18146,0 -1.78642,-0.146209 -2.46479,-0.595695 z m 5.18732,-1.865854 c 0.70962,-0.709619 0.91021,-1.163496 1.06628,-2.412651 0.24855,-1.989309 -0.0187,-4.494171 -0.58112,-5.446239 -1.22739,-2.077806 -4.51821,-1.839151 -5.61831,0.407448 -0.52336,1.068819 -0.68152,4.054821 -0.29918,5.648595 0.44563,1.857606 1.43396,2.676896 3.22921,2.676896 1.1511,0 1.44611,-0.117039 2.20312,-0.874049 z M 53.918617,32.243861 c -0.09128,-0.665998 -0.165973,-2.613301 -0.165973,-4.327338 0,-1.714038 -0.07227,-3.304764 -0.160599,-3.534947 -0.217538,-0.566893 -0.966738,-0.534166 -5.551451,0.242506 -2.146111,0.363561 -3.950974,0.612067 -4.010806,0.552235 -0.05983,-0.05983 1.24013,-1.481762 2.888806,-3.159844 2.76797,-2.81734 3.119198,-3.08587 4.585092,-3.505519 1.993084,-0.57057 5.276489,-0.619251 6.33665,-0.09395 1.358144,0.672949 1.844128,1.89206 1.955693,4.905926 l 0.09888,2.671094 -1.701919,2.093373 c -0.936056,1.151355 -2.243377,2.830022 -2.905158,3.730372 l -1.203238,1.636999 z m 51.163193,-5.502675 c 0,-0.903993 0.0252,-0.926041 1.05833,-0.926041 1.03314,0 1.05834,0.02205 1.05834,0.926041 0,0.903994 -0.0252,0.926042 -1.05834,0.926042 -1.03313,0 -1.05833,-0.02205 -1.05833,-0.926042 z"
       id="path1230" />
  </g>
</svg>
