<?xml version="1.0" encoding="UTF-8" standalone="no"?>
<!-- Created with Inkscape (http://www.inkscape.org/) -->

<svg
   width="38.736378mm"
   height="28.535759mm"
   viewBox="0 0 38.736378 28.535759"
   version="1.1"
   id="svg5"
   inkscape:version="1.1 (c68e22c387, 2021-05-23)"
   sodipodi:docname="email.svg"
   xmlns:inkscape="http://www.inkscape.org/namespaces/inkscape"
   xmlns:sodipodi="http://sodipodi.sourceforge.net/DTD/sodipodi-0.dtd"
   xmlns="http://www.w3.org/2000/svg"
   xmlns:svg="http://www.w3.org/2000/svg">
  <sodipodi:namedview
     id="namedview7"
     pagecolor="#505050"
     bordercolor="#eeeeee"
     borderopacity="1"
     inkscape:pageshadow="0"
     inkscape:pageopacity="0"
     inkscape:pagecheckerboard="0"
     inkscape:document-units="mm"
     showgrid="false"
     inkscape:zoom="2.9362514"
     inkscape:cx="52.447825"
     inkscape:cy="100.97909"
     inkscape:window-width="1920"
     inkscape:window-height="1009"
     inkscape:window-x="-8"
     inkscape:window-y="-8"
     inkscape:window-maximized="1"
     inkscape:current-layer="layer1" />
  <defs
     id="defs2" />
  <g
     inkscape:label="Layer 1"
     inkscape:groupmode="layer"
     id="layer1"
     transform="translate(-89.476624,-59.365122)">
    <path
       style="fill:#ff2a54;fill-opacity:1;stroke:none;stroke-width:0.583;stroke-miterlimit:4;stroke-dasharray:none;stroke-opacity:1"
       d="m 97.519863,88.048027 c -1.40369,-0.157763 -2.71281,-0.831788 -3.66254,-1.885723 -0.79609,-0.883428 -1.28085,-1.840024 -1.53048,-3.020125 l -0.10692,-0.505473 V 74.38062 c 0,-9.112613 -0.0186,-8.486805 0.27984,-9.435525 0.68662,-2.182966 2.54769,-3.833288 4.73396,-4.197876 0.3012,-0.05023 2.912637,-0.06255 13.253687,-0.06255 12.17336,0 12.90223,0.0047 13.31064,0.08599 1.22346,0.243505 2.20573,0.779346 3.0954,1.688586 0.83538,0.85376 1.33767,1.773348 1.64335,3.008635 l 0.12675,0.512232 v 8.376435 c 0,8.017987 -0.004,8.392917 -0.0855,8.76156 -0.50359,2.267319 -1.95153,3.960774 -3.99075,4.667443 -0.88874,0.307981 0.18885,0.285132 -13.89435,0.294631 -7.04554,0.0048 -12.973417,-0.0097 -13.173057,-0.03216 z m 25.969467,-2.744709 c 0.29029,-0.06395 0.91391,-0.327878 0.89488,-0.378725 -0.007,-0.01986 -0.37367,-0.39111 -0.81387,-0.825011 -3.54944,-3.498703 -4.35737,-4.295552 -4.99901,-4.930456 -0.4022,-0.397966 -1.22878,-1.215751 -1.83686,-1.8173 -0.60809,-0.601551 -1.1224,-1.093729 -1.14292,-1.093729 -0.0205,0 -0.28338,0.240827 -0.58413,0.535172 -0.30076,0.294343 -0.67462,0.635537 -0.8308,0.75821 -1.75013,1.374637 -4.07522,1.681825 -6.1102,0.807268 -0.78257,-0.336318 -1.3948,-0.781295 -2.25748,-1.640748 -0.25389,-0.252945 -0.47815,-0.459902 -0.49834,-0.459902 -0.0202,0 -0.42555,0.383092 -0.90078,0.851313 -2.59166,2.553442 -5.928637,5.847307 -6.864767,6.776088 l -1.0685,1.060098 0.24646,0.118508 c 0.13555,0.06518 0.39031,0.15607 0.56613,0.201976 0.29934,0.07816 1.13554,0.0837 13.138937,0.08702 9.21195,0.0025 12.88734,-0.01147 13.06125,-0.04978 z M 99.755723,78.011632 c 1.933817,-1.908336 3.544237,-3.505996 3.578707,-3.550358 0.0531,-0.06836 0.0531,-0.09294 0,-0.16123 -0.0548,-0.07047 -2.02277,-2.017361 -6.022447,-5.95798 -0.64051,-0.631046 -1.43416,-1.415223 -1.76367,-1.742619 -0.32952,-0.327392 -0.61935,-0.59526 -0.64409,-0.59526 -0.13674,0 -0.14969,0.724969 -0.14934,8.361639 3.2e-4,7.127296 0.0134,8.080928 0.11501,8.382952 0.0135,0.03998 0.27405,-0.185435 0.69566,-0.601756 0.37078,-0.366127 2.25636,-2.227052 4.19017,-4.135388 z m 26.322857,4.440603 c 0.0353,-0.21364 0.0504,-2.628093 0.0504,-8.071615 0,-7.590723 -0.0132,-8.376435 -0.13999,-8.376435 -0.0354,0 -0.66269,0.612745 -4.062,3.967877 -0.56541,0.558062 -1.7941,1.770432 -2.73042,2.694156 -0.93632,0.923721 -1.69495,1.703044 -1.68585,1.731824 0.0253,0.0799 8.40526,8.35124 8.46515,8.355388 0.0294,0.002 0.0745,-0.130022 0.10276,-0.301195 z m -14.6591,-6.43465 c 0.42945,-0.128261 0.91397,-0.377475 1.24189,-0.638763 0.21465,-0.171035 2.94295,-2.851504 10.56741,-10.382158 0.62805,-0.62033 1.14773,-1.142385 1.15484,-1.160121 0.0204,-0.05087 -0.48904,-0.276095 -0.8376,-0.370313 -0.30029,-0.08117 -0.99159,-0.0857 -13.08144,-0.0857 -12.153877,0 -12.780797,0.0042 -13.106927,0.087 -0.18839,0.04785 -0.46435,0.145957 -0.61326,0.218012 l -0.27074,0.13101 1.73214,1.711779 c 6.676397,6.59791 9.834827,9.701 10.037577,9.861682 0.43363,0.343665 1.0335,0.612475 1.61979,0.725848 0.34814,0.06732 1.17714,0.01497 1.55632,-0.09828 z"
       id="path836-8" />
    <path
       style="fill:#f9ff0f;fill-opacity:1;stroke:#000000;stroke-width:0.583;stroke-miterlimit:4;stroke-dasharray:none;stroke-opacity:1"
       d="M 95.06832,87.019985 C 93.664632,86.862222 92.355511,86.188197 91.405778,85.134262 90.609693,84.250834 90.124929,83.294238 89.8753,82.114137 l -0.106924,-0.505473 v -8.256086 c 0,-9.112613 -0.01856,-8.486805 0.279844,-9.435525 0.686614,-2.182966 2.547689,-3.833288 4.733959,-4.197876 0.301196,-0.05023 2.912636,-0.06255 13.253681,-0.06255 12.17336,0 12.90223,0.0047 13.31064,0.08599 1.22346,0.243505 2.20573,0.779346 3.0954,1.688586 0.83538,0.85376 1.33767,1.773348 1.64335,3.008635 l 0.12675,0.512232 v 8.376435 c 0,8.017987 -0.004,8.392917 -0.0855,8.76156 -0.50359,2.267319 -1.95153,3.960774 -3.99075,4.667443 -0.88874,0.307981 0.18885,0.285132 -13.89435,0.294631 -7.04554,0.0048 -12.973412,-0.0097 -13.173049,-0.03216 z m 25.96946,-2.744709 c 0.29029,-0.06395 0.91391,-0.327878 0.89488,-0.378725 -0.007,-0.01986 -0.37367,-0.39111 -0.81387,-0.825011 -3.54944,-3.498703 -4.35737,-4.295552 -4.99901,-4.930456 -0.4022,-0.397966 -1.22878,-1.215751 -1.83686,-1.8173 -0.60809,-0.601551 -1.1224,-1.093729 -1.14292,-1.093729 -0.0205,0 -0.28338,0.240827 -0.58413,0.535172 -0.30076,0.294343 -0.67462,0.635537 -0.8308,0.75821 -1.75013,1.374637 -4.07522,1.681825 -6.1102,0.807268 -0.78257,-0.336318 -1.3948,-0.781295 -2.25748,-1.640748 -0.25389,-0.252945 -0.47815,-0.459902 -0.49834,-0.459902 -0.0202,0 -0.42555,0.383092 -0.90078,0.851313 -2.591663,2.553442 -5.928631,5.847307 -6.864767,6.776088 l -1.068491,1.060098 0.246454,0.118508 c 0.13555,0.06518 0.390312,0.15607 0.566136,0.201976 0.299335,0.07816 1.135534,0.0837 13.138928,0.08702 9.21195,0.0025 12.88734,-0.01147 13.06125,-0.04978 z M 97.304178,76.98359 c 1.933814,-1.908336 3.544232,-3.505996 3.578702,-3.550358 0.0531,-0.06836 0.0531,-0.09294 0,-0.16123 -0.0548,-0.07047 -2.022768,-2.017361 -6.022444,-5.95798 -0.640503,-0.631046 -1.434154,-1.415223 -1.763669,-1.742619 -0.329514,-0.327392 -0.619353,-0.59526 -0.644086,-0.59526 -0.136741,0 -0.14969,0.724969 -0.149347,8.361639 3.28e-4,7.127296 0.0134,8.080928 0.115019,8.382952 0.01345,0.03998 0.274042,-0.185435 0.695655,-0.601756 0.370781,-0.366127 2.256357,-2.227052 4.19017,-4.135388 z m 26.322852,4.440603 c 0.0353,-0.21364 0.0504,-2.628093 0.0504,-8.071615 0,-7.590723 -0.0132,-8.376435 -0.13999,-8.376435 -0.0354,0 -0.66269,0.612745 -4.062,3.967877 -0.56541,0.558062 -1.7941,1.770432 -2.73042,2.694156 -0.93632,0.923721 -1.69495,1.703044 -1.68585,1.731824 0.0253,0.0799 8.40526,8.35124 8.46515,8.355388 0.0294,0.002 0.0745,-0.130022 0.10276,-0.301195 z m -14.6591,-6.43465 c 0.42945,-0.128261 0.91397,-0.377475 1.24189,-0.638763 0.21465,-0.171035 2.94295,-2.851504 10.56741,-10.382158 0.62805,-0.62033 1.14773,-1.142385 1.15484,-1.160121 0.0204,-0.05087 -0.48904,-0.276095 -0.8376,-0.370313 -0.30029,-0.08117 -0.99159,-0.0857 -13.08144,-0.0857 -12.15387,0 -12.780793,0.0042 -13.106925,0.087 -0.188383,0.04785 -0.464348,0.145957 -0.613256,0.218012 l -0.27074,0.13101 1.732139,1.711779 c 6.676392,6.59791 9.834822,9.701 10.037572,9.861682 0.43363,0.343665 1.0335,0.612475 1.61979,0.725848 0.34814,0.06732 1.17714,0.01497 1.55632,-0.09828 z"
       id="path836" />
  </g>
</svg>
