<?xml version="1.0" encoding="UTF-8" standalone="no"?>
<!-- Created with Inkscape (http://www.inkscape.org/) -->

<svg
   width="14.120199mm"
   height="27.628111mm"
   viewBox="0 0 14.120199 27.628111"
   version="1.1"
   id="svg1179"
   inkscape:version="1.1 (c68e22c387, 2021-05-23)"
   sodipodi:docname="facebook.svg"
   xmlns:inkscape="http://www.inkscape.org/namespaces/inkscape"
   xmlns:sodipodi="http://sodipodi.sourceforge.net/DTD/sodipodi-0.dtd"
   xmlns="http://www.w3.org/2000/svg"
   xmlns:svg="http://www.w3.org/2000/svg">
  <sodipodi:namedview
     id="namedview1181"
     pagecolor="#505050"
     bordercolor="#eeeeee"
     borderopacity="1"
     inkscape:pageshadow="0"
     inkscape:pageopacity="0"
     inkscape:pagecheckerboard="0"
     inkscape:document-units="mm"
     showgrid="false"
     inkscape:zoom="0.74118967"
     inkscape:cx="-109.95836"
     inkscape:cy="-74.879618"
     inkscape:window-width="1920"
     inkscape:window-height="1017"
     inkscape:window-x="-8"
     inkscape:window-y="-8"
     inkscape:window-maximized="1"
     inkscape:current-layer="layer1" />
  <defs
     id="defs1176" />
  <g
     inkscape:label="Layer 1"
     inkscape:groupmode="layer"
     id="layer1"
     transform="translate(-134.30048,-168.59821)">
    <g
       id="g2210"
       transform="matrix(0.90631871,0,0,0.90631871,34.757561,159.76519)"
       inkscape:export-filename="C:\Users\mattt\Documents\TTM\socials.png"
       inkscape:export-xdpi="193.62"
       inkscape:export-ydpi="193.62">
      <path
         d="m 115.206,26.252509 v 13.622866 c 0,0.195792 0.15875,0.354542 0.35489,0.354542 h 5.05919 c 0.19579,0 0.35454,-0.15875 0.35454,-0.354542 V 39.266827 26.030612 h 3.66748 c 0.1845,0 0.33796,-0.141111 0.35348,-0.324556 l 0.35278,-4.171597 c 0.0176,-0.20708 -0.1457,-0.384528 -0.35349,-0.384528 h -4.02025 v -2.959805 c 0,-0.693208 0.56268,-1.255536 1.25589,-1.255536 h 2.82645 c 0.19615,0 0.3549,-0.159103 0.3549,-0.354895 v -4.171596 c 0,-0.195792 -0.15875,-0.354542 -0.3549,-0.354542 h -4.7759 c -2.80247,0 -5.07506,2.271888 -5.07506,5.074708 v 4.021666 h -2.52942 c -0.19579,0 -0.35454,0.15875 -0.35454,0.354542 v 4.171597 c 0,0.195792 0.15875,0.354542 0.35454,0.354542 h 2.52942 v 0.221897"
         style="fill:#fda094;fill-opacity:1;fill-rule:evenodd;stroke:none;stroke-width:0.0352778"
         id="path102"
         sodipodi:nodetypes="cssssccsccscsssssssscsssscc" />
      <path
         d="m 113.06922,24.29812 v 13.622867 c 0,0.195791 0.15875,0.354541 0.3549,0.354541 h 5.05848 c 0.19579,0 0.35489,-0.15875 0.35489,-0.354541 V 24.076223 h 3.66748 c 0.18415,0 0.33796,-0.141111 0.35348,-0.324556 l 0.35278,-4.171597 c 0.0173,-0.20708 -0.1457,-0.384528 -0.35348,-0.384528 h -4.02026 v -2.959805 c 0,-0.693208 0.56233,-1.255889 1.25589,-1.255889 h 2.82645 c 0.1958,0 0.3549,-0.15875 0.3549,-0.354542 V 10.45371 c 0,-0.195792 -0.1591,-0.354895 -0.3549,-0.354895 h -4.77625 c -2.80247,0 -5.07436,2.272242 -5.07436,5.075061 v 4.021666 h -2.52942 c -0.19614,0 -0.35489,0.15875 -0.35489,0.354542 v 4.171597 c 0,0.195792 0.15875,0.354542 0.35489,0.354542 h 2.52942 v 0.221897"
         style="fill:#333f9b;fill-opacity:1;fill-rule:evenodd;stroke:none;stroke-width:0.0352778"
         id="path104" />
      <path
         d="m 113.06922,24.29812 v 13.622867 c 0,0.195791 0.15875,0.354541 0.3549,0.354541 h 5.05848 c 0.19579,0 0.35489,-0.15875 0.35489,-0.354541 V 24.076223 h 3.66748 c 0.18415,0 0.33796,-0.141111 0.35348,-0.324556 l 0.35278,-4.171597 c 0.0173,-0.20708 -0.1457,-0.384528 -0.35348,-0.384528 h -4.02026 v -2.959805 c 0,-0.693208 0.56233,-1.255889 1.25589,-1.255889 h 2.82645 c 0.1958,0 0.3549,-0.15875 0.3549,-0.354542 V 10.45371 c 0,-0.195792 -0.1591,-0.354895 -0.3549,-0.354895 h -4.77625 c -2.80247,0 -5.07436,2.272242 -5.07436,5.075061 v 4.021666 h -2.52942 c -0.19614,0 -0.35489,0.15875 -0.35489,0.354542 v 4.171597 c 0,0.195792 0.15875,0.354542 0.35489,0.354542 h 2.52942 z"
         style="fill:none;stroke:#0a0909;stroke-width:0.705556;stroke-linecap:butt;stroke-linejoin:miter;stroke-miterlimit:10;stroke-dasharray:none;stroke-opacity:1"
         id="path106" />
    </g>
  </g>
</svg>
