<?xml version="1.0" encoding="UTF-8" standalone="no"?>
<!-- Created with Inkscape (http://www.inkscape.org/) -->

<svg
   width="37.243244mm"
   height="42.658401mm"
   viewBox="0 0 37.243244 42.658401"
   version="1.1"
   id="svg5"
   inkscape:version="1.1 (c68e22c387, 2021-05-23)"
   sodipodi:docname="back-to-top-byte.svg"
   xmlns:inkscape="http://www.inkscape.org/namespaces/inkscape"
   xmlns:sodipodi="http://sodipodi.sourceforge.net/DTD/sodipodi-0.dtd"
   xmlns="http://www.w3.org/2000/svg"
   xmlns:svg="http://www.w3.org/2000/svg">
  <sodipodi:namedview
     id="namedview7"
     pagecolor="#505050"
     bordercolor="#eeeeee"
     borderopacity="1"
     inkscape:pageshadow="0"
     inkscape:pageopacity="0"
     inkscape:pagecheckerboard="0"
     inkscape:document-units="mm"
     showgrid="false"
     inkscape:zoom="2.9362514"
     inkscape:cx="30.651326"
     inkscape:cy="64.1975"
     inkscape:window-width="1920"
     inkscape:window-height="1009"
     inkscape:window-x="-8"
     inkscape:window-y="-8"
     inkscape:window-maximized="1"
     inkscape:current-layer="layer1" />
  <defs
     id="defs2" />
  <g
     inkscape:label="Layer 1"
     inkscape:groupmode="layer"
     id="layer1"
     transform="translate(-77.215833,-111.66597)">
    <path
       id="path11188-4"
       style="fill:#f1f4fb;fill-opacity:1;stroke:#fafafa;stroke-width:1.865;stroke-linecap:butt;stroke-linejoin:miter;stroke-miterlimit:4;stroke-dasharray:none;stroke-opacity:1"
       d="m 92.551455,112.60191 c -1.01137,-0.004 -1.99622,0.14639 -2.876309,0.6382 -2.166382,1.21062 -3.090463,1.75207 -3.855061,2.61225 -0.764601,0.86017 -0.891937,1.27434 -0.891937,1.27434 0,0 -0.633574,-0.29412 -2.075325,-0.74466 -1.441749,-0.45055 -1.89239,-0.47284 -1.89239,-0.47284 0,0 0.450363,1.3963 1.419034,2.00453 0.968669,0.60824 2.185395,0.90124 2.185395,0.90124 0,0 -0.450723,1.98232 -0.518314,2.70319 -0.01249,0.13312 -0.0258,0.38209 -0.03979,0.66818 l -0.133326,0.0894 c 0,0 -0.06356,1.97549 -0.06356,2.23035 0,0.0193 0.04057,0.008 0.108521,-0.0243 -0.01931,0.59952 -0.04186,1.31051 -0.04186,1.31051 -0.181469,0.65326 -0.444952,0.85484 -0.796332,0.57361 0,0 -2.421138,-3.154 -3.440618,-3.18585 -1.01946,-0.0319 -1.465543,0.60513 -1.465543,0.60513 0,0 -0.186713,0.95901 0.382405,1.91151 0.526939,0.88192 4.200888,4.84693 5.256528,4.71496 -0.176731,1.71657 -0.0951,3.17462 -0.573609,5.19296 l -3.695383,8.72918 c 0,0 -1.019574,3.63203 0.254765,5.0338 1.274342,1.40177 3.313494,0.8599 3.313494,0.8599 0,0 2.867294,-0.73256 3.918624,-0.60513 1.051319,0.12744 2.548554,1.97526 3.345013,2.64428 0.796462,0.66903 1.401647,1.08348 2.707847,1.05162 1.306189,-0.0319 2.484813,0.414 3.886583,-0.57361 1.401771,-0.98761 3.472833,-2.35786 4.141863,-2.51716 0.66902,-0.15929 1.01924,-0.35001 2.96261,0.35088 1.94336,0.70088 2.32586,1.01904 3.21789,0.92346 0.89204,-0.0956 2.61227,-1.05125 2.70785,-2.80344 0.0956,-1.75223 0.28659,-2.13416 -0.47801,-3.12178 -0.7646,-0.98761 -3.15381,-2.77185 -3.15381,-5.0338 0,-2.26195 0.50953,-6.40374 0.50953,-6.40374 0,0 3.1542,-0.82814 4.58783,-1.87947 1.43363,-1.05133 1.70724,-1.5365 2.00712,-2.54869 0.25483,-0.86018 -0.28656,-1.75201 -1.24231,-1.78387 -1.95966,0.0268 -5.23078,1.60883 -5.225,1.62471 0,0 -0.66877,-6.43542 -0.9555,-7.64605 -0.0307,-0.1295 -0.0835,-0.28647 -0.14831,-0.45681 l 0.39998,-1.21182 0.76429,-0.0641 v -2.67581 l -0.9555,-0.12764 c -0.43734,-0.87515 -0.56408,-1.50718 -1.30638,-2.22984 -0.12814,-0.10296 -0.2473,-0.19601 -0.36225,-0.28474 0.10018,-0.13688 0.26863,-2.44406 0.30179,-0.43615 0.027,1.63451 0.92398,-1.36994 0.92398,-1.36994 0,0 -0.25483,-0.6373 -2.35748,0.15917 -0.46424,0.17584 -0.83872,0.35615 -1.14722,0.53071 -0.31073,-0.0405 -0.65646,-0.0548 -1.08624,-0.0646 -0.33714,-0.003 -0.63711,-0.003 -0.90692,-5.3e-4 -0.380567,0.003 -0.689968,0.0109 -0.969963,0.0212 -0.637373,-0.33812 -1.422263,-0.6284 -2.2934,-0.67748 -1.343031,-0.0757 -2.87713,-0.41 -4.355291,-0.41547 z m 10.980205,3.31866 0.55604,0.59376 -1.10122,0.009 -0.0584,-0.0651 c 0,0 0.24557,-0.18 0.60358,-0.53744 z m 1.09244,1.33687 0.33642,0.81339 c -0.25759,0.004 -0.52275,0.006 -0.78187,0.01 -0.22887,-0.39622 -0.39067,-0.66714 -0.39067,-0.66714 l -0.13436,-0.14935 z m 0.40566,1.57665 v 0.78186 c -0.14323,-0.26995 -0.28297,-0.52749 -0.42116,-0.77566 z"
       sodipodi:nodetypes="csscscscsccscccccscccscsscssssssscssccscccccccscsccccccccccccccccccccccc" />
    <g
       id="g14949">
      <path
         id="path11188"
         style="fill:#3968cb;fill-opacity:1;stroke:none;stroke-width:0.264583px;stroke-linecap:butt;stroke-linejoin:miter;stroke-opacity:1"
         d="m 92.551671,112.60188 c -1.01137,-0.004 -1.99622,0.14639 -2.87631,0.6382 -2.16638,1.21062 -3.09046,1.75207 -3.85506,2.61225 -0.7646,0.86017 -0.89194,1.27434 -0.89194,1.27434 0,0 -0.63357,-0.29412 -2.07532,-0.74466 -1.44175,-0.45055 -1.8924,-0.47284 -1.8924,-0.47284 0,0 0.45037,1.3963 1.41904,2.00453 0.96867,0.60824 2.1854,0.90124 2.1854,0.90124 0,0 -0.45073,1.98232 -0.51832,2.70319 -0.0676,0.72088 -0.17001,4.27416 -0.17001,4.27416 -0.18147,0.65326 -0.44496,0.85484 -0.79634,0.57361 0,0 -2.42114,-3.154 -3.44062,-3.18585 -1.01946,-0.0319 -1.46554,0.60513 -1.46554,0.60513 0,0 -0.18671,0.95901 0.38241,1.91151 0.52694,0.88192 4.20088,4.84692 5.25652,4.71495 -0.17673,1.71657 -0.0951,3.17463 -0.57361,5.19297 l -3.69537,8.72918 c 0,0 -1.01958,3.63203 0.25476,5.0338 1.27434,1.40177 3.31349,0.8599 3.31349,0.8599 0,0 2.8673,-0.73256 3.91863,-0.60513 1.05132,0.12744 2.54855,1.97526 3.34501,2.64428 0.79646,0.66903 1.40165,1.08348 2.70785,1.05162 1.30619,-0.0319 2.48481,0.414 3.88658,-0.57361 1.40177,-0.98761 3.472839,-2.35786 4.141869,-2.51716 0.66902,-0.15929 1.01924,-0.35001 2.96261,0.35088 1.94336,0.70088 2.32585,1.01904 3.21789,0.92346 0.89204,-0.0956 2.61226,-1.05124 2.70784,-2.80344 0.0956,-1.75222 0.2866,-2.13416 -0.478,-3.12178 -0.7646,-0.98761 -3.15382,-2.77185 -3.15382,-5.0338 0,-2.26195 0.50953,-6.40374 0.50953,-6.40374 0,0 3.15421,-0.82814 4.58784,-1.87947 1.43363,-1.05133 1.70724,-1.53651 2.00711,-2.54869 0.25484,-0.86018 -0.28655,-1.75201 -1.2423,-1.78387 -1.95966,0.0268 -5.23078,1.60883 -5.225,1.62471 0,0 -0.66877,-6.43542 -0.9555,-7.64605 -0.28672,-1.21062 -2.2624,-4.49223 -2.2624,-4.49223 l -0.85989,-0.95549 c 0,0 0.92388,-0.66925 1.81591,-2.03916 0.89204,-1.36991 0.92397,-1.36994 0.92397,-1.36994 0,0 -0.25483,-0.6373 -2.35748,0.15917 -2.10266,0.79645 -2.45308,1.68878 -2.45308,1.68878 0,0 -1.688719,-1.75204 -3.950659,-1.87947 -1.34303,-0.0757 -2.87713,-0.41001 -4.35529,-0.41548 z" />
      <path
         style="fill:#000000;fill-opacity:1;stroke:none;stroke-width:0.264583px;stroke-linecap:butt;stroke-linejoin:miter;stroke-opacity:1"
         d="m 91.784111,128.16643 c 0,0 0.573452,1.9115 2.61239,2.64425 2.03894,0.73274 3.918587,0.19115 3.918587,0.19115 0,0 1.21062,-0.7646 1.21062,-1.87965 0,-1.11505 -0.477877,-1.59292 -0.477877,-1.59292 0,0 -0.541592,0.22301 -3.313277,-0.7646 -2.771682,-0.98761 -2.61239,-1.21062 -2.61239,-1.21062 0,0 -0.700884,0.0637 -1.051327,1.27433 -0.350443,1.21062 -0.286726,1.33806 -0.286726,1.33806 z"
         id="path14102" />
      <g
         id="g14774"
         transform="translate(11.443871,7.2988471)">
        <ellipse
           style="fill:#ffffff;fill-opacity:1;stroke:none;stroke-width:0.582999"
           id="path14601"
           cx="86.775177"
           cy="113.98817"
           rx="6.1274271"
           ry="6.0823727" />
        <ellipse
           style="fill:#000000;fill-opacity:1;stroke:none;stroke-width:0.582999"
           id="path14324"
           cx="88.273247"
           cy="113.27856"
           rx="3.6156325"
           ry="3.5931051" />
        <ellipse
           style="fill:#ffffff;fill-opacity:1;stroke:none;stroke-width:0.582999"
           id="path14487"
           cx="88.187614"
           cy="113.5125"
           rx="0.18021844"
           ry="0.16895479" />
        <ellipse
           style="fill:#ffffff;fill-opacity:1;stroke:none;stroke-width:0.582999"
           id="path14489"
           cx="88.10717"
           cy="112.30215"
           rx="0.28159133"
           ry="0.41675517" />
        <ellipse
           style="fill:#ffffff;fill-opacity:1;stroke:none;stroke-width:0.582999"
           id="path14491"
           cx="49.031891"
           cy="135.79317"
           rx="1.4304838"
           ry="1.8810301"
           transform="rotate(-18.977323)" />
      </g>
      <path
         id="path1509"
         style="fill:#fe9900;fill-opacity:1;stroke:none;stroke-width:0.264583px;stroke-linecap:butt;stroke-linejoin:miter;stroke-opacity:1"
         d="m 100.17002,113.67375 c -1.888665,0.0151 -2.298225,0.13589 -3.616845,0.19172 -1.39115,0.23363 -1.92964,0.0607 -3.69538,0.89193 -1.69453,1.48052 -1.44856,1.82888 -2.16679,2.73989 l -0.82838,0.12712 v 0.63717 l -5.98929,4.01423 c 0,0 -0.0636,1.97549 -0.0636,2.23035 0,0.25487 6.43527,-4.33307 6.43527,-4.33307 0.33981,1.38053 0.50075,2.67184 1.01957,4.14187 0.98761,1.28495 1.66914,2.10458 3.24941,2.80344 1.58954,0.43248 2.98472,0.40485 4.52428,0.31885 1.178315,-0.0891 1.149165,0.11046 3.727415,-1.33842 1.32325,-0.81352 1.33668,-0.85627 2.48461,-2.67581 l 1.05161,-3.18585 0.7643,-0.0641 v -2.6758 l -0.9555,-0.12764 c -0.43734,-0.87515 -0.56408,-1.50718 -1.30638,-2.22984 -1.67399,-1.34498 -2.13227,-1.42915 -3.72742,-1.46555 -0.33714,-0.003 -0.63711,-0.003 -0.90692,-5.3e-4 z m 2.98741,1.84743 0.93002,0.99303 -11.507155,0.0901 1.27434,-1.01958 z m -11.418945,1.82624 12.885515,-0.0899 0.33662,0.81326 c -4.40332,0.0644 -9.039895,0.0843 -13.605055,0.22257 z m 13.291185,1.48673 -5e-5,0.96894 -13.899325,0.13487 0.0904,-0.90123 z m 0,1.66709 -0.13487,0.85576 -13.426585,0.15813 -0.0899,-0.92398 z m -13.403835,1.757 12.930995,0.0677 -0.47342,0.8109 H 92.053775 Z m 11.669055,1.71203 -1.12624,0.83346 -9.235925,-0.0221 -0.4284,-0.72089 z m -2.56801,1.73498 c -0.38295,0.29285 -2.297845,0.78839 -2.297845,0.78839 l -3.28869,-0.0677 -0.90107,-0.60814 z"
         sodipodi:nodetypes="cccccccsccccccccccccccccccccccccccccccccccccccccccccccccc"
         inkscape:label="path1509" />
    </g>
  </g>
</svg>
