<?xml version="1.0" encoding="UTF-8" standalone="no"?>
<!-- Created with Inkscape (http://www.inkscape.org/) -->

<svg
   width="30.372139mm"
   height="28.375952mm"
   viewBox="0 0 30.372139 28.375952"
   version="1.1"
   id="svg1288"
   inkscape:version="1.1 (c68e22c387, 2021-05-23)"
   sodipodi:docname="instagram.svg"
   xmlns:inkscape="http://www.inkscape.org/namespaces/inkscape"
   xmlns:sodipodi="http://sodipodi.sourceforge.net/DTD/sodipodi-0.dtd"
   xmlns="http://www.w3.org/2000/svg"
   xmlns:svg="http://www.w3.org/2000/svg">
  <sodipodi:namedview
     id="namedview1290"
     pagecolor="#505050"
     bordercolor="#eeeeee"
     borderopacity="1"
     inkscape:pageshadow="0"
     inkscape:pageopacity="0"
     inkscape:pagecheckerboard="0"
     inkscape:document-units="mm"
     showgrid="false"
     inkscape:zoom="0.74118967"
     inkscape:cx="-313.68489"
     inkscape:cy="-81.62553"
     inkscape:window-width="1920"
     inkscape:window-height="1017"
     inkscape:window-x="-8"
     inkscape:window-y="-8"
     inkscape:window-maximized="1"
     inkscape:current-layer="layer1" />
  <defs
     id="defs1285" />
  <g
     inkscape:label="Layer 1"
     inkscape:groupmode="layer"
     id="layer1"
     transform="translate(-188.28749,-170.36611)">
    <g
       id="g2214"
       transform="matrix(0.92770289,0,0,0.92770289,56.197727,46.343987)">
      <g
         id="g2246"
         inkscape:export-filename="C:\Users\mattt\Documents\TTM\socials.png"
         inkscape:export-xdpi="193.62"
         inkscape:export-ydpi="193.62">
        <path
           style="fill:#9ce4f3;stroke:#9ce4f3;stroke-width:0.628;stroke-miterlimit:4;stroke-dasharray:none"
           d="m 155.3238,163.93394 c -2.10693,-0.0746 -3.09507,-0.21721 -4.21988,-0.60885 -1.27362,-0.44345 -2.19925,-1.05306 -3.13808,-2.06673 -0.82272,-0.88829 -1.41485,-2.025 -1.74756,-3.35481 -0.35972,-1.43772 -0.40987,-2.47035 -0.40987,-8.43974 0,-5.96457 0.0504,-7.00318 0.40987,-8.43974 0.33315,-1.33157 0.9208,-2.45887 1.74946,-3.35607 0.94934,-1.02787 1.86614,-1.6269 3.19105,-2.08501 1.09964,-0.38021 2.05987,-0.51298 4.27829,-0.59153 1.01198,-0.0358 8.73054,-0.0358 9.74252,0 2.22308,0.0787 3.1779,0.21107 4.28567,0.59408 1.16743,0.40363 2.01503,0.9192 2.83297,1.7232 0.78559,0.7722 1.24796,1.4377 1.6454,2.36829 0.36274,0.84934 0.59343,1.74498 0.70803,2.74894 0.12621,1.10567 0.1571,2.48967 0.1571,7.03784 0,4.54817 -0.0309,5.93218 -0.1571,7.03784 -0.20432,1.78991 -0.81356,3.34867 -1.74896,4.47476 -0.23071,0.27774 -0.75351,0.80275 -1.03929,1.04366 -0.83708,0.70568 -1.90304,1.23049 -3.11534,1.53381 -0.94024,0.23525 -1.69283,0.31587 -3.56848,0.38229 -0.89832,0.0318 -8.94633,0.03 -9.8558,-0.002 z m 10.20982,-2.62918 c 0.35826,-0.0171 0.82344,-0.0441 1.03372,-0.0602 1.38318,-0.10548 2.46,-0.43137 3.29693,-0.99778 0.34546,-0.2338 0.99431,-0.88316 1.22917,-1.23015 0.5602,-0.82762 0.88441,-1.89217 0.99452,-3.2655 0.0841,-1.04875 0.10116,-2.11194 0.10116,-6.30149 0,-4.19179 -0.0153,-5.13935 -0.10096,-6.259 -0.10478,-1.36943 -0.43201,-2.44833 -0.99472,-3.27967 -0.23486,-0.34698 -0.88371,-0.99635 -1.22917,-1.23015 -0.83342,-0.56404 -1.91375,-0.89209 -3.28277,-0.99684 -1.1203,-0.0857 -2.06691,-0.10096 -6.27316,-0.10096 -4.20625,0 -5.15286,0.0152 -6.27316,0.10096 -1.36902,0.10475 -2.44935,0.4328 -3.28277,0.99684 -0.3438,0.23268 -0.99437,0.88325 -1.22705,1.22705 -0.56404,0.83342 -0.89209,1.91375 -0.99684,3.28277 -0.0857,1.1203 -0.10096,2.06691 -0.10096,6.27316 0,4.20625 0.0152,5.15286 0.10096,6.27316 0.10475,1.36902 0.4328,2.44935 0.99684,3.28277 0.23268,0.3438 0.88325,0.99437 1.22705,1.22705 0.82971,0.56153 1.89603,0.88666 3.26861,0.99662 0.38201,0.0306 1.72459,0.0845 2.43563,0.0978 1.13452,0.0212 8.48718,-0.008 9.07697,-0.0364 z m -6.10324,-4.43743 c -3.43832,-0.41065 -6.12765,-3.11138 -6.5262,-6.55388 -0.26139,-2.25775 0.5238,-4.50926 2.13417,-6.11963 1.41168,-1.41169 3.26658,-2.17844 5.26999,-2.17844 2.00341,0 3.85831,0.76675 5.26999,2.17844 1.41169,1.41168 2.17844,3.26658 2.17844,5.26999 0,3.80152 -2.82097,6.96679 -6.59879,7.40416 -0.464,0.0537 -1.27497,0.0534 -1.7276,-6.5e-4 z m 1.27432,-2.58988 c 2.11677,-0.18734 3.85273,-1.70304 4.31593,-3.76831 0.48272,-2.15226 -0.57285,-4.36845 -2.55328,-5.36072 -1.36561,-0.68422 -2.95241,-0.68422 -4.31802,0 -1.29277,0.64773 -2.24162,1.86236 -2.55251,3.2675 -0.10717,0.4844 -0.14309,0.97037 -0.10413,1.40899 0.22415,2.52369 2.22369,4.40504 4.75901,4.4777 0.0701,0.002 0.27394,-0.009 0.453,-0.0252 z m 6.94522,-10.83253 c -0.48393,-0.1051 -0.96779,-0.48488 -1.1788,-0.92524 -0.14092,-0.29409 -0.19651,-0.56788 -0.17775,-0.87542 0.0467,-0.76561 0.56838,-1.40981 1.29706,-1.60169 0.28533,-0.0751 0.69235,-0.0623 0.98183,0.031 0.45505,0.14669 0.8341,0.47814 1.03835,0.90797 0.12611,0.26537 0.16842,0.45926 0.16687,0.76467 -0.002,0.30636 -0.0605,0.54956 -0.19555,0.80653 -0.36478,0.69417 -1.15767,1.0603 -1.93201,0.89213 z"
           id="path1298-4"
           inkscape:export-filename="C:\Users\mattt\Documents\TTM\socials.png"
           inkscape:export-xdpi="193.62"
           inkscape:export-ydpi="193.62" />
        <path
           style="fill:#e73f33;stroke:#111534;stroke-width:0.628;stroke-miterlimit:4;stroke-dasharray:none"
           d="m 152.21308,162.97196 c -2.10693,-0.0746 -3.09507,-0.21721 -4.21988,-0.60885 -1.27362,-0.44345 -2.19925,-1.05306 -3.13808,-2.06673 -0.82272,-0.88829 -1.41485,-2.025 -1.74756,-3.35481 -0.35972,-1.43772 -0.40987,-2.47035 -0.40987,-8.43974 0,-5.96457 0.0504,-7.00318 0.40987,-8.43974 0.33315,-1.33157 0.9208,-2.45887 1.74946,-3.35607 0.94934,-1.02787 1.86614,-1.6269 3.19105,-2.08501 1.09964,-0.38021 2.05987,-0.51298 4.27829,-0.59153 1.01198,-0.0358 8.73054,-0.0358 9.74252,0 2.22308,0.0787 3.1779,0.21107 4.28567,0.59408 1.16743,0.40363 2.01503,0.9192 2.83297,1.7232 0.78559,0.7722 1.24796,1.4377 1.6454,2.36829 0.36274,0.84934 0.59343,1.74498 0.70803,2.74894 0.12621,1.10567 0.1571,2.48967 0.1571,7.03784 0,4.54817 -0.0309,5.93218 -0.1571,7.03784 -0.20432,1.78991 -0.81356,3.34867 -1.74896,4.47476 -0.23071,0.27774 -0.75351,0.80275 -1.03929,1.04366 -0.83708,0.70568 -1.90304,1.23049 -3.11534,1.53381 -0.94024,0.23525 -1.69283,0.31587 -3.56848,0.38229 -0.89832,0.0318 -8.94633,0.03 -9.8558,-0.002 z m 10.20982,-2.62918 c 0.35826,-0.0171 0.82344,-0.0441 1.03372,-0.0602 1.38318,-0.10548 2.46,-0.43137 3.29693,-0.99778 0.34546,-0.2338 0.99431,-0.88316 1.22917,-1.23015 0.5602,-0.82762 0.88441,-1.89217 0.99452,-3.2655 0.0841,-1.04875 0.10116,-2.11194 0.10116,-6.30149 0,-4.19179 -0.0153,-5.13935 -0.10096,-6.259 -0.10478,-1.36943 -0.43201,-2.44833 -0.99472,-3.27967 -0.23486,-0.34698 -0.88371,-0.99635 -1.22917,-1.23015 -0.83342,-0.56404 -1.91375,-0.89209 -3.28277,-0.99684 -1.1203,-0.0857 -2.06691,-0.10096 -6.27316,-0.10096 -4.20625,0 -5.15286,0.0152 -6.27316,0.10096 -1.36902,0.10475 -2.44935,0.4328 -3.28277,0.99684 -0.3438,0.23268 -0.99437,0.88325 -1.22705,1.22705 -0.56404,0.83342 -0.89209,1.91375 -0.99684,3.28277 -0.0857,1.1203 -0.10096,2.06691 -0.10096,6.27316 0,4.20625 0.0152,5.15286 0.10096,6.27316 0.10475,1.36902 0.4328,2.44935 0.99684,3.28277 0.23268,0.3438 0.88325,0.99437 1.22705,1.22705 0.82971,0.56153 1.89603,0.88666 3.26861,0.99662 0.38201,0.0306 1.72459,0.0845 2.43563,0.0978 1.13452,0.0212 8.48718,-0.008 9.07697,-0.0364 z m -6.10324,-4.43743 c -3.43832,-0.41065 -6.12765,-3.11138 -6.5262,-6.55388 -0.26139,-2.25775 0.5238,-4.50926 2.13417,-6.11963 1.41168,-1.41169 3.26658,-2.17844 5.26999,-2.17844 2.00341,0 3.85831,0.76675 5.26999,2.17844 1.41169,1.41168 2.17844,3.26658 2.17844,5.26999 0,3.80152 -2.82097,6.96679 -6.59879,7.40416 -0.464,0.0537 -1.27497,0.0534 -1.7276,-6.5e-4 z m 1.27432,-2.58988 c 2.11677,-0.18734 3.85273,-1.70304 4.31593,-3.76831 0.48272,-2.15226 -0.57285,-4.36845 -2.55328,-5.36072 -1.36561,-0.68422 -2.95241,-0.68422 -4.31802,0 -1.29277,0.64773 -2.24162,1.86236 -2.55251,3.2675 -0.10717,0.4844 -0.14309,0.97037 -0.10413,1.40899 0.22415,2.52369 2.22369,4.40504 4.75901,4.4777 0.0701,0.002 0.27394,-0.009 0.453,-0.0252 z m 6.94522,-10.83253 c -0.48393,-0.1051 -0.96779,-0.48488 -1.1788,-0.92524 -0.14092,-0.29409 -0.19651,-0.56788 -0.17775,-0.87542 0.0467,-0.76561 0.56838,-1.40981 1.29706,-1.60169 0.28533,-0.0751 0.69235,-0.0623 0.98183,0.031 0.45505,0.14669 0.8341,0.47814 1.03835,0.90797 0.12611,0.26537 0.16842,0.45926 0.16687,0.76467 -0.002,0.30636 -0.0605,0.54956 -0.19555,0.80653 -0.36478,0.69417 -1.15767,1.0603 -1.93201,0.89213 z"
           id="path1298"
           inkscape:export-filename="C:\Users\mattt\Documents\TTM\socials.png"
           inkscape:export-xdpi="193.62"
           inkscape:export-ydpi="193.62" />
      </g>
    </g>
  </g>
</svg>
