<?xml version="1.0" encoding="UTF-8" standalone="no"?>
<!-- Created with Inkscape (http://www.inkscape.org/) -->

<svg
   width="27.276552mm"
   height="25.979965mm"
   viewBox="0 0 27.276552 25.979965"
   version="1.1"
   id="svg1055"
   inkscape:version="1.1 (c68e22c387, 2021-05-23)"
   sodipodi:docname="linkedin.svg"
   xmlns:inkscape="http://www.inkscape.org/namespaces/inkscape"
   xmlns:sodipodi="http://sodipodi.sourceforge.net/DTD/sodipodi-0.dtd"
   xmlns="http://www.w3.org/2000/svg"
   xmlns:svg="http://www.w3.org/2000/svg">
  <sodipodi:namedview
     id="namedview1057"
     pagecolor="#505050"
     bordercolor="#eeeeee"
     borderopacity="1"
     inkscape:pageshadow="0"
     inkscape:pageopacity="0"
     inkscape:pagecheckerboard="0"
     inkscape:document-units="mm"
     showgrid="false"
     inkscape:zoom="0.74118967"
     inkscape:cx="-43.848425"
     inkscape:cy="42.499243"
     inkscape:window-width="1920"
     inkscape:window-height="1017"
     inkscape:window-x="-8"
     inkscape:window-y="-8"
     inkscape:window-maximized="1"
     inkscape:current-layer="layer1" />
  <defs
     id="defs1052" />
  <g
     inkscape:label="Layer 1"
     inkscape:groupmode="layer"
     id="layer1"
     transform="translate(-116.6562,-137.29487)">
    <g
       id="g2081"
       transform="translate(23.292128,94.151142)"
       inkscape:export-filename="C:\Users\mattt\Documents\TTM\socials.png"
       inkscape:export-xdpi="193.62"
       inkscape:export-ydpi="193.62">
      <path
         d="m 96.593042,69.123697 h 4.521198 c 0.21661,0 0.39194,-0.175719 0.39194,-0.391936 V 53.554203 c 0,-0.216606 -0.17533,-0.391936 -0.39194,-0.391936 h -4.521198 c -0.216606,0 -0.392289,0.17533 -0.392289,0.391936 v 15.177558 c 0,0.216217 0.175683,0.391936 0.392289,0.391936 z m 24.047098,-9.153525 v 8.761589 c 0,0.216217 -0.17568,0.391936 -0.39194,0.391936 h -4.52296 c -0.21661,0 -0.39194,-0.175719 -0.39194,-0.391936 v -8.148108 c 0,-2.144183 -0.76623,-3.608564 -2.68781,-3.608564 -1.46615,0 -2.33751,0.986014 -2.72203,1.940631 -0.1397,0.341136 -0.17569,0.814563 -0.17569,1.293283 v 8.52237 c 0,0.216323 -0.17533,0.391901 -0.39193,0.391901 h -4.52156 c -0.21731,0 -0.39299,-0.174872 -0.39193,-0.391901 0.01,-2.169583 0.0557,-12.697848 0.01,-15.172584 -0.004,-0.219075 0.17251,-0.396522 0.39159,-0.396522 h 4.51273 c 0.2166,0 0.39194,0.17533 0.39194,0.391936 v 1.869722 c -0.0109,0.01799 -0.0258,0.03528 -0.0353,0.05256 h 0.0353 v -0.05256 c 0.7052,-1.085144 1.9632,-2.636308 4.78296,-2.636308 3.49108,0 6.10905,2.281414 6.10905,7.182555 v 0"
         style="fill:#e069d4;fill-opacity:1;fill-rule:nonzero;stroke:none;stroke-width:0.0352778"
         id="path156" />
      <path
         d="m 101.53546,48.291464 c 0,1.568803 -1.27177,2.840567 -2.840568,2.840567 -1.569156,0 -2.840919,-1.271764 -2.840919,-2.840567 0,-1.569155 1.271763,-2.840566 2.840919,-2.840566 1.568798,0 2.840568,1.271411 2.840568,2.840566"
         style="fill:#5571c0;fill-opacity:1;fill-rule:nonzero;stroke:none;stroke-width:0.0352778"
         id="path158" />
      <path
         d="m 94.455562,67.169344 h 4.521552 c 0.216253,0 0.391936,-0.175684 0.391936,-0.392042 V 51.599814 c 0,-0.216605 -0.175683,-0.391936 -0.391936,-0.391936 h -4.521552 c -0.216606,0 -0.391937,0.175331 -0.391937,0.391936 v 15.177488 c 0,0.216358 0.175331,0.392042 0.391937,0.392042 z m 24.047448,-9.153561 v 8.761519 c 0,0.216358 -0.17533,0.392042 -0.39229,0.392042 h -4.52296 c -0.21625,0 -0.39158,-0.175684 -0.39158,-0.392042 v -8.148038 c 0,-2.144183 -0.76624,-3.608564 -2.68782,-3.608564 -1.4665,0 -2.3375,0.986014 -2.72203,1.940631 -0.1397,0.341136 -0.17569,0.814564 -0.17569,1.293283 v 8.522405 c 0,0.216218 -0.17568,0.391513 -0.39228,0.391513 h -4.52156 c -0.21696,0 -0.39264,-0.17459 -0.39158,-0.391513 0.01,-2.169583 0.0557,-12.697883 0.009,-15.172619 -0.004,-0.219075 0.17251,-0.396522 0.39194,-0.396522 h 4.51273 c 0.21625,0 0.39194,0.175331 0.39194,0.391936 v 1.869722 c -0.0109,0.01799 -0.0261,0.03528 -0.0353,0.05256 h 0.0353 v -0.05256 c 0.7052,-1.085144 1.96285,-2.636308 4.78261,-2.636308 3.49179,0 6.1094,2.281061 6.1094,7.182555 v 0"
         style="fill:#5571c0;fill-opacity:1;fill-rule:nonzero;stroke:none;stroke-width:0.0352778"
         id="path160" />
      <path
         d="m 94.455562,67.169344 h 4.521552 c 0.216253,0 0.391936,-0.175684 0.391936,-0.392042 V 51.599814 c 0,-0.216605 -0.175683,-0.391936 -0.391936,-0.391936 h -4.521552 c -0.216606,0 -0.391937,0.175331 -0.391937,0.391936 v 15.177488 c 0,0.216358 0.175331,0.392042 0.391937,0.392042 z m 24.047448,-9.153561 v 8.761519 c 0,0.216358 -0.17533,0.392042 -0.39229,0.392042 h -4.52296 c -0.21625,0 -0.39158,-0.175684 -0.39158,-0.392042 v -8.148038 c 0,-2.144183 -0.76624,-3.608564 -2.68782,-3.608564 -1.4665,0 -2.3375,0.986014 -2.72203,1.940631 -0.1397,0.341136 -0.17569,0.814564 -0.17569,1.293283 v 8.522405 c 0,0.216218 -0.17568,0.391513 -0.39228,0.391513 h -4.52156 c -0.21696,0 -0.39264,-0.17459 -0.39158,-0.391513 0.01,-2.169583 0.0557,-12.697883 0.009,-15.172619 -0.004,-0.219075 0.17251,-0.396522 0.39194,-0.396522 h 4.51273 c 0.21625,0 0.39194,0.175331 0.39194,0.391936 v 1.869722 c -0.0109,0.01799 -0.0261,0.03528 -0.0353,0.05256 h 0.0353 v -0.05256 c 0.7052,-1.085144 1.96285,-2.636308 4.78261,-2.636308 3.49179,0 6.1094,2.281061 6.1094,7.182555 z"
         style="fill:#222a68;stroke:#0a0909;stroke-width:0.705556;stroke-linecap:butt;stroke-linejoin:miter;stroke-miterlimit:10;stroke-dasharray:none;stroke-opacity:1"
         id="path162" />
      <path
         d="m 99.397978,46.337075 c 0,1.568803 -1.271764,2.840567 -2.840567,2.840567 -1.568802,0 -2.840566,-1.271764 -2.840566,-2.840567 0,-1.569155 1.271764,-2.840566 2.840566,-2.840566 1.568803,0 2.840567,1.271411 2.840567,2.840566"
         style="fill:#5571c0;fill-opacity:1;fill-rule:nonzero;stroke:none;stroke-width:0.0352778"
         id="path164" />
      <path
         d="m 99.397978,46.337075 c 0,1.568803 -1.271764,2.840567 -2.840567,2.840567 -1.568802,0 -2.840566,-1.271764 -2.840566,-2.840567 0,-1.569155 1.271764,-2.840566 2.840566,-2.840566 1.568803,0 2.840567,1.271411 2.840567,2.840566 z"
         style="fill:#222a68;stroke:#0a0909;stroke-width:0.705556;stroke-linecap:butt;stroke-linejoin:miter;stroke-miterlimit:10;stroke-dasharray:none;stroke-opacity:1"
         id="path166" />
    </g>
  </g>
</svg>
