<?xml version="1.0" encoding="UTF-8" standalone="no"?>
<!-- Created with Inkscape (http://www.inkscape.org/) -->

<svg
   width="14.695816mm"
   height="14.678698mm"
   viewBox="0 0 14.695816 14.678698"
   version="1.1"
   id="svg80"
   inkscape:version="1.1 (c68e22c387, 2021-05-23)"
   sodipodi:docname="tt-logo.svg"
   xmlns:inkscape="http://www.inkscape.org/namespaces/inkscape"
   xmlns:sodipodi="http://sodipodi.sourceforge.net/DTD/sodipodi-0.dtd"
   xmlns="http://www.w3.org/2000/svg"
   xmlns:svg="http://www.w3.org/2000/svg">
  <sodipodi:namedview
     id="namedview82"
     pagecolor="#2c2c2c"
     bordercolor="#666666"
     borderopacity="1.0"
     inkscape:pageshadow="2"
     inkscape:pageopacity="0"
     inkscape:pagecheckerboard="0"
     inkscape:document-units="mm"
     showgrid="false"
     inkscape:zoom="0.73406285"
     inkscape:cx="-828.94809"
     inkscape:cy="-52.447825"
     inkscape:window-width="1920"
     inkscape:window-height="1009"
     inkscape:window-x="-8"
     inkscape:window-y="-8"
     inkscape:window-maximized="1"
     inkscape:current-layer="layer1" />
  <defs
     id="defs77" />
  <g
     inkscape:label="Layer 1"
     inkscape:groupmode="layer"
     id="layer1"
     transform="translate(-84.620088,-126.12128)">
    <path
       style="fill:#ffffff;fill-opacity:1;stroke:none;stroke-width:0.215;stroke-miterlimit:4;stroke-dasharray:none;stroke-opacity:1"
       d="m 91.316624,140.79835 c -0.07479,0.004 -0.173498,2.6e-4 -0.219196,-0.007 -0.04559,-0.007 -0.149386,-0.0137 -0.230407,-0.0149 -0.08969,-0.001 -0.2256,-0.0175 -0.347566,-0.0417 -0.110109,-0.0217 -0.309002,-0.0675 -0.441901,-0.10176 -0.132906,-0.0343 -0.351752,-0.0992 -0.48633,-0.14421 -0.134563,-0.0451 -0.331564,-0.11731 -0.437771,-0.16061 -0.106257,-0.0433 -0.315508,-0.13851 -0.465132,-0.2116 -0.149642,-0.0731 -0.363445,-0.18642 -0.475184,-0.25187 -0.111769,-0.0654 -0.311707,-0.19302 -0.444373,-0.28351 -0.132622,-0.0905 -0.315793,-0.22414 -0.406954,-0.29699 -0.09119,-0.0729 -0.236927,-0.19538 -0.323915,-0.27228 -0.08696,-0.0769 -0.269927,-0.2554 -0.406543,-0.39665 -0.13664,-0.14124 -0.314513,-0.33848 -0.39527,-0.43831 -0.08081,-0.0998 -0.209774,-0.26866 -0.286567,-0.37522 -0.0769,-0.10656 -0.197598,-0.2875 -0.268432,-0.40205 -0.07058,-0.11469 -0.183501,-0.31034 -0.249807,-0.43547 -0.06631,-0.12512 -0.168402,-0.33445 -0.226017,-0.46569 -0.0576,-0.13123 -0.144758,-0.34928 -0.193426,-0.48465 -0.04875,-0.13531 -0.119214,-0.35504 -0.156565,-0.48824 -0.03727,-0.13324 -0.08769,-0.33413 -0.111844,-0.44649 -0.02426,-0.11235 -0.05725,-0.29283 -0.07357,-0.401 -0.01631,-0.10818 -0.03459,-0.32597 -0.04056,-0.48399 -0.0064,-0.158 -0.01015,-0.49481 -0.009,-0.74843 0.001,-0.25362 0.01059,-0.61417 0.02089,-0.80123 0.01324,-0.23745 0.03112,-0.40394 0.05913,-0.5516 0.02213,-0.11633 0.06817,-0.32228 0.102276,-0.45769 0.03418,-0.13538 0.09345,-0.34266 0.131718,-0.46057 0.03829,-0.11792 0.114458,-0.32647 0.169242,-0.46344 0.05478,-0.13698 0.152608,-0.35769 0.21742,-0.49046 0.06482,-0.13277 0.17105,-0.33272 0.236088,-0.44432 0.06505,-0.11161 0.168992,-0.27999 0.230977,-0.37419 0.06202,-0.0942 0.169096,-0.24714 0.238022,-0.33987 0.06892,-0.0927 0.19337,-0.24995 0.276554,-0.34938 0.08322,-0.0995 0.257473,-0.28851 0.387318,-0.42015 0.129832,-0.13164 0.318612,-0.31114 0.41948,-0.39888 0.100881,-0.0878 0.254495,-0.21456 0.341373,-0.28181 0.08685,-0.0672 0.25534,-0.18784 0.374347,-0.26793 0.118989,-0.0801 0.29638,-0.19296 0.394158,-0.25079 0.09775,-0.0579 0.311997,-0.17143 0.476031,-0.25242 0.164047,-0.081 0.419669,-0.19432 0.568048,-0.25189 0.148373,-0.0576 0.3572,-0.13207 0.464037,-0.16558 0.106852,-0.0336 0.314758,-0.0907 0.462032,-0.12692 0.147262,-0.0363 0.393544,-0.0858 0.547306,-0.1102 0.216279,-0.0342 0.358238,-0.0467 0.627319,-0.0551 0.191291,-0.006 0.47707,-0.0104 0.635058,-0.01 0.157984,6.8e-4 0.443716,0.008 0.634946,0.0151 0.268995,0.0112 0.410855,0.0245 0.626834,0.0605 0.153538,0.0257 0.401657,0.0779 0.551361,0.1161 0.149716,0.0382 0.382305,0.10645 0.516872,0.15161 0.134531,0.0452 0.331572,0.1176 0.43778,0.16096 0.106197,0.0433 0.301969,0.13172 0.435026,0.19636 0.133072,0.0647 0.34009,0.17431 0.460099,0.24374 0.119972,0.0694 0.302984,0.18279 0.406639,0.25191 0.103731,0.0691 0.263054,0.18221 0.354234,0.25128 0.09116,0.0691 0.243418,0.19135 0.338287,0.27172 0.09485,0.0804 0.271624,0.24319 0.392779,0.36182 0.121194,0.11861 0.296774,0.30437 0.390137,0.41281 0.09338,0.10845 0.226939,0.2709 0.296754,0.36105 0.06979,0.0901 0.203433,0.2799 0.296967,0.42164 0.09361,0.14169 0.211966,0.33179 0.263251,0.42228 0.05148,0.0904 0.153089,0.2874 0.226283,0.43759 0.07318,0.15017 0.174628,0.37953 0.225508,0.50963 0.05089,0.13011 0.124159,0.33538 0.163052,0.45609 0.0388,0.12075 0.09799,0.33189 0.131509,0.46924 0.03303,0.13745 0.07794,0.34164 0.09881,0.454 0.02631,0.1418 0.04307,0.30833 0.05483,0.54452 0.0092,0.18715 0.01584,0.55796 0.0147,0.82406 -0.0011,0.26609 -0.01069,0.63685 -0.02168,0.8239 -0.01361,0.23441 -0.03191,0.40349 -0.05911,0.54404 -0.02169,0.11217 -0.06744,0.31473 -0.101499,0.45013 -0.03416,0.13542 -0.09346,0.34266 -0.131742,0.46058 -0.03832,0.11787 -0.114359,0.32646 -0.169005,0.46344 -0.05465,0.13702 -0.15639,0.36448 -0.226083,0.50553 -0.06967,0.14107 -0.175094,0.33947 -0.234232,0.44091 -0.05914,0.1014 -0.159493,0.26275 -0.223039,0.35849 -0.06347,0.0957 -0.185701,0.26718 -0.271486,0.38096 -0.08578,0.11376 -0.195438,0.2491 -0.243687,0.30072 -0.05826,0.0623 -0.119782,0.10944 -0.182887,0.14024 -0.05343,0.026 -0.142978,0.0535 -0.204315,0.0627 -0.08116,0.0122 -0.139729,0.0118 -0.228339,-0.002 -0.06554,-0.0102 -0.155267,-0.0352 -0.199344,-0.0563 -0.0441,-0.0211 -0.10985,-0.064 -0.146037,-0.0952 -0.03628,-0.0312 -0.09151,-0.0969 -0.122678,-0.14574 -0.03746,-0.059 -0.06532,-0.12737 -0.08194,-0.2036 -0.0174,-0.0815 -0.02191,-0.14869 -0.01565,-0.23097 0.0053,-0.0639 0.02402,-0.1548 0.042,-0.20203 0.01784,-0.0473 0.05465,-0.11444 0.08172,-0.1494 0.02712,-0.035 0.104139,-0.13469 0.171239,-0.22177 0.06705,-0.087 0.163313,-0.21929 0.213783,-0.29391 0.05059,-0.0745 0.131281,-0.20016 0.179571,-0.27895 0.04831,-0.0788 0.136863,-0.23844 0.196802,-0.35478 0.05987,-0.11638 0.145795,-0.29967 0.190776,-0.40741 0.04493,-0.10773 0.115437,-0.29441 0.15656,-0.4148 0.04114,-0.12036 0.101954,-0.32765 0.135191,-0.46057 0.03323,-0.13288 0.07416,-0.32009 0.09107,-0.41596 0.01683,-0.0959 0.0429,-0.27607 0.0579,-0.40042 0.019,-0.15815 0.02773,-0.34192 0.02888,-0.61163 0.0012,-0.26972 -0.0061,-0.45371 -0.02366,-0.61245 -0.01439,-0.12469 -0.04189,-0.3188 -0.06205,-0.43116 -0.02018,-0.11233 -0.054,-0.27575 -0.07458,-0.36321 -0.02053,-0.0875 -0.06475,-0.24747 -0.09739,-0.35572 -0.03263,-0.10823 -0.09638,-0.29221 -0.141676,-0.40882 -0.0453,-0.11662 -0.135328,-0.32111 -0.199884,-0.45444 -0.06466,-0.1333 -0.173716,-0.33634 -0.242387,-0.45116 -0.06877,-0.11481 -0.185223,-0.29368 -0.25811,-0.39799 -0.07348,-0.10393 -0.205222,-0.27626 -0.293189,-0.38263 -0.08797,-0.10639 -0.251371,-0.28596 -0.363157,-0.39902 -0.111743,-0.11309 -0.281245,-0.27079 -0.376531,-0.35049 -0.09535,-0.0797 -0.227711,-0.18631 -0.294263,-0.23691 -0.06663,-0.0506 -0.198884,-0.14337 -0.293948,-0.20624 -0.09519,-0.0628 -0.240136,-0.15317 -0.322254,-0.20077 -0.08211,-0.0477 -0.214492,-0.11953 -0.294147,-0.15986 -0.07963,-0.0403 -0.223808,-0.10803 -0.320321,-0.15047 -0.09656,-0.0424 -0.284503,-0.11514 -0.41776,-0.16154 -0.133294,-0.0464 -0.349822,-0.11186 -0.48127,-0.14542 -0.131438,-0.0335 -0.31716,-0.0754 -0.41272,-0.0931 -0.09549,-0.0177 -0.262127,-0.0432 -0.370185,-0.0568 -0.108029,-0.0136 -0.342698,-0.0292 -0.52145,-0.0347 -0.198988,-0.006 -0.413004,-0.004 -0.551891,0.007 -0.124763,0.009 -0.301747,0.0271 -0.39327,0.0393 -0.09155,0.0122 -0.234474,0.0354 -0.317721,0.0514 -0.08319,0.0161 -0.233028,0.0493 -0.332925,0.0738 -0.09995,0.0245 -0.292086,0.0808 -0.427098,0.12507 -0.135017,0.0443 -0.32846,0.11501 -0.429866,0.15716 -0.101419,0.0422 -0.264138,0.1162 -0.361585,0.16453 -0.0974,0.0483 -0.244828,0.12643 -0.327489,0.17357 -0.08273,0.0471 -0.249215,0.15225 -0.37016,0.23351 -0.120922,0.0813 -0.291526,0.20467 -0.379145,0.27418 -0.08763,0.0695 -0.242808,0.20189 -0.344906,0.29418 -0.102094,0.0923 -0.264146,0.25403 -0.360121,0.35945 -0.09595,0.1054 -0.233386,0.26624 -0.305384,0.3574 -0.07195,0.0912 -0.194761,0.26074 -0.272838,0.37683 -0.07805,0.11609 -0.199879,0.31423 -0.270685,0.44031 -0.07088,0.12608 -0.177071,0.33994 -0.236158,0.47526 -0.05906,0.1353 -0.128552,0.30375 -0.15441,0.37433 -0.02574,0.0706 -0.06832,0.19626 -0.09448,0.2793 -0.02619,0.0831 -0.07094,0.24614 -0.09953,0.36244 -0.02866,0.1163 -0.06593,0.28963 -0.08283,0.38519 -0.01693,0.0955 -0.0413,0.26894 -0.05434,0.38531 -0.01293,0.11634 -0.0285,0.3136 -0.03465,0.43831 -0.0065,0.12943 -0.0044,0.34032 0.0049,0.4914 0.0095,0.14554 0.02953,0.36336 0.04576,0.48401 0.0166,0.12059 0.04618,0.30107 0.06643,0.40095 0.0199,0.0999 0.06107,0.26983 0.08966,0.37788 0.02951,0.10788 0.08317,0.28509 0.120404,0.39361 0.03723,0.10853 0.09783,0.26885 0.13454,0.35636 0.03681,0.0875 0.119815,0.26472 0.184454,0.39389 0.06464,0.12916 0.174823,0.32881 0.244982,0.44359 0.0705,0.11457 0.180223,0.28196 0.244751,0.37143 0.06479,0.0893 0.171109,0.22753 0.236803,0.30684 0.0657,0.0793 0.182398,0.21267 0.259147,0.29648 0.07686,0.0838 0.2196,0.22513 0.317282,0.3141 0.0978,0.0889 0.252208,0.22132 0.343371,0.29413 0.09113,0.0728 0.270912,0.20236 0.399439,0.28788 0.12852,0.0856 0.308578,0.19733 0.400112,0.24845 0.09141,0.0512 0.244271,0.13035 0.339434,0.17603 0.09514,0.0457 0.257924,0.11722 0.361686,0.15898 0.103724,0.0417 0.275219,0.10436 0.381006,0.13917 0.105774,0.0348 0.301552,0.0907 0.435045,0.12418 0.133475,0.0334 0.359595,0.0786 0.502463,0.10023 0.14284,0.0216 0.310745,0.0464 0.373081,0.0551 0.06893,0.009 0.149282,0.0335 0.205191,0.0611 0.05536,0.0273 0.123106,0.0786 0.170305,0.12899 0.0431,0.046 0.09996,0.12966 0.126368,0.18597 0.04568,0.0975 0.04792,0.11105 0.04739,0.28379 -5.85e-4,0.13571 -0.0079,0.20104 -0.02826,0.25924 -0.01525,0.0428 -0.0545,0.11516 -0.0874,0.16069 -0.03294,0.0455 -0.09544,0.10881 -0.138958,0.1404 -0.06208,0.0451 -0.09877,0.0598 -0.170593,0.0685 -0.05041,0.005 -0.152762,0.0136 -0.227611,0.0171 z m 0.710056,-1.65841 c -0.261947,0.002 -0.537468,-0.003 -0.612272,-0.0116 -0.07473,-0.008 -0.210799,-0.0252 -0.302219,-0.0387 -0.09152,-0.0134 -0.251189,-0.0421 -0.355032,-0.0637 -0.103866,-0.0216 -0.294156,-0.0701 -0.422881,-0.10797 -0.128675,-0.0377 -0.345963,-0.11365 -0.48276,-0.16858 -0.136809,-0.0549 -0.341326,-0.14676 -0.454557,-0.20409 -0.113274,-0.0574 -0.266117,-0.14002 -0.339756,-0.18375 -0.0736,-0.0437 -0.194946,-0.12066 -0.269577,-0.17095 -0.07462,-0.0503 -0.203493,-0.14309 -0.286379,-0.20624 -0.08283,-0.0631 -0.204949,-0.16217 -0.271214,-0.22007 -0.06626,-0.058 -0.183746,-0.16741 -0.261049,-0.24335 -0.07728,-0.0759 -0.203167,-0.20983 -0.279849,-0.29744 -0.07668,-0.0876 -0.178295,-0.21047 -0.22594,-0.27294 -0.04762,-0.0624 -0.102039,-0.1443 -0.12071,-0.18194 -0.01885,-0.0375 -0.04155,-0.10445 -0.05081,-0.14855 -0.0088,-0.0441 -0.01601,-0.12274 -0.01623,-0.17454 3.77e-4,-0.052 0.01104,-0.13438 0.02398,-0.18323 0.01285,-0.0488 0.04171,-0.12174 0.06372,-0.16183 0.0221,-0.0401 0.07537,-0.10599 0.118391,-0.14637 0.04308,-0.0404 0.106576,-0.0877 0.14114,-0.10515 0.03455,-0.0174 0.101914,-0.0418 0.149696,-0.054 0.0478,-0.0122 0.131656,-0.0221 0.186372,-0.0218 0.05471,2.3e-4 0.139476,0.011 0.188362,0.024 0.04883,0.013 0.121693,0.0416 0.161821,0.0637 0.04011,0.022 0.105049,0.0752 0.144213,0.11818 0.0392,0.043 0.121727,0.14122 0.183541,0.21831 0.06166,0.0772 0.20393,0.23067 0.316017,0.34121 0.112086,0.11054 0.268305,0.25138 0.347052,0.31305 0.07877,0.0616 0.222428,0.16468 0.319319,0.22895 0.09689,0.0643 0.269966,0.16525 0.384596,0.22437 0.114632,0.0591 0.286527,0.13876 0.382,0.17698 0.09544,0.0382 0.251978,0.0935 0.347805,0.12282 0.09592,0.0294 0.256667,0.0711 0.357415,0.0928 0.10078,0.0217 0.26708,0.0497 0.369579,0.0621 0.102477,0.0125 0.25827,0.0272 0.346131,0.0328 0.08792,0.005 0.26138,0.003 0.38556,-0.005 0.12418,-0.008 0.310049,-0.0285 0.41301,-0.0447 0.102925,-0.0163 0.267223,-0.0494 0.365231,-0.0729 0.09779,-0.0246 0.26904,-0.0749 0.380336,-0.11262 0.111304,-0.0377 0.325136,-0.12807 0.475139,-0.20091 0.149995,-0.0728 0.354572,-0.18608 0.454659,-0.25157 0.100164,-0.0654 0.246764,-0.16882 0.326031,-0.22949 0.07923,-0.0606 0.250538,-0.21587 0.380678,-0.34478 0.130101,-0.12897 0.282565,-0.29208 0.338761,-0.36253 0.05618,-0.0704 0.152418,-0.20275 0.213868,-0.29392 0.06139,-0.0912 0.153784,-0.24135 0.205296,-0.33364 0.0515,-0.0922 0.130369,-0.25185 0.175262,-0.35456 0.0449,-0.1027 0.113797,-0.28528 0.153076,-0.40567 0.03925,-0.12041 0.09185,-0.3175 0.116896,-0.43797 0.02503,-0.12044 0.05686,-0.32104 0.07078,-0.44572 0.01851,-0.1653 0.02339,-0.30242 0.01816,-0.50642 -0.0043,-0.16307 -0.02003,-0.36748 -0.03806,-0.49012 -0.01675,-0.11576 -0.05699,-0.31313 -0.08881,-0.43874 -0.0318,-0.12561 -0.08417,-0.30338 -0.116696,-0.39501 -0.03254,-0.0916 -0.09071,-0.23811 -0.129267,-0.32558 -0.03856,-0.0875 -0.107641,-0.22725 -0.153514,-0.31061 -0.04608,-0.0833 -0.132651,-0.22684 -0.193944,-0.31811 -0.06045,-0.0918 -0.155525,-0.22481 -0.211091,-0.2957 -0.05548,-0.0709 -0.21,-0.23833 -0.343211,-0.37205 -0.133215,-0.13373 -0.312039,-0.29667 -0.397331,-0.36212 -0.08528,-0.0655 -0.234523,-0.17049 -0.331639,-0.23344 -0.09713,-0.0629 -0.285171,-0.16795 -0.417956,-0.23333 -0.132791,-0.0654 -0.316122,-0.14631 -0.407459,-0.17983 -0.09142,-0.0336 -0.240793,-0.0821 -0.332155,-0.10806 -0.09139,-0.0259 -0.235034,-0.0612 -0.319274,-0.0786 -0.08427,-0.0172 -0.240617,-0.0421 -0.347501,-0.0552 -0.106907,-0.013 -0.314046,-0.0243 -0.460336,-0.0251 -0.146283,-7.1e-4 -0.330013,0.006 -0.408282,0.014 -0.07828,0.009 -0.186548,0.0221 -0.240632,0.0303 -0.05414,0.008 -0.174801,0.0315 -0.268232,0.0521 -0.09354,0.0204 -0.246701,0.0611 -0.340564,0.0902 -0.09381,0.0293 -0.237084,0.0793 -0.318284,0.11122 -0.08118,0.0319 -0.229855,0.0988 -0.33037,0.14869 -0.100485,0.0499 -0.254414,0.1341 -0.342012,0.18723 -0.08757,0.0531 -0.235592,0.15362 -0.328891,0.22332 -0.09329,0.0697 -0.242003,0.19116 -0.330468,0.26992 -0.08843,0.0787 -0.219061,0.20789 -0.290199,0.28697 -0.07118,0.0791 -0.181888,0.21173 -0.246126,0.2948 -0.06427,0.083 -0.16138,0.22068 -0.215883,0.30583 -0.0545,0.0852 -0.146127,0.24651 -0.203615,0.3586 -0.05743,0.11208 -0.131832,0.27166 -0.165218,0.3546 -0.03336,0.083 -0.08892,0.23949 -0.123468,0.34787 -0.04313,0.13555 -0.08075,0.22256 -0.120344,0.27875 -0.03167,0.045 -0.09155,0.10731 -0.133174,0.13863 -0.04152,0.0313 -0.113064,0.0711 -0.158893,0.0885 -0.05288,0.0201 -0.133725,0.0342 -0.221286,0.0388 -0.08498,0.005 -0.169161,-2.8e-4 -0.219174,-0.0121 -0.0446,-0.0106 -0.120077,-0.0399 -0.167511,-0.065 -0.04747,-0.0252 -0.120771,-0.0825 -0.162808,-0.12733 -0.04205,-0.0449 -0.09296,-0.11809 -0.113225,-0.16271 -0.02063,-0.0445 -0.04413,-0.1213 -0.05308,-0.17036 -0.0088,-0.049 -0.01239,-0.13445 -0.0071,-0.18977 0.0053,-0.0553 0.03085,-0.17426 0.05781,-0.26433 0.02705,-0.0901 0.08015,-0.2453 0.117833,-0.34493 0.03774,-0.0997 0.110855,-0.27281 0.162471,-0.38486 0.05153,-0.11202 0.144229,-0.29194 0.205828,-0.39978 0.06158,-0.10784 0.159463,-0.26684 0.217481,-0.35334 0.05806,-0.0864 0.152542,-0.21932 0.210063,-0.29518 0.05751,-0.0758 0.179136,-0.22207 0.2703,-0.32494 0.09113,-0.10289 0.232401,-0.25021 0.313874,-0.32736 0.08152,-0.0772 0.210535,-0.19187 0.286799,-0.2549 0.07622,-0.063 0.206874,-0.16458 0.290293,-0.22568 0.08341,-0.0611 0.232014,-0.16156 0.330221,-0.22327 0.09817,-0.0617 0.275492,-0.16218 0.394033,-0.22317 0.118533,-0.061 0.297283,-0.14566 0.397243,-0.18803 0.09998,-0.0424 0.277142,-0.10909 0.393734,-0.14827 0.116577,-0.0392 0.30732,-0.0952 0.423858,-0.12439 0.116552,-0.0292 0.286789,-0.0667 0.37834,-0.0832 0.09153,-0.0165 0.25493,-0.0413 0.363095,-0.0552 0.149954,-0.0192 0.313322,-0.0249 0.68802,-0.0239 0.39104,0.001 0.534566,0.007 0.702922,0.0297 0.116339,0.0156 0.282928,0.0423 0.370162,0.0592 0.08725,0.017 0.240181,0.0516 0.339857,0.077 0.09972,0.0254 0.274767,0.0772 0.389093,0.11494 0.114347,0.0379 0.288763,0.10244 0.387645,0.14358 0.09893,0.0411 0.267697,0.11932 0.375135,0.17372 0.107456,0.0545 0.255569,0.13468 0.329156,0.17841 0.0736,0.0437 0.194859,0.12062 0.269498,0.1709 0.07462,0.0503 0.203503,0.14308 0.286385,0.20622 0.08295,0.0631 0.228659,0.1839 0.323926,0.26834 0.09526,0.0844 0.243323,0.22764 0.328925,0.31827 0.08565,0.0906 0.212252,0.2341 0.281417,0.31885 0.06909,0.0848 0.180863,0.23199 0.248404,0.32712 0.06721,0.0954 0.173219,0.25826 0.234984,0.36245 0.06177,0.1042 0.161704,0.29171 0.222121,0.41671 0.06052,0.12499 0.136824,0.29605 0.169747,0.38013 0.03293,0.0841 0.08455,0.22717 0.114611,0.31797 0.03019,0.0908 0.08028,0.26731 0.111582,0.39216 0.03167,0.12479 0.07067,0.30534 0.0875,0.40103 0.017,0.0957 0.0416,0.26927 0.05462,0.38578 0.01661,0.14584 0.02372,0.3412 0.02315,0.62755 -6.13e-4,0.238 -0.0091,0.49331 -0.02092,0.59711 -0.01103,0.0998 -0.03688,0.27889 -0.05738,0.3981 -0.02055,0.11916 -0.05817,0.29961 -0.0835,0.40091 -0.02522,0.10135 -0.07111,0.26204 -0.101668,0.35722 -0.03051,0.0952 -0.08647,0.25112 -0.124212,0.34658 -0.0378,0.0955 -0.122096,0.28222 -0.187365,0.41499 -0.06525,0.13273 -0.172935,0.32988 -0.239224,0.43801 -0.0662,0.10816 -0.169751,0.26542 -0.229906,0.34948 -0.06021,0.084 -0.172454,0.2296 -0.249601,0.32344 -0.07713,0.0938 -0.239502,0.26926 -0.360814,0.3899 -0.121272,0.12068 -0.282026,0.26998 -0.357101,0.33198 -0.07505,0.062 -0.191142,0.15341 -0.2579,0.20314 -0.06655,0.0501 -0.173271,0.12509 -0.236803,0.16732 -0.06335,0.0424 -0.179673,0.11505 -0.25764,0.16261 -0.07822,0.0471 -0.247835,0.13816 -0.377105,0.20193 -0.129159,0.0639 -0.330261,0.15323 -0.446824,0.1985 -0.116623,0.0452 -0.277349,0.10265 -0.357179,0.1277 -0.07981,0.0253 -0.226303,0.0654 -0.325434,0.09 -0.09908,0.0247 -0.255139,0.0583 -0.346764,0.0745 -0.09156,0.0167 -0.244658,0.0411 -0.340393,0.0539 -0.120128,0.0166 -0.32118,0.0244 -0.650252,0.0264 z m -0.01532,-1.73889 c -0.224548,0.001 -0.435438,-8.5e-4 -0.468677,-0.004 -0.03326,-0.004 -0.14479,-0.0206 -0.247843,-0.0374 -0.103026,-0.0169 -0.252767,-0.0476 -0.332663,-0.0682 -0.0799,-0.0206 -0.226636,-0.0658 -0.326096,-0.10038 -0.09948,-0.0346 -0.282686,-0.11265 -0.407168,-0.17348 -0.124486,-0.0608 -0.293713,-0.15349 -0.376102,-0.20593 -0.08232,-0.0525 -0.217954,-0.14779 -0.301268,-0.21189 -0.08335,-0.0642 -0.232029,-0.19517 -0.330568,-0.2912 -0.09854,-0.096 -0.233144,-0.23948 -0.299172,-0.31876 -0.06605,-0.0793 -0.180292,-0.23612 -0.253912,-0.3485 -0.07378,-0.11227 -0.180671,-0.29973 -0.237417,-0.41661 -0.05684,-0.11684 -0.127773,-0.27966 -0.157766,-0.36174 -0.02991,-0.0821 -0.077,-0.23286 -0.1046,-0.33498 -0.02739,-0.10217 -0.06395,-0.26941 -0.08087,-0.37172 -0.01723,-0.10228 -0.03789,-0.28523 -0.04661,-0.40648 -0.0085,-0.12533 -0.01094,-0.315 -0.0051,-0.43962 0.0065,-0.12054 0.02148,-0.29739 0.03427,-0.39295 0.01284,-0.0956 0.04029,-0.24831 0.06133,-0.33943 0.02096,-0.0911 0.07264,-0.26779 0.114823,-0.39262 0.04221,-0.12482 0.12734,-0.32879 0.18921,-0.45327 0.0618,-0.12447 0.156893,-0.29528 0.211159,-0.37957 0.05423,-0.0843 0.139517,-0.20641 0.189419,-0.27134 0.04987,-0.065 0.149965,-0.18401 0.222359,-0.2646 0.07232,-0.0806 0.197908,-0.20503 0.278923,-0.27654 0.08095,-0.0716 0.215699,-0.18069 0.299292,-0.24259 0.08357,-0.0619 0.231807,-0.15942 0.329379,-0.2167 0.09754,-0.0573 0.247581,-0.13661 0.333371,-0.17634 0.08574,-0.0397 0.230934,-0.0994 0.322539,-0.13255 0.09161,-0.0332 0.261917,-0.0837 0.378446,-0.11222 0.116546,-0.0285 0.293581,-0.0641 0.393436,-0.0789 0.141309,-0.0211 0.270299,-0.0268 0.582191,-0.0256 0.249971,8.8e-4 0.451806,0.009 0.536646,0.0216 0.07479,0.0111 0.220959,0.0378 0.324809,0.0593 0.103912,0.0215 0.290742,0.0733 0.415295,0.11509 0.129427,0.0435 0.329883,0.12726 0.467868,0.19569 0.132754,0.0659 0.292577,0.1536 0.355116,0.19504 0.06259,0.0414 0.134576,0.10199 0.160017,0.13458 0.02529,0.0327 0.06357,0.0931 0.08383,0.13501 0.02027,0.0419 0.04502,0.11184 0.05427,0.15593 0.0088,0.0441 0.01694,0.11686 0.01636,0.16184 2.66e-4,0.0448 -0.0085,0.11768 -0.01757,0.16173 -0.0092,0.044 -0.03426,0.11607 -0.05508,0.16013 -0.02093,0.044 -0.0744,0.11711 -0.118929,0.16237 -0.05181,0.0526 -0.118256,0.0997 -0.184244,0.13064 -0.100557,0.0471 -0.108611,0.0483 -0.308309,0.0475 -0.20507,-8.7e-4 -0.20507,-8.7e-4 -0.309712,-0.0559 -0.05762,-0.0303 -0.184178,-0.0966 -0.281395,-0.14719 -0.09715,-0.0506 -0.250014,-0.1168 -0.339568,-0.14697 -0.08953,-0.0302 -0.228311,-0.0688 -0.308384,-0.0858 -0.08006,-0.017 -0.222858,-0.0367 -0.317313,-0.0438 -0.09448,-0.007 -0.245621,-0.008 -0.335924,-0.002 -0.09033,0.006 -0.219638,0.0215 -0.287406,0.0345 -0.06777,0.013 -0.18913,0.0435 -0.269696,0.0677 -0.08049,0.0241 -0.203204,0.0679 -0.272553,0.0973 -0.06926,0.0293 -0.186209,0.0874 -0.259682,0.12902 -0.07345,0.0416 -0.189455,0.11657 -0.257737,0.1665 -0.06827,0.0499 -0.184663,0.14904 -0.258623,0.22021 -0.074,0.0712 -0.173824,0.17687 -0.221891,0.23487 -0.0481,0.058 -0.126403,0.16477 -0.174085,0.23725 -0.04773,0.0725 -0.120074,0.20145 -0.160864,0.28659 -0.04071,0.0851 -0.09552,0.21525 -0.121678,0.28913 -0.02608,0.0739 -0.06514,0.21938 -0.08668,0.32332 -0.02148,0.10392 -0.0434,0.26854 -0.04875,0.36579 -0.0055,0.10438 -0.002,0.24744 0.0085,0.34916 0.0097,0.0948 0.03768,0.25361 0.06244,0.35281 0.02479,0.0992 0.07611,0.25932 0.114778,0.3558 0.03877,0.0964 0.108196,0.24011 0.1543,0.31935 0.04617,0.0792 0.114484,0.18654 0.153091,0.23773 0.03775,0.0517 0.115938,0.14811 0.173696,0.21428 0.05785,0.0661 0.165223,0.17109 0.238644,0.23327 0.07343,0.0622 0.190804,0.15112 0.260851,0.19759 0.07004,0.0465 0.188369,0.11548 0.263043,0.15327 0.07465,0.0378 0.200331,0.093 0.279189,0.12275 0.07885,0.0297 0.22158,0.0718 0.317115,0.0935 0.09545,0.0217 0.255845,0.0474 0.35623,0.0569 0.132986,0.0127 0.231453,0.013 0.362857,0.002 0.09919,-0.009 0.258645,-0.033 0.354362,-0.0539 0.09567,-0.0211 0.238774,-0.0618 0.317864,-0.0908 0.07908,-0.029 0.208915,-0.085 0.288422,-0.12449 0.07963,-0.0392 0.205407,-0.11292 0.280431,-0.16221 0.07462,-0.0502 0.195275,-0.14191 0.267938,-0.20458 0.07262,-0.0628 0.179999,-0.16878 0.238546,-0.23585 0.05849,-0.0671 0.146797,-0.18055 0.196139,-0.25226 0.04928,-0.0717 0.117713,-0.18128 0.15201,-0.24347 0.03427,-0.0623 0.09027,-0.18299 0.124527,-0.26837 0.03429,-0.0853 0.08645,-0.24812 0.116044,-0.36163 0.02962,-0.11351 0.07181,-0.23681 0.09387,-0.27403 0.02207,-0.0372 0.06727,-0.097 0.100643,-0.13285 0.03633,-0.0391 0.106471,-0.0877 0.175083,-0.12117 0.114484,-0.056 0.114484,-0.056 0.31938,-0.0551 0.199062,8.4e-4 0.207792,0.002 0.306597,0.0496 0.05884,0.0283 0.132945,0.0803 0.175941,0.1236 0.04082,0.0412 0.0947,0.11573 0.119544,0.1657 0.02499,0.0498 0.05303,0.13685 0.06265,0.19309 0.01013,0.0593 0.01282,0.14377 0.0072,0.20074 -0.0063,0.0541 -0.024,0.15504 -0.04037,0.22417 -0.01637,0.0691 -0.05472,0.20145 -0.08504,0.29404 -0.03035,0.0925 -0.08581,0.24046 -0.123149,0.32863 -0.0374,0.0881 -0.102689,0.22486 -0.14514,0.30379 -0.04243,0.0789 -0.1266,0.21816 -0.186993,0.30936 -0.06045,0.0912 -0.164975,0.23365 -0.232356,0.31652 -0.06733,0.0829 -0.213861,0.23885 -0.325489,0.3466 -0.11163,0.10773 -0.269236,0.24515 -0.350242,0.30533 -0.08108,0.0601 -0.213047,0.15028 -0.293356,0.20039 -0.08027,0.0501 -0.249523,0.14033 -0.375644,0.20118 -0.126283,0.0606 -0.311177,0.13768 -0.410898,0.1713 -0.09976,0.0335 -0.246694,0.0772 -0.32654,0.097 -0.07982,0.0202 -0.229814,0.0504 -0.333219,0.0679 -0.154763,0.0261 -0.260387,0.0321 -0.596321,0.034 z m -0.07018,-1.73301 c -0.115381,-0.001 -0.268407,-0.0118 -0.340106,-0.0232 -0.07178,-0.0115 -0.173701,-0.0323 -0.226576,-0.046 -0.05303,-0.0138 -0.164131,-0.0521 -0.247144,-0.0849 -0.08299,-0.0329 -0.207082,-0.0936 -0.275702,-0.13484 -0.06867,-0.0413 -0.171258,-0.10986 -0.228029,-0.15236 -0.05687,-0.0424 -0.170683,-0.14781 -0.253067,-0.23405 -0.08228,-0.0863 -0.188056,-0.21494 -0.234865,-0.28598 -0.04687,-0.0709 -0.115088,-0.19322 -0.152127,-0.27131 -0.03628,-0.0786 -0.08358,-0.19523 -0.104192,-0.25979 -0.02033,-0.0647 -0.0486,-0.16674 -0.06192,-0.22706 -0.01551,-0.0716 -0.02659,-0.21327 -0.03088,-0.4078 -0.005,-0.23709 -0.0017,-0.32991 0.01951,-0.45349 0.01443,-0.0855 0.0527,-0.23435 0.08511,-0.33084 0.03243,-0.0965 0.08294,-0.22257 0.112242,-0.28014 0.02938,-0.0576 0.09581,-0.1677 0.147784,-0.24469 0.05194,-0.077 0.156443,-0.20424 0.232146,-0.28276 0.07576,-0.0786 0.195384,-0.18573 0.265945,-0.23822 0.07046,-0.0525 0.200576,-0.13242 0.288891,-0.1776 0.0883,-0.0452 0.220636,-0.10293 0.294004,-0.12829 0.07335,-0.0254 0.202807,-0.0608 0.287602,-0.0787 0.128213,-0.027 0.203853,-0.0324 0.449007,-0.0319 0.225679,5.1e-4 0.326579,0.007 0.430226,0.0284 0.0744,0.0153 0.200187,0.0487 0.279392,0.0742 0.07919,0.0255 0.222432,0.0872 0.318325,0.13697 0.09586,0.0498 0.231883,0.13414 0.302212,0.18739 0.07028,0.0532 0.191969,0.16422 0.270238,0.24666 0.07836,0.0824 0.180334,0.20763 0.22676,0.27822 0.04659,0.0705 0.105191,0.17092 0.131292,0.22253 0.02607,0.0516 0.06759,0.14664 0.09273,0.2108 0.02515,0.0642 0.06207,0.18528 0.08201,0.26905 0.01986,0.0838 0.04309,0.23923 0.05098,0.34544 0.01011,0.13256 0.0096,0.25349 -0.0016,0.38594 -0.0094,0.1061 -0.03328,0.26125 -0.05387,0.3448 -0.0207,0.0835 -0.05535,0.19873 -0.07708,0.25596 -0.0219,0.0573 -0.07362,0.16792 -0.115155,0.24597 -0.04155,0.078 -0.11455,0.1957 -0.162312,0.26144 -0.04775,0.0656 -0.142284,0.17507 -0.21009,0.24295 -0.0678,0.0679 -0.160376,0.15163 -0.205676,0.18615 -0.04566,0.0342 -0.141981,0.0996 -0.214743,0.14489 -0.07254,0.0455 -0.191941,0.10722 -0.265178,0.13719 -0.07312,0.0302 -0.188644,0.0709 -0.256775,0.0905 -0.06809,0.0199 -0.195018,0.0459 -0.281894,0.0582 -0.09008,0.0129 -0.24803,0.0217 -0.367647,0.0205 z m 0.01826,-1.35938 c 0.08254,4.6e-4 0.150751,-0.0101 0.234539,-0.0362 0.06497,-0.0203 0.160588,-0.0645 0.212505,-0.0983 0.05217,-0.0334 0.129137,-0.0999 0.171602,-0.14702 0.04246,-0.0471 0.101012,-0.13319 0.130046,-0.19131 0.02906,-0.0581 0.06467,-0.16169 0.07908,-0.23024 0.02473,-0.11723 0.02478,-0.13201 0.0011,-0.24945 -0.01429,-0.071 -0.04947,-0.17348 -0.0815,-0.2375 -0.03663,-0.0733 -0.09028,-0.14782 -0.154521,-0.21255 -0.06107,-0.0622 -0.138047,-0.12093 -0.203775,-0.15551 -0.05808,-0.0305 -0.147384,-0.0666 -0.198396,-0.0799 -0.05104,-0.0134 -0.131627,-0.0246 -0.179135,-0.0248 -0.04748,-1.9e-4 -0.12765,0.0102 -0.178125,0.0231 -0.05051,0.0129 -0.129846,0.0424 -0.176342,0.0658 -0.04649,0.0234 -0.12054,0.0708 -0.164556,0.10559 -0.04386,0.0348 -0.110964,0.10629 -0.148795,0.15884 -0.03785,0.0525 -0.08548,0.13619 -0.105938,0.18586 -0.02045,0.0497 -0.04511,0.13746 -0.05492,0.19504 -0.01467,0.0866 -0.01364,0.12531 0.006,0.22413 0.01301,0.0657 0.04732,0.16714 0.0761,0.22548 0.02884,0.0582 0.08014,0.1386 0.114268,0.17835 0.03413,0.0398 0.105959,0.10396 0.15972,0.14268 0.05595,0.0402 0.150604,0.089 0.221183,0.11393 0.09381,0.0331 0.151304,0.0437 0.239824,0.0442 z"
       id="path5052-0-2" />
  </g>
</svg>
