<?xml version="1.0" encoding="UTF-8" standalone="no"?>
<!-- Created with Inkscape (http://www.inkscape.org/) -->

<svg
   width="21.941595mm"
   height="21.941595mm"
   viewBox="0 0 21.941596 21.941595"
   version="1.1"
   id="svg80"
   inkscape:version="1.1 (c68e22c387, 2021-05-23)"
   sodipodi:docname="tt-logo.svg"
   xmlns:inkscape="http://www.inkscape.org/namespaces/inkscape"
   xmlns:sodipodi="http://sodipodi.sourceforge.net/DTD/sodipodi-0.dtd"
   xmlns="http://www.w3.org/2000/svg"
   xmlns:svg="http://www.w3.org/2000/svg">
  <sodipodi:namedview
     id="namedview82"
     pagecolor="#2c2c2c"
     bordercolor="#666666"
     borderopacity="1.0"
     inkscape:pageshadow="2"
     inkscape:pageopacity="0"
     inkscape:pagecheckerboard="0"
     inkscape:document-units="mm"
     showgrid="false"
     inkscape:zoom="5.8725028"
     inkscape:cx="45.806704"
     inkscape:cy="39.931867"
     inkscape:window-width="1920"
     inkscape:window-height="1009"
     inkscape:window-x="-8"
     inkscape:window-y="-8"
     inkscape:window-maximized="1"
     inkscape:current-layer="layer1">
    <sodipodi:guide
       position="0,21.941595"
       orientation="0,82.928863"
       id="guide1051" />
    <sodipodi:guide
       position="21.941595,21.941595"
       orientation="82.928863,0"
       id="guide1053" />
    <sodipodi:guide
       position="21.941595,0"
       orientation="0,-82.928863"
       id="guide1055" />
    <sodipodi:guide
       position="0,0"
       orientation="-82.928863,0"
       id="guide1057" />
  </sodipodi:namedview>
  <defs
     id="defs77" />
  <g
     inkscape:label="Layer 1"
     inkscape:groupmode="layer"
     id="layer1"
     transform="translate(-80.925613,-122.69711)">
    <rect
       style="fill:#222a68;fill-opacity:1;stroke-width:0.264583"
       id="rect844"
       width="21.941595"
       height="21.941595"
       x="80.925613"
       y="122.69711"
       ry="5.5417194" />
    <path
       style="fill:#ffffff;fill-opacity:1;stroke:none;stroke-width:0.278938;stroke-miterlimit:4;stroke-dasharray:none;stroke-opacity:1"
       d="m 91.10039,143.2449 c -0.09703,0.005 -0.225093,3.3e-4 -0.284382,-0.009 -0.05915,-0.009 -0.19381,-0.0177 -0.298925,-0.0194 -0.116363,-8.7e-4 -0.29269,-0.0227 -0.450927,-0.0542 -0.142853,-0.0282 -0.400894,-0.0876 -0.573315,-0.13203 -0.17243,-0.0445 -0.456358,-0.12869 -0.630957,-0.1871 -0.174581,-0.0584 -0.430167,-0.15219 -0.567958,-0.20836 -0.137855,-0.0562 -0.409334,-0.1797 -0.603454,-0.27453 -0.194144,-0.0948 -0.471528,-0.24186 -0.616496,-0.32678 -0.145008,-0.0848 -0.404404,-0.25041 -0.576522,-0.36782 -0.172062,-0.11741 -0.409705,-0.29079 -0.527976,-0.38531 -0.118308,-0.0946 -0.307386,-0.25348 -0.420243,-0.35325 -0.112819,-0.0998 -0.350198,-0.33135 -0.527442,-0.5146 -0.177274,-0.18324 -0.408044,-0.43915 -0.512816,-0.56866 -0.104837,-0.12948 -0.272158,-0.34856 -0.371788,-0.48681 -0.09977,-0.13825 -0.25636,-0.37299 -0.34826,-0.52161 -0.09157,-0.1488 -0.238071,-0.40263 -0.324096,-0.56497 -0.08603,-0.16233 -0.218481,-0.43392 -0.29323,-0.60419 -0.07473,-0.17025 -0.187806,-0.45314 -0.250947,-0.62876 -0.06325,-0.17556 -0.154667,-0.46063 -0.203125,-0.63345 -0.04836,-0.17285 -0.113768,-0.43349 -0.145105,-0.57926 -0.03147,-0.14576 -0.07428,-0.37992 -0.09545,-0.52026 -0.02116,-0.14034 -0.04488,-0.4229 -0.05262,-0.62791 -0.0083,-0.20499 -0.01317,-0.64196 -0.01168,-0.97101 0.0013,-0.32904 0.01374,-0.7968 0.02711,-1.0395 0.01717,-0.30807 0.04038,-0.52407 0.07671,-0.71564 0.02871,-0.15092 0.08844,-0.41812 0.132691,-0.5938 0.04434,-0.17564 0.12124,-0.44456 0.170888,-0.59753 0.04967,-0.15299 0.148497,-0.42356 0.219572,-0.60126 0.07107,-0.17772 0.197992,-0.46406 0.282077,-0.63632 0.0841,-0.17225 0.221918,-0.43166 0.306297,-0.57645 0.0844,-0.1448 0.219248,-0.36326 0.299667,-0.48547 0.08047,-0.12221 0.219382,-0.32064 0.308806,-0.44094 0.08941,-0.12027 0.250874,-0.32428 0.358797,-0.45328 0.10797,-0.1291 0.33404,-0.37431 0.5025,-0.5451 0.168441,-0.17078 0.413362,-0.40366 0.544226,-0.5175 0.130881,-0.1139 0.330177,-0.27836 0.442892,-0.36561 0.112677,-0.0871 0.331274,-0.2437 0.485672,-0.34761 0.154374,-0.10397 0.384518,-0.25034 0.511374,-0.32537 0.12682,-0.0751 0.40478,-0.22241 0.617595,-0.32749 0.212832,-0.10508 0.544472,-0.2521 0.736976,-0.32679 0.192497,-0.0747 0.463427,-0.17136 0.602035,-0.21483 0.138627,-0.0436 0.408361,-0.11767 0.599432,-0.16466 0.191056,-0.047 0.510578,-0.11131 0.710067,-0.14298 0.280597,-0.0444 0.464771,-0.0605 0.813873,-0.0715 0.248178,-0.008 0.618943,-0.0135 0.823914,-0.013 0.204966,8.7e-4 0.57567,0.01 0.823768,0.0196 0.34899,0.0145 0.533037,0.0318 0.813246,0.0785 0.199197,0.0333 0.521102,0.10109 0.715329,0.15063 0.194239,0.0495 0.495995,0.13811 0.67058,0.1967 0.17454,0.0587 0.430179,0.15257 0.567968,0.20882 0.137779,0.0562 0.391767,0.17089 0.564392,0.25475 0.172647,0.0839 0.441229,0.22616 0.596923,0.31623 0.155651,0.09 0.393096,0.23715 0.527575,0.32683 0.134579,0.0897 0.341275,0.2364 0.459576,0.32601 0.11827,0.0897 0.315808,0.24825 0.438882,0.35252 0.123063,0.10431 0.352403,0.3155 0.509592,0.46942 0.157235,0.15388 0.385025,0.39488 0.506149,0.53557 0.121159,0.1407 0.294424,0.35146 0.385003,0.46843 0.09057,0.11689 0.263931,0.36312 0.385273,0.54702 0.121467,0.18383 0.275007,0.43045 0.341547,0.54786 0.0667,0.11728 0.19862,0.37286 0.29357,0.56773 0.0949,0.19482 0.22656,0.49239 0.29258,0.66118 0.066,0.1688 0.16108,0.43512 0.21154,0.59173 0.0504,0.15666 0.12713,0.43058 0.17061,0.60878 0.0428,0.17833 0.1011,0.44323 0.1282,0.589 0.0341,0.18398 0.0559,0.40003 0.0711,0.70646 0.012,0.2428 0.0206,0.72389 0.019,1.06913 -8.7e-4,0.34521 -0.0139,0.82623 -0.0281,1.06891 -0.0177,0.30412 -0.0414,0.52348 -0.0768,0.70582 -0.0281,0.14553 -0.0875,0.40833 -0.13167,0.58399 -0.0443,0.1757 -0.12126,0.44456 -0.17092,0.59756 -0.0497,0.15292 -0.14837,0.42355 -0.21926,0.60126 -0.0708,0.17776 -0.2029,0.47287 -0.29332,0.65587 -0.0904,0.18302 -0.22717,0.44042 -0.30389,0.57203 -0.0768,0.13154 -0.20692,0.34088 -0.289367,0.46509 -0.08242,0.12416 -0.240922,0.34663 -0.352234,0.49425 -0.111277,0.1476 -0.253543,0.32318 -0.31615,0.39015 -0.07562,0.0809 -0.155394,0.14199 -0.237268,0.18194 -0.06934,0.0338 -0.185498,0.0694 -0.265067,0.0814 -0.105303,0.0159 -0.181284,0.0153 -0.296253,-0.003 -0.08504,-0.0133 -0.201437,-0.0457 -0.258616,-0.0731 -0.05724,-0.0274 -0.142519,-0.083 -0.189467,-0.1235 -0.04706,-0.0406 -0.118723,-0.12572 -0.15916,-0.1891 -0.04861,-0.0765 -0.08471,-0.16523 -0.106299,-0.26414 -0.02259,-0.10574 -0.02846,-0.1929 -0.02026,-0.29965 0.0066,-0.0829 0.03111,-0.20084 0.05448,-0.26211 0.02314,-0.0613 0.07087,-0.14848 0.105967,-0.19383 0.03521,-0.0455 0.1351,-0.17474 0.222154,-0.28773 0.08703,-0.11286 0.211889,-0.28449 0.277362,-0.38131 0.06566,-0.0967 0.170322,-0.25969 0.232972,-0.36191 0.06267,-0.1022 0.177563,-0.30934 0.255328,-0.46028 0.07762,-0.15099 0.189157,-0.38879 0.247507,-0.52856 0.05826,-0.13977 0.149768,-0.38197 0.203121,-0.53817 0.05338,-0.15614 0.132262,-0.42508 0.175384,-0.59752 0.04309,-0.17241 0.09622,-0.41529 0.118159,-0.53967 0.02181,-0.12442 0.05573,-0.35816 0.0751,-0.51949 0.02468,-0.20518 0.03602,-0.44361 0.03742,-0.79352 8.72e-4,-0.34993 -0.0078,-0.58864 -0.0307,-0.79459 -0.01875,-0.16177 -0.05434,-0.4136 -0.08051,-0.55937 -0.02617,-0.14574 -0.07013,-0.35777 -0.09678,-0.47123 -0.02669,-0.11352 -0.08408,-0.32106 -0.126349,-0.4615 -0.0423,-0.14041 -0.125049,-0.37911 -0.18381,-0.5304 -0.05879,-0.1513 -0.175576,-0.4166 -0.259326,-0.58958 -0.08393,-0.17295 -0.225382,-0.43637 -0.314474,-0.58533 -0.08925,-0.14896 -0.240301,-0.38102 -0.334863,-0.51635 -0.09534,-0.13483 -0.266257,-0.35842 -0.380373,-0.49642 -0.114138,-0.13803 -0.326127,-0.371 -0.471159,-0.51768 -0.144976,-0.14672 -0.364881,-0.35132 -0.488509,-0.45472 -0.123705,-0.10342 -0.295423,-0.24172 -0.381768,-0.30737 -0.08648,-0.0657 -0.25803,-0.186 -0.381359,-0.26756 -0.123506,-0.0815 -0.311556,-0.19872 -0.418098,-0.26047 -0.10652,-0.0619 -0.27827,-0.15508 -0.381612,-0.20741 -0.103309,-0.0522 -0.290373,-0.14016 -0.415585,-0.19522 -0.125278,-0.055 -0.369112,-0.14938 -0.541992,-0.20958 -0.172935,-0.0603 -0.453855,-0.14512 -0.624392,-0.18866 -0.170526,-0.0435 -0.411479,-0.0979 -0.535457,-0.12079 -0.123888,-0.0229 -0.340079,-0.056 -0.480273,-0.0737 -0.140154,-0.0176 -0.44461,-0.0379 -0.67652,-0.0451 -0.258165,-0.008 -0.535825,-0.005 -0.716015,0.009 -0.161865,0.0116 -0.391481,0.0352 -0.510222,0.0509 -0.118775,0.0159 -0.304202,0.046 -0.412206,0.0666 -0.107927,0.0209 -0.302326,0.064 -0.431932,0.0958 -0.129673,0.0317 -0.378948,0.10486 -0.55411,0.16226 -0.175168,0.0575 -0.426138,0.14922 -0.557701,0.2039 -0.13158,0.0548 -0.342688,0.15076 -0.469114,0.21346 -0.126366,0.0626 -0.317637,0.16403 -0.424879,0.22519 -0.107329,0.0611 -0.323328,0.19753 -0.48024,0.30295 -0.156882,0.10552 -0.378221,0.26554 -0.491897,0.35572 -0.113689,0.0901 -0.315016,0.26192 -0.447476,0.38166 -0.132455,0.11975 -0.342699,0.32957 -0.467215,0.46634 -0.124483,0.13675 -0.30279,0.34542 -0.3962,0.46369 -0.09334,0.11832 -0.25268,0.33829 -0.353976,0.48889 -0.10126,0.15061 -0.25932,0.40768 -0.351182,0.57125 -0.09196,0.16358 -0.229729,0.44104 -0.306387,0.6166 -0.07662,0.17554 -0.166781,0.39408 -0.20033,0.48565 -0.0334,0.0916 -0.08864,0.25462 -0.122577,0.36236 -0.03398,0.10785 -0.09204,0.31934 -0.129129,0.47022 -0.03718,0.15089 -0.08554,0.37577 -0.107461,0.49973 -0.02197,0.12391 -0.05358,0.34893 -0.0705,0.49991 -0.01677,0.15093 -0.03697,0.40685 -0.04495,0.56866 -0.0084,0.16792 -0.0058,0.44152 0.0063,0.63752 0.01232,0.18883 0.03832,0.47143 0.05937,0.62795 0.02154,0.15646 0.05991,0.3906 0.08618,0.52019 0.02583,0.12961 0.07924,0.35007 0.116324,0.49026 0.03829,0.13996 0.107903,0.36986 0.15621,0.51065 0.0483,0.14082 0.126923,0.34881 0.17455,0.46234 0.04775,0.11353 0.155446,0.34345 0.239308,0.51103 0.08386,0.16756 0.226812,0.42659 0.317835,0.57551 0.09146,0.14864 0.233819,0.36581 0.317537,0.48188 0.08405,0.11586 0.221994,0.2952 0.307223,0.3981 0.08524,0.10287 0.236641,0.27591 0.336214,0.38464 0.09972,0.10874 0.284906,0.29208 0.411637,0.4075 0.126884,0.11535 0.32721,0.28714 0.445484,0.38161 0.11823,0.0944 0.351476,0.26254 0.518225,0.37349 0.16674,0.11105 0.400345,0.25602 0.5191,0.32234 0.118594,0.0665 0.316913,0.16911 0.440376,0.22837 0.123433,0.0593 0.334626,0.15208 0.469245,0.20627 0.13457,0.0542 0.357065,0.13539 0.494311,0.18054 0.137229,0.0452 0.391229,0.11767 0.56442,0.16112 0.173169,0.0433 0.466533,0.10198 0.651888,0.13004 0.185318,0.028 0.403156,0.0603 0.484029,0.0715 0.08942,0.0116 0.193677,0.0435 0.266213,0.0793 0.07182,0.0354 0.159715,0.10198 0.220951,0.16735 0.05592,0.0597 0.129685,0.16822 0.163947,0.24127 0.05926,0.12649 0.06217,0.14408 0.06149,0.36819 -7.59e-4,0.17607 -0.0103,0.26082 -0.03666,0.33633 -0.01979,0.0555 -0.07071,0.14941 -0.113391,0.20847 -0.04274,0.0591 -0.123823,0.14117 -0.180282,0.18216 -0.08054,0.0584 -0.128142,0.0776 -0.221325,0.0889 -0.06541,0.007 -0.19819,0.0176 -0.295299,0.0222 z m 0.921215,-2.1516 c -0.339845,0.003 -0.697302,-0.004 -0.794352,-0.0151 -0.09695,-0.01 -0.273487,-0.0327 -0.392093,-0.0502 -0.118736,-0.0173 -0.325889,-0.0546 -0.460613,-0.0826 -0.134755,-0.028 -0.381634,-0.0909 -0.54864,-0.14007 -0.166939,-0.0489 -0.448847,-0.14746 -0.626324,-0.21873 -0.177494,-0.0712 -0.442831,-0.19039 -0.589736,-0.26477 -0.146959,-0.0745 -0.345256,-0.18167 -0.440793,-0.2384 -0.09549,-0.0567 -0.25292,-0.15654 -0.349745,-0.22178 -0.09681,-0.0652 -0.264009,-0.18564 -0.371544,-0.26758 -0.107461,-0.0818 -0.265898,-0.21039 -0.351869,-0.28551 -0.08597,-0.0753 -0.238388,-0.2172 -0.33868,-0.31571 -0.100264,-0.0984 -0.263586,-0.27224 -0.363071,-0.38591 -0.09949,-0.11364 -0.231319,-0.27306 -0.293132,-0.3541 -0.06178,-0.081 -0.132384,-0.18721 -0.156608,-0.23605 -0.02446,-0.0486 -0.0539,-0.13552 -0.06591,-0.19272 -0.01142,-0.0572 -0.02078,-0.15924 -0.02106,-0.22646 4.9e-4,-0.0674 0.01433,-0.17433 0.03111,-0.23771 0.01668,-0.0633 0.05411,-0.15795 0.08267,-0.20996 0.02867,-0.0521 0.09778,-0.13751 0.153599,-0.1899 0.0559,-0.0523 0.138269,-0.11378 0.183112,-0.13641 0.04482,-0.0226 0.132222,-0.0542 0.194213,-0.0701 0.06202,-0.0159 0.170809,-0.0287 0.241796,-0.0283 0.07098,2.9e-4 0.180954,0.0143 0.244378,0.0311 0.06335,0.0168 0.157884,0.0539 0.209944,0.0826 0.05205,0.0285 0.13629,0.0976 0.1871,0.15333 0.05086,0.0558 0.157927,0.18322 0.238123,0.28323 0.08,0.10021 0.264576,0.29927 0.409995,0.44268 0.145419,0.14341 0.348095,0.32614 0.45026,0.40615 0.102191,0.08 0.288575,0.21365 0.41428,0.29704 0.125703,0.0834 0.350249,0.21439 0.498968,0.29109 0.148723,0.0767 0.371737,0.18002 0.495601,0.22961 0.123823,0.0496 0.326912,0.12131 0.451237,0.15934 0.124444,0.0381 0.332995,0.0922 0.463704,0.12039 0.13075,0.0282 0.346506,0.0645 0.479486,0.0806 0.132952,0.0161 0.335076,0.0353 0.449065,0.0425 0.114066,0.007 0.33911,0.004 0.500219,-0.007 0.161109,-0.01 0.402253,-0.037 0.535833,-0.058 0.133534,-0.0211 0.346691,-0.0641 0.473845,-0.0945 0.126871,-0.0319 0.349048,-0.0972 0.493441,-0.14612 0.144405,-0.0489 0.421826,-0.16616 0.61644,-0.26066 0.194593,-0.0944 0.460009,-0.24141 0.589871,-0.32638 0.129949,-0.0848 0.320147,-0.21903 0.42298,-0.29774 0.102755,-0.0786 0.325042,-0.28007 0.493892,-0.44731 0.168782,-0.16732 0.366586,-0.37893 0.439501,-0.47034 0.07286,-0.0913 0.197738,-0.26305 0.277462,-0.38133 0.07962,-0.11832 0.199521,-0.31312 0.266356,-0.43285 0.06677,-0.11963 0.169138,-0.32675 0.22738,-0.46 0.05825,-0.13325 0.147634,-0.37012 0.198591,-0.52632 0.05094,-0.15621 0.119166,-0.41191 0.151664,-0.56822 0.03245,-0.15624 0.07375,-0.4165 0.09179,-0.57826 0.02403,-0.21446 0.03034,-0.39236 0.02358,-0.65702 -0.0055,-0.21157 -0.02602,-0.47676 -0.04939,-0.63588 -0.0217,-0.15018 -0.07396,-0.40625 -0.115223,-0.56921 -0.0413,-0.16297 -0.109178,-0.3936 -0.151398,-0.51248 -0.04219,-0.11884 -0.117683,-0.30892 -0.167709,-0.4224 -0.05005,-0.11352 -0.139651,-0.29484 -0.199167,-0.40298 -0.05979,-0.10808 -0.172093,-0.29429 -0.251618,-0.41271 -0.0784,-0.1191 -0.20178,-0.29167 -0.273864,-0.38364 -0.07197,-0.092 -0.272457,-0.30921 -0.445281,-0.4827 -0.172825,-0.17349 -0.404833,-0.38489 -0.515495,-0.4698 -0.110617,-0.085 -0.304258,-0.2212 -0.430255,-0.30285 -0.12602,-0.0816 -0.369976,-0.21791 -0.542258,-0.30272 -0.17227,-0.0848 -0.410125,-0.18983 -0.528624,-0.23332 -0.118607,-0.0436 -0.312401,-0.10652 -0.430934,-0.14019 -0.118567,-0.0336 -0.304929,-0.0794 -0.41422,-0.10199 -0.109332,-0.0223 -0.312173,-0.0546 -0.450842,-0.0716 -0.1387,-0.0168 -0.407438,-0.0316 -0.597232,-0.0325 -0.189786,-8.7e-4 -0.428155,0.008 -0.529699,0.0181 -0.10156,0.0116 -0.242025,0.0287 -0.312192,0.0393 -0.07025,0.01 -0.226784,0.0408 -0.348001,0.0675 -0.121357,0.0264 -0.320066,0.0793 -0.441842,0.11702 -0.121707,0.038 -0.307589,0.10287 -0.412937,0.14429 -0.105324,0.0414 -0.298209,0.12818 -0.428616,0.19292 -0.130368,0.0648 -0.330072,0.17397 -0.443721,0.2429 -0.113612,0.0689 -0.305652,0.19931 -0.426698,0.28973 -0.121032,0.0905 -0.313971,0.24801 -0.428743,0.3502 -0.114728,0.1021 -0.284207,0.26971 -0.3765,0.3723 -0.09235,0.10265 -0.235979,0.27469 -0.31932,0.38248 -0.08339,0.10774 -0.209372,0.2863 -0.280083,0.39677 -0.07071,0.11051 -0.189583,0.31983 -0.264167,0.46525 -0.07451,0.1454 -0.171037,0.35245 -0.214351,0.46005 -0.04329,0.10774 -0.115364,0.31071 -0.160185,0.45132 -0.05595,0.17586 -0.10476,0.28874 -0.156133,0.36164 -0.04109,0.0584 -0.118775,0.13923 -0.172778,0.17986 -0.05387,0.0406 -0.146687,0.0922 -0.206145,0.11482 -0.06861,0.0262 -0.173493,0.0444 -0.287093,0.0504 -0.110252,0.007 -0.219466,-3.6e-4 -0.284353,-0.0157 -0.05786,-0.0137 -0.155785,-0.0518 -0.217326,-0.0843 -0.06159,-0.0327 -0.156687,-0.10707 -0.211225,-0.16519 -0.05456,-0.0583 -0.120604,-0.1532 -0.146896,-0.21111 -0.02676,-0.0576 -0.05726,-0.15736 -0.06886,-0.22101 -0.01142,-0.0636 -0.01608,-0.17444 -0.0092,-0.2462 0.0069,-0.0718 0.04002,-0.22608 0.07499,-0.34295 0.03509,-0.11689 0.103985,-0.31824 0.152875,-0.4475 0.04897,-0.12934 0.143823,-0.35394 0.210788,-0.49931 0.06686,-0.14533 0.18712,-0.37876 0.267038,-0.51867 0.07989,-0.13991 0.206885,-0.34619 0.282156,-0.45842 0.07533,-0.11208 0.197906,-0.28454 0.272533,-0.38296 0.07461,-0.0983 0.232407,-0.28811 0.350683,-0.42157 0.11823,-0.13349 0.301513,-0.32461 0.407214,-0.42472 0.105768,-0.10021 0.273145,-0.24892 0.37209,-0.3307 0.09888,-0.0817 0.268394,-0.21352 0.376621,-0.29279 0.108214,-0.0793 0.301011,-0.20961 0.428423,-0.28967 0.127364,-0.0801 0.357419,-0.2104 0.511213,-0.28953 0.153782,-0.0792 0.38569,-0.18897 0.515375,-0.24396 0.129714,-0.055 0.359561,-0.14152 0.510826,-0.19235 0.151244,-0.0508 0.398711,-0.12352 0.549905,-0.16139 0.151213,-0.0379 0.372077,-0.0864 0.490854,-0.10795 0.118749,-0.0214 0.330741,-0.0536 0.471073,-0.0716 0.194548,-0.0249 0.406499,-0.0324 0.892626,-0.031 0.507329,8.7e-4 0.693537,0.009 0.911959,0.0386 0.150937,0.0202 0.367067,0.0549 0.480243,0.0768 0.113196,0.0221 0.311607,0.067 0.440924,0.0999 0.129376,0.033 0.356479,0.10021 0.504807,0.14911 0.148354,0.0492 0.374638,0.13291 0.502916,0.18628 0.128356,0.0534 0.347309,0.15481 0.486693,0.22539 0.139418,0.0707 0.331576,0.17473 0.427046,0.23147 0.09545,0.0567 0.252813,0.15649 0.349646,0.22171 0.09678,0.0652 0.264019,0.18563 0.371547,0.26755 0.107628,0.0818 0.296662,0.2386 0.420257,0.34815 0.123594,0.10951 0.315686,0.29533 0.426746,0.41291 0.111116,0.11754 0.27537,0.30372 0.365104,0.41367 0.08969,0.11007 0.234643,0.30098 0.322273,0.4244 0.08714,0.12377 0.224734,0.33506 0.304867,0.47024 0.08017,0.13519 0.209797,0.37846 0.28817,0.54063 0.07851,0.16216 0.17752,0.38409 0.220228,0.49317 0.04274,0.10906 0.109731,0.29473 0.148696,0.41254 0.0392,0.11779 0.1042,0.3468 0.144767,0.50877 0.04108,0.16191 0.09169,0.39615 0.113518,0.52029 0.02207,0.12416 0.0539,0.34935 0.07082,0.50051 0.02163,0.18922 0.03079,0.44268 0.03,0.81418 -7.85e-4,0.30877 -0.01186,0.64001 -0.02713,0.77467 -0.0143,0.12949 -0.0478,0.36184 -0.0744,0.5165 -0.02669,0.15459 -0.07553,0.38871 -0.108293,0.52012 -0.0328,0.1315 -0.09224,0.33997 -0.131901,0.46346 -0.03953,0.12351 -0.112178,0.32581 -0.161153,0.44964 -0.04905,0.12391 -0.158397,0.36616 -0.243082,0.53841 -0.08471,0.1722 -0.224357,0.42799 -0.310359,0.56826 -0.08592,0.14033 -0.220238,0.34436 -0.298279,0.45341 -0.07806,0.10896 -0.223737,0.29788 -0.323835,0.41962 -0.100098,0.12171 -0.310725,0.34934 -0.468114,0.50586 -0.157333,0.15657 -0.365889,0.35026 -0.463297,0.43071 -0.09733,0.0804 -0.247976,0.19904 -0.334587,0.26355 -0.08637,0.065 -0.224799,0.16229 -0.307226,0.21707 -0.08216,0.055 -0.233104,0.14926 -0.334265,0.21097 -0.101538,0.0611 -0.321532,0.17925 -0.489241,0.26199 -0.167575,0.0829 -0.428484,0.1988 -0.579706,0.25753 -0.151309,0.0587 -0.359832,0.13317 -0.463399,0.16567 -0.103541,0.0329 -0.293602,0.0848 -0.422212,0.11677 -0.128545,0.032 -0.331014,0.0756 -0.449886,0.0967 -0.118789,0.0217 -0.317416,0.0534 -0.44162,0.07 -0.155852,0.0215 -0.416694,0.0317 -0.843627,0.0342 z m -0.01988,-2.25601 c -0.291325,8.8e-4 -0.56493,-8.7e-4 -0.608054,-0.005 -0.04315,-0.005 -0.187848,-0.0267 -0.321548,-0.0485 -0.133664,-0.0219 -0.327935,-0.0618 -0.431591,-0.0885 -0.103663,-0.0267 -0.294034,-0.0854 -0.423072,-0.13024 -0.129064,-0.0448 -0.366752,-0.14615 -0.528253,-0.22506 -0.161507,-0.0788 -0.381059,-0.19914 -0.487948,-0.26718 -0.106797,-0.0681 -0.282771,-0.19174 -0.390862,-0.2749 -0.108136,-0.0833 -0.30103,-0.25321 -0.428872,-0.37779 -0.127844,-0.12456 -0.302479,-0.31071 -0.388142,-0.41356 -0.0857,-0.10287 -0.233907,-0.30634 -0.329421,-0.45214 -0.09572,-0.14565 -0.234401,-0.38887 -0.308021,-0.54051 -0.07375,-0.15158 -0.165771,-0.36282 -0.204683,-0.46931 -0.0388,-0.10651 -0.0999,-0.30211 -0.135706,-0.4346 -0.03553,-0.13255 -0.08297,-0.34953 -0.104926,-0.48226 -0.02236,-0.1327 -0.04915,-0.37005 -0.06047,-0.52736 -0.01108,-0.16261 -0.0142,-0.40868 -0.0066,-0.57035 0.0084,-0.15639 0.02787,-0.38583 0.04446,-0.50982 0.01667,-0.12402 0.05227,-0.32215 0.07957,-0.44036 0.0272,-0.11819 0.09424,-0.34743 0.148969,-0.50938 0.05477,-0.16194 0.16521,-0.42657 0.245478,-0.58807 0.08018,-0.16148 0.203551,-0.38309 0.273955,-0.49245 0.07035,-0.10939 0.181007,-0.26779 0.245748,-0.35203 0.0647,-0.0843 0.194563,-0.23873 0.288486,-0.34329 0.09383,-0.10453 0.256762,-0.266 0.36187,-0.35878 0.105025,-0.0929 0.279844,-0.23442 0.388297,-0.31473 0.108424,-0.0803 0.300743,-0.20683 0.427331,-0.28114 0.126547,-0.0743 0.321208,-0.17725 0.43251,-0.22878 0.111238,-0.0515 0.29961,-0.12896 0.418457,-0.17197 0.118853,-0.0431 0.339806,-0.10862 0.49099,-0.14559 0.151204,-0.037 0.380886,-0.0831 0.510438,-0.10242 0.183331,-0.0274 0.35068,-0.0348 0.755325,-0.0332 0.324308,8.7e-4 0.586165,0.0116 0.696236,0.028 0.09703,0.0144 0.286668,0.049 0.421402,0.0769 0.134813,0.0279 0.377203,0.0951 0.538797,0.14932 0.167916,0.0565 0.427984,0.16511 0.607004,0.25388 0.172237,0.0855 0.379586,0.19928 0.460717,0.25305 0.08117,0.0537 0.174596,0.13231 0.207603,0.1746 0.03278,0.0424 0.08249,0.12078 0.108736,0.17515 0.02635,0.0543 0.05846,0.14511 0.07042,0.20231 0.01141,0.0572 0.02193,0.15161 0.02126,0.20996 3.43e-4,0.0582 -0.01108,0.15269 -0.02281,0.20984 -0.01196,0.0571 -0.0444,0.15059 -0.07142,0.20774 -0.02713,0.057 -0.09655,0.15194 -0.154288,0.21067 -0.06721,0.0682 -0.153425,0.12934 -0.23904,0.16948 -0.13046,0.0611 -0.140913,0.0626 -0.399995,0.0616 -0.266056,-8.7e-4 -0.266056,-8.7e-4 -0.401815,-0.0725 -0.07475,-0.0393 -0.23895,-0.12532 -0.365077,-0.19096 -0.126042,-0.0657 -0.324364,-0.15153 -0.440551,-0.19067 -0.116154,-0.0392 -0.296207,-0.0893 -0.400092,-0.11132 -0.103874,-0.0221 -0.289133,-0.0476 -0.411677,-0.0568 -0.122577,-0.009 -0.318665,-0.01 -0.435823,-0.003 -0.117193,0.008 -0.284954,0.0279 -0.372875,0.0447 -0.08793,0.0168 -0.245375,0.0565 -0.3499,0.0878 -0.104427,0.0312 -0.263633,0.0881 -0.353605,0.12624 -0.08986,0.0379 -0.241586,0.11339 -0.336908,0.16739 -0.09529,0.0539 -0.245796,0.15123 -0.334384,0.21601 -0.08857,0.0648 -0.239579,0.19336 -0.335534,0.2857 -0.096,0.0923 -0.225516,0.22947 -0.287877,0.30471 -0.06241,0.0753 -0.163994,0.21377 -0.225855,0.30781 -0.06192,0.094 -0.155782,0.26136 -0.208703,0.37181 -0.05282,0.1104 -0.123925,0.27927 -0.157862,0.37512 -0.03384,0.0959 -0.08451,0.28462 -0.112458,0.41947 -0.02787,0.13482 -0.0563,0.34839 -0.06324,0.47457 -0.0071,0.13542 -0.0025,0.32102 0.01108,0.453 0.01258,0.12298 0.04889,0.32902 0.08101,0.45773 0.03217,0.12869 0.09875,0.33643 0.14891,0.4616 0.0503,0.12506 0.140373,0.31152 0.200187,0.41432 0.0599,0.10276 0.14853,0.24202 0.198618,0.30843 0.04897,0.0671 0.150416,0.19215 0.22535,0.278 0.07505,0.0857 0.214358,0.22197 0.309614,0.30264 0.09527,0.0807 0.247545,0.19607 0.338424,0.25636 0.09087,0.0603 0.244386,0.14981 0.341267,0.19884 0.09685,0.049 0.259907,0.12066 0.362215,0.15926 0.102301,0.0385 0.287475,0.0931 0.411421,0.12131 0.123835,0.0281 0.331928,0.0614 0.462166,0.0739 0.172534,0.0165 0.300284,0.0168 0.470765,0.003 0.128688,-0.0116 0.335562,-0.0428 0.459744,-0.07 0.12412,-0.0274 0.309781,-0.0802 0.412391,-0.1178 0.102601,-0.0377 0.271043,-0.11029 0.374195,-0.16151 0.10331,-0.0508 0.266492,-0.1465 0.363827,-0.21046 0.09681,-0.0651 0.253345,-0.18411 0.347618,-0.26542 0.09422,-0.0815 0.233527,-0.21897 0.309486,-0.30599 0.07585,-0.087 0.190453,-0.23424 0.254464,-0.32728 0.06389,-0.093 0.152716,-0.23518 0.197218,-0.31587 0.0444,-0.0808 0.117117,-0.23741 0.161563,-0.34817 0.04451,-0.11062 0.112157,-0.32191 0.150546,-0.46918 0.03842,-0.14726 0.09312,-0.30723 0.12179,-0.35552 0.02868,-0.0482 0.08725,-0.12584 0.13057,-0.17237 0.04717,-0.0507 0.138133,-0.11377 0.227148,-0.15719 0.14853,-0.0727 0.14853,-0.0727 0.414366,-0.0715 0.258251,8.8e-4 0.269578,0.003 0.397768,0.0644 0.07629,0.0368 0.172481,0.1042 0.228266,0.16036 0.05293,0.0535 0.122864,0.15015 0.155096,0.21498 0.03245,0.0645 0.06876,0.17754 0.08127,0.25051 0.01318,0.0769 0.01661,0.18652 0.0089,0.26043 -0.0078,0.0702 -0.03111,0.20115 -0.05238,0.29084 -0.02126,0.0897 -0.07098,0.26135 -0.110285,0.38148 -0.03942,0.12001 -0.111326,0.31197 -0.15977,0.42636 -0.0485,0.1143 -0.133227,0.29173 -0.188304,0.39413 -0.05503,0.10232 -0.164254,0.28303 -0.242605,0.40136 -0.07839,0.11832 -0.214037,0.30313 -0.301457,0.41064 -0.08736,0.10752 -0.277462,0.30989 -0.422283,0.44968 -0.144822,0.13976 -0.349303,0.31806 -0.454395,0.39613 -0.105191,0.078 -0.27641,0.19498 -0.380593,0.25998 -0.104085,0.065 -0.323737,0.18206 -0.487358,0.26101 -0.163838,0.0786 -0.403716,0.17862 -0.533092,0.22224 -0.129428,0.0434 -0.320057,0.10021 -0.423648,0.12584 -0.103552,0.0263 -0.298157,0.0654 -0.432313,0.0881 -0.200788,0.0338 -0.337823,0.0416 -0.773658,0.044 z m -0.09105,-2.24837 c -0.149693,-8.8e-4 -0.348226,-0.0153 -0.441248,-0.0301 -0.09312,-0.0149 -0.225357,-0.0419 -0.293956,-0.0597 -0.06879,-0.018 -0.212941,-0.0675 -0.320641,-0.11017 -0.107672,-0.0427 -0.268664,-0.12144 -0.357691,-0.17494 -0.08909,-0.0536 -0.222187,-0.14254 -0.295841,-0.19768 -0.07378,-0.055 -0.221441,-0.19176 -0.328325,-0.30364 -0.106753,-0.11196 -0.243982,-0.27887 -0.30471,-0.37103 -0.06081,-0.092 -0.149313,-0.25069 -0.197368,-0.352 -0.04707,-0.10198 -0.108436,-0.25329 -0.135176,-0.33704 -0.02638,-0.0839 -0.06305,-0.21634 -0.08033,-0.29458 -0.02012,-0.0929 -0.0345,-0.2767 -0.04006,-0.52909 -0.0065,-0.30759 -0.0022,-0.42802 0.02531,-0.58834 0.01873,-0.11092 0.06837,-0.30404 0.110419,-0.42922 0.04207,-0.12521 0.107605,-0.28877 0.14562,-0.36346 0.03812,-0.0747 0.124303,-0.21756 0.191734,-0.31745 0.06739,-0.0999 0.202966,-0.26498 0.301182,-0.36685 0.09829,-0.10199 0.253488,-0.24096 0.345033,-0.30906 0.09142,-0.0681 0.260223,-0.1718 0.374801,-0.23042 0.11456,-0.0587 0.286251,-0.13355 0.381437,-0.16644 0.09516,-0.033 0.263118,-0.0788 0.37313,-0.10209 0.166342,-0.035 0.264476,-0.042 0.582534,-0.0414 0.292793,6.6e-4 0.423699,0.009 0.558169,0.0369 0.09652,0.0198 0.259719,0.0632 0.362479,0.0962 0.102745,0.0331 0.28858,0.11313 0.41299,0.1777 0.124366,0.0646 0.300841,0.17403 0.392085,0.24311 0.09118,0.069 0.249057,0.21307 0.350602,0.32002 0.10166,0.10685 0.233963,0.26938 0.294199,0.36096 0.06046,0.0915 0.136472,0.22174 0.170333,0.2887 0.03389,0.067 0.0877,0.19025 0.120306,0.27349 0.03266,0.0833 0.0805,0.24038 0.10641,0.34906 0.0258,0.10874 0.05592,0.31038 0.06611,0.44817 0.01307,0.17198 0.01252,0.32887 -0.0022,0.50071 -0.01218,0.13765 -0.04318,0.33895 -0.06987,0.44734 -0.02679,0.1083 -0.07175,0.25783 -0.09999,0.33209 -0.02846,0.0743 -0.09556,0.21784 -0.149406,0.3191 -0.05392,0.10121 -0.148608,0.25391 -0.210582,0.3392 -0.06194,0.0851 -0.184591,0.22713 -0.272562,0.31519 -0.08796,0.0881 -0.20807,0.19673 -0.266842,0.24152 -0.05924,0.0444 -0.184203,0.12921 -0.278603,0.18797 -0.09411,0.0591 -0.249022,0.1391 -0.344038,0.17799 -0.09486,0.0392 -0.244744,0.092 -0.333135,0.11742 -0.08834,0.0258 -0.253014,0.0596 -0.365726,0.0755 -0.116868,0.0167 -0.321789,0.0282 -0.476979,0.0266 z m 0.02369,-1.76365 c 0.107084,6e-4 0.195582,-0.0131 0.304286,-0.0469 0.0843,-0.0263 0.208345,-0.0837 0.275701,-0.12755 0.06769,-0.0433 0.16754,-0.1296 0.222634,-0.19073 0.05509,-0.0611 0.131051,-0.17281 0.16872,-0.2482 0.03771,-0.0755 0.0839,-0.20977 0.1026,-0.29871 0.03208,-0.1521 0.03214,-0.17128 0.0015,-0.32364 -0.01853,-0.0921 -0.06418,-0.22506 -0.105735,-0.30813 -0.04753,-0.0951 -0.117127,-0.19178 -0.200472,-0.27576 -0.07924,-0.0807 -0.1791,-0.15689 -0.264375,-0.20175 -0.07535,-0.0395 -0.191214,-0.0863 -0.257396,-0.10365 -0.06622,-0.0173 -0.17077,-0.0319 -0.232407,-0.0322 -0.06159,-2.5e-4 -0.16561,0.0132 -0.231096,0.03 -0.06553,0.0168 -0.16846,0.055 -0.228783,0.0854 -0.06031,0.0303 -0.156386,0.0919 -0.213492,0.13699 -0.0569,0.0452 -0.143963,0.13791 -0.193044,0.20608 -0.04911,0.0681 -0.110901,0.17669 -0.137443,0.24113 -0.02653,0.0645 -0.05853,0.17834 -0.07125,0.25304 -0.01903,0.11236 -0.0177,0.16258 0.0078,0.29078 0.01688,0.0852 0.06139,0.21685 0.09874,0.29254 0.03742,0.0755 0.103974,0.17982 0.14825,0.23139 0.04428,0.0516 0.13747,0.13487 0.207218,0.1851 0.07259,0.0522 0.195391,0.11548 0.286959,0.14782 0.121709,0.043 0.196299,0.0567 0.311144,0.0574 z"
       id="path5052-0-2" />
  </g>
</svg>
