<?xml version="1.0" encoding="UTF-8" standalone="no"?>
<!-- Created with Inkscape (http://www.inkscape.org/) -->

<svg
   width="317.23691mm"
   height="82.24337mm"
   viewBox="0 0 317.23691 82.24337"
   version="1.1"
   id="svg5"
   inkscape:version="1.1 (c68e22c387, 2021-05-23)"
   sodipodi:docname="ttm-wordmark.svg"
   xmlns:inkscape="http://www.inkscape.org/namespaces/inkscape"
   xmlns:sodipodi="http://sodipodi.sourceforge.net/DTD/sodipodi-0.dtd"
   xmlns="http://www.w3.org/2000/svg"
   xmlns:svg="http://www.w3.org/2000/svg">
  <sodipodi:namedview
     id="namedview7"
     pagecolor="#505050"
     bordercolor="#eeeeee"
     borderopacity="1"
     inkscape:pageshadow="0"
     inkscape:pageopacity="0"
     inkscape:pagecheckerboard="0"
     inkscape:document-units="mm"
     showgrid="false"
     inkscape:zoom="0.73406285"
     inkscape:cx="664.79321"
     inkscape:cy="427.07515"
     inkscape:window-width="1920"
     inkscape:window-height="1009"
     inkscape:window-x="-8"
     inkscape:window-y="-8"
     inkscape:window-maximized="1"
     inkscape:current-layer="layer1" />
  <defs
     id="defs2" />
  <g
     inkscape:label="Layer 1"
     inkscape:groupmode="layer"
     id="layer1"
     transform="translate(67.115061,-115.14031)">
    <path
       style="fill:#000000;stroke-width:0.0846667"
       id="path898"
       d="" />
    <path
       style="fill:#000000;stroke-width:0.0846667"
       id="path878"
       d="" />
    <path
       style="fill:#fefefe;stroke-width:0.0846667"
       d="m -30.423482,197.36302 c -0.1397,-0.0209 -0.80645,-0.11601 -1.481666,-0.21139 -7.817411,-1.10431 -15.289065,-4.55597 -21.336001,-9.85656 -1.226135,-1.07479 -3.515365,-3.43856 -4.509853,-4.6567 -5.161198,-6.32184 -8.162311,-13.42991 -9.167829,-21.7138 -0.188247,-1.55086 -0.261261,-5.86259 -0.128758,-7.60363 0.744892,-9.78753 4.78116,-18.73048 11.601114,-25.704 3.430548,-3.50779 6.866908,-6.01781 11.195702,-8.17769 2.65039,-1.32243 5.187821,-2.26931 8.069958,-3.01143 6.633792,-1.70812 13.753349,-1.71683 20.404667,-0.025 9.8351008,2.50171 18.4648388,8.63005 24.1248188,17.13206 3.9544332,5.94007 6.2089122,12.40787 6.8173182,19.558 0.111497,1.31032 0.111497,5.29368 0,6.604 -0.674573,7.92768 -3.375635,15.07557 -8.0712752,21.35919 -1.195772,1.60015 -1.733443,2.16183 -2.368093,2.4738 -2.150534,1.05713 -4.67141297,-0.1226 -5.18386297,-2.42598 -0.232317,-1.04421 -0.0096,-2.14983 0.590479,-2.93142 1.28107897,-1.66854 1.70050897,-2.2353 2.14386897,-2.89693 3.09951,-4.6254 4.910394,-9.60001 5.579733,-15.32785 0.20505,-1.75473 0.204978,-5.43541 -1.69e-4,-7.19347 -0.478849,-4.10418 -1.517387,-7.67741 -3.272848,-11.26067 -4.75744897,-9.71101 -13.940869,-16.65947 -24.5509698,-18.57605 -3.307324,-0.59743 -7.247862,-0.67496 -10.625667,-0.20908 -9.56253,1.31892 -18.209256,6.76974 -23.620958,14.89045 -3.039555,4.56111 -4.902572,9.69955 -5.494786,15.15534 -0.297102,2.73706 -0.254481,5.51683 0.126569,8.255 1.688973,12.13671 9.724111,22.39617 21.072842,26.90632 2.95294,1.17355 5.26909,1.73631 9.482666,2.30407 1.252231,0.16873 2.263075,0.91972 2.819065,2.09439 0.248401,0.52481 0.270861,0.64237 0.271056,1.41889 2.54e-4,1.001 -0.144225,1.49598 -0.637878,2.18535 -0.670398,0.93621 -1.607379,1.4184 -2.833243,1.45806 -0.4191,0.0136 -0.8763,0.008 -1.016,-0.0133 z m 1.693334,-9.51894 c -8.264562,-0.83035 -15.567167,-4.52559 -20.906018,-10.57884 -1.654624,-1.87603 -2.099185,-2.57259 -2.267209,-3.55244 -0.413733,-2.41271 1.738683,-4.58547 4.135772,-4.17487 1.177384,0.20168 1.697548,0.59031 3.074245,2.2969 0.804449,0.99719 2.688464,2.84031 3.728876,3.64792 6.017553,4.671 13.682259,6.31723 20.913145,4.49171 3.21978,-0.81288 6.41594,-2.38188 9.143522,-4.48862 0.9743648,-0.75258 3.2292278,-2.98826 4.0120548,-3.97793 3.582809,-4.52945 5.423864,-10.02723 5.273571,-15.748 -0.123714,-4.70906 -1.483641,-9.00866 -4.083852,-12.91166 -0.960155,-1.44123 -1.642661,-2.25643 -3.119787,-3.72633 -2.0680028,-2.0579 -3.9254498,-3.38834 -6.4423198,-4.6145 -3.479568,-1.69516 -6.76844,-2.45712 -10.625667,-2.46176 -3.911974,-0.005 -7.366758,0.80783 -10.84207,2.54996 -6.051312,3.03343 -10.465104,8.24492 -12.51457,14.77631 -0.3945,1.25723 -0.743159,1.83675 -1.409763,2.34326 -2.159614,1.64094 -5.311695,0.40792 -5.807026,-2.27157 -0.114592,-0.61989 -0.05447,-1.10093 0.279366,-2.23504 1.678255,-5.70149 5.303084,-11.20097 9.920064,-15.05043 4.767406,-3.97488 10.256242,-6.35084 16.606332,-7.18843 1.606516,-0.21191 5.81825,-0.21217 7.450667,-4.3e-4 9.093821,1.17934 16.8033638,5.75837 22.06131783,13.10316 3.04957697,4.25993 4.99271497,9.38072 5.63544597,14.85116 0.172083,1.46465 0.195034,5.06385 0.04157,6.51934 -0.781611,7.41307 -3.891506,13.99253 -9.067061,19.18277 -2.579948,2.58725 -5.084178,4.40057 -8.2996098,6.00975 -3.208988,1.60595 -6.363607,2.56612 -10.159999,3.09237 -1.147754,0.15909 -5.548165,0.23512 -6.731,0.11628 z m 66.969785,-11.23498 -2.792451,-6.75213 -0.02168,6.5828 -0.02169,6.5828 H 34.473007 33.54219 v -9.144 -9.144 l 0.8255,0.002 0.8255,0.002 3.005667,7.01555 c 1.653118,3.85856 3.025572,7.00388 3.049905,6.98961 0.02433,-0.0143 1.411961,-3.17231 3.083628,-7.01786 l 3.039398,-6.99192 h 0.832206 0.832197 v 9.144 9.144 h -0.931334 -0.931332 l -0.0014,-6.6675 -0.0014,-6.66749 -3.019289,6.83683 c -1.66061,3.76025 -3.041794,6.83683 -3.069294,6.83683 -0.0275,0 -1.306609,-3.03846 -2.842462,-6.75214 z m 24.827941,6.61958 c -1.142432,-0.2768 -2.174283,-1.03537 -2.665231,-1.95938 -0.316797,-0.59623 -0.528828,-1.574 -0.528828,-2.43861 0,-1.78794 0.784344,-3.13676 2.243667,-3.85839 0.955311,-0.4724 1.706177,-0.6136 2.963333,-0.55726 1.069823,0.0479 1.845581,0.22095 2.715201,0.60554 0.264482,0.11696 0.500787,0.21266 0.525128,0.21266 0.09483,0 -0.06181,-2.01406 -0.18901,-2.43043 -0.156379,-0.51187 -0.566013,-1.0839 -0.972176,-1.35762 -0.429286,-0.2893 -0.898982,-0.3944 -1.740476,-0.38948 -0.945066,0.006 -1.811663,0.26567 -3.083382,0.9256 -0.485132,0.25174 -0.88933,0.44824 -0.898229,0.43665 -0.0089,-0.0116 -0.133477,-0.37449 -0.27686,-0.80647 l -0.260697,-0.78542 0.354584,-0.22384 c 0.503411,-0.31779 1.812231,-0.85091 2.57998,-1.05091 0.864057,-0.22508 2.358796,-0.24431 3.206538,-0.0412 1.142526,0.27367 2.061028,1.00312 2.577478,2.047 0.460841,0.93142 0.493381,1.36789 0.496631,6.66066 l 0.003,4.80483 h -0.889001 -0.888996 v -0.5954 -0.59542 l -0.444501,0.33233 c -0.608735,0.45509 -1.564902,0.91985 -2.201027,1.06982 -0.657031,0.15492 -1.976959,0.15229 -2.627081,-0.005 z m 3.263198,-1.96844 c 0.55322,-0.26873 0.903631,-0.51627 1.375833,-0.97192 l 0.633578,-0.61138 v -1.28159 -1.28161 l -0.699694,-0.34661 c -1.911959,-0.94714 -3.959242,-0.91165 -5.095265,0.0883 -0.216552,0.19061 -0.495588,0.54178 -0.62009,0.78035 -0.198933,0.38121 -0.226416,0.53127 -0.226763,1.23811 -8.47e-4,0.92933 0.148454,1.35579 0.678078,1.94202 0.584429,0.64689 1.189626,0.85857 2.365401,0.82735 0.802325,-0.0213 0.885537,-0.0414 1.588922,-0.38303 z m -12.21459,-4.92633 v -6.68867 h 0.931333 0.931335 v 6.68867 6.68867 h -0.931335 -0.931333 z m 20.066003,0 v -6.68867 h 0.97367 0.97366 v 0.60426 0.60424 l 0.41131,-0.38472 c 0.66012,-0.61746 1.36507,-0.92685 2.45048,-1.07546 1.46325,-0.20035 2.87034,0.28189 3.8003,1.30244 l 0.49176,0.53969 0.60447,-0.57418 c 1.33152,-1.26482 3.0789,-1.64208 4.87284,-1.05205 0.96697,0.31804 1.97979,1.23152 2.44411,2.20441 0.48405,1.01425 0.50032,1.22316 0.50193,6.44621 l 10e-4,4.7625 h -0.97367 -0.97366 v -4.51412 c 0,-2.90335 -0.033,-4.69338 -0.0926,-5.0165 -0.1882,-1.02152 -0.74974,-1.83432 -1.51018,-2.18599 -0.30821,-0.14254 -0.55053,-0.17886 -1.19125,-0.1786 -0.70739,3.4e-4 -0.85536,0.0274 -1.22767,0.22517 -0.74456,0.3954 -1.24468,0.99294 -1.58284,1.89114 -0.18864,0.50103 -0.19159,0.57048 -0.21838,5.14339 l -0.0272,4.63551 h -0.9657 -0.9657 l -0.0266,-4.7625 c -0.0263,-4.71487 -0.0286,-4.76832 -0.222,-5.3437 -0.15528,-0.46193 -0.29394,-0.68198 -0.67581,-1.07243 -0.60201,-0.61557 -1.13244,-0.79976 -2.13598,-0.74165 -1.13246,0.0656 -1.91874,0.59936 -2.40113,1.63013 -0.3676,0.78549 -0.38833,1.09544 -0.38833,5.80699 v 4.48316 h -0.97316 -0.97367 z m 22.01333,0 v -6.68867 h 0.93134 0.93133 v 6.68867 6.68867 h -0.93133 -0.93134 z m -124.248334,1.80757 c -4.995258,-0.53789 -9.492327,-2.62324 -13.027263,-6.04091 -1.296854,-1.25383 -2.173976,-2.30286 -3.113214,-3.72339 -2.896531,-4.38081 -4.087907,-9.59134 -3.407597,-14.90328 0.640656,-5.0023 3.271042,-9.98866 7.038737,-13.34316 3.315741,-2.95212 7.13848,-4.75493 11.493337,-5.42029 1.257034,-0.19206 4.736666,-0.22124 5.926667,-0.0497 2.511071,0.36198 4.677943,1.0158 6.773333,2.04378 2.239443,1.09865 2.855114,1.57389 3.375283,2.60542 0.895335,1.77553 0.115274,4.01501 -1.697609,4.87367 -0.54667,0.25892 -0.62848,0.27328 -1.55604,0.27328 -0.959984,0 -0.99046,-0.006 -1.566333,-0.30597 -2.117798,-1.10334 -2.669039,-1.36161 -3.484301,-1.63255 -1.215491,-0.40396 -2.303926,-0.62225 -3.582975,-0.71859 -8.121297,-0.61171 -15.274248,5.76023 -15.63278,13.92589 -0.251611,5.7305 2.916396,11.11108 8.058088,13.68597 5.324379,2.66638 11.612586,1.85226 16.146463,-2.09044 2.254545,-1.96058 3.803344,-4.53409 4.600469,-7.64427 0.439409,-1.71445 0.91629,-2.40197 2.0571528,-2.96583 0.627227,-0.30999 0.659022,-0.31621 1.617859,-0.31621 0.924277,0 1.009439,0.0149 1.548774,0.27036 1.348367,0.63873 2.237465,2.20584 2.051753,3.61639 -0.223371,1.69658 -1.156043,4.41238 -2.168525,6.31442 -1.759672,3.30572 -4.5581708,6.31027 -7.7403978,8.31034 -1.742286,1.09505 -4.196493,2.14278 -6.22192,2.6562 -1.765421,0.4475 -2.777991,0.56653 -5.033628,0.59172 -1.164166,0.013 -2.269066,0.007 -2.455333,-0.0128 z m 0.285284,-9.81183 c -2.027554,-0.31594 -3.78384,-1.05856 -5.48366,-2.31869 -0.808765,-0.59956 -2.173148,-2.04131 -2.744796,-2.90044 -0.82103,-1.23393 -1.46248,-2.74702 -1.797182,-4.23926 -0.216456,-0.96506 -0.262784,-3.39952 -0.08527,-4.48111 0.166458,-1.01427 0.666603,-2.58578 1.09141,-3.42933 0.784077,-1.55697 2.20724,-3.25864 3.598715,-4.30295 1.33903,-1.00497 3.112608,-1.79717 4.865552,-2.17332 1.155353,-0.2479 3.445966,-0.268 4.58488,-0.0402 4.768506,0.95377 8.462969,4.45224 9.575108,9.06718 0.426233,1.76869 0.426358,3.91287 3.38e-4,5.6807 -1.020335,4.23399 -4.222447,7.58878 -8.403038,8.8037 -1.529088,0.44437 -3.627842,0.57902 -5.202046,0.33371 z m 3.287512,-7.36084 c 1.620298,-0.51456 2.813602,-1.79481 3.24495,-3.48136 0.212009,-0.82895 0.211513,-1.44273 -0.0018,-2.27692 -0.55469,-2.16882 -2.487387,-3.68395 -4.699242,-3.68395 -3.015986,0 -5.36471,2.84643 -4.750646,5.75732 0.363096,1.72123 1.553007,3.07403 3.211737,3.65145 0.943945,0.32858 2.027609,0.34068 2.995038,0.0335 z m 78.970026,5.93638 c -0.76912,-0.34949 -0.943288,-1.40553 -0.340318,-2.06349 0.23937,-0.26119 0.340919,-0.30782 0.743035,-0.34118 0.846726,-0.0702 1.339215,0.38304 1.339816,1.23309 0,0.51536 -0.15019,0.86102 -0.46482,1.06716 -0.302497,0.19821 -0.954125,0.25146 -1.277713,0.10442 z m 42.079332,0 c -0.76912,-0.34949 -0.94328,-1.40553 -0.34031,-2.06349 0.23937,-0.26119 0.34092,-0.30782 0.74303,-0.34118 0.84673,-0.0702 1.33922,0.38304 1.33982,1.23309 0,0.51536 -0.15019,0.86102 -0.46482,1.06716 -0.3025,0.19821 -0.95413,0.25146 -1.27772,0.10442 z M 149.112,160.11994 c -0.70522,-1.05629 -1.26543,-1.93729 -1.24492,-1.95782 0.0205,-0.0205 0.56623,-0.0928 1.2127,-0.16068 1.52097,-0.15969 2.44587,-0.33521 3.14901,-0.5976 1.38829,-0.51808 2.04807,-1.4332 2.04807,-2.84065 v -0.42637 l -0.40958,0.30065 c -1.00425,0.73721 -2.61644,1.07853 -4.24676,0.89914 -1.65133,-0.1817 -2.89153,-0.72747 -3.98005,-1.75147 -1.34633,-1.26652 -2.1736,-3.0201 -2.54892,-5.40289 -0.16275,-1.0333 -0.13723,-3.71478 0.0451,-4.74134 0.40481,-2.27883 1.25384,-3.99889 2.57487,-5.21647 1.3619,-1.25527 2.79945,-1.79091 4.79765,-1.78764 1.42455,0.002 2.25676,0.2242 3.25085,0.86671 l 0.51682,0.33404 v -0.42148 -0.42149 h 2.33154 2.33153 l -0.0258,9.16516 -0.0258,9.16517 -0.19383,0.91878 c -0.54995,2.60684 -1.44812,3.87041 -3.44406,4.84531 -1.2549,0.61293 -2.36442,0.89391 -4.33317,1.0974 l -0.52316,0.0541 z m 3.82845,-9.59119 c 0.31077,-0.153 0.73859,-0.44686 0.95073,-0.65301 l 0.38568,-0.37484 v -3.58992 -3.58991 l -0.4256,-0.39809 c -0.23406,-0.21895 -0.68174,-0.51943 -0.99483,-0.66775 -0.54145,-0.25649 -0.61884,-0.26966 -1.58524,-0.26966 -0.92413,0 -1.0596,0.0204 -1.4983,0.22607 -0.90139,0.42252 -1.45157,1.14557 -1.85898,2.44306 -0.17896,0.56992 -0.19852,0.78865 -0.19679,2.1992 0.002,1.24552 0.0331,1.67767 0.15422,2.1099 0.30749,1.09757 0.89849,1.98937 1.62138,2.44662 0.56621,0.35815 0.93977,0.43793 1.94958,0.4164 0.86317,-0.0184 0.97548,-0.0408 1.49815,-0.29807 z m -99.904137,4.80652 c -3.015581,-0.31172 -5.305044,-1.96613 -6.474401,-4.67848 -1.211918,-2.81108 -1.183276,-6.97858 0.06665,-9.69729 0.436694,-0.94984 0.98635,-1.71298 1.759001,-2.44217 0.820301,-0.77415 1.656427,-1.27448 2.722956,-1.62934 1.049376,-0.34915 1.75553,-0.45229 3.090334,-0.4514 1.753616,0.001 3.131964,0.34383 4.440775,1.10399 0.694148,0.40316 1.881742,1.60787 2.323431,2.35691 0.461416,0.78251 0.88602,1.98122 1.057986,2.98683 0.140564,0.82201 0.190094,3.48462 0.08161,4.38775 l -0.05339,0.4445 h -5.87254 c -4.738472,0 -5.872539,0.0211 -5.872539,0.10921 0,0.23196 0.261628,1.09781 0.433527,1.43476 0.09918,0.19441 0.392345,0.57576 0.651485,0.84744 1.536158,1.6105 4.36736,1.53457 6.108022,-0.16382 l 0.549877,-0.53653 1.420215,1.41837 c 0.781109,0.7801 1.420207,1.45674 1.420207,1.50364 0,0.0469 -0.300075,0.37583 -0.666826,0.73096 -1.150713,1.11421 -2.592823,1.8709 -4.07659,2.13903 -0.937074,0.16933 -2.23586,0.22598 -3.10979,0.13564 z m 4.511794,-11.90856 c -0.322258,-1.71778 -1.707676,-2.90681 -3.386946,-2.90681 -1.970719,0 -3.318129,0.98048 -3.721075,2.70772 l -0.11888,0.50963 h 3.64258 3.64258 z m 15.067752,11.90302 c -2.69743,-0.27254 -4.762489,-1.64444 -6.012347,-3.99422 -1.758603,-3.30627 -1.575926,-8.52776 0.404478,-11.56146 1.449332,-2.22015 3.695379,-3.33759 6.708529,-3.33759 2.85655,0 5.00595,0.96784 6.35836,2.86306 0.45868,0.6428 1.06608,1.91463 1.08122,2.26397 l 0.0111,0.25597 -2.159,0.70319 c -1.18745,0.38675 -2.17805,0.70239 -2.20133,0.70142 -0.0233,-9.8e-4 -0.13534,-0.20023 -0.24901,-0.4428 -0.2657,-0.567 -0.94642,-1.28691 -1.48649,-1.57208 -0.37996,-0.20063 -0.51491,-0.22362 -1.3125,-0.22362 -0.81446,0 -0.92993,0.0207 -1.37717,0.24723 -0.91191,0.46181 -1.65593,1.47454 -1.96932,2.68054 -0.60855,2.34184 -0.0103,5.21452 1.30072,6.24604 0.62187,0.48929 1.0174,0.63404 1.8341,0.67123 0.96964,0.0441 1.53345,-0.14769 2.18547,-0.7436 0.3989,-0.36458 0.8407,-1.06963 1.02113,-1.62961 0.0263,-0.0815 0.0998,-0.14816 0.16343,-0.14816 0.12808,0 4.28833,1.2378 4.34257,1.29204 0.0696,0.0696 -0.38769,1.26098 -0.76302,1.98769 -1.16133,2.24856 -3.04338,3.45998 -5.81768,3.74468 -0.93829,0.0963 -1.07398,0.096 -2.06323,-0.004 z m 57.510161,-4.3e-4 c -3.77071,-0.39884 -6.33563,-2.95664 -7.03963,-7.02009 -0.65015,-3.75266 0.25196,-7.52824 2.30332,-9.64004 1.61621,-1.66383 4.02052,-2.4523 6.7486,-2.21314 4.01587,0.35205 6.6227,2.97615 7.27841,7.32664 0.16164,1.07242 0.16415,3.22451 0.005,4.27253 -0.6494,4.27598 -3.25792,6.90366 -7.22696,7.28006 -0.99902,0.0947 -1.12018,0.0944 -2.06872,-0.006 z m 2.58333,-4.77406 c 0.92467,-0.45994 1.62098,-1.42576 1.98549,-2.75403 0.23559,-0.85853 0.21205,-3.0343 -0.0424,-3.92087 -0.38568,-1.34362 -1.03682,-2.21162 -1.98906,-2.65146 -0.47934,-0.22141 -0.61076,-0.24333 -1.45816,-0.24309 -0.84462,2.5e-4 -0.97556,0.022 -1.40646,0.23343 -0.98193,0.48194 -1.76944,1.64697 -2.05735,3.04358 -0.17284,0.83849 -0.1743,2.41683 -0.003,3.2668 0.14506,0.71983 0.59299,1.75299 0.93756,2.16249 0.35218,0.41854 0.90138,0.80872 1.39567,0.99156 0.36879,0.13642 0.61856,0.16356 1.30292,0.14159 0.73008,-0.0234 0.91388,-0.0606 1.33483,-0.27 z m 37.92897,4.78 c -3.01558,-0.31174 -5.30504,-1.96614 -6.4744,-4.6785 -1.21192,-2.81106 -1.18328,-6.97856 0.0667,-9.69727 0.43669,-0.94984 0.98635,-1.71299 1.759,-2.44217 0.8203,-0.77416 1.65643,-1.27449 2.72296,-1.62934 1.04937,-0.34915 1.75552,-0.4523 3.09033,-0.45141 1.75361,10e-4 3.13196,0.34384 4.44077,1.104 0.69415,0.40316 1.88175,1.60786 2.32344,2.35691 0.46141,0.78251 0.88601,1.98121 1.05798,2.98682 0.14056,0.82202 0.19009,3.48463 0.0816,4.38776 l -0.0534,0.4445 h -5.87254 c -4.73847,0 -5.87254,0.0211 -5.87254,0.10921 0,0.23195 0.26163,1.09781 0.43353,1.43476 0.0992,0.19441 0.39234,0.57576 0.65148,0.84744 1.53616,1.6105 4.36736,1.53456 6.10803,-0.16382 l 0.54987,-0.53653 1.42022,1.41836 c 0.78111,0.7801 1.42021,1.45675 1.42021,1.50365 0,0.0469 -0.30008,0.37583 -0.66683,0.73095 -1.15071,1.11422 -2.59282,1.8709 -4.07659,2.13904 -0.93707,0.16933 -2.23586,0.22598 -3.10979,0.13564 z m 4.51179,-11.90856 c -0.32226,-1.71775 -1.70767,-2.90677 -3.38694,-2.90677 -1.97072,0 -3.31813,0.98048 -3.72108,2.70771 l -0.11888,0.50963 h 3.64258 3.64258 l -0.0583,-0.31053 z m 13.34675,11.90777 c -1.83889,-0.25313 -2.83572,-1.13363 -3.33768,-2.9482 -0.17209,-0.62207 -0.18061,-0.86441 -0.21268,-6.04554 l -0.0334,-5.3975 h -1.26344 -1.26345 v -2.07434 -2.07434 h 1.27 1.27 v -2.60782 -2.60784 l 2.29616,-1.09634 c 1.26289,-0.60298 2.32969,-1.10903 2.37067,-1.12455 0.0422,-0.016 0.0745,1.59032 0.0745,3.70416 v 3.73239 h 1.98966 1.98967 v 2.07433 2.07434 h -1.98967 -1.98966 v 4.72149 c 0,4.41101 0.0102,4.74045 0.15471,5.00995 0.37459,0.69849 1.32881,0.76956 2.91708,0.21727 0.47587,-0.16547 0.93385,-0.32394 1.01775,-0.35213 0.12519,-0.0421 0.14464,-0.0151 0.10841,0.15024 -0.0243,0.11084 -0.14509,1.00162 -0.26847,1.97951 -0.18005,1.42703 -0.25482,1.80498 -0.37877,1.91468 -0.18884,0.16714 -1.37724,0.54581 -2.06905,0.65928 -0.78515,0.12878 -2.05995,0.17249 -2.65233,0.091 z m 36.58213,7.6e-4 c -3.01558,-0.31174 -5.30505,-1.96613 -6.4744,-4.67849 -1.21192,-2.81107 -1.18328,-6.97857 0.0667,-9.69728 0.43669,-0.94984 0.98635,-1.71298 1.759,-2.44218 0.8203,-0.77416 1.65642,-1.27447 2.72295,-1.62933 1.04938,-0.34915 1.75553,-0.4523 3.09034,-0.45141 1.75361,0.001 3.13196,0.34384 4.44077,1.104 0.69415,0.40316 1.88174,1.60787 2.32343,2.35691 0.46142,0.7825 0.88602,1.98121 1.05799,2.98683 0.14056,0.82201 0.19009,3.48461 0.0816,4.38775 l -0.0534,0.4445 h -5.87254 c -4.73847,0 -5.87254,0.0211 -5.87254,0.10921 0,0.23195 0.26163,1.09781 0.43353,1.43476 0.0992,0.19441 0.39234,0.57576 0.65148,0.84744 1.53616,1.6105 4.36736,1.53457 6.10802,-0.16382 l 0.54988,-0.53653 1.42022,1.41837 c 0.78111,0.7801 1.4202,1.45674 1.4202,1.50364 0,0.0469 -0.30007,0.37583 -0.66682,0.73095 -1.15072,1.11422 -2.59283,1.87091 -4.07659,2.13904 -0.93708,0.16933 -2.23586,0.22598 -3.10979,0.13564 z m 4.51179,-11.90857 c -0.32226,-1.71771 -1.70768,-2.90673 -3.38695,-2.90673 -1.97071,0 -3.31812,0.98048 -3.72107,2.70771 l -0.11888,0.50963 h 3.64258 3.64258 l -0.0583,-0.31053 z m -196.048594,1.4536 v -10.033 h -3.556001 -3.555999 v -2.32833 -2.32834 h 9.482667 9.482666 v 2.32834 2.32833 h -3.513667 -3.513666 v 10.033 10.03301 h -2.413001 -2.412999 z m 52.070003,-1.68064 v -11.71363 l 2.30717,-1.06413 2.30716,-1.06413 0.0423,4.5185 0.0423,4.51852 0.33867,-0.34315 c 1.44631,-1.46542 3.98611,-2.01195 6.43466,-1.38462 1.75718,0.4502 3.224421,1.83822 3.858141,3.64977 0.44453,1.27078 0.44224,1.23167 0.47821,8.14067 l 0.0336,6.45585 h -2.333141 -2.33315 l -0.003,-5.31284 c -0.001,-2.92207 -0.0392,-5.59432 -0.0838,-5.93837 -0.14961,-1.15255 -0.70635,-2.00555 -1.59331,-2.44111 -0.4466,-0.21931 -0.5515,-0.23535 -1.53951,-0.23535 -1.02754,0 -1.07769,0.009 -1.62537,0.27827 -0.67544,0.3326 -1.16581,0.85383 -1.43906,1.5296 l -0.19331,0.47813 -0.0245,5.82083 -0.0245,5.82084 h -2.32504 -2.32503 z m 25.146001,1.68064 v -10.033 h -3.556 -3.556 v -2.32833 -2.32834 h 9.48267 9.48266 v 2.32834 2.32833 h -3.51366 -3.51367 v 10.033 10.03301 h -2.413 -2.413 z m 87.03734,-1.68064 v -11.71363 l 2.30716,-1.06413 2.30717,-1.06413 0.0423,4.5185 0.0423,4.51852 0.33866,-0.34315 c 1.44631,-1.46542 3.98612,-2.01195 6.43467,-1.38462 1.75717,0.4502 3.22442,1.83822 3.85813,3.64977 0.44454,1.27078 0.44224,1.23167 0.47822,8.14067 l 0.0336,6.45585 h -2.33314 -2.33315 l -0.003,-5.31284 c -10e-4,-2.92207 -0.0391,-5.59432 -0.0838,-5.93837 -0.14961,-1.15255 -0.70636,-2.00555 -1.59332,-2.44111 -0.4466,-0.21931 -0.5515,-0.23535 -1.53951,-0.23535 -1.02754,0 -1.07769,0.009 -1.62537,0.27827 -0.67544,0.3326 -1.16581,0.85383 -1.43905,1.5296 l -0.19331,0.47813 -0.0245,5.82083 -0.0245,5.82084 h -2.32504 -2.32503 z m 40.64,2.6543 v -9.05932 h 2.32833 2.32833 l 0.004,0.69849 c 0.004,0.68427 0.007,0.69419 0.14816,0.48683 0.83181,-1.22502 2.1448,-1.73826 3.8916,-1.52119 1.00705,0.12513 1.85205,0.48431 2.80308,1.19147 l 0.18283,0.13595 -0.30924,2.10772 c -0.17008,1.15924 -0.32085,2.12133 -0.33504,2.13797 -0.0142,0.0166 -0.23204,-0.0877 -0.48412,-0.23197 -0.25208,-0.14423 -0.72107,-0.36478 -1.04219,-0.49013 -0.51852,-0.20239 -0.70231,-0.22854 -1.6422,-0.23369 -0.93863,-0.005 -1.10838,0.0168 -1.50088,0.1943 -0.51629,0.23342 -1.06891,0.79735 -1.30549,1.33218 -0.38913,0.87969 -0.40793,1.19702 -0.40949,6.91323 l -0.001,5.3975 h -2.32833 -2.32833 z"
       id="path1164" />
    <path
       style="fill:#000000;stroke-width:0.0846667"
       id="path1142"
       d="" />
    <path
       style="fill:#000000;stroke-width:0.0846667"
       id="path1122"
       d="" />
  </g>
</svg>
