<?xml version="1.0" encoding="UTF-8" standalone="no"?>
<!-- Created with Inkscape (http://www.inkscape.org/) -->

<svg
   width="29.885441mm"
   height="24.872126mm"
   viewBox="0 0 29.885441 24.872126"
   version="1.1"
   id="svg938"
   inkscape:version="1.1 (c68e22c387, 2021-05-23)"
   sodipodi:docname="twitter.svg"
   xmlns:inkscape="http://www.inkscape.org/namespaces/inkscape"
   xmlns:sodipodi="http://sodipodi.sourceforge.net/DTD/sodipodi-0.dtd"
   xmlns="http://www.w3.org/2000/svg"
   xmlns:svg="http://www.w3.org/2000/svg">
  <sodipodi:namedview
     id="namedview940"
     pagecolor="#505050"
     bordercolor="#eeeeee"
     borderopacity="1"
     inkscape:pageshadow="0"
     inkscape:pageopacity="0"
     inkscape:pagecheckerboard="0"
     inkscape:document-units="mm"
     showgrid="false"
     inkscape:zoom="0.74118967"
     inkscape:cx="19.563144"
     inkscape:cy="274.5586"
     inkscape:window-width="1920"
     inkscape:window-height="1017"
     inkscape:window-x="-8"
     inkscape:window-y="-8"
     inkscape:window-maximized="1"
     inkscape:current-layer="layer1" />
  <defs
     id="defs935" />
  <g
     inkscape:label="Layer 1"
     inkscape:groupmode="layer"
     id="layer1"
     transform="translate(-100.00199,-76.092784)">
    <g
       id="g2087"
       transform="translate(60.863582,61.39904)"
       inkscape:export-filename="C:\Users\mattt\Documents\TTM\socials.png"
       inkscape:export-xdpi="193.62"
       inkscape:export-ydpi="193.62">
      <g
         id="g1459"
         transform="matrix(0.35277777,0,0,-0.35277777,-75.329115,143.85036)">
        <path
           d="m 408.898,351.906 c -2.466,-1.116 -5.182,-1.793 -7.844,-2.24 1.263,0.212 3.127,2.5 3.871,3.425 1.137,1.412 2.082,3.02 2.613,4.757 0.067,0.136 0.119,0.306 -0.017,0.409 -0.169,0.068 -0.28,0.033 -0.416,-0.035 -2.971,-1.592 -6.045,-2.748 -9.317,-3.565 -0.27,-0.068 -0.472,0 -0.642,0.17 -0.272,0.306 -0.526,0.595 -0.815,0.833 -1.375,1.17 -2.85,2.088 -4.514,2.766 -2.184,0.89 -4.57,1.267 -6.922,1.114 -2.29,-0.148 -4.537,-0.793 -6.568,-1.855 -2.036,-1.063 -3.852,-2.543 -5.299,-4.327 -1.496,-1.847 -2.599,-4.027 -3.164,-6.338 -0.545,-2.23 -0.501,-4.436 -0.168,-6.691 0.051,-0.374 0.018,-0.425 -0.321,-0.374 -12.798,1.904 -23.407,6.484 -32.019,16.298 -0.374,0.425 -0.577,0.425 -0.883,-0.033 -3.768,-5.649 -1.94,-14.724 2.768,-19.184 0.627,-0.594 1.272,-1.189 1.967,-1.732 -0.253,-0.051 -3.386,0.288 -6.178,1.732 -0.373,0.237 -0.561,0.101 -0.594,-0.323 -0.035,-0.61 0.017,-1.172 0.101,-1.834 0.723,-5.726 4.689,-11.022 10.119,-13.089 0.645,-0.271 1.358,-0.509 2.053,-0.627 -1.237,-0.272 -2.512,-0.466 -6.06,-0.188 -0.441,0.085 -0.61,-0.136 -0.441,-0.56 2.666,-7.267 8.421,-9.43 12.731,-10.662 0.578,-0.101 1.155,-0.101 1.734,-0.236 -0.035,-0.052 -0.069,-0.052 -0.103,-0.103 -1.429,-2.18 -6.386,-3.802 -8.695,-4.608 -4.198,-1.467 -8.769,-2.128 -13.206,-1.69 -0.71,0.104 -0.859,0.097 -1.051,0 -0.195,-0.12 -0.025,-0.29 0.203,-0.475 0.901,-0.594 1.817,-1.121 2.751,-1.63 2.817,-1.494 5.755,-2.682 8.827,-3.531 15.864,-4.381 33.734,-1.162 45.645,10.673 9.354,9.294 12.633,22.11 12.633,34.943 0,0.503 0.594,0.78 0.946,1.045 2.434,1.829 4.368,4.017 6.184,6.46 0.408,0.549 0.382,1.037 0.382,1.238 0,0.035 0,0.067 0,0.067 0,0.205 0.026,0.144 -0.291,0"
           style="fill:#fff622;fill-opacity:1;fill-rule:nonzero;stroke:none;stroke-width:0.1"
           id="path96" />
        <path
           d="m 402.84,357.446 c -2.467,-1.116 -5.182,-1.793 -7.845,-2.24 1.264,0.212 3.127,2.5 3.872,3.425 1.136,1.412 2.081,3.02 2.612,4.757 0.068,0.136 0.12,0.306 -0.016,0.409 -0.17,0.068 -0.28,0.033 -0.415,-0.035 -2.973,-1.592 -6.046,-2.748 -9.318,-3.565 -0.271,-0.068 -0.472,0 -0.643,0.17 -0.271,0.306 -0.525,0.595 -0.814,0.833 -1.375,1.17 -2.85,2.088 -4.514,2.766 -2.184,0.89 -4.571,1.267 -6.923,1.114 -2.288,-0.148 -4.536,-0.793 -6.568,-1.855 -2.036,-1.063 -3.851,-2.543 -5.298,-4.327 -1.496,-1.847 -2.6,-4.027 -3.164,-6.338 -0.546,-2.23 -0.501,-4.436 -0.168,-6.691 0.05,-0.374 0.017,-0.425 -0.322,-0.374 -12.797,1.905 -23.406,6.484 -32.018,16.298 -0.374,0.425 -0.577,0.425 -0.883,-0.033 -3.769,-5.649 -1.94,-14.724 2.768,-19.184 0.627,-0.594 1.272,-1.189 1.967,-1.731 -0.254,-0.052 -3.386,0.287 -6.178,1.731 -0.374,0.237 -0.561,0.101 -0.595,-0.323 -0.034,-0.61 0.018,-1.172 0.102,-1.834 0.723,-5.726 4.688,-11.022 10.119,-13.089 0.645,-0.271 1.358,-0.509 2.052,-0.627 -1.237,-0.272 -2.511,-0.466 -6.059,-0.188 -0.442,0.085 -0.611,-0.136 -0.442,-0.56 2.666,-7.267 8.422,-9.43 12.732,-10.662 0.577,-0.101 1.155,-0.101 1.733,-0.236 -0.034,-0.052 -0.069,-0.052 -0.102,-0.103 -1.43,-2.179 -6.387,-3.802 -8.695,-4.608 -4.198,-1.467 -8.769,-2.128 -13.206,-1.69 -0.71,0.104 -0.859,0.097 -1.051,0 -0.195,-0.12 -0.025,-0.29 0.203,-0.475 0.901,-0.594 1.817,-1.121 2.75,-1.63 2.818,-1.494 5.756,-2.682 8.828,-3.531 15.864,-4.381 33.734,-1.162 45.645,10.673 9.354,9.294 12.633,22.111 12.633,34.943 0,0.503 0.593,0.78 0.945,1.045 2.434,1.828 4.369,4.017 6.184,6.46 0.408,0.55 0.383,1.037 0.383,1.238 0,0.035 0,0.067 0,0.067 0,0.205 0.025,0.144 -0.291,0"
           style="fill:#51dbf6;fill-opacity:1;fill-rule:nonzero;stroke:none;stroke-width:0.1"
           id="path98" />
        <path
           d="m 402.84,357.446 c -2.467,-1.116 -5.182,-1.793 -7.845,-2.24 1.264,0.212 3.127,2.5 3.872,3.425 1.136,1.412 2.081,3.02 2.612,4.757 0.068,0.136 0.12,0.306 -0.016,0.409 -0.17,0.068 -0.28,0.033 -0.415,-0.035 -2.973,-1.592 -6.046,-2.748 -9.318,-3.565 -0.271,-0.068 -0.472,0 -0.643,0.17 -0.271,0.306 -0.525,0.595 -0.814,0.833 -1.375,1.17 -2.85,2.088 -4.514,2.766 -2.184,0.89 -4.571,1.267 -6.923,1.114 -2.288,-0.148 -4.536,-0.793 -6.568,-1.855 -2.036,-1.063 -3.851,-2.543 -5.298,-4.327 -1.496,-1.847 -2.6,-4.027 -3.164,-6.338 -0.546,-2.23 -0.501,-4.436 -0.168,-6.691 0.05,-0.374 0.017,-0.425 -0.322,-0.374 -12.797,1.905 -23.406,6.484 -32.018,16.298 -0.374,0.425 -0.577,0.425 -0.883,-0.033 -3.769,-5.649 -1.94,-14.724 2.768,-19.184 0.627,-0.594 1.272,-1.189 1.967,-1.731 -0.254,-0.052 -3.386,0.287 -6.178,1.731 -0.374,0.237 -0.561,0.101 -0.595,-0.323 -0.034,-0.61 0.018,-1.172 0.102,-1.834 0.723,-5.726 4.688,-11.022 10.119,-13.089 0.645,-0.271 1.358,-0.509 2.052,-0.627 -1.237,-0.272 -2.511,-0.466 -6.059,-0.188 -0.442,0.085 -0.611,-0.136 -0.442,-0.56 2.666,-7.267 8.422,-9.43 12.732,-10.662 0.577,-0.101 1.155,-0.101 1.733,-0.236 -0.034,-0.052 -0.069,-0.052 -0.102,-0.103 -1.43,-2.179 -6.387,-3.802 -8.695,-4.608 -4.198,-1.467 -8.769,-2.128 -13.206,-1.69 -0.71,0.104 -0.859,0.097 -1.051,0 -0.195,-0.12 -0.025,-0.29 0.203,-0.475 0.901,-0.594 1.817,-1.121 2.75,-1.63 2.818,-1.494 5.756,-2.682 8.828,-3.531 15.864,-4.381 33.734,-1.162 45.645,10.673 9.354,9.294 12.633,22.111 12.633,34.943 0,0.503 0.593,0.78 0.945,1.045 2.434,1.828 4.369,4.017 6.184,6.46 0.408,0.55 0.383,1.037 0.383,1.238 0,0.035 0,0.067 0,0.067 0,0.205 0.025,0.144 -0.291,0 z"
           style="fill:none;stroke:#0a0909;stroke-width:2;stroke-linecap:butt;stroke-linejoin:miter;stroke-miterlimit:10;stroke-dasharray:none;stroke-opacity:1"
           id="path100" />
      </g>
    </g>
  </g>
</svg>
