<?xml version="1.0" encoding="UTF-8" standalone="no"?>
<!-- Created with Inkscape (http://www.inkscape.org/) -->

<svg
   xmlns:dc="http://purl.org/dc/elements/1.1/"
   xmlns:cc="http://creativecommons.org/ns#"
   xmlns:rdf="http://www.w3.org/1999/02/22-rdf-syntax-ns#"
   xmlns:svg="http://www.w3.org/2000/svg"
   xmlns="http://www.w3.org/2000/svg"
   xmlns:sodipodi="http://sodipodi.sourceforge.net/DTD/sodipodi-0.dtd"
   xmlns:inkscape="http://www.inkscape.org/namespaces/inkscape"
   version="1.1"
   id="svg2"
   xml:space="preserve"
   width="79.48333"
   height="17.192396"
   viewBox="0 0 79.48333 17.192396"
   sodipodi:docname="fidelity.svg"
   inkscape:version="0.92.3 (2405546, 2018-03-11)"><metadata
     id="metadata8"><rdf:RDF><cc:Work
         rdf:about=""><dc:format>image/svg+xml</dc:format><dc:type
           rdf:resource="http://purl.org/dc/dcmitype/StillImage" /><dc:title></dc:title></cc:Work></rdf:RDF></metadata><defs
     id="defs6" /><sodipodi:namedview
     pagecolor="#ffffff"
     bordercolor="#666666"
     borderopacity="1"
     objecttolerance="10"
     gridtolerance="10"
     guidetolerance="10"
     inkscape:pageopacity="0"
     inkscape:pageshadow="2"
     inkscape:window-width="1853"
     inkscape:window-height="945"
     id="namedview4"
     showgrid="false"
     inkscape:zoom="3.0000001"
     inkscape:cx="39.501065"
     inkscape:cy="8.982803"
     inkscape:window-x="67"
     inkscape:window-y="27"
     inkscape:window-maximized="1"
     inkscape:current-layer="g10" /><g
     id="g10"
     inkscape:groupmode="layer"
     inkscape:label="ink_ext_XXXXXX"
     transform="matrix(1.3333333,0,0,-1.3333333,-10.498935,47.542928)"><g
       id="g12"
       transform="scale(0.1)"><path
         d="m 140.574,233.719 c 33.153,0 60.016,26.871 60.016,60.027 0,33.137 -26.86,60.008 -60.016,60.008 -33.144,0 -60.0115,-26.871 -60.0115,-60.008 0,-33.156 26.8675,-60.027 60.0115,-60.027"
         style="fill:#ffffff;fill-opacity:1;fill-rule:nonzero;stroke:none"
         id="path14"
         inkscape:connector-curvature="0" /><path
         d="m 131.348,283.738 h 22.09 l 6.449,-4.183 h -29.512 l -13.246,-40.946 c -14.637,5.672 -28.1798,18.821 -33.8595,33.602 -6.0586,14.32 -6.0586,32.309 0.1328,46.684 5.8008,14.789 19.7387,28.136 34.5707,33.625 11.672,4.832 27.289,5.339 39.668,1.539 14.203,-4.063 27.613,-14.25 35.414,-27.539 8.715,-14.575 11.164,-33.09 5.867,-49.731 -3.344,-11.035 -10.25,-21.605 -19.742,-29.168 l -16.305,27.168 22.695,-12.656 c 0.129,0 0.196,0.14 0.129,0.273 l -29.726,25.664 38.445,-5.867 c 0.129,0 0.184,0.059 0.184,0.125 l -0.247,0.195 -36.253,12.707 37.671,9.106 c 0.129,0 0.129,0.117 0.063,0.184 l -38.645,-2.52 30.258,22.91 c 0.067,0.125 -0.195,0.188 -0.261,0.059 l -33.989,-17.235 18.766,33.106 c 0,0.055 0,0.191 -0.121,0.121 l -24.52,-28.77 4.707,37.801 c 0,0.071 -0.133,0.133 -0.258,0.071 l -11.277,-36.708 -9.871,37.805 c -0.07,0.063 -0.203,0.129 -0.266,0 l 2.719,-39.215 -23.285,30.301 c -0.078,0.074 -0.137,0 -0.203,-0.058 l 17.613,-33.536 -33.2928,18.192 c -0.0625,0 -0.1875,-0.071 -0.1875,-0.129 l 29.6053,-24.313 -37.7928,3.989 c -0.1368,-0.071 -0.1368,-0.184 0,-0.246 L 122.176,295.422 85.7266,284.715 c -0.0703,-0.051 -0.0703,-0.188 0,-0.246 l 37.6014,4.379 -29.5467,-25.094 c -0.0586,0 -0.125,-0.125 0,-0.203 l 0.3984,0.137 23.6603,12.386 5.555,8.836 h 6.312 l -4.379,3.094 14.641,23.484 -8.633,-27.738 0.012,-0.016 z m 0,0 v 0 0"
         style="fill:#b5841d;fill-opacity:1;fill-rule:nonzero;stroke:none"
         id="path16"
         inkscape:connector-curvature="0" /><path
         d="m 240.363,252.82 h -29.492 l 23.617,84.305 h 60.457 l -5.761,-20.008 h -30.856 l -3.957,-14.351 h 30.856 l -5.204,-18.414 h -30.847 l -8.817,-31.532 h 0.004"
         style="fill:#145029;fill-opacity:1;fill-rule:nonzero;stroke:none"
         id="path18"
         inkscape:connector-curvature="0" /><path
         d="m 308.613,252.82 h -29.152 l 17.289,61.59 h 29.152 z m 18.871,67.465 h -29.152 l 4.75,16.84 h 29.148 l -4.746,-16.84"
         style="fill:#145029;fill-opacity:1;fill-rule:nonzero;stroke:none"
         id="path20"
         inkscape:connector-curvature="0" /><path
         d="M 384.246,252.82 H 355.66 l 2.031,6.891 c -5.765,-4.856 -11.636,-8.359 -21.019,-8.359 -9.496,0 -15.477,4.523 -15.477,14.128 0,10.618 4.184,26.442 10.395,37.516 4.519,8.25 12.656,12.543 22.258,12.543 8.246,0 14.351,-3.621 16.726,-8.133 l 8.141,29.719 h 29.152 l -23.621,-84.309 z m -21.918,43.285 c -2.605,0 -5.199,-0.8 -6.668,-4.406 -2.152,-5.199 -4.07,-10.285 -4.07,-15.367 0,-2.379 1.699,-4.41 4.519,-4.41 2.262,0 3.731,0.68 4.973,1.465 l 5.879,20.234 c -1.02,1.469 -2.828,2.488 -4.633,2.488 z m 0,0 v 0 0"
         style="fill:#145029;fill-opacity:1;fill-rule:nonzero;stroke:none"
         id="path22"
         inkscape:connector-curvature="0" /><path
         d="m 466.57,279.719 h -40.226 c -0.797,-3.274 -1.582,-5.539 -1.582,-8.137 0,-1.242 0.226,-4.406 4.293,-4.406 4.066,0 5.875,1.582 7.57,7.57 h 28.59 c -3.617,-17.519 -24.406,-23.5 -37.176,-23.5 -17.293,0 -30.742,2.484 -30.742,19.094 0,9.152 4.633,24.297 10.738,32.316 7.344,9.606 20.117,13.219 31.875,13.219 18.074,0 29.824,-3.727 29.824,-19.09 0,-3.734 -1.578,-11.976 -3.164,-17.062 z m -29.156,20.676 c -3.613,0 -6.101,-2.485 -7.684,-8.696 h 11.977 c 0.344,1.239 0.797,3.16 0.797,4.289 0,3.391 -2.039,4.407 -5.09,4.407"
         style="fill:#145029;fill-opacity:1;fill-rule:nonzero;stroke:none"
         id="path24"
         inkscape:connector-curvature="0" /><path
         d="m 495.871,252.82 h -29.156 l 23.617,84.305 h 29.156 L 495.871,252.82"
         style="fill:#145029;fill-opacity:1;fill-rule:nonzero;stroke:none"
         id="path26"
         inkscape:connector-curvature="0" /><path
         d="m 534.395,252.82 h -29.161 l 17.289,61.59 h 29.157 z m 18.867,67.465 h -29.153 l 4.746,16.84 h 29.157 l -4.75,-16.84 v 0"
         style="fill:#145029;fill-opacity:1;fill-rule:nonzero;stroke:none"
         id="path28"
         inkscape:connector-curvature="0" /><path
         d="m 605.676,314.41 2.535,-13.898 h -22.309 l -6.558,-23.395 c -0.559,-1.808 -1.016,-4.066 -1.016,-5.539 0,-2.707 1.133,-3.617 5.086,-3.617 h 6.219 l -4.297,-15.141 h -25.992 c -8.59,0 -11.867,4.184 -11.867,10.516 0,2.594 0.339,5.422 1.246,8.586 l 15.82,56.164 h 29.156 l -3.847,-13.676 h 15.828 z m 0,0 v 0 0"
         style="fill:#145029;fill-opacity:1;fill-rule:nonzero;stroke:none"
         id="path30"
         inkscape:connector-curvature="0" /><path
         d="m 210.27,243.352 7.269,0.007 -4.633,-15.16 -7.246,-0.004 4.61,15.157 v 0"
         style="fill:#145029;fill-opacity:1;fill-rule:nonzero;stroke:none"
         id="path32"
         inkscape:connector-curvature="0" /><path
         d="m 235.637,243.336 10.629,0.008 2.726,-10.114 h 0.074 l 3.079,10.118 6.308,0.004 -4.664,-15.129 -10.172,-0.035 -2.949,10.8 h -0.047 l -3.226,-10.781 -6.313,-0.004 4.555,15.129 v 0.004"
         style="fill:#145029;fill-opacity:1;fill-rule:nonzero;stroke:none"
         id="path34"
         inkscape:connector-curvature="0" /><path
         d="m 272.23,243.332 h 8.004 l 1.395,-9.527 7.32,9.535 7.406,0.012 -12.207,-15.133 -8.882,-0.004 -3.036,15.117 v 0"
         style="fill:#145029;fill-opacity:1;fill-rule:nonzero;stroke:none"
         id="path36"
         inkscape:connector-curvature="0" /><path
         d="m 310.289,243.328 16.531,0.012 -0.933,-3.063 -9.504,-0.011 -0.922,-3.11 8.914,0.008 -0.895,-2.922 -8.906,-0.004 -0.922,-3 9.602,0.008 -0.965,-3.066 -16.621,-0.016 4.621,15.164 v 0"
         style="fill:#145029;fill-opacity:1;fill-rule:nonzero;stroke:none"
         id="path38"
         inkscape:connector-curvature="0" /><path
         d="m 381.289,239.637 -5.66,-0.004 1.125,3.676 18.578,0.015 -1.121,-3.676 -5.656,-0.007 -3.473,-11.407 -7.258,-0.011 3.465,11.414 v 0"
         style="fill:#145029;fill-opacity:1;fill-rule:nonzero;stroke:none"
         id="path40"
         inkscape:connector-curvature="0" /><path
         d="m 410.367,243.348 11.008,0.004 0.535,-10.118 h 0.047 l 6.563,10.121 11.062,0.016 -4.594,-15.164 -6.734,-0.004 3.453,11.418 h -0.055 l -8.179,-11.426 -7.02,-0.007 -0.992,11.417 h -0.07 l -3.453,-11.386 -6.165,-0.004 4.594,15.129 v 0.004"
         style="fill:#145029;fill-opacity:1;fill-rule:nonzero;stroke:none"
         id="path42"
         inkscape:connector-curvature="0" /><path
         d="m 485.84,243.336 10.621,0.008 2.738,-10.114 h 0.067 l 3.078,10.122 6.304,0.003 -4.613,-15.167 -10.301,0.031 -2.863,10.773 h -0.047 l -3.301,-10.777 -6.312,-0.008 4.629,15.133 v -0.004"
         style="fill:#145029;fill-opacity:1;fill-rule:nonzero;stroke:none"
         id="path44"
         inkscape:connector-curvature="0" /><path
         d="m 526.074,239.656 -5.668,-0.004 1.125,3.68 18.582,0.016 -1.117,-3.676 -5.664,-0.008 -3.465,-11.445 -7.265,-0.008 3.476,11.449 -0.004,-0.004"
         style="fill:#145029;fill-opacity:1;fill-rule:nonzero;stroke:none"
         id="path46"
         inkscape:connector-curvature="0" /><path
         d="m 349.094,238.746 c -0.156,0.168 -0.164,0.457 -0.102,0.688 0.238,0.773 1.199,1.277 2.735,1.277 0.906,0.004 2.296,-0.098 2.691,-0.414 0.426,-0.309 0.562,-0.774 0.414,-1.231 h 6.434 c 0.757,2.704 -0.946,4.45 -8.211,4.446 -6.907,-0.012 -10.821,-1.489 -11.828,-4.789 -0.258,-0.868 -0.293,-1.926 0.418,-2.641 1.781,-1.769 9.808,-2.473 10.488,-3.426 0.137,-0.195 0.187,-0.426 0.105,-0.695 -0.367,-1.219 -2.09,-1.531 -3.597,-1.531 -0.957,0 -2.2,0.207 -2.555,0.601 -0.34,0.399 -0.34,1.008 -0.145,1.399 l -6.738,-0.016 c -0.68,-2.348 -0.965,-4.789 8.402,-4.785 7.856,0.008 11.454,1.93 12.36,4.922 0.445,1.465 0,2.277 -0.508,2.797 -1.746,1.797 -9.519,2.457 -10.363,3.394 z m 0,0 v 0 0"
         style="fill:#145029;fill-opacity:1;fill-rule:nonzero;stroke:none"
         id="path48"
         inkscape:connector-curvature="0" /><path
         d="m 454.371,243.32 16.531,0.016 -0.929,-3.066 -9.508,-0.004 -0.922,-3.11 8.914,0.008 -0.894,-2.922 -8.911,-0.004 -0.918,-3.008 9.602,0.008 -0.965,-3.066 -16.625,-0.016 4.625,15.168 v -0.004"
         style="fill:#145029;fill-opacity:1;fill-rule:nonzero;stroke:none"
         id="path50"
         inkscape:connector-curvature="0" /><path
         d="m 645.031,314.41 -15.82,-34.129 0.453,34.129 h -29.492 l 5.648,-61.59 c -0.722,-3.605 -1.914,-5.636 -4.175,-6.64 -2.477,-1.102 -8.075,-0.907 -10.043,-0.797 l -0.356,-0.02 -4.648,-16.734 19.898,-0.02 c 11.754,0 17.52,5.911 25.879,19.016 l 42.492,66.785 h -29.832 z m 0,0 v 0 0"
         style="fill:#145029;fill-opacity:1;fill-rule:nonzero;stroke:none"
         id="path52"
         inkscape:connector-curvature="0" /><path
         d="m 558.965,238.781 c -0.16,0.172 -0.164,0.457 -0.102,0.692 0.239,0.773 1.2,1.277 2.731,1.277 0.906,0 2.297,-0.102 2.691,-0.418 0.43,-0.305 0.567,-0.773 0.418,-1.23 h 6.434 c 0.758,2.707 -0.949,4.457 -8.211,4.445 -6.906,-0.008 -10.821,-1.488 -11.824,-4.793 -0.266,-0.859 -0.297,-1.922 0.414,-2.633 1.781,-1.769 9.808,-2.476 10.488,-3.43 0.137,-0.191 0.187,-0.425 0.105,-0.695 -0.363,-1.219 -2.089,-1.527 -3.593,-1.531 -0.965,0 -2.207,0.207 -2.563,0.605 -0.332,0.399 -0.332,1.004 -0.144,1.395 l -6.735,-0.004 c -0.679,-2.356 -0.969,-4.797 8.403,-4.793 7.855,0.012 11.449,1.93 12.359,4.926 0.445,1.465 0.004,2.273 -0.508,2.793 -1.746,1.797 -9.519,2.457 -10.363,3.398 z m 0,0 v 0 0"
         style="fill:#145029;fill-opacity:1;fill-rule:nonzero;stroke:none"
         id="path54"
         inkscape:connector-curvature="0" /><path
         d="m 649.629,253.953 c -2.918,0 -5.281,2.363 -5.281,5.281 0,2.914 2.359,5.278 5.281,5.278 2.914,0 5.281,-2.364 5.281,-5.278 0,-2.918 -2.367,-5.281 -5.281,-5.281 z m 0,11.695 c -3.539,0 -6.418,-2.878 -6.418,-6.414 0,-3.539 2.879,-6.421 6.418,-6.421 3.531,0 6.414,2.882 6.414,6.421 0,3.532 -2.883,6.414 -6.414,6.414"
         style="fill:#145029;fill-opacity:1;fill-rule:nonzero;stroke:none"
         id="path56"
         inkscape:connector-curvature="0" /><path
         d="m 648.527,259.676 v 1.855 h 0.883 c 0.75,0.016 1.57,-0.035 1.57,-0.922 0,-0.89 -0.816,-0.933 -1.57,-0.933 z m 3.672,0.883 c 0,1.277 -0.742,2 -2.34,2 h -2.492 v -6.621 h 1.16 v 2.707 h 0.883 l 1.653,-2.707 h 1.277 l -1.731,2.804 c 0.911,0.11 1.59,0.668 1.59,1.817 z m 0,0 v 0 0"
         style="fill:#145029;fill-opacity:1;fill-rule:nonzero;stroke:none"
         id="path58"
         inkscape:connector-curvature="0" /><path
         d="m 644.988,314.258 -15.769,-34.012 0.453,34.012 h -29.395 l 5.633,-61.375 c -0.719,-3.594 -1.91,-5.617 -4.164,-6.617 -2.465,-1.094 -8.039,-0.903 -10.008,-0.793 l -0.351,-0.02 -4.637,-16.68 19.832,-0.015 c 11.715,0 17.461,5.883 25.789,18.945 l 42.344,66.559 h -29.727 v -0.004"
         style="fill:#145029;fill-opacity:1;fill-rule:nonzero;stroke:none"
         id="path60"
         inkscape:connector-curvature="0" /></g></g></svg>