<?xml version="1.0" encoding="UTF-8"?>
<!DOCTYPE svg PUBLIC "-//W3C//DTD SVG 1.1//EN" "http://www.w3.org/Graphics/SVG/1.1/DTD/svg11.dtd">
<!-- Creator: CorelDRAW X7 -->
<svg xmlns="http://www.w3.org/2000/svg" xml:space="preserve" width="2.03in" height="0.433331in" version="1.1" style="shape-rendering:geometricPrecision; text-rendering:geometricPrecision; image-rendering:optimizeQuality; fill-rule:evenodd; clip-rule:evenodd" viewBox="0 0 2030 433" xmlns:xlink="http://www.w3.org/1999/xlink" enable-background="new 0 0 609 130">
 <defs>
  <style type="text/css">
   <![CDATA[
    .fil3 {fill:#00A4EF}
    .fil0 {fill:#737373}
    .fil2 {fill:#7FBA00}
    .fil1 {fill:#F25022}
    .fil4 {fill:#FFB900}
   ]]>
  </style>
 </defs>
 <g id="Layer_x0020_1">
  <metadata id="CorelCorpID_0Corel-Layer"/>
  <g id="_710120288">
   <g>
    <g>
     <path class="fil0" d="M717 250l-12 34 -1 0c-2,-8 -6,-20 -12,-34l-65 -163 -64 0 0 260 42 0 0 -160c0,-10 0,-22 0,-36 0,-7 -1,-12 -1,-16l1 0c2,10 4,17 6,22l78 189 29 0 78 -191c1,-4 3,-13 5,-20l1 0c-1,19 -2,36 -2,46l0 165 44 0 0 -259 -61 0 -66 163zm170 -90l43 0 0 186 -43 0 0 -186zm22 -79c-7,0 -13,3 -19,8 -5,4 -7,10 -7,18 0,7 2,13 7,18 6,4 12,7 19,7 7,0 14,-3 18,-7 5,-5 8,-11 8,-18 0,-7 -3,-13 -8,-18 -4,-5 -10,-8 -18,-8l0 0zm176 77c-8,-1 -16,-2 -24,-2 -20,0 -38,4 -53,13 -15,8 -27,20 -35,36 -8,15 -12,33 -12,53 0,18 4,34 11,48 8,14 19,26 33,34 14,7 30,11 48,11 21,0 39,-4 53,-12l1 0 0 -41 -2 2c-6,4 -14,8 -21,11 -8,2 -15,4 -21,4 -18,0 -31,-5 -41,-16 -10,-11 -15,-26 -15,-44 0,-20 5,-35 15,-46 11,-11 24,-17 41,-17 14,0 29,5 42,15l2 1 0 -43 -1 0c-5,-2 -12,-5 -21,-7l0 0zm145 -1c-11,0 -21,3 -30,10 -7,6 -12,15 -17,25l0 0 0 -32 -44 0 0 186 44 0 0 -95c0,-16 3,-30 11,-39 7,-10 16,-15 28,-15 4,0 8,1 13,1 5,2 8,3 10,5l2 1 0 -44 -1 0c-3,-2 -9,-3 -16,-3l0 0zm119 -1c-31,0 -55,9 -73,27 -17,18 -26,42 -26,73 0,29 9,52 26,70 17,16 40,25 68,25 30,0 54,-9 71,-27 18,-18 26,-43 26,-72 0,-30 -8,-53 -24,-71 -16,-17 -39,-25 -68,-25l0 0zm35 143c-8,10 -21,15 -37,15 -16,0 -29,-5 -38,-16 -9,-10 -13,-25 -13,-44 0,-20 5,-35 13,-46 9,-11 22,-16 38,-16 15,0 27,5 36,15 9,11 13,26 13,46 0,20 -4,36 -12,46l0 0zm155 -62c-14,-6 -23,-10 -27,-14 -3,-3 -5,-8 -5,-14 0,-5 2,-10 7,-13 5,-4 11,-5 19,-5 8,0 15,1 23,3 7,2 14,5 19,9l2 2 0 -41 -1 -1c-5,-2 -12,-4 -20,-5 -8,-2 -15,-2 -21,-2 -21,0 -38,5 -52,16 -13,10 -20,24 -20,41 0,8 2,16 5,22 3,7 7,13 13,18 6,5 15,10 27,15 10,4 18,8 22,10 5,3 8,6 11,9 1,2 2,6 2,10 0,12 -9,18 -28,18 -8,0 -15,-1 -25,-4 -9,-3 -17,-7 -24,-12l-2 -2 0 43 1 0c7,3 14,5 24,8 9,1 18,3 25,3 23,0 41,-5 54,-16 14,-11 21,-25 21,-43 0,-12 -4,-23 -11,-32 -10,-8 -22,-16 -39,-23l0 0zm165 -81c-31,0 -55,9 -72,27 -17,18 -26,42 -26,73 0,29 9,52 25,70 17,16 40,25 69,25 29,0 53,-9 70,-27 18,-18 26,-43 26,-72 0,-30 -8,-53 -24,-71 -16,-17 -39,-25 -68,-25l0 0zm35 143c-9,10 -21,15 -37,15 -16,0 -29,-5 -38,-16 -9,-10 -13,-25 -13,-44 0,-20 5,-35 13,-46 9,-11 22,-16 38,-16 15,0 27,5 36,15 9,11 13,26 13,46 0,20 -4,36 -12,46z"/>
    </g>
    <path class="fil0" d="M2030 196l0 -36 -44 0 0 -55 -1 0 -42 13 -1 0 0 42 -66 0 0 -24c0,-10 3,-19 7,-24 5,-6 12,-8 21,-8 6,0 12,1 19,4l2 1 0 -38 -1 0c-6,-2 -14,-3 -24,-3 -14,0 -25,3 -35,8 -11,5 -19,13 -24,23 -6,11 -9,22 -9,35l0 26 -31 0 0 36 31 0 0 150 44 0 0 -150 66 0 0 96c0,39 18,59 55,59 6,0 13,-1 19,-2 6,-2 11,-3 14,-5l0 0 0 -36 -2 1c-2,2 -5,3 -9,4 -3,1 -6,2 -8,2 -9,0 -15,-2 -20,-7 -4,-5 -6,-13 -6,-24l0 -88 45 0z"/>
   </g>
   <polygon class="fil1" points="0,0 206,0 206,206 0,206 "/>
   <polygon class="fil2" points="228,0 434,0 434,206 228,206 "/>
   <polygon class="fil3" points="0,227 206,227 206,433 0,433 "/>
   <polygon class="fil4" points="228,227 434,227 434,433 228,433 "/>
  </g>
 </g>
</svg>