<svg xmlns="http://www.w3.org/2000/svg" width="600" height="108"><path d="M154.2 35.3h-18.8v-8.1h46.7v8.1h-18.8v45.9h-9.1zm36.4-8.1h9.8l12.5 41 11.9-41h8.5l11.7 41h.2l12.3-41h9.8l-17.1 54h-9.8l-11.5-39.6-11.4 39.6h-9.8zm107.7-1.1c15.6 0 27.5 10.9 27.5 27.6 0 17.2-11.9 28.5-27.5 28.5s-27.7-11.3-27.7-28.5c0-16.7 12.1-27.6 27.7-27.6zm0 48c10 0 18.1-7.5 18.1-20.3 0-12.1-7.9-19.7-18.1-19.7s-18.1 7.5-18.1 19.7c0 12.7 7.9 20.3 18.1 20.3zM405 27.2h9.1v54H405V51zm48.7-1.1c7.5 0 13.7 2.3 19.2 6.1 0 0-5.2 6.3-5.6 6.1-4-2.5-8.3-4-13.3-4-11 0-18.3 7.9-18.3 19.5 0 12.3 6.9 20.3 18.3 20.3 4.2 0 8.1-1.1 10.8-2.5v-13h-13.5v-6.9h22.1v24.7c-5.2 3.6-12.1 5.9-19.6 5.9-16.9 0-27.5-11.5-27.5-28.5-.1-15.9 10.8-27.7 27.4-27.7zm32.7 1.1h9.4l17.7 25.3 17.7-25.3h9.4v54h-9V40.8l-18.1 25.5-18.1-25.5v40.4h-9zm82.8 0H580l20 54h-10l-4-11.7h-22.7l-4.2 11.7h-10l20.1-54zm-3.4 34.9h17.5l-8.7-25.3h-.2l-8.6 25.3zm-208.7 7.4c4.8 2.7 9.4 4.4 15.4 4.4 7.1 0 10.6-2.9 10.6-7.3 0-12.1-30.4-4.2-30.4-24.9 0-8.6 7.3-15.5 19.4-15.5 7.1 0 14.2 1.7 19.8 5l-6 6.3c-4.4-1.9-8.1-3.1-13.5-3.1-6.3 0-9.8 3.1-9.8 7.3 0 12.1 30.2 3.8 30.2 24.9 0 8.8-6.7 15.7-20.2 15.7-7.9 0-16.5-2.9-21.7-6.5l6.2-6.3z" fill="#231f20"/><path d="M53.7 0L0 54.2l53.7 54 54-54z" fill="#009aa6"/><path d="M25.4 69.5C25 52.1 45.6 54.4 45.6 45.6c0-2.9-2.1-5.4-7.1-5.4-3.7 0-7.3 1.9-9.8 4.2L25 40.6c3.1-3.1 8.3-5.7 13.8-5.7 8.5 0 12.9 4.8 12.9 10.5 0 13.2-20 10.9-20 21.8h19.8v5.2h-26v-2.9zm41.7-1.3c-4 0-6.5-2.5-6.5-7.5 0-6.3 4.2-11.9 9.2-11.9 4 0 6.5 2.5 6.5 7.5-.1 6.3-4.2 11.9-9.2 11.9zm25.2-24.3H70.2c-9 0-15.6 7.1-15.6 16.7 0 7.8 4.8 12.3 11.9 12.3 9 0 15.8-7.3 15.8-16.7 0-3.1-.8-5.9-2.3-7.8h7.7l4.6-4.5z" fill="#fff"/></svg>