<?xml version="1.0" encoding="UTF-8" standalone="no"?>
<!-- Created with Inkscape (http://www.inkscape.org/) -->

<svg
   xmlns:dc="http://purl.org/dc/elements/1.1/"
   xmlns:cc="http://creativecommons.org/ns#"
   xmlns:rdf="http://www.w3.org/1999/02/22-rdf-syntax-ns#"
   xmlns:svg="http://www.w3.org/2000/svg"
   xmlns="http://www.w3.org/2000/svg"
   xmlns:sodipodi="http://sodipodi.sourceforge.net/DTD/sodipodi-0.dtd"
   xmlns:inkscape="http://www.inkscape.org/namespaces/inkscape"
   version="1.1"
   id="svg2"
   xml:space="preserve"
   width="589.53198"
   height="232.96582"
   viewBox="0 0 589.53199 232.96582"
   sodipodi:docname="wayfair.svg"
   inkscape:version="0.92.3 (2405546, 2018-03-11)"><metadata
     id="metadata8"><rdf:RDF><cc:Work
         rdf:about=""><dc:format>image/svg+xml</dc:format><dc:type
           rdf:resource="http://purl.org/dc/dcmitype/StillImage" /><dc:title /></cc:Work></rdf:RDF></metadata><defs
     id="defs6" /><sodipodi:namedview
     pagecolor="#ffffff"
     bordercolor="#666666"
     borderopacity="1"
     objecttolerance="10"
     gridtolerance="10"
     guidetolerance="10"
     inkscape:pageopacity="0"
     inkscape:pageshadow="2"
     inkscape:window-width="1853"
     inkscape:window-height="945"
     id="namedview4"
     showgrid="false"
     inkscape:zoom="1.4536955"
     inkscape:cx="181.60001"
     inkscape:cy="108.40296"
     inkscape:window-x="67"
     inkscape:window-y="27"
     inkscape:window-maximized="1"
     inkscape:current-layer="g12"
     inkscape:snap-object-midpoints="true"
     inkscape:snap-page="true" /><g
     id="g10"
     inkscape:groupmode="layer"
     inkscape:label="ink_ext_XXXXXX"
     transform="matrix(1.3333333,0,0,-1.3333333,0,508.48247)"><g
       id="g12"
       transform="scale(0.1)"><path
         d="m 3953.12,3572.09 -47.83,180.57 c -1.61,6.07 -6.35,10.82 -12.43,12.46 l -180.57,47.85 c -6.06,1.58 -12.46,-0.13 -16.88,-4.55 l -121.04,-121.04 253.23,-253.19 120.97,121.04 c 4.44,4.4 6.16,10.83 4.55,16.86"
         style="fill:#7ece5e;fill-opacity:1;fill-rule:nonzero;stroke:none"
         id="path14"
         inkscape:connector-curvature="0" /><path
         d="m 3195.61,3296.27 47.86,-180.52 c 1.61,-6.07 6.38,-10.82 12.43,-12.43 l 180.6,-47.91 c 6.02,-1.58 12.43,0.14 16.85,4.55 l 121.07,121.08 -253.19,253.21 -121.09,-121.1 c -4.39,-4.42 -6.14,-10.85 -4.53,-16.88"
         style="fill:#f4ce12;fill-opacity:1;fill-rule:nonzero;stroke:none"
         id="path16"
         inkscape:connector-curvature="0" /><path
         d="m 3436.45,3813.03 -180.57,-47.88 c -6.08,-1.61 -10.83,-6.35 -12.44,-12.44 l -47.85,-180.54 c -1.61,-6.02 0.13,-12.46 4.55,-16.85 l 121.1,-121.07 253.13,253.13 -121.05,121.1 c -4.41,4.41 -10.85,6.16 -16.87,4.55"
         style="fill:#bada1b;fill-opacity:1;fill-rule:nonzero;stroke:none"
         id="path18"
         inkscape:connector-curvature="0" /><path
         d="m 3946.92,3314.87 -119.3,119.32 -253.21,-253.15 119.33,-119.36 c 5.48,-5.48 13.47,-7.63 20.96,-5.64 l 175.8,46.6 c 7.55,2.02 13.44,7.91 15.44,15.46 l 46.62,175.8 c 1.99,7.5 -0.16,15.49 -5.64,20.97"
         style="fill:#bb70be;fill-opacity:1;fill-rule:nonzero;stroke:none"
         id="path20"
         inkscape:connector-curvature="0" /><path
         d="m 3574.38,3687.38 -253.13,-253.13 253.15,-253.21 253.21,253.16 -253.23,253.18"
         style="fill:#70227f;fill-opacity:1;fill-rule:nonzero;stroke:none"
         id="path22"
         inkscape:connector-curvature="0" /><path
         d="M 251.164,2366.85 71.332,2906.73 c -1.6875,5.13 -6.4609,8.59 -11.832,8.59 H 17.4531 C 7.80078,2915.32 0,2923.06 0,2932.69 v 65.42 c 0,9.62 7.80078,17.42 17.4531,17.42 H 290.785 c 9.656,0 17.399,-7.8 17.399,-17.42 v -65.42 c 0,-9.63 -7.743,-17.42 -17.399,-17.42 l -34.601,0.05 c -8.508,0 -14.426,-8.64 -11.754,-16.71 0,0 67.3,-202.09 92.222,-277.32 3.434,-10.39 19.168,-10.75 23.286,-0.08 40.195,104.49 147.82,383.03 147.82,383.03 2.293,5.62 7.801,11.29 16.008,11.29 h 81.175 c 5.836,0 12.872,-4.88 15.379,-11.78 0,0 133.071,-367.3 138.547,-382.27 4.449,-12.11 20.262,-9.6 23.508,0.05 3.219,9.63 92.82,277.43 92.82,277.43 2.7,8.07 -3.027,16.36 -11.535,16.36 h -38.828 c -9.652,0 -17.48,7.74 -17.48,17.37 v 65.42 c 0,9.62 7.8,17.42 17.425,17.42 h 248.713 c 12.38,0 20.12,-12.38 16.85,-22.03 -6.49,-19.01 -15.76,-45.51 -22.52,-66.15 -2.13,-6.55 -8.16,-12.03 -16.61,-12.03 h -40.08 c -5.35,0 -10.12,-3.43 -11.81,-8.51 L 815.996,2366.74 c -2.371,-7.11 -9.023,-11.91 -16.551,-11.91 h -97.347 c -7.336,0 -13.907,4.6 -16.387,11.5 0,0 -138.059,380.83 -142.641,393.45 -4.09,11.21 -19.523,10.67 -23.449,0.44 -5.918,-15.33 -152.648,-394.24 -152.648,-394.24 -2.618,-6.74 -9.051,-11.15 -16.25,-11.15 h -82.977 c -7.527,0 -14.234,4.85 -16.582,12.02"
         style="fill:#70227f;fill-opacity:1;fill-rule:nonzero;stroke:none"
         id="path24"
         inkscape:connector-curvature="0" /><path
         d="m 1444.04,2501.17 c 0,-3.76 -6.35,-9.76 -9.27,-12.13 -17.18,-14.18 -34.03,-24.98 -50.55,-32.35 -18.06,-8.07 -35.45,-9.76 -52.28,-9.76 -25.87,0 -51.7,9.38 -68.9,28.25 -17.26,18.84 -25.88,42.21 -25.88,70.16 0,38.86 14.94,65.01 44.12,84.26 29.15,19.25 76.7,28.52 134.65,28.52 h 28.11 z m 220.98,-47.69 c -36.65,-1.67 -54.45,15.54 -54.45,57.04 v 298.12 c 0,130.95 -109.56,213.59 -232.84,213.59 -191.21,0 -260.36,-90.61 -268.13,-191.94 -0.79,-10.11 7.36,-18.73 17.51,-18.73 h 93.99 c 9.13,0 16.5,7.04 17.4,16.12 5.18,52.95 40.22,91.4 99.91,91.4 65.9,0 105.61,-32.88 105.61,-108.39 v -64.65 h -34.01 c -117.25,0 -198.86,-15.03 -253.37,-49.41 -54.51,-34.36 -81.81,-96.94 -81.81,-170.76 0,-54.23 18.76,-99.09 56.2,-134.67 37.47,-35.51 80.74,-50.94 138.44,-50.94 33.71,0 66.73,7.44 99.12,22.36 28.28,13.06 55.98,29.48 83.2,53.91 6.02,5.4 15.27,3.9 19.36,-3.11 27.05,-46.68 55.79,-62.22 112.07,-62.22 50.44,0 74.88,47.41 96.72,75.45 7.82,10.03 -1.09,27.43 -14.92,26.83"
         style="fill:#70227f;fill-opacity:1;fill-rule:nonzero;stroke:none"
         id="path26"
         inkscape:connector-curvature="0" /><path
         d="m 2661.45,3308.05 c -75.09,0 -124.53,-23.72 -162.1,-69.1 -37.53,-45.42 -56.29,-95.76 -56.29,-186.59 v -24.3 c 0,-8.37 -7.11,-12.51 -12.1,-12.51 h -254.58 c -9.65,-0.03 -17.45,-7.83 -17.45,-17.45 v -65.34 c 0,-9.65 7.8,-17.45 17.45,-17.45 h 13.61 c 9.08,0 14.72,-9.41 11.62,-17.12 0,0 -92.77,-215.18 -129.85,-301.13 -4.12,-9.54 -18.41,-9.73 -22.66,0 -38.04,87.13 -131.22,300.85 -131.22,300.85 -3.54,8.21 2.48,17.37 11.43,17.37 h 41.14 c 9.66,0 17.46,7.83 17.46,17.45 v 65.42 c 0,9.63 -7.8,17.4 -17.46,17.4 l -335.56,0.02 c -13.69,0 -21.27,-14.75 -15.4,-25.66 8.78,-16.25 29.31,-54.45 35.23,-65.41 1.74,-3.25 7.01,-9.19 14.67,-9.19 h 50.12 c 4.82,0 9.27,-2.78 11.29,-7.17 0,0 240.25,-514.58 247.92,-530.86 1.5,-3.27 0.65,-7.8 -1.04,-11.99 -2.37,-6 -46.46,-95.44 -46.46,-95.44 -23.86,-50.99 -50.78,-94.79 -102.31,-94.98 -33.52,-0.08 -59.31,24.93 -71.58,35.02 -6.27,5.15 -17.07,5.15 -23.32,-1.61 -8.97,-9.68 -34.98,-36.46 -48.81,-50.75 -5.04,-5.23 -6.49,-16.66 0.33,-23.42 27.95,-27.82 73.65,-65.01 140.02,-67.57 81.75,-3.17 149.62,39.32 188.81,127.77 0,0 284.18,628.29 322.49,714.15 2.24,5 7.83,6.85 10.99,6.85 17.97,0 80.25,-0.14 80.25,-0.14 6.88,0 12.47,-5.59 12.47,-12.46 v -435.99 c 0,-2.86 -0.77,-6.79 -3.11,-9.73 -14.78,-18.49 -44.07,-55.3 -58.74,-73.84 -9.08,-11.46 -1.28,-28.36 13.58,-28.36 h 274.4 c 9.68,0 17.45,7.8 17.45,17.45 v 64.57 c 0,9.63 -7.8,17.45 -17.42,17.45 h -47.31 c -6.87,0 -12.38,5.56 -12.38,12.46 v 436.13 c 0,6.87 5.51,12.46 12.38,12.46 h 84.36 c 5.1,0 10.37,2.18 13.75,6.63 12.49,16.44 36.95,48.45 50.03,65.6 8.59,11.24 0.82,28.01 -13.88,28.01 h -136.39 c -6.87,0 -12.43,5.56 -12.43,12.46 v 96.88 c 0,47.2 24.13,94.02 74.66,94.02 56.71,0 65.77,-47.53 68.22,-84.56 0.68,-9.95 9.03,-16.74 17.34,-16.74 h 80.82 c 9.41,0 16.53,9.22 16.53,17.21 0,121.75 -77.22,173.23 -200.97,173.23"
         style="fill:#70227f;fill-opacity:1;fill-rule:nonzero;stroke:none"
         id="path28"
         inkscape:connector-curvature="0" /><path
         d="m 4238.37,3015.54 c -8.7,4.61 -30.54,6.71 -49.25,6.71 -75.26,0 -111.47,-23.45 -158.97,-90.75 -6.95,-9.84 -22.58,-4.47 -22.58,7.58 v 59.01 c 0,9.66 -7.82,17.45 -17.45,17.45 h -125.35 c -4.56,0 -9.22,-1.77 -12.9,-6.19 0,0 -39.29,-49.16 -52.22,-65.66 -7.66,-9.79 -3,-28.44 13.75,-28.44 5.29,0 15.65,0.05 15.65,0.05 6.65,0 12.46,-5.48 12.46,-12.46 v -436.12 c 0,-2.51 -0.71,-7.01 -2.89,-9.71 -12.24,-15.16 -43.63,-54.64 -58.96,-73.95 -8.91,-11.24 -0.76,-28.28 13.39,-28.28 h 49.06 80.99 139.83 c 9.62,0 17.45,7.83 17.45,17.45 v 64.63 c 0,9.63 -7.83,17.45 -17.45,17.45 h -42.92 c -6.88,0 -12.44,5.56 -12.44,12.46 v 326.05 c 0,2.34 0.98,6.38 1.77,7.88 29.34,55.43 95.69,93.8 144.93,93.8 41.29,0 56.5,-6.16 78.89,-11.89 9.33,-2.4 17.42,7.8 17.42,17.45 l -0.02,98.77 c 0,7.6 -6.14,13.49 -12.19,16.71"
         style="fill:#70227f;fill-opacity:1;fill-rule:nonzero;stroke:none"
         id="path30"
         inkscape:connector-curvature="0" /><path
         d="m 3712.71,2454.26 h -42.65 c -6.87,0 -12.46,5.59 -12.46,12.46 v 531.62 c 0,9.62 -7.99,17.2 -17.61,17.2 h -124.95 c -5.18,0 -10.41,-2.34 -13.87,-6.87 -6.41,-8.29 -38.75,-48.89 -51.7,-64.98 -9.17,-11.37 -1.01,-28.39 13.19,-28.39 h 16.5 c 6.84,0 12.05,-6.54 12.05,-12.46 v -435.88 c 0,-3.98 -2.04,-8.53 -3,-9.73 -14.01,-17.75 -43.79,-55.11 -58.54,-73.65 -9.85,-12.35 -1.23,-28.8 13.25,-28.8 l 47.86,0.25 h 82.48 l 88.41,-0.25 c 4.98,0 9.4,1.86 12.1,5.27 13.06,16.52 38.2,48.04 51.21,64.35 10.55,13.25 2.43,29.86 -12.27,29.86"
         style="fill:#70227f;fill-opacity:1;fill-rule:nonzero;stroke:none"
         id="path32"
         inkscape:connector-curvature="0" /><path
         d="m 3139.18,2501.17 c 0,-3.76 -6.38,-9.76 -9.27,-12.13 -17.2,-14.18 -34.03,-24.98 -50.55,-32.35 -18.06,-8.07 -35.48,-9.76 -52.28,-9.76 -25.87,0 -51.7,9.38 -68.93,28.25 -17.23,18.84 -25.85,42.21 -25.85,70.16 0,38.86 14.92,65.01 44.12,84.26 29.15,19.25 76.7,28.52 134.65,28.52 h 28.11 z m 220.96,-47.69 c -36.63,-1.67 -54.43,15.54 -54.43,57.04 v 298.12 c 0,130.95 -109.56,213.59 -232.84,213.59 -191.21,0 -260.39,-90.61 -268.13,-191.94 -0.79,-10.11 7.36,-18.73 17.51,-18.73 h 93.99 c 9.11,0 16.5,7.04 17.37,16.12 5.21,52.95 40.25,91.4 99.94,91.4 65.9,0 105.61,-32.88 105.61,-108.39 v -64.65 h -34.01 c -117.25,0 -198.89,-15.03 -253.37,-49.41 -54.51,-34.36 -81.81,-96.94 -81.81,-170.76 0,-54.23 18.74,-99.09 56.2,-134.67 37.47,-35.51 80.74,-50.94 138.44,-50.94 33.68,0 66.73,7.44 99.09,22.36 28.31,13.06 56.01,29.48 83.23,53.91 6.02,5.4 15.27,3.9 19.33,-3.11 27.08,-46.68 55.82,-62.22 112.1,-62.22 50.44,0 74.88,47.41 96.72,75.45 7.82,10.03 -1.09,27.43 -14.94,26.83"
         style="fill:#70227f;fill-opacity:1;fill-rule:nonzero;stroke:none"
         id="path34"
         inkscape:connector-curvature="0" /><path
         d="m 4362.41,2971.07 v -21.41 h 13.66 c 6.98,0 9.57,5.35 9.57,10.66 0,5.27 -2.59,10.75 -9.27,10.75 z m 31.57,-50.15 h -9.4 l -14.86,21.49 h -7.31 v -21.49 h -7.86 v 57.4 h 22.09 c 12.08,0 16.99,-9 16.99,-18 0,-8.5 -4.25,-16.74 -15,-17.64 l 15.35,-21.76"
         style="fill:#70227f;fill-opacity:1;fill-rule:nonzero;stroke:none"
         id="path36"
         inkscape:connector-curvature="0" /><path
         d="m 4371.89,2999.21 c -27.4,0 -49.63,-22.23 -49.63,-49.63 0,-27.4 22.23,-49.63 49.63,-49.63 27.41,0 49.6,22.23 49.6,49.63 0,27.4 -22.19,49.63 -49.6,49.63 m 0,-7.23 c 23.37,0 42.38,-19.03 42.38,-42.4 0,-23.37 -19.01,-42.4 -42.38,-42.4 -23.37,0 -42.4,19.03 -42.4,42.4 0,23.37 19.03,42.4 42.4,42.4"
         style="fill:#70227f;fill-opacity:1;fill-rule:nonzero;stroke:none"
         id="path38"
         inkscape:connector-curvature="0" /></g></g></svg>