<?xml version="1.0" encoding="UTF-8" standalone="no"?>
<!-- Created with Inkscape (http://www.inkscape.org/) -->

<svg
   width="229.08409mm"
   height="222.99426mm"
   viewBox="0 0 229.08409 222.99427"
   version="1.1"
   id="svg1369"
   inkscape:version="1.1 (c68e22c387, 2021-05-23)"
   sodipodi:docname="design.svg"
   xmlns:inkscape="http://www.inkscape.org/namespaces/inkscape"
   xmlns:sodipodi="http://sodipodi.sourceforge.net/DTD/sodipodi-0.dtd"
   xmlns="http://www.w3.org/2000/svg"
   xmlns:svg="http://www.w3.org/2000/svg">
  <sodipodi:namedview
     id="namedview1371"
     pagecolor="#505050"
     bordercolor="#eeeeee"
     borderopacity="1"
     inkscape:pageshadow="0"
     inkscape:pageopacity="0"
     inkscape:pagecheckerboard="0"
     inkscape:document-units="mm"
     showgrid="false"
     inkscape:zoom="0.70710678"
     inkscape:cx="570.63517"
     inkscape:cy="487.19657"
     inkscape:window-width="1920"
     inkscape:window-height="1017"
     inkscape:window-x="-8"
     inkscape:window-y="-8"
     inkscape:window-maximized="1"
     inkscape:current-layer="g7652" />
  <defs
     id="defs1366" />
  <g
     inkscape:label="Layer 1"
     inkscape:groupmode="layer"
     id="layer1"
     transform="translate(24.644444,17.745242)">
    <g
       id="g6354"
       transform="translate(62.11298,57.829327)">
      <g
         id="g7652"
         transform="translate(5.4820457,-1.4550014)">
        <path
           id="path7638-8"
           style="color:#000000;fill:none;stroke:#ffffff;stroke-width:7.99999;stroke-miterlimit:4;stroke-dasharray:none;stroke-opacity:1"
           d="m 41.000269,-70.118186 c 1.998324,-0.01797 3.081036,0.09999 4.958353,0.444418 4.47802,0.821569 6.828295,1.484953 10.937835,3.087151 2.067319,0.805984 5.088342,1.954133 6.713802,2.551266 3.501239,1.286232 6.774024,2.768248 8.856824,4.011123 0.828939,0.494662 2.161722,1.238871 2.962092,1.653645 1.72484,0.893879 4.305427,2.608329 5.420858,3.60185 0.958109,0.853379 3.094524,2.321322 3.388423,2.328021 0.1157,0.0026 1.121103,-0.609695 2.233972,-1.360638 3.3239,-2.242955 7.03538,-3.835794 11.745018,-5.041554 3.478004,-0.890431 4.328904,-1.027189 4.868444,-0.781349 1.18459,0.539727 0.72326,2.658311 -1.24489,5.719549 -0.55658,0.865677 -1.01183,1.667946 -1.01183,1.782836 0,0.558192 -3.126489,5.142447 -4.273119,6.265251 -1.382019,1.353304 -4.998307,3.407482 -7.532357,4.279326 -2.544659,0.875483 -2.839315,1.16069 -2.647383,2.561085 0.09006,0.656958 0.596466,2.163103 1.124995,3.346563 0.528531,1.183463 1.171524,2.628056 1.428853,3.21014 0.257342,0.582083 0.612103,1.594114 0.788583,2.248958 0.176479,0.654846 0.416993,1.42875 0.534333,1.719792 0.474031,1.17571 0.7971,3.175428 1.054201,6.526733 0.295119,3.846994 0.358301,4.205298 1.534274,8.686808 0.868648,3.3104747 0.979744,3.636534 2.003494,5.86631 0.75375,1.6416311 2.306214,3.1295234 3.265434,3.1295234 0.330229,2.6e-6 1.095148,-0.4464844 1.699638,-0.9921875 1.248494,-1.1270456 4.494344,-4.9768359 6.404254,-7.5959179 2.30971,-3.167306 5.47644,-6.24034 8.0021,-7.764901 1.27905,-0.772073 2.81317,-1.534046 3.4091,-1.693437 0.96975,-0.259365 1.25707,-0.211833 2.73781,0.452686 2.18487,0.980509 2.81555,1.781316 3.37189,4.281909 0.38904,1.748665 0.40878,2.327365 0.13901,4.089675 -0.68067,4.4464337 -3.0895,9.6902663 -6.56239,14.28698095 C 110.03273,10.418141 107.42106,13.268238 102.0198,17.46975 c -3.01919,2.348563 -3.081922,2.417749 -3.304191,3.633369 -0.396221,2.166644 0.810641,9.548786 2.360061,14.435294 0.41527,1.30969 0.8379,2.888464 0.93948,3.50883 0.39854,2.434378 3.26032,9.261948 7.4011,17.657836 2.37377,4.813041 5.50241,10.246963 9.67383,16.801041 1.06511,1.673493 2.19865,3.459422 2.51922,3.96875 0.74454,1.183003 3.82612,6.849589 3.82612,7.035747 0,0.07739 0.28503,0.758116 0.63304,1.513086 0.348,0.754991 1.05027,2.280182 1.56063,3.389458 2.8703,6.23855 4.23283,10.926319 4.95215,17.033579 0.61968,5.26122 0.36627,7.50284 -1.48983,13.16354 -1.09919,3.35225 -4.18711,6.97544 -7.12928,8.36539 -2.19787,1.03833 -4.72007,1.22802 -14.93087,1.12189 -6.79003,-0.0706 -9.183406,-0.003 -11.377085,0.32298 -1.527971,0.22691 -4.266406,0.61591 -6.085417,0.86403 -2.846599,0.38833 -4.28395,0.792 -10.318749,2.89905 -3.8563,1.34644 -7.487711,2.65247 -8.069792,2.90214 -1.2568,0.53902 -9.065617,1.0023 -10.651545,0.63201 -0.544441,-0.1271 -4.50246,-0.30688 -8.79533,-0.39998 -8.325059,-0.18052 -11.99629,0.0707 -18.25625,1.24902 -4.392641,0.82685 -12.806939,3.2947 -14.86886,4.36097 -0.476229,0.24628 -2.236732,0.91185 -3.912423,1.47898 -4.59364,1.55469 -6.8441412,1.61851 -13.3655911,0.38034 -4.9308094,-0.93614 -6.4793045,-1.26271 -8.3343749,-1.75803 -0.5093203,-0.136 -1.9976015,-0.32265 -3.3072917,-0.41445 -2.4649903,-0.1728 -3.8815163,0.11123 -14.0229163,2.80914 -3.783042,1.0064 -7.69348,0.17966 -9.863487,-2.08515 -1.567497,-1.63599 -3.090889,-4.92594 -3.490727,-7.53804 -0.530172,-3.46321 -0.379518,-5.98158 0.620104,-10.36216 1.113763,-4.88095 1.736804,-6.56333 3.212729,-8.67544 6.696729,-9.58324 8.294921,-13.14959 9.807152,-21.883933 0.763,-4.4069 0.843449,-6.937751 0.383439,-12.038542 -0.144351,-1.600729 -0.390485,-4.577807 -0.547253,-6.615099 -0.453522,-5.894229 -1.163595,-10.071338 -2.406055,-14.155208 -1.07238,-3.524851 -1.271669,-3.94685 -2.052587,-4.348573 -2.01848,-1.038354 -12.998132,-4.206398 -14.779969,-4.316015 0.01376,0.0554 0.03149,0.116247 0.04495,0.17105 0.196559,0.80037 0.554143,2.110058 0.794782,2.910417 0.770969,2.56418 1.110191,3.972877 0.420132,4.567679 -0.386133,0.33282 -0.948717,0.416015 -1.071774,0.459404 -0.498052,0.175586 -1.473968,-0.230949 -2.751244,-1.034563 -0.298529,-0.173572 -0.57441,-0.342164 -0.758613,-0.498676 -6.108568,-4.186658 -17.554072,-15.584207 -20.280947,-19.752799 -4.797663,-7.334171 -11.680772,-20.556826 -11.765677,-22.546429 -0.01111,-0.262954 -0.04162,-0.403918 -0.01191,-0.498676 -3.607329,-0.751692 -3.819552,-4.175686 -3.673184,-7.3964483 0.794358,-2.9668046 -0.32131,-5.4639553 -1.784879,-7.763867 5.809773,2.2716463 12.881266,4.0760517 14.578938,8.7364172 0.04842,0.037521 0.964671,0.7487341 1.084183,0.9911531 6.349709,5.904989 10.076154,10.538158 11.644233,12.706202 l 3.369839,-0.134359 c 3.327903,-0.132762 4.245372,-0.07619 6.469883,0.39946 2.772304,0.592783 7.856008,2.328199 10.240195,3.495911 2.581434,1.264338 3.250115,1.430319 4.088633,1.014923 l 0.741574,-0.367419 0.0708,-10.053651 c 0.03897,-5.529791 0.203121,-11.9591661 0.364834,-14.2874994 0.161687,-2.3283333 0.361262,-5.3644243 0.443362,-6.7468749 0.164942,-2.7771169 1.131491,-7.7449657 2.109444,-10.8406797 0.348271,-1.10248 0.744707,-2.789585 0.880565,-3.749125 0.135893,-0.959541 0.436705,-2.111439 0.668695,-2.56005 0.231978,-0.448614 0.421679,-1.039794 0.421679,-1.313617 0,-0.55549 1.751381,-5.550876 2.663921,-7.598502 0.324249,-0.727604 1.290661,-2.426711 2.147673,-3.775996 0.85698,-1.349282 2.282946,-3.885808 3.168798,-5.636866 1.420519,-2.80798 1.592882,-3.314094 1.462442,-4.286559 -0.18582,-1.385335 -0.999302,-2.085176 -4.39973,-3.785817 -1.37356,-0.686962 -3.001192,-1.713532 -3.617351,-2.281513 -2.473331,-2.27983 -7.001508,-8.505547 -7.632618,-10.493933 -0.223309,-0.703562 0.289348,-0.954693 2.808102,-1.376662 1.624383,-0.272118 2.811314,-0.275894 5.997054,-0.0186 7.080231,0.57182 10.73668,2.164723 13.6007206,5.925736 1.1358007,1.491522 1.9141599,1.512935 4.5051503,0.123507 1.2038304,-0.645552 3.4968524,-2.059895 5.09581413,-3.142959 4.40686817,-2.985061 7.45946927,-4.84224 9.65419097,-5.873543 2.102199,-0.987833 4.253497,-1.756485 4.914429,-1.756485 0.21899,3e-6 0.840367,-0.218506 1.380275,-0.48524 0.539912,-0.266737 2.410087,-0.747384 4.156337,-1.068152 1.74625,-0.320768 4.008432,-0.758934 5.027083,-0.973585 7.165549,-1.509942 8.592077,-1.717519 12.813689,-1.86655 0.932995,-0.03294 1.700673,-0.05396 2.36678,-0.05995 z"
           inkscape:label="path7638-8" />
        <g
           id="g8597"
           transform="matrix(-1,0,0,1,7.5635519,-11.112756)">
          <path
             style="color:#000000;fill:#d1b46b;stroke-width:0.264583px;-inkscape-stroke:none"
             d="m 75.233168,20.984182 0.385419,1.592156 2.811148,3.83744 4.596002,1.160158 1.070915,-0.223107 c 3.894421,-0.622015 4.121646,-4.144311 3.971307,-7.451772 -0.794345,-2.966805 0.321275,-5.46421 1.784855,-7.764123 -5.856595,2.289949 -12.996032,4.104723 -14.619644,8.849248"
             id="path7638" />
          <path
             style="color:#000000;fill:#cf2db7;stroke-width:4.60499;stroke-linejoin:round;-inkscape-stroke:none;paint-order:stroke markers fill"
             d="M -52.259871,11.766699 A 13.251878,13.504294 0 0 1 -65.511749,25.270993 13.251878,13.504294 0 0 1 -78.763627,11.766699 13.251878,13.504294 0 0 1 -65.511749,-1.7375956 13.251878,13.504294 0 0 1 -52.259871,11.766699 Z"
             id="path7640" />
          <path
             style="color:#000000;fill:#ffffff;stroke-width:1.806;stroke-linejoin:round;-inkscape-stroke:none;paint-order:stroke markers fill"
             d="M 24.987981,-9.6382208 A 34.626202,36.768028 0 0 1 -9.6382208,27.129807 34.626202,36.768028 0 0 1 -44.264422,-9.6382208 34.626202,36.768028 0 0 1 -9.6382208,-46.406249 34.626202,36.768028 0 0 1 24.987981,-9.6382208 Z"
             id="path7642" />
          <path
             style="color:#000000;fill:#d1b46b;stroke-width:1.806;stroke-linejoin:round;-inkscape-stroke:none;paint-order:stroke markers fill"
             d="M -56.541348,107.65573 A 21.329212,19.814713 0 0 1 -77.87056,127.47044 21.329212,19.814713 0 0 1 -99.199772,107.65573 21.329212,19.814713 0 0 1 -77.87056,87.841019 21.329212,19.814713 0 0 1 -56.541348,107.65573 Z"
             id="path7644" />
          <path
             style="color:#000000;fill:#51dbf6;stroke-width:1.806;stroke-linejoin:round;-inkscape-stroke:none;paint-order:stroke markers fill"
             d="M 19.436086,103.74327 A 20.445753,18.42642 0 0 1 -1.0096669,122.16969 20.445753,18.42642 0 0 1 -21.45542,103.74327 20.445753,18.42642 0 0 1 -1.0096669,85.316851 20.445753,18.42642 0 0 1 19.436086,103.74327 Z"
             id="path7646" />
          <path
             style="color:#000000;fill:#cb7cd7;stroke-width:0.264583;-inkscape-stroke:none"
             d="m 29.89777,155.53616 c -10.1414,-2.69791 -11.55793,-2.98165 -14.02292,-2.80885 -1.30969,0.0918 -2.79797,0.27821 -3.30729,0.41421 -1.85507,0.49532 -3.40357,0.82201 -8.33438,1.75815 -6.52145,1.23817 -8.77178,1.17409 -13.36542,-0.3806 -1.67569,-0.56713 -3.43633,-1.23261 -3.91256,-1.47889 -2.06192,-1.06627 -10.47625,-3.53417 -14.86889,-4.36102 -6.25996,-1.17837 -9.93119,-1.42954 -18.25625,-1.24902 -4.29287,0.0931 -8.25066,0.27324 -8.7951,0.40034 -1.58593,0.37029 -9.39498,-0.0933 -10.65178,-0.63232 -0.58208,-0.24967 -4.21349,-1.55554 -8.06979,-2.90198 -6.0348,-2.10704 -7.47215,-2.5109 -10.31875,-2.89923 -1.81901,-0.24812 -4.55745,-0.63679 -6.08542,-0.8637 -2.19368,-0.32578 -4.58705,-0.39378 -11.37708,-0.32322 -10.2108,0.10613 -12.7327,-0.0833 -14.93057,-1.12164 -2.94217,-1.38994 -6.03014,-5.01338 -7.12933,-8.36563 -1.8561,-5.6607 -2.10989,-7.90255 -1.49021,-13.16376 0.71932,-6.10727 2.08219,-10.79458 4.95249,-17.03313 0.51036,-1.109276 1.2127,-2.634566 1.5607,-3.389556 0.34801,-0.75497 0.63275,-1.43598 0.63275,-1.51337 0,-0.18616 3.0815,-5.85282 3.82604,-7.03582 0.32057,-0.50933 1.45428,-2.29526 2.51939,-3.96875 4.17142,-6.55408 7.30027,-11.98801 9.67404,-16.80105 4.140778,-8.39589 7.0023,-15.223115 7.40084,-17.657493 0.10158,-0.620368 0.52443,-2.199481 0.9397,-3.509169 1.54942,-4.88651 2.75635,-12.268279 2.36013,-14.434923 -0.22227,-1.21562 -0.28532,-1.28493 -3.30451,-3.633494 -5.40126,-4.201512 -8.01307,-7.051397 -15.29223,-16.686109 -3.47289,-4.596715 -5.88142,-9.840561 -6.56209,-14.286997 -0.26977,-1.762308 -0.25011,-2.341452 0.13893,-4.090115 0.55634,-2.500595 1.18682,-3.301264 3.37169,-4.281773 1.48074,-0.664519 1.76824,-0.712049 2.73799,-0.452681 0.59592,0.159388 2.13003,0.921496 3.40908,1.693569 2.52566,1.524561 5.69259,4.597503 8.002295,7.764809 1.909921,2.619081 5.155565,6.468687 6.404055,7.595735 0.60449,0.545703 1.36927,0.992188 1.6995,0.992188 0.95922,0 2.51174,-1.487885 3.26549,-3.129516 1.02375,-2.229776 1.13514,-2.555846 2.00379,-5.866318 1.17597,-4.48151 1.2392,-4.839599 1.53432,-8.686591 0.2571,-3.351307 0.58007,-5.35124 1.0541,-6.52695 0.11734,-0.291042 0.35774,-1.064948 0.53422,-1.719792 0.17648,-0.654844 0.53144,-1.666875 0.78878,-2.248958 0.25733,-0.582084 0.90032,-2.026619 1.42885,-3.210081 0.52853,-1.183461 1.03463,-2.68926 1.12469,-3.346218 0.19193,-1.400394 -0.10281,-1.685536 -2.64747,-2.561018 -2.53405,-0.871845 -6.14995,-2.926419 -7.53197,-4.279723 -1.14663,-1.122804 -4.2734,-5.706703 -4.2734,-6.264894 0,-0.11489 -0.45537,-0.917175 -1.01195,-1.782852 -1.968154,-3.061238 -2.429191,-5.179955 -1.244598,-5.719681 0.539538,-0.24584 1.390598,-0.109291 4.868598,0.78114 4.70964,1.205759 8.42095,2.798979 11.74485,5.041932 1.11287,0.750945 2.11805,1.363186 2.23375,1.360538 0.2939,-0.0067 2.43059,-1.474592 3.3887,-2.327971 1.11543,-0.993519 3.69581,-2.70818 5.42065,-3.602059 0.80037,-0.414774 2.13345,-1.158862 2.96239,-1.653524 2.0828,-1.242875 5.35529,-2.72505 8.85653,-4.011282 1.62546,-0.597133 4.64682,-1.745141 6.71414,-2.551126 4.10954,-1.602197 6.4597,-2.265508 10.93772,-3.087076 2.50309,-0.459237 3.59309,-0.516488 7.32507,-0.384741 4.22161,0.149032 5.64798,0.356836 12.81353,1.866781 1.01865,0.214651 3.28083,0.652719 5.02708,0.973487 1.74625,0.320767 3.61675,0.801449 4.15666,1.068186 0.53991,0.266734 1.16081,0.484973 1.3798,0.484973 0.66093,0 2.81239,0.769152 4.91459,1.756984 2.19472,1.031304 5.24716,2.888396 9.65403,5.873457 1.59896,1.083064 3.8921,2.497389 5.09593,3.14294 2.59099,1.389428 3.36934,1.368105 4.50514,-0.123417 2.86404,-3.761015 6.52039,-5.35413 13.60062,-5.92595 3.18574,-0.257291 4.37279,-0.25363 5.99718,0.01849 2.51875,0.421968 3.03149,0.673367 2.80818,1.376929 -0.63109,1.988386 -5.15906,8.213804 -7.63239,10.493634 -0.61616,0.567981 -2.24416,1.59475 -3.61772,2.281714 -3.40043,1.700639 -4.21386,2.400597 -4.39968,3.785931 -0.13044,0.972465 0.0422,1.478362 1.46272,4.286343 0.88585,1.751057 2.31183,4.287702 3.16881,5.636985 0.85701,1.349285 1.82351,3.048555 2.14776,3.776159 0.91254,2.047627 2.66358,7.042719 2.66358,7.598209 0,0.273823 0.18982,0.864907 0.4218,1.313519 0.23199,0.448612 0.53298,1.600734 0.66887,2.560275 0.13586,0.959541 0.532,2.646646 0.88027,3.749125 0.97795,3.095715 1.94463,8.063214 2.10955,10.840331 0.0821,1.382448 0.28157,4.418541 0.44328,6.746875 0.16171,2.328333 0.32591,8.757708 0.36489,14.2875 l 0.0709,10.054166 0.74128,0.367242 c 0.83852,0.415396 1.50733,0.249396 4.08877,-1.014942 2.38418,-1.167712 7.46792,-2.903355 10.24022,-3.496138 2.22451,-0.475654 3.14193,-0.53231 6.46983,-0.399547 l 3.87776,0.154697 1.5462,-1.897695 c 1.37885,-1.692299 3.0915,-3.565144 7.68239,-8.401005 0.76139,-0.802021 1.70378,-1.843818 2.09423,-2.315104 0.39042,-0.471284 0.81317,-0.856883 0.9394,-0.856883 0.12626,0 0.50938,0.632704 0.85135,1.406009 1.00722,2.277489 4.03117,4.332725 6.6706,4.533689 0.71493,0.05443 1.38276,0.109492 1.48407,0.122346 0.6567,0.08334 -3.03046,8.101766 -6.45896,14.04629 -0.79734,1.382448 -1.94545,3.375475 -2.5514,4.428966 -2.68703,4.671642 -4.35292,6.794421 -8.88659,11.323659 -6.22408,6.21803 -9.76392,9.54911 -11.78827,11.09306 -0.94588,0.72144 -1.88034,1.5318 -2.07655,1.80083 -0.45665,0.62609 -3.03538,1.85399 -3.64644,1.7363 -0.25633,-0.0494 -0.66969,-0.44656 -0.91858,-0.88265 -0.43339,-0.75935 -0.42659,-0.88794 0.16081,-3.04183 0.33735,-1.23693 0.74084,-2.65779 0.8967,-3.15749 0.15584,-0.49966 0.24847,-0.94339 0.20582,-0.98602 -0.38494,-0.38494 -12.85946,3.17934 -15.02354,4.2926 -0.78092,0.40172 -0.98023,0.82397 -2.05261,4.34882 -1.24246,4.08387 -1.95247,8.26098 -2.40599,14.15521 -0.15677,2.03729 -0.40315,5.01386 -0.5475,6.61459 -0.46001,5.10079 -0.37936,7.63165 0.38364,12.03855 1.51223,8.73434 3.1105,12.30074 9.80723,21.88398 1.47593,2.11211 2.09897,3.79444 3.21273,8.67539 0.99963,4.38058 1.15036,6.89896 0.62019,10.36217 -0.39984,2.6121 -1.92363,5.90233 -3.49113,7.53832 -2.17,2.26481 -6.08028,3.0914 -9.86332,2.085 z M -77.40998,118.84623 c 0.33662,-0.42791 0.54837,-1.08601 0.54837,-1.70416 0,-0.55388 0.0893,-1.05804 0.19844,-1.1204 0.10914,-0.0623 0.93445,0.0114 1.83401,0.16406 1.95868,0.33222 2.38858,0.0952 2.63626,-1.45367 0.13073,-0.81761 0.2568,-1.002 0.59293,-0.86714 0.23479,0.0942 1.08175,0.23225 1.88211,0.30675 1.29799,0.12084 1.52067,0.0651 2.061,-0.51575 0.33319,-0.35819 0.67477,-1.0763 0.75906,-1.59578 0.12571,-0.77462 0.0341,-1.06376 -0.50921,-1.60705 -0.36439,-0.36439 -1.18222,-0.80217 -1.8174,-0.97288 -0.63521,-0.17068 -1.23174,-0.4337 -1.32564,-0.58449 -0.0939,-0.15078 0.29305,-0.71535 0.85989,-1.25457 0.56685,-0.53922 1.03063,-1.19573 1.03063,-1.45891 0,-0.26316 -0.47625,-0.91816 -1.05833,-1.45553 -0.58208,-0.53737 -1.05833,-1.13967 -1.05833,-1.33839 0,-0.19876 0.4803,-0.85077 1.06735,-1.44892 1.46622,-1.49397 1.67677,-2.758096 0.63971,-3.840566 -0.95956,-1.00158 -1.85057,-0.99898 -3.07334,0.009 -2.73323,2.252956 -4.09057,1.24436 -3.74984,-2.78638 l 0.16476,-1.94897 -0.93745,-0.93745 c -1.11,-1.11001 -2.26618,-1.24912 -3.13774,-0.37756 -0.46183,0.46183 -0.53809,0.78655 -0.43551,1.85433 0.0714,0.74327 -0.003,1.46759 -0.1729,1.70104 -0.26736,0.36565 -0.39585,0.36541 -1.2758,-0.003 -2.10772,-0.88064 -3.22688,-0.28795 -3.6382,1.92672 -0.40828,2.19848 -0.58447,2.30029 -2.1286,1.23021 -1.95025,-1.35152 -3.34145,-1.31345 -4.07837,0.1116 -0.75644,1.462836 -0.29229,3.466396 0.80306,3.466396 0.39235,0 0.82286,1.12889 0.47496,1.2455 -0.12846,0.043 -0.65027,0.28643 -1.15959,0.54086 -0.79383,0.39655 -0.92604,0.59481 -0.92604,1.38864 0,0.85661 0.10408,0.97562 1.38811,1.5875 1.0809,0.51506 1.38834,0.79644 1.38906,1.2714 0,0.48262 -0.30316,0.74917 -1.45569,1.27682 -1.62904,0.74581 -1.98294,1.21235 -1.98294,2.61411 0,0.71247 0.20166,1.16547 0.7734,1.73718 1.13935,1.13937 2.04277,1.04497 3.23204,-0.33769 0.82209,-0.95578 1.02302,-1.06923 1.37552,-0.77668 0.22704,0.18843 0.55301,0.77957 0.72438,1.31363 0.59086,1.8415 1.73249,2.61622 2.94349,1.9975 1.15816,-0.59169 1.52707,-0.44908 2.08169,0.80473 1.056,2.38728 3.30078,3.31184 4.46069,1.83726 z m 86.33952,-4.65175 c 0.57457,-0.65839 0.59039,-1.57485 0.0453,-2.62885 -0.51424,-0.99443 -1.15168,-3.06469 -0.99261,-3.22376 0.0643,-0.0643 0.51345,0.005 0.99801,0.15343 1.80949,0.55534 3.5873,-0.34036 3.5873,-1.80739 0,-0.79539 -0.98502,-1.95758 -2.0288,-2.39369 -1.13541,-0.4744 -1.11842,-0.82203 0.0509,-1.0414 2.32698,-0.43653 2.18818,-2.95452 -0.20492,-3.717956 -0.84955,-0.27101 -0.86067,-0.33203 -0.28157,-1.54636 0.36152,-0.75813 0.38259,-1.04462 0.11927,-1.6225 -0.29366,-0.64455 -0.41801,-0.69072 -1.52389,-0.56608 -1.13451,0.12788 -1.19391,0.10303 -1.0268,-0.42968 0.0976,-0.31099 0.23995,-1.16904 0.31644,-1.90677 0.10748,-1.03661 0.038,-1.44235 -0.30554,-1.78594 -1.03756,-1.03756 -2.31296,-0.14068 -3.31671,2.33235 L 3.78371,95.444404 3.125,94.661584 c -0.75308,-0.89501 -1.8487,-1.03129 -3.08927,-0.38428 -1.07315,0.55967 -1.13081,0.53131 -1.64243,-0.80836 -0.75049,-1.96519 -2.25327,-2.77577 -3.33359,-1.7981 -0.58756,0.53173 -0.61548,1.38072 -0.087,2.64562 0.39018,0.93382 0.53586,2.20816 0.25246,2.20816 -0.0794,0 -0.70355,-0.29766 -1.38694,-0.66146 -1.46164,-0.77809 -1.83304,-0.81153 -2.48272,-0.22357 -0.77388,0.70037 -0.57076,1.42163 0.75933,2.69607 1.14514,1.09726 1.20375,1.21362 0.74316,1.47598 -0.92255,0.525546 -1.72175,1.446806 -1.72175,1.984696 0,0.29329 0.3511,0.79285 0.78026,1.11014 l 0.78023,0.57687 -0.8967,1.74615 c -1.12144,2.18382 -1.31191,2.94764 -0.87403,3.50538 0.77608,0.98854 1.45209,0.86096 2.9514,-0.55702 l 1.42277,-1.3456 0.17301,1.08194 c 0.30557,1.9109 2.05005,2.93399 3.59392,2.10772 0.40436,-0.2164 0.58118,-0.10263 1.03441,0.66554 0.71329,1.20893 1.65532,1.57874 2.67648,1.05068 l 0.76406,-0.39513 1.23621,1.60655 c 0.67993,0.88361 1.49027,1.7062 1.80076,1.82793 0.77695,0.30469 1.79644,0.0518 2.35045,-0.58301 z M -61.19523,18.058504 c 0.23651,-0.519094 0.23519,-0.955355 -0.006,-1.85588 -0.45101,-1.686277 -0.44389,-1.698837 0.96557,-1.698837 1.1081,0 1.32091,-0.08878 1.58099,-0.659651 0.26345,-0.578175 0.20334,-0.770392 -0.4867,-1.556282 -0.8641,-0.984162 -1.0705,-2.381252 -0.39036,-2.642248 0.56755,-0.217789 0.48995,-1.325568 -0.1323,-1.888694 -0.29104,-0.26339 -0.52916,-0.764005 -0.52916,-1.11248 0,-0.853705 -0.67948,-2.115034 -1.32567,-2.46086 -0.30028,-0.160714 -0.52642,-0.553623 -0.52642,-0.914681 0,-0.772118 -1.13416,-1.729504 -1.83253,-1.546884 -0.2768,0.07239 -0.7724,0.418063 -1.1013,0.76816 -0.83275,0.886417 -1.48487,0.801028 -2.12137,-0.277773 -0.98058,-1.661911 -2.11392,-1.485781 -2.6238,0.407752 -0.25564,0.949351 -0.32835,1.008526 -1.05958,0.86228 -1.4397,-0.287938 -2.06255,0.954479 -1.13934,2.272583 0.42148,0.601715 0.41322,0.651748 -0.18767,1.138314 -0.48517,0.392866 -0.61913,0.743725 -0.58746,1.538462 0.0267,0.668925 -0.19201,1.446559 -0.62439,2.220151 -0.73342,1.312264 -0.75086,2.448634 -0.0443,2.890951 0.3446,0.215728 0.73425,0.146079 1.6373,-0.292658 l 1.18509,-0.575758 0.47938,0.980803 c 0.39788,0.814059 0.6368,0.995566 1.40541,1.067636 0.50932,0.04776 1.10464,0.246041 1.32292,0.440634 0.21828,0.194591 0.85809,0.43942 1.42179,0.544066 0.772,0.143314 1.13109,0.389572 1.45521,0.997908 1.08196,2.030788 2.65792,2.683986 3.26437,1.352986 z M 0.33733,17.313445 c 2.88229,-0.806129 3.35531,-1.035187 6.67398,-3.231763 2.80088,-1.853864 3.64122,-2.605202 6.84763,-6.122424 2.74778,-3.014142 2.60681,-2.808648 4.42169,-6.445838 2.02917,-4.066619 2.43911,-5.370671 2.76082,-8.781997 0.15105,-1.601806 0.3365,-3.012485 0.41214,-3.134839 0.29073,-0.470413 0.12928,-4.445997 -0.28252,-6.956276 -0.77592,-4.730168 -2.93325,-8.960298 -7.43712,-14.582834 -2.20954,-2.758329 -4.0114,-4.202583 -7.44643,-5.968505 -4.79597,-2.465581 -8.07702,-3.4471 -13.12056,-3.924977 -5.59459,-0.530093 -9.52799,0.411877 -14.38791,3.445621 -4.17407,2.605598 -7.43609,5.837142 -10.39334,10.296258 -2.63133,3.967665 -3.77923,6.398836 -4.61533,9.775063 -0.99084,4.000963 -1.28265,7.161612 -0.95549,10.349552 0.5149,5.017673 2.05202,9.430322 4.60266,13.212885 1.5553,2.3065 5.28093,5.693018 8.81084,8.008884 3.93684,2.582826 4.43574,2.848671 6.57354,3.502867 4.2304,1.294553 5.3534,1.440442 10.31875,1.340535 4.1351,-0.0832 5.08583,-0.186251 7.21665,-0.782212 z M -4.63036,5.528433 C -8.82742,4.510866 -11.74855,2.911669 -14.5199,0.11429 c -3.34203,-3.373429 -5.16607,-6.965058 -5.8501,-11.519151 -0.22177,-1.476655 -0.34734,-3.127158 -0.27903,-3.667778 0.45223,-3.578352 0.76954,-5.377117 0.97052,-5.50132 0.12732,-0.07869 0.23149,-0.323938 0.23149,-0.545 0,-0.564004 1.85044,-4.349699 2.43041,-4.97223 0.264,-0.283371 0.48,-0.620828 0.48,-0.749905 0,-0.129075 0.83445,-1.051119 1.85433,-2.048984 3.96696,-3.881311 9.59067,-6.258592 13.45703,-5.688616 2.12373,0.313079 5.19904,1.11365 6.13998,1.598375 1.60181,0.825174 3.82021,2.607529 5.75225,4.621606 1.18546,1.235787 4.38441,5.806443 4.19587,5.995004 -0.0591,0.05908 -0.95933,-0.771136 -2.00054,-1.844935 -1.13112,-1.16654 -2.45002,-2.225601 -3.27674,-2.631217 -3.30898,-1.6235 -3.40968,-1.651143 -6.01384,-1.651143 -2.17115,0 -2.71886,0.09624 -4.02074,0.706485 -3.45665,1.620268 -4.88945,4.170129 -4.64432,8.265176 0.2149,3.589919 1.9766,7.16834 5.25931,10.68284 2.79765,2.995197 5.00103,3.924657 8.73088,3.683008 1.27847,-0.08283 2.71669,-0.338098 3.19604,-0.567267 0.47934,-0.229166 1.95778,-1.472535 3.28541,-2.763041 2.30203,-2.237687 2.40972,-2.308074 2.32431,-1.519496 -0.65717,6.067464 -0.94517,7.026669 -2.86068,9.527106 -1.70566,2.226519 -6.0475,4.879297 -9.55997,5.840925 -2.4406,0.668184 -7.48774,0.751536 -9.91233,0.163701 z m -4.8124,-18.022454 c 1.59237,-1.483508 -0.44971,-3.964281 -2.15749,-2.620957 -0.85812,0.675008 -0.92699,1.761916 -0.16354,2.581376 0.67543,0.725011 1.56895,0.740248 2.32103,0.03958 z m 2.27957,-5.167569 c 0.78346,-0.783463 0.81624,-1.734733 0.10398,-3.018033 -1.51021,-2.720996 -4.5508,-3.2615 -5.14006,-0.913712 -0.26032,1.037248 0.0815,1.835933 1.33991,3.130753 1.01295,1.042239 1.33239,1.216369 2.23149,1.216369 0.60071,0 1.22688,-0.17758 1.46468,-0.415377 z"
             id="path7648" />
          <path
             style="color:#000000;fill:#04050a;stroke-width:0.264583;-inkscape-stroke:none"
             d="m 47.754825,71.167181 c -0.690071,-0.594803 -0.351095,-2.003493 0.419875,-4.567673 0.24064,-0.80036 0.59836,-2.11005 0.79492,-2.91042 0.80851,-3.29202 2.37569,-7.66537 4.45622,-12.435413 2.22371,-5.098309 6.47038,-13.213768 7.5456,-14.419792 0.25947,-0.291042 0.58237,-0.738082 0.71755,-0.993426 C 62.0739,35.11339 65.932887,29.541107 74.189756,21.862536 74.312425,21.6137 75.3001,20.850318 75.3001,20.850318 l 0.74585,1.347952 c 0.182421,0.329684 4.367214,3.981908 6.928513,4.636251 1.665038,0.425373 1.440714,0.202919 1.408404,0.959693 -0.0849,1.989603 -6.968068,15.212375 -11.765738,22.546546 -3.46424,5.295821 -21.006144,22.267499 -23.790599,21.285828 -0.123066,-0.04339 -0.685579,-0.126589 -1.071705,-0.459407 z M -14.81682,42.366268 c -0.29104,-0.07154 -1.09794,-0.385181 -1.79308,-0.696992 -1.31699,-0.590709 -1.71945,-1.258412 -1.38798,-2.302748 0.22204,-0.699585 0.91006,-0.701305 3.15526,-0.0079 3.14264,0.97065 5.59816,0.114962 8.51749,-2.968149 2.05486,-2.170131 2.77419,-3.662616 1.76091,-3.653573 -0.25466,0.0024 -1.17739,0.176626 -2.05052,0.387451 -2.40072,0.579675 -7.94742,0.520938 -10.8603,-0.115007 -6.36738,-1.390139 -8.82518,-2.596054 -13.6798,-6.711989 -1.26662,-1.073878 -1.52136,-1.431682 -1.52136,-2.136807 0,-1.966875 1.21113,-1.945677 3.44326,0.06027 3.27872,2.94648 6.41485,4.61264 10.84078,5.759466 2.10544,0.545563 3.15457,0.653053 6.50859,0.666848 4.89675,0.02013 7.65513,-0.582782 9.42279,-2.059614 0.5955,-0.49752 1.28421,-1.012413 1.53046,-1.144207 0.65111,-0.348467 1.47608,-0.05104 1.86282,0.671613 0.40312,0.75324 -0.0933,2.117249 -2.01276,5.529964 -2.23169,3.967935 -4.05694,5.977578 -7.05567,7.768357 -1.30226,0.77769 -1.72691,0.886857 -3.80871,0.979143 -1.28865,0.05715 -2.58114,0.04535 -2.87218,-0.02619 z M -4.63036,5.528433 c -5.8048,-1.300424 -9.6582,-3.965593 -13.03137,-9.013084 -1.53321,-2.294207 -2.49147,-4.877112 -2.94785,-7.945673 -0.3682,-2.475476 -0.36902,-3.067629 -0.008,-5.81992 0.22093,-1.685227 0.5152,-3.177569 0.65395,-3.316314 0.13872,-0.138748 0.25225,-0.403519 0.25225,-0.588383 0,-0.54854 1.31284,-3.253513 2.34601,-4.833708 3.66099,-5.599316 11.39899,-9.564973 16.5717,-8.492831 3.85345,0.798698 4.75094,1.077061 6.09082,1.889117 2.52433,1.529913 5.64337,4.54587 7.48784,7.240379 1.92426,2.811097 1.85036,3.069243 -0.27546,0.962419 -1.34027,-1.328291 -2.4492,-2.149981 -3.64591,-2.701505 -0.94588,-0.43593 -1.95791,-0.926256 -2.24896,-1.089612 -0.9711,-0.545063 -4.52096,-0.586669 -6.21789,-0.07288 -2.05727,0.622885 -4.24344,2.356612 -5.05799,4.0112 -0.5367,1.090176 -0.63037,1.673508 -0.63037,3.926242 0,2.389584 0.0854,2.855434 0.88213,4.810019 1.06743,2.618812 2.08727,4.2476 4.01267,6.408682 2.72087,3.053929 5.26356,4.160697 9.00231,3.918474 1.26365,-0.08187 2.70187,-0.319162 3.19606,-0.527317 0.49417,-0.208156 1.97414,-1.437402 3.2888,-2.731662 l 2.39027,-2.353196 -0.0855,0.926042 C 16.90673,-4.578338 16.36854,-2.780886 14.592,-0.503392 12.87509,1.697642 8.4171,4.419776 5.0272,5.33706 2.66233,5.976973 -2.19796,6.073287 -4.63009,5.52843 Z m -5.15007,-17.93748 c 0.92425,-0.605583 0.90152,-1.983975 -0.045,-2.728492 -0.38341,-0.301603 -0.8436,-0.54837 -1.02264,-0.54837 -0.17905,0 -0.63924,0.246767 -1.02264,0.54837 -0.85223,0.670351 -0.91887,1.759686 -0.15767,2.576741 0.64072,0.687747 1.3562,0.736047 2.24795,0.151751 z m 2.35265,-5.279739 c 1.10829,-1.108295 0.47652,-3.404164 -1.3122,-4.768485 -2.42898,-1.852655 -4.88513,0.368017 -3.27988,2.965389 1.20915,1.956451 3.52817,2.867017 4.59208,1.803096 z"
             id="path7650"
             sodipodi:nodetypes="ssssssccsssssscsscscssssssssssssscccsscsssssssssssscssssccssccssscssssss" />
        </g>
      </g>
    </g>
  </g>
</svg>
