<?xml version="1.0" encoding="UTF-8" standalone="no"?>
<!-- Created with Inkscape (http://www.inkscape.org/) -->

<svg
   width="222.9106mm"
   height="222.98163mm"
   viewBox="0 0 222.9106 222.98163"
   version="1.1"
   id="svg5"
   inkscape:version="1.1 (c68e22c387, 2021-05-23)"
   sodipodi:docname="gamedev.svg"
   xmlns:inkscape="http://www.inkscape.org/namespaces/inkscape"
   xmlns:sodipodi="http://sodipodi.sourceforge.net/DTD/sodipodi-0.dtd"
   xmlns="http://www.w3.org/2000/svg"
   xmlns:svg="http://www.w3.org/2000/svg">
  <sodipodi:namedview
     id="namedview7"
     pagecolor="#505050"
     bordercolor="#eeeeee"
     borderopacity="1"
     inkscape:pageshadow="0"
     inkscape:pageopacity="0"
     inkscape:pagecheckerboard="0"
     inkscape:document-units="mm"
     showgrid="false"
     inkscape:zoom="0.52410025"
     inkscape:cx="622.97242"
     inkscape:cy="697.38566"
     inkscape:window-width="1920"
     inkscape:window-height="1017"
     inkscape:window-x="-8"
     inkscape:window-y="-8"
     inkscape:window-maximized="1"
     inkscape:current-layer="g1355" />
  <defs
     id="defs2" />
  <g
     inkscape:label="Layer 1"
     inkscape:groupmode="layer"
     id="layer1"
     transform="translate(-0.71660076,-14.846941)">
    <g
       id="g1355"
       transform="translate(26.415865,-57.829327)">
      <path
         id="path1267-0"
         style="display:inline;fill:none;stroke:#fdfdfd;stroke-width:30.2362;stroke-linejoin:round;stroke-miterlimit:4;stroke-dasharray:none;stroke-opacity:1;paint-order:stroke markers fill"
         d="M 348.17188,0.00390625 C 328.16104,0.15300444 311.53001,4.0461994 284.10156,14.462891 c -42.50252,16.14147 -38.67144,14.442951 -66.00586,29.24414 -9.10189,4.92861 -16.99783,10.188524 -20.75586,13.826172 -2.29251,2.21918 -12.78555,9.255859 -13.80273,9.255859 -0.2891,0 -3.96771,-2.321935 -8.17383,-5.160156 -12.56277,-8.477299 -26.58846,-14.499441 -44.38867,-19.05664 -18.3072,-4.686989 -20.87305,-4.502823 -20.87305,1.498046 0,6.782302 18.34061,38.956068 27.0918,47.525391 5.2786,5.168844 18.90523,12.923887 28.52734,16.234377 9.61762,3.30894 10.73127,4.38492 10.00586,9.67773 -0.34038,2.483 -2.2524,8.17552 -4.25,12.64844 -1.99759,4.47292 -4.4278,9.93283 -5.40039,12.13281 -0.97262,2.19999 -2.31541,6.02498 -2.98242,8.5 -0.66701,2.47499 -1.57604,5.40001 -2.01953,6.5 -1.80832,4.48513 -3.0112,12.03165 -3.9336,24.66797 -0.71278,9.7646 -2.0264,17.4789 -4.9121,28.83203 -4.20091,16.52693 -4.49277,17.42257 -8.50977,26.17188 -2.84882,6.20458 -8.7164,11.82812 -12.3418,11.82812 -1.24811,0 -4.13914,-1.68751 -6.42383,-3.75 -4.7187,-4.25971 -16.98647,-18.8101 -24.20507,-28.70898 -8.729604,-11.9709 -20.698342,-23.58554 -30.244144,-29.34766 -4.834201,-2.91806 -10.632466,-5.79797 -12.884765,-6.40039 -3.665201,-0.98026 -4.751155,-0.80063 -10.347657,1.71094 -8.257799,3.70583 -10.641442,6.73251 -12.74414,16.18359 -1.476699,6.63761 -1.547465,8.78335 -0.509766,15.5625 2.633499,17.20313 11.389334,36.11544 25.177734,54.39063 28.383901,37.62024 35.633264,45.37185 61.626958,65.89453 3.97111,3.13527 7.47372,6.50486 7.78515,7.48633 2.3709,7.4702 -1.64674,35.59681 -7.99804,55.97851 -1.79963,5.77501 -3.59137,12.41702 -3.98047,14.76172 -1.5334,9.2383 -12.29534,34.89569 -27.994144,66.73828 -9.083003,18.4235 -23.122244,42.81955 -35.931641,62.43946 -8.253604,12.64187 -21.604293,35.68114 -23.496094,40.54687 -0.4658,1.1983 -4.425914,9.86327 -9.603515,21.01367 -7.884601,16.98017 -12.381764,30.11031 -15.072266,44 -0.7457008,3.85002 -1.8344702,9.25002 -2.4179688,12 -2.02730074,9.55442 -2.80174979,29.34202 -1.40624995,35.91602 2.45680255,11.57329 7.25608175,26.66903 9.92578075,31.22461 4.706,8.03021 15.910524,18.90926 22.794922,22.13086 8.619001,4.0334 17.872129,4.7412 56.673828,4.33789 25.728298,-0.26729 34.687798,-0.011 42.999998,1.22851 5.77501,0.86109 16.125,2.31757 23,3.23633 10.86429,1.45202 15.96771,2.88487 39,10.95117 14.57499,5.10441 28.30002,10.0525 30.5,10.9961 4.75011,2.03728 34.26375,3.79014 40.25782,2.39062 2.05772,-0.48038 17.01716,-1.1618 33.24218,-1.51367 31.4648,-0.68228 45.34031,0.26698 69,4.7207 16.9474,3.19011 49.37684,12.80036 57.04883,16.90625 1.25579,0.67212 7.496,2.9824 13.86719,5.13477 17.59521,5.94421 25.08403,6.14302 51.1289,1.35742 11.24981,-2.0671 23.35502,-4.60817 26.89844,-5.64648 3.5435,-1.03839 10.74351,-2.15638 16,-2.48633 9.9337,-0.6237 14.85424,0.35439 53.55664,10.65039 14.29811,3.80372 29.07772,0.67901 37.2793,-7.88086 5.91141,-6.16981 11.68419,-18.61999 13.1875,-28.44336 1.91641,-12.5235 1.44921,-21.85226 -1.86328,-37.30078 -4.41071,-20.57031 -8.65952,-31.13355 -15.97461,-39.70117 -4.52432,-5.29901 -14.24629,-20.61829 -19.16992,-30.20899 -6.18909,-12.0559 -11.28474,-28.70331 -14.53907,-47.5 -2.88378,-16.656 -3.18783,-26.22138 -1.44921,-45.5 0.54557,-6.05 1.47584,-17.3 2.06835,-25 1.7141,-22.2774 4.39784,-38.0649 9.09376,-53.5 4.07198,-13.3844 4.80195,-14.91582 7.87304,-16.5039 4.26293,-2.20449 35.82093,-12.21827 42.49414,-13.48438 3.29998,-0.62608 8.36737,-1.79858 11.25977,-2.60547 0.17844,-0.0498 0.31147,-0.0806 0.48047,-0.12695 0.67493,-0.18712 1.19893,-0.31273 1.71875,-0.43945 2.145,-0.48906 3.55272,-0.4639 5.40234,0.42578 0.32665,0.1656 0.75805,0.41533 1.14844,0.63672 1.3721,0.81887 3.01562,2.00122 5.36523,3.75586 0.56919,0.42506 1.16361,0.96902 1.7461,1.44726 2.83619,2.45754 5.78404,5.32542 8.28906,8.14258 0.37309,0.4317 0.7745,0.8537 1.13086,1.28711 0.15698,0.18546 0.30387,0.36591 0.45508,0.54883 1.06438,1.32374 2.05226,2.64586 2.89453,3.91601 1.03714,1.56398 2.12749,3.34083 3.20703,5.11133 1.68461,2.77166 3.3207,5.55605 4.74023,8.13867 2.38307,4.34625 4.22267,8.11282 4.66602,9.75 10.38421,38.3455 12.07189,43.05794 17.97461,50.17774 4.38429,5.28843 13.94488,9.82226 20.71484,9.82226 8.89731,0 18.67745,-6.42877 27.30664,-17.94726 7.78231,-10.388 10.16707,-13.8994 11.58008,-17.05274 0.8626,-1.92499 4.63343,-9.8 8.37891,-17.5 3.74551,-7.70003 7.70853,-16.24998 8.80664,-19 5.28238,-13.22868 12.23437,-39.46934 12.23437,-46.17773 0,-1.8028 1.05604,-6.10068 2.34766,-9.55078 1.31909,-3.52339 3.07717,-11.96948 4.00976,-19.27149 1.9801,-15.50358 1.09124,-21.76419 -4.41406,-31.10937 -2.28366,-3.87647 -4.7846,-7.13688 -7.69922,-10.04297 -0.44212,-0.49803 -0.88769,-1.00032 -1.29297,-1.39649 -0.48022,-0.46942 -1.26077,-1.06457 -2.16992,-1.70898 -3.41099,-2.76629 -7.36182,-5.23396 -12.20312,-7.61133 -5.3528,-2.62854 -8.89979,-4.13903 -11.9336,-4.83203 -0.28863,-0.0665 -0.59164,-0.15409 -0.87109,-0.20508 -1.48396,-0.41219 -2.6489,-0.49037 -4.29102,-0.16992 -1.83795,0.1805 -3.73439,0.6474 -6.04296,1.42578 -3.66093,1.23428 -9.24172,2.13725 -14.0918,2.28125 -3.13298,0.0929 -5.14699,0.13027 -6.93164,-0.1875 -2.7347,-0.73763 -5.66549,-2.4506 -9.6875,-5.2539 -0.76062,-0.53952 -1.25657,-0.85928 -2.16602,-1.51172 -0.88685,-0.63623 -1.73529,-1.17526 -2.58789,-1.64453 -0.56107,-0.31588 -1.16403,-0.55959 -1.75195,-0.8125 -0.27275,-0.11668 -0.53507,-0.26199 -0.81641,-0.36719 -0.52365,-0.19482 -1.15391,-0.36003 -1.74219,-0.52539 -0.42934,-0.12073 -0.84713,-0.25676 -1.31054,-0.36133 -1.32755,-0.30503 -2.81265,-0.5866 -4.66406,-0.86133 -5.6488,-0.83819 -8.12817,-1.30121 -10.42774,-2.66211 -1.25276,-0.78472 -2.44254,-1.83883 -4.16211,-3.44726 -4.74727,-4.44053 -6.38838,-7.24218 -14.13672,-24.13868 -3.95958,-8.63448 -6.38114,-11.35742 -10.10156,-11.35742 -0.48511,0 -1.72054,-0.69752 -2.93164,-1.55859 0,0 -0.002,-0.002 -0.002,-0.002 -0.14364,-0.12575 -0.3187,-0.26319 -0.37696,-0.35743 -0.22111,-0.35782 -0.77061,-0.66194 -1.41406,-0.85937 -1.20098,-0.71719 -2.52159,-1.22266 -3.30469,-1.22266 -1.04409,0 -4.05831,-1.09534 -6.69921,-2.43359 -4.91053,-2.48837 -8.66866,-4.06618 -12.44141,-5.07227 -0.30267,-0.0817 -0.60964,-0.18372 -0.91211,-0.25781 -0.32202,-0.0775 -0.65614,-0.13187 -0.98047,-0.20117 -2.86618,-0.62502 -5.81793,-0.94052 -9.24414,-1.02539 -0.95443,-0.0288 -2.00443,-0.0325 -3.05469,-0.0352 -0.002,2e-5 -0.004,-10e-6 -0.006,0 -0.41788,-10e-4 -0.78556,-0.0143 -1.2207,-0.0117 -6.17461,0.037 -12.42445,0.52339 -13.88867,1.08008 -0.53284,0.20255 -0.97293,0.33065 -1.41016,0.46094 -0.83285,0.15331 -1.39515,0.2293 -1.4707,0.18359 -0.0527,-0.0986 -0.11814,-0.364 -0.18359,-0.6289 -0.091,-0.31436 -0.20375,-0.93037 -0.32227,-1.62696 -0.2846,-1.6778 -0.60717,-4.06145 -0.91602,-6.67968 -0.0255,-0.22129 -0.0509,-0.37999 -0.0762,-0.60352 -0.0614,-0.53287 -0.10147,-1.03924 -0.16015,-1.57812 -0.46025,-4.30308 -0.84441,-8.67225 -0.83594,-10.57032 0.0837,-19.69118 -4.37081,-51.54291 -9.46289,-67.66211 -1.37001,-4.33693 -2.91034,-10.85386 -3.42383,-14.48047 -0.5136,-3.6266 -1.65248,-7.98024 -2.5293,-9.67578 -0.87677,-1.69553 -1.59375,-3.92993 -1.59375,-4.96484 0,-2.09949 -6.61743,-20.97772 -10.0664,-28.7168 -1.22552,-2.74998 -4.8673,-9.15369 -8.0918,-14.23047 -7.92518,-12.47762 -17.82265,-32.15608 -17.83398,-35.45507 -0.0207,-6.551475 3.15194,-9.501555 18.43945,-17.156254 4.37038,-2.188358 9.84686,-5.733912 12.17187,-7.876954 9.34137,-8.610599 26.45553,-32.142085 28.83985,-39.654296 0.84317,-2.656778 -1.09455,-3.607862 -10.57032,-5.195313 -8.92773,-1.495619 -33.26936,-0.03895 -43.38867,2.597656 -12.2951,3.203509 -23.2387,10.010426 -29.65429,18.441407 -5.29773,6.961939 -7.89354,7.219155 -18.01954,1.789062 -4.59303,-2.463008 -13.29457,-7.847222 -19.33789,-11.964844 -26.07738,-17.768129 -47.2556,-28.794922 -55.30078,-28.794922 -0.95841,0 -2.71425,-0.681472 -3.90234,-1.513671 C 439.19851,14.443192 431.33576,12.43473 422.91406,10.8125 414.49225,9.1902701 405.35158,7.3884111 402.60156,6.8085938 378.73679,1.7768823 371.76868,0.76199977 356.99609,0.16210938 353.9581,0.03874182 351.03057,-0.01739349 348.17188,0.00390625 Z M 683.98828,354.48633 c 1.66105,-0.038 3.24261,0.43011 4.23047,1.41797 0.94947,0.94948 1.47944,1.98411 1.71875,3.01367 0.03,0.53122 0.0189,1.10657 -0.0332,1.72656 -0.0294,0.34981 -0.0688,0.6454 -0.10938,0.94141 -0.59537,1.79478 -2.1675,3.29789 -4.50586,3.90234 -0.079,0.0202 -0.19731,0.0443 -0.27929,0.0645 -0.64087,0.14278 -1.32148,0.23633 -2.05665,0.23633 -2.95937,0 -3.70917,0.48456 -4.92187,3.18946 -2.17841,4.85888 -4.92969,4.91976 -4.92969,0.10937 0,-2.66253 4.13936,-11.36689 6.17188,-12.97851 1.31234,-1.04051 3.05379,-1.585 4.71484,-1.62305 z m 11.01563,7.52148 c 0.58264,0.11222 0.98772,0.34935 1.2832,0.66211 0.31791,0.62965 0.32498,1.55749 0.0547,2.66406 -0.52999,1.02357 -1.40617,2.37897 -2.74024,4.31836 -1.04161,1.51419 -1.91404,2.8648 -2.55664,3.91797 l -1.08008,1.41407 0.20313,0.20312 c -0.003,0.015 -0.0664,0.11468 -0.0664,0.125 0,0.31461 1.22928,1.62861 2.73047,2.91992 l 2.72852,2.34766 3.14453,-4.66797 c 3.8417,-5.70459 5.03513,-6.70903 8.98633,-7.55273 6.03889,-1.28943 6.37614,2.27578 1.81054,19.17968 -0.7079,2.62103 -3.40039,1.28772 -3.40039,-1.68359 0,-3.12246 -2.90146,-4.9445 -4.61523,-3.39258 -0.22353,0.0821 -0.38477,0.20181 -0.38477,0.38477 0,0.0472 -0.0482,0.11491 -0.0664,0.16992 -0.0256,0.0394 -0.0594,0.0598 -0.084,0.10156 -0.25658,0.21391 -0.4972,0.47496 -0.70312,0.80469 -0.003,0.004 -0.005,0.008 -0.008,0.0117 -1.47287,1.21423 -4.11948,1.0642 -4.75195,-0.58399 -0.30327,-0.79052 -1.20104,-1.18706 -1.99414,-0.88281 -1.87473,0.71949 -9.00877,-4.03532 -9.33398,-6.14063 0.0439,-0.44986 0.23283,-1.03595 0.53711,-1.72656 0.65903,-1.30154 1.79896,-3.08155 3.15429,-4.81054 1.70789,-2.17878 3.28427,-4.33435 4.17774,-5.6543 1.29155,-1.3425 2.40863,-2.23792 2.97461,-2.12891 z m 22.59765,12.28125 c 0.65183,0 1.12414,0.18548 1.48633,0.54297 0.0882,0.13182 0.19534,0.2144 0.27344,0.36914 0.0155,0.0252 0.0281,0.0557 0.043,0.082 0.17774,0.37054 0.30852,0.82427 0.42187,1.30078 0.0275,0.15862 0.0713,0.2773 0.0918,0.45508 0.008,0.0673 0.021,0.11113 0.0293,0.17578 0.0833,0.52146 0.15429,1.05914 0.15429,1.6543 0,2.8131 1.63752,2.34216 3.64063,-1.04883 2.0801,-3.52119 3.81808,-4.38882 5.27539,-2.63281 1.30688,1.5747 -2.52905,7.21912 -11.88867,17.49414 -3.519,3.86314 -6.94558,7.0092 -7.70313,7.08203 -0.57631,-0.033 -0.97093,-0.28325 -1.16406,-0.72265 -0.0969,-0.22532 -0.14134,-0.49932 -0.14649,-0.80469 0.0894,-1.51653 1.33489,-3.93505 3.48633,-6.31641 2.44078,-2.70168 3.20253,-4.1344 3.41602,-6.8125 0.12946,-1.04938 0.21357,-2.30246 0.28515,-3.95117 0.0632,-1.45522 0.12797,-2.56827 0.21094,-3.47852 0.21174,-1.32947 0.48625,-2.42126 0.88086,-3.04492 0.29922,-0.25298 0.68088,-0.34375 1.20703,-0.34375 z m -78.61133,6.79102 c 1.36557,0.12627 2.90376,0.83923 4.60743,2.13867 5.1775,3.949 5.96025,5.97365 4.10156,10.61914 -1.89509,4.73632 -1.53397,5.81338 2.92383,8.70899 3.986,2.58908 4.27185,4.22275 1.51367,8.68554 -3.04823,4.93202 -5.70114,5.9379 -10.86133,4.11719 -4.6817,-1.65169 -5.01595,-1.48282 -10.41406,5.26367 -2.1871,2.73339 -2.36442,2.72057 -7.51172,-0.58984 -5.32358,-3.42391 -5.86718,-5.10038 -3.29688,-10.13867 l 2.04883,-4.01563 -2.74023,-2.54102 c -1.50682,-1.39717 -3.02741,-2.53906 -3.37891,-2.53906 -0.35138,0 -1.1665,-1.27612 -1.8125,-2.83594 -0.91789,-2.21559 -0.8936,-3.47321 0.11524,-5.75 2.4517,-5.53353 6.57796,-6.85081 11.80078,-3.76562 3.59561,2.12391 5.74649,1.2383 7.5664,-3.11719 1.26756,-3.03375 3.06195,-4.45069 5.33789,-4.24023 z m 83.71289,49.03125 c 0.7663,-0.29401 3.64511,0.91017 6.39649,2.67578 4.2878,2.75138 4.99703,3.65927 4.9668,6.35547 -0.0195,1.73023 -0.67886,4.27149 -1.46485,5.64648 -2.01861,3.5311 -1.84957,4.47414 1.07813,6.04102 3.8205,2.04472 4.43026,3.95314 2.60547,8.15234 -2.24342,5.16257 -5.10693,6.50844 -10.67383,5.01953 -2.41659,-0.6463 -4.94987,-1.2952 -5.63086,-1.44336 -0.68088,-0.14823 -2.35837,1.41798 -3.72656,3.48047 -2.80181,4.22344 -5.45251,4.71729 -10.85743,2.02539 -4.2602,-2.1216 -4.65989,-3.61634 -2.2871,-8.52734 2.7852,-5.76473 2.54338,-6.93525 -2.00782,-9.74805 -4.64628,-2.87157 -5.09595,-5.31194 -1.77148,-9.61523 4.83662,-6.26071 6.17761,-6.65325 11.54492,-3.38086 4.58442,2.79519 5.54696,2.54902 8.14648,-2.07617 1.25851,-2.23922 2.91535,-4.31142 3.68164,-4.60547 z"
         transform="matrix(0.26458333,0,0,0.26458333,-21.67476,76.676402)" />
      <g
         id="g1058">
        <ellipse
           style="fill:#ffffff;stroke-width:1.806;stroke-linejoin:round;paint-order:stroke markers fill"
           id="path1267"
           cx="93.794167"
           cy="124.40444"
           rx="34.893929"
           ry="34.626202" />
        <path
           style="display:inline;fill:#de2b38;stroke-width:0.264583"
           d="m 133.53025,291.20692 c -10.24001,-2.72415 -11.54211,-2.98309 -14.1704,-2.81807 -1.39078,0.0873 -3.29578,0.38354 -4.23333,0.65828 -0.93753,0.27472 -4.13994,0.94697 -7.11645,1.49389 -6.89104,1.26619 -8.872693,1.21359 -13.528093,-0.35915 -1.68571,-0.56948 -3.33677,-1.18091 -3.66903,-1.35874 -2.02988,-1.08635 -10.61016,-3.62915 -15.09416,-4.4732 -6.25996,-1.17838 -9.93119,-1.42954 -18.25625,-1.24902 -4.29287,0.0931 -8.25066,0.27324 -8.7951,0.40034 -1.58593,0.37029 -9.39498,-0.0933 -10.65178,-0.63233 -0.58208,-0.24966 -4.21349,-1.55889 -8.06979,-2.90943 -6.09396,-2.13421 -7.44424,-2.51336 -10.31875,-2.89754 -1.81901,-0.24309 -4.55745,-0.62841 -6.08542,-0.85624 -2.19927,-0.32795 -4.5698,-0.39563 -11.37708,-0.32491 -10.266283,0.10671 -12.714526,-0.0807 -14.99497,-1.14787 -1.821497,-0.85238 -4.786233,-3.73049 -6.031362,-5.85515 -0.706358,-1.20533 -1.975961,-5.19967 -2.62599,-8.26177 -0.369226,-1.73937 -0.164121,-6.97497 0.372269,-9.50291 0.154384,-0.7276 0.442145,-2.15635 0.639445,-3.175 0.711862,-3.67498 1.901957,-7.14899 3.988091,-11.64166 1.369907,-2.95021 2.417683,-5.24285 2.540926,-5.5599 0.500539,-1.28739 4.032885,-7.3831 6.216651,-10.72793 3.389153,-5.1911 7.103665,-11.64596 9.506876,-16.52051 4.153641,-8.42502 7.001064,-15.21319 7.406774,-17.65749 0.10295,-0.62037 0.57676,-2.37808 1.05291,-3.90605 1.68045,-5.39266 2.74394,-12.83452 2.11664,-14.81101 -0.0824,-0.25968 -1.00952,-1.15086 -2.06021,-1.9804 -6.877497,-5.42996 -8.795514,-7.48081 -16.305421,-17.4345 -3.648181,-4.83531 -5.964503,-9.83954 -6.661283,-14.3912 -0.274558,-1.79365 -0.255984,-2.36145 0.134726,-4.11765 0.556339,-2.5006 1.186815,-3.30127 3.371691,-4.28177 1.480741,-0.66452 1.768237,-0.71205 2.737988,-0.45269 0.595921,0.15939 2.130028,0.9215 3.409077,1.69357 2.52566,1.52456 5.69259,4.59751 8.002297,7.76481 1.909921,2.61908 5.155565,6.46869 6.404055,7.59574 0.60449,0.5457 1.36927,0.99218 1.6995,0.99218 0.95922,0 2.51174,-1.48788 3.26549,-3.12951 1.06283,-2.31492 1.13987,-2.5519 2.25136,-6.92465 0.76351,-3.00385 1.11128,-5.04471 1.29987,-7.62826 0.24405,-3.34336 0.56253,-5.34026 1.04098,-6.52695 0.11734,-0.29104 0.35774,-1.06495 0.53422,-1.71979 0.17648,-0.65485 0.53144,-1.66688 0.78878,-2.24896 0.25733,-0.58208 0.90032,-2.02662 1.42885,-3.21008 0.52853,-1.18346 1.03463,-2.68926 1.12469,-3.34622 0.19193,-1.40039 -0.10281,-1.68553 -2.64747,-2.56102 -2.54585,-0.8759 -6.15096,-2.92741 -7.54759,-4.295 -2.31542,-2.2673 -7.168193,-10.780184 -7.168193,-12.574668 0,-1.58773 0.678683,-1.636437 5.522463,-0.396338 4.70964,1.205759 8.42095,2.79898 11.74485,5.041932 1.11287,0.750946 2.08598,1.365353 2.16247,1.365353 0.26913,0 3.04535,-1.86145 3.65191,-2.448608 0.99431,-0.962461 3.08348,-2.354098 5.49169,-3.658126 7.23223,-3.916148 6.21866,-3.467071 17.46412,-7.737835 8.29384,-3.149809 12.85616,-4.044871 19.28659,-3.783743 3.90858,0.158721 5.75231,0.427453 12.06653,1.75876 0.72761,0.15341 3.14603,0.630102 5.3743,1.059317 2.22824,0.429215 4.30855,0.960544 4.62293,1.18073 0.31435,0.220186 0.77904,0.400338 1.03262,0.400338 2.12862,0 7.731843,2.917672 14.631483,7.618823 1.59896,1.089454 3.90144,2.51401 5.11668,3.165681 2.67917,1.436712 3.36573,1.368526 4.76742,-0.473487 1.69746,-2.230697 4.59316,-4.031277 7.84624,-4.878872 2.6774,-0.697601 9.11791,-1.083413 11.48004,-0.687697 2.50713,0.420013 3.01976,0.672055 2.79667,1.374994 -0.63085,1.987606 -5.15888,8.213654 -7.63045,10.491875 -0.61516,0.567013 -2.06455,1.504662 -3.22088,2.083665 -4.04482,2.025306 -4.88381,2.806016 -4.87834,4.539426 0.003,0.87286 2.62155,6.07927 4.71842,9.38064 0.85315,1.34323 1.8165,3.03756 2.14075,3.76516 0.91254,2.04763 2.66358,7.04272 2.66358,7.59821 0,0.27382 0.18982,0.86491 0.4218,1.31352 0.23199,0.44861 0.53298,1.60073 0.66887,2.56027 0.13586,0.95954 0.54364,2.68347 0.90612,3.83095 1.34728,4.26487 2.52595,12.6923 2.5038,17.90226 -0.005,1.20915 0.4926,5.51201 0.66654,5.76209 0.0281,0.0405 0.36812,-0.047 0.75549,-0.19425 0.38741,-0.14729 2.04102,-0.27581 3.67472,-0.28561 3.15074,-0.0189 4.5325,0.30858 7.37087,1.7469 0.69874,0.35408 1.49648,0.64378 1.77273,0.64378 0.27626,0 0.805,0.23813 1.17502,0.52917 0.36999,0.29104 0.79716,0.52917 0.94927,0.52917 0.98436,0 1.62539,0.72071 2.67303,3.00525 2.05008,4.47053 2.48402,5.21151 3.74007,6.3864 1.31983,1.23453 1.45479,1.28809 4.26419,1.69206 1.33091,0.19137 2.08436,0.47607 3.00191,1.13432 2.62768,1.88513 2.68809,1.90749 4.97065,1.83981 1.28325,-0.0381 2.75957,-0.2771 3.72819,-0.60367 2.09224,-0.70544 2.92502,-0.56931 6.12214,1.00065 2.9695,1.4582 4.72382,3.01675 6.18225,5.49241 1.45661,2.47258 1.69159,4.1289 1.16769,8.23089 -0.24675,1.93199 -0.71165,4.16703 -1.06066,5.09926 -0.34174,0.91284 -0.62135,2.04997 -0.62135,2.52696 0,1.77493 -1.83944,8.71744 -3.23707,12.21753 -0.29054,0.72761 -1.33906,2.98979 -2.33006,5.02709 -0.99099,2.03729 -1.98855,4.12088 -2.21678,4.6302 -0.37386,0.83432 -1.00494,1.76364 -3.06401,4.51213 -2.28314,3.0476 -4.8709,4.74829 -7.22498,4.74829 -1.79122,0 -4.32067,-1.19922 -5.48068,-2.59845 -1.56176,-1.88378 -2.00853,-3.13097 -4.75602,-13.27655 -0.23476,-0.86691 -1.94667,-3.98872 -3.33708,-6.08542 -0.93459,-1.40938 -2.48134,-3.04421 -3.84048,-4.05921 -2.02967,-1.51571 -2.17625,-1.55985 -3.73499,-1.125 -0.76528,0.21349 -2.10577,0.52369 -2.97889,0.68934 -1.76562,0.33499 -10.11518,2.98469 -11.24308,3.56796 -0.81256,0.42018 -1.00581,0.82521 -2.08319,4.3665 -1.24246,4.08387 -1.95247,8.26098 -2.40599,14.15521 -0.15677,2.03729 -0.40315,5.01385 -0.5475,6.61458 -0.46001,5.1008 -0.37936,7.63164 0.38364,12.03854 0.86104,4.97329 2.20922,9.37792 3.84675,12.56771 1.30271,2.53754 3.87477,6.59111 5.07183,7.99314 1.93545,2.26685 3.06001,5.06132 4.22701,10.50388 0.87643,4.08742 0.99962,6.55577 0.49257,9.86928 -0.39775,2.5991 -1.92508,5.89343 -3.48914,7.52586 -2.17,2.2648 -6.08028,3.09139 -9.86332,2.08499 z m 34.30392,-91.22455 c 0.362,-0.5457 0.80563,-0.96012 0.98578,-0.9209 0.18018,0.0392 0.85074,0.21121 1.49013,0.38221 1.47291,0.39394 2.23028,0.0377 2.82385,-1.32823 0.48281,-1.11104 0.32139,-1.61602 -0.68945,-2.15702 -0.77462,-0.41457 -0.81915,-0.66418 -0.28506,-1.59845 0.20796,-0.3638 0.38235,-1.036 0.38751,-1.49379 0.008,-0.71337 -0.17979,-0.95369 -1.31427,-1.68166 -0.72797,-0.46715 -1.4895,-0.78571 -1.69225,-0.70792 -0.20275,0.0778 -0.64108,0.62621 -0.97406,1.21867 -0.68779,1.22375 -0.94226,1.28857 -2.15522,0.54901 -1.4201,-0.86582 -1.77506,-0.76187 -3.05475,0.89461 -0.8796,1.13858 -0.76067,1.78422 0.46866,2.54399 1.20417,0.74422 1.26799,1.05418 0.53107,2.57943 -0.6278,1.29937 -0.52168,1.69481 0.6055,2.25615 1.43005,0.71223 2.13125,0.58135 2.87256,-0.5361 z M 145.24065,187.9637 c 1.42825,-1.78501 1.5167,-1.82972 2.7554,-1.39271 1.3653,0.48173 2.06695,0.21574 2.87346,-1.08919 0.72977,-1.18078 0.65452,-1.613 -0.40011,-2.29803 -1.17946,-0.76613 -1.27526,-1.05148 -0.77385,-2.30463 0.49178,-1.22912 0.28496,-1.7648 -1.08492,-2.80964 -1.20203,-0.91683 -2.09479,-0.72816 -2.63139,0.55613 -0.48152,1.15239 -1.05079,1.38697 -2.00213,0.82502 -1.38187,-0.81629 -2.47332,-0.4681 -3.122,0.99598 -0.26692,0.6024 -0.27366,0.93514 -0.0308,1.52135 0.17092,0.4127 0.38685,0.75033 0.47982,0.75033 0.093,0 0.49522,0.30245 0.8939,0.67212 l 0.72485,0.6721 -0.54218,1.06272 c -0.68006,1.33305 -0.53586,1.7762 0.87267,2.68211 1.36189,0.87588 1.40864,0.87955 1.98731,0.15634 z m 22.82484,-7.39015 c 2.4764,-2.7186 3.49144,-4.21225 3.14566,-4.62889 -0.38558,-0.46461 -0.84545,-0.23511 -1.39581,0.69654 -0.52999,0.8972 -0.96322,1.02222 -0.96322,0.27792 0,-0.76898 -0.28204,-1.34456 -0.65891,-1.34456 -0.43069,0 -0.6558,0.84587 -0.66038,2.48148 -0.003,1.10101 -0.1398,1.44158 -0.92966,2.31587 -0.9261,1.02507 -1.22468,2.08182 -0.5882,2.08182 0.18582,0 1.10855,-0.84609 2.05052,-1.88018 z m -2.01784,-1.36097 c 1.20798,-4.47249 1.11897,-5.4156 -0.47882,-5.07444 -1.04542,0.22323 -1.3616,0.4889 -2.37805,1.99824 l -0.83177,1.23513 -0.72221,-0.62119 c -0.39719,-0.34166 -0.72218,-0.68932 -0.72218,-0.77256 0,-0.0833 0.41672,-0.75718 0.92605,-1.49759 1.04984,-1.5262 1.10662,-1.76335 0.4799,-2.00383 -0.28231,-0.10834 -0.54946,0.003 -0.72761,0.30179 -0.1548,0.26014 -0.72794,1.04256 -1.27365,1.73873 -0.5457,0.69615 -0.99219,1.45537 -0.99219,1.68715 0,0.53522 1.97755,1.86182 2.4851,1.66703 0.20984,-0.0805 0.44718,0.0246 0.52742,0.23376 0.19701,0.5134 1.13716,0.48268 1.43349,-0.0468 0.40301,-0.72015 1.37483,-0.21871 1.37483,0.70942 0,0.78616 0.71239,1.13867 0.89969,0.44519 z m -8.32641,-4.91051 c 0.32086,-0.71567 0.51906,-0.84418 1.30206,-0.84418 1.67884,0 2.4883,-1.51968 1.39296,-2.61503 -0.52274,-0.52274 -1.67209,-0.4964 -2.36654,0.0542 -0.53777,0.42641 -1.63301,2.7295 -1.63301,3.43396 0,1.27275 0.72816,1.25658 1.30453,-0.029 z m -53.75143,-21.31785 c 2.88229,-0.80613 3.35531,-1.03519 6.67398,-3.23176 2.80088,-1.85387 3.64122,-2.60521 6.84763,-6.12243 2.74778,-3.01414 2.60681,-2.80865 4.42169,-6.44584 2.02917,-4.06662 2.43911,-5.37067 2.76082,-8.78199 0.15105,-1.60181 0.3365,-3.01249 0.41214,-3.13484 0.28744,-0.46512 0.13139,-4.43304 -0.27075,-6.88306 -0.80023,-4.8757 -2.85064,-8.92444 -7.39899,-14.61013 -2.29674,-2.87104 -4.40484,-4.500202 -8.29006,-6.40666 -4.53826,-2.226903 -7.71115,-3.133527 -12.431133,-3.552082 -5.54799,-0.491982 -9.46817,0.458986 -14.28361,3.46496 -4.17407,2.605598 -7.43609,5.837142 -10.39334,10.296252 -2.68718,4.05187 -3.81955,6.476 -4.63483,9.92188 -1.44616,6.11244 -1.40883,10.22851 0.14348,15.82121 1.76935,6.37467 5.56861,11.16685 12.40642,15.64886 4.06508,2.66456 4.08641,2.67597 6.29962,3.36891 4.42293,1.38479 5.49265,1.53009 10.52028,1.42893 4.135103,-0.0832 5.085833,-0.18625 7.216653,-0.78221 z m -4.835403,-11.70415 c -1.91396,-0.37829 -4.97652,-1.52312 -5.70936,-2.13425 -0.22974,-0.19159 -0.50292,-0.34834 -0.60703,-0.34834 -0.5483,0 -3.86324,-2.87372 -5.10818,-4.42827 -1.85658,-2.3183 -2.86335,-4.0872 -3.66102,-6.43243 -1.87264,-5.50574 -1.2742,-11.71119 1.64495,-17.0574 2.8671,-5.25087 10.06075,-9.92938 15.240233,-9.91173 2.20282,0.007 6.71423,1.06185 8.15047,1.90482 1.90473,1.11794 5.66377,4.58439 7.04178,6.49365 1.22846,1.70209 2.71962,4.10927 2.71962,4.3903 0,0.0728 -0.98927,-0.85686 -2.19839,-2.06598 -3.79196,-3.79194 -7.89583,-5.27176 -11.83146,-4.2663 -3.79161,0.96867 -5.981253,3.47361 -6.279013,7.1832 -0.17486,2.17856 0.26731,3.93557 1.797003,7.14058 0.98264,2.05881 1.70288,3.12492 3.17902,4.70555 2.0901,2.23807 3.29697,3.04453 5.61446,3.75174 1.7689,0.5398 4.76769,0.43244 6.34643,-0.22721 0.52795,-0.22058 2.09791,-1.52805 3.48885,-2.90547 1.39091,-1.37742 2.52523,-2.36866 2.52068,-2.20275 -0.005,0.16591 -0.1714,1.6726 -0.37079,3.34819 -0.67349,5.65954 -2.9442,8.64523 -8.83314,11.61448 -3.54568,1.78776 -8.60512,2.34494 -13.145113,1.44762 z m -4.914,-18.26098 c 0.6553,-0.83307 0.68903,-1.36555 0.1365,-2.15441 -0.81589,-1.16484 -3.0277,-0.39885 -3.0277,1.04856 0,0.76877 1.00192,1.80299 1.7467,1.80299 0.32887,0 0.84198,-0.31254 1.1445,-0.69714 z m 2.447,-5.53361 c 0.64048,-1.10106 0.27305,-2.34561 -1.08355,-3.67031 -0.87114,-0.85065 -1.22483,-1.01902 -2.14055,-1.01902 -1.35763,0 -1.90244,0.50625 -1.90244,1.76778 0,0.88518 0.26366,1.4606 1.1684,2.54986 1.27786,1.5385 3.17577,1.71672 3.95814,0.37169 z"
           id="path976" />
        <path
           style="display:inline;fill:#fe2153;fill-opacity:1;stroke-width:0.264583"
           d="m 133.53025,291.20692 c -10.24001,-2.72415 -11.54211,-2.98309 -14.1704,-2.81807 -1.39078,0.0873 -3.29578,0.38354 -4.23333,0.65828 -0.93753,0.27472 -4.13994,0.94697 -7.11645,1.49389 -6.89104,1.26619 -8.872693,1.21359 -13.528093,-0.35915 -1.68571,-0.56948 -3.33677,-1.18091 -3.66903,-1.35874 -2.02988,-1.08635 -10.61016,-3.62915 -15.09416,-4.4732 -6.25996,-1.17838 -9.93119,-1.42954 -18.25625,-1.24902 -4.29287,0.0931 -8.25066,0.27324 -8.7951,0.40034 -1.58593,0.37029 -9.39498,-0.0933 -10.65178,-0.63233 -0.58208,-0.24966 -4.21349,-1.55889 -8.06979,-2.90943 -6.09396,-2.13421 -7.44424,-2.51336 -10.31875,-2.89754 -1.81901,-0.24309 -4.55745,-0.62841 -6.08542,-0.85624 -2.19927,-0.32795 -4.5698,-0.39563 -11.37708,-0.32491 -10.266283,0.10671 -12.714526,-0.0807 -14.99497,-1.14787 -1.821497,-0.85238 -4.786233,-3.73049 -6.031362,-5.85515 -0.706358,-1.20533 -1.975961,-5.19967 -2.62599,-8.26177 -0.369226,-1.73937 -0.164121,-6.97497 0.372269,-9.50291 0.154384,-0.7276 0.442145,-2.15635 0.639445,-3.175 0.711862,-3.67498 1.901957,-7.14899 3.988091,-11.64166 1.369907,-2.95021 2.417683,-5.24285 2.540926,-5.5599 0.500539,-1.28739 4.032885,-7.3831 6.216651,-10.72793 3.389153,-5.1911 7.103665,-11.64596 9.506876,-16.52051 4.153641,-8.42502 7.001064,-15.21319 7.406774,-17.65749 0.10295,-0.62037 0.57676,-2.37808 1.05291,-3.90605 1.68045,-5.39266 2.74394,-12.83452 2.11664,-14.81101 -0.0824,-0.25968 -1.00952,-1.15086 -2.06021,-1.9804 -6.877497,-5.42996 -8.795514,-7.48081 -16.305421,-17.4345 -3.648181,-4.83531 -5.964503,-9.83954 -6.661283,-14.3912 -0.274558,-1.79365 -0.255984,-2.36145 0.134726,-4.11765 0.556339,-2.5006 1.186815,-3.30127 3.371691,-4.28177 1.480741,-0.66452 1.768237,-0.71205 2.737988,-0.45269 0.595921,0.15939 2.130028,0.9215 3.409077,1.69357 2.52566,1.52456 5.69259,4.59751 8.002297,7.76481 1.909921,2.61908 5.155565,6.46869 6.404055,7.59574 0.60449,0.5457 1.36927,0.99218 1.6995,0.99218 0.95922,0 2.51174,-1.48788 3.26549,-3.12951 1.06283,-2.31492 1.13987,-2.5519 2.25136,-6.92465 0.76351,-3.00385 1.11128,-5.04471 1.29987,-7.62826 0.24405,-3.34336 0.56253,-5.34026 1.04098,-6.52695 0.11734,-0.29104 0.35774,-1.06495 0.53422,-1.71979 0.17648,-0.65485 0.53144,-1.66688 0.78878,-2.24896 0.25733,-0.58208 0.90032,-2.02662 1.42885,-3.21008 0.52853,-1.18346 1.03463,-2.68926 1.12469,-3.34622 0.19193,-1.40039 -0.10281,-1.68553 -2.64747,-2.56102 -2.54585,-0.8759 -6.15096,-2.92741 -7.54759,-4.295 -2.31542,-2.2673 -7.168193,-10.780184 -7.168193,-12.574668 0,-1.58773 0.678683,-1.636437 5.522463,-0.396338 4.70964,1.205759 8.42095,2.79898 11.74485,5.041932 1.11287,0.750946 2.08598,1.365353 2.16247,1.365353 0.26913,0 3.04535,-1.86145 3.65191,-2.448608 0.99431,-0.962461 3.08348,-2.354098 5.49169,-3.658126 7.23223,-3.916148 6.21866,-3.467071 17.46412,-7.737835 8.29384,-3.149809 12.85616,-4.044871 19.28659,-3.783743 3.90858,0.158721 5.75231,0.427453 12.06653,1.75876 0.72761,0.15341 3.14603,0.630102 5.3743,1.059317 2.22824,0.429215 4.30855,0.960544 4.62293,1.18073 0.31435,0.220186 0.77904,0.400338 1.03262,0.400338 2.12862,0 7.731843,2.917672 14.631483,7.618823 1.59896,1.089454 3.90144,2.51401 5.11668,3.165681 2.67917,1.436712 3.36573,1.368526 4.76742,-0.473487 1.69746,-2.230697 4.59316,-4.031277 7.84624,-4.878872 2.6774,-0.697601 9.11791,-1.083413 11.48004,-0.687697 2.50713,0.420013 3.01976,0.672055 2.79667,1.374994 -0.63085,1.987606 -5.15888,8.213654 -7.63045,10.491875 -0.61516,0.567013 -2.06455,1.504662 -3.22088,2.083665 -4.04482,2.025306 -4.88381,2.806016 -4.87834,4.539426 0.003,0.87286 2.62155,6.07927 4.71842,9.38064 0.85315,1.34323 1.8165,3.03756 2.14075,3.76516 0.91254,2.04763 2.66358,7.04272 2.66358,7.59821 0,0.27382 0.18982,0.86491 0.4218,1.31352 0.23199,0.44861 0.53298,1.60073 0.66887,2.56027 0.13586,0.95954 0.54364,2.68347 0.90612,3.83095 1.34728,4.26487 2.52595,12.6923 2.5038,17.90226 -0.005,1.121 0.48152,5.45175 0.64453,5.74006 0.0161,0.0283 0.50202,-0.0575 1.08003,-0.19081 0.57798,-0.13329 2.24152,-0.25205 3.69673,-0.26392 2.79844,-0.0228 4.28704,0.34556 7.04633,1.7438 0.69874,0.35408 1.49648,0.64378 1.77273,0.64378 0.27626,0 0.805,0.23813 1.17502,0.52917 0.36999,0.29104 0.79716,0.52917 0.94927,0.52917 0.98436,0 1.62539,0.72071 2.67303,3.00525 2.03621,4.4403 2.51664,5.28712 3.53865,6.23721 1.41345,1.31403 1.61845,1.40314 4.06183,1.7657 1.73648,0.25767 2.40903,0.49702 3.38632,1.20511 2.42903,1.75998 3.18291,2.0452 5.13271,1.94196 0.98263,-0.052 2.55219,-0.35271 3.48787,-0.66818 2.19897,-0.74138 2.98981,-0.61833 6.21977,0.96777 2.9695,1.4582 4.72382,3.01675 6.18225,5.49241 1.45661,2.47258 1.69159,4.1289 1.16769,8.23089 -0.24675,1.93199 -0.71165,4.16703 -1.06066,5.09926 -0.34174,0.91284 -0.62135,2.04997 -0.62135,2.52696 0,1.77493 -1.83944,8.71744 -3.23707,12.21753 -0.29054,0.72761 -1.33906,2.98979 -2.33006,5.02709 -0.99099,2.03729 -1.98855,4.12088 -2.21678,4.6302 -0.37386,0.83432 -1.00494,1.76364 -3.06401,4.51213 -2.28314,3.0476 -4.8709,4.74829 -7.22498,4.74829 -1.79122,0 -4.32067,-1.19922 -5.48068,-2.59845 -1.56176,-1.88378 -2.00853,-3.13097 -4.75602,-13.27655 -0.23738,-0.87656 -1.90119,-3.90517 -3.41241,-6.21157 -0.9801,-1.49579 -3.49435,-3.94552 -4.88725,-4.76178 -1.16187,-0.68091 -1.21396,-0.68697 -2.59498,-0.3015 -0.77512,0.21635 -2.12368,0.52891 -2.9968,0.69456 -1.76562,0.33499 -10.11518,2.98469 -11.24308,3.56796 -0.81256,0.42018 -1.00581,0.82521 -2.08319,4.3665 -1.24246,4.08387 -1.95247,8.26098 -2.40599,14.15521 -0.15677,2.03729 -0.40315,5.01385 -0.5475,6.61458 -0.46001,5.1008 -0.37936,7.63164 0.38364,12.03854 0.86104,4.97329 2.20922,9.37792 3.84675,12.56771 1.30271,2.53754 3.87477,6.59111 5.07183,7.99314 1.93545,2.26685 3.06001,5.06132 4.22701,10.50388 0.87643,4.08742 0.99962,6.55577 0.49257,9.86928 -0.39775,2.5991 -1.92508,5.89343 -3.48914,7.52586 -2.17,2.2648 -6.08028,3.09139 -9.86332,2.08499 z m 37.51143,-89.14857 c 3.04803,-1.30651 5.20862,-5.61695 4.15275,-8.28477 -0.79555,-2.01004 -2.21237,-3.9498 -3.38839,-4.63899 -3.15444,-1.84864 -8.36134,0.2367 -9.86981,3.95282 -1.80252,4.44045 1.52848,9.47465 6.26912,9.47465 1.04537,0 2.09688,-0.18674 2.83633,-0.50371 z m 14.49975,-9.0587 c 3.10809,-0.9312 4.8976,-4.87871 3.59125,-7.92194 -0.54544,-1.27064 -2.31003,-2.82583 -3.39757,-2.99437 -2.99069,-0.46347 -4.26363,-0.27461 -5.66018,0.83968 -0.49723,0.39674 -0.90405,0.81545 -0.90405,0.93049 0,0.11504 -0.23763,0.53176 -0.52809,0.92604 -0.98509,1.33736 -0.90447,4.67048 0.1382,5.71317 0.21444,0.21442 0.38989,0.49506 0.38989,0.6236 0,0.32702 1.55246,1.46193 2.50941,1.83446 1.0427,0.40592 2.6035,0.42566 3.86114,0.0489 z m -2.81956,-3.51301 c -0.48749,-0.21227 -0.95683,-0.69805 -1.16877,-1.20972 -0.76829,-1.85484 1.35631,-3.72044 3.16929,-2.78292 1.52355,0.78785 1.70106,2.43121 0.40288,3.72938 -0.72012,0.72012 -1.22671,0.77563 -2.4034,0.26326 z m -33.88259,0.35066 c 2.73873,-1.44362 4.09506,-3.56725 4.12438,-6.45753 0.0235,-2.32434 -0.65559,-3.98148 -2.29899,-5.60962 -1.57615,-1.56149 -2.54694,-1.9286 -5.09588,-1.92696 -4.03074,0.003 -7.09898,2.95445 -7.36444,7.08507 -0.19717,3.06819 1.35139,5.56744 4.32173,6.97492 2.24772,1.06505 4.20643,1.04463 6.3132,-0.0659 z m 17.94343,-7.74531 c 3.27083,-3.38407 4.8631,-5.4859 4.62534,-6.10555 -0.24796,-0.64617 -0.88037,-0.4849 -1.49759,0.38187 -0.70194,0.98579 -0.99904,1.00354 -1.10691,0.0662 -0.0602,-0.52332 -0.23231,-0.72761 -0.61288,-0.72761 -0.47014,0 -0.53798,0.2027 -0.60812,1.81716 -0.072,1.65825 -0.15862,1.90122 -0.98989,2.77813 -0.93096,0.9821 -1.22317,2.15159 -0.53755,2.15159 0.20788,0 0.5353,-0.16277 0.7276,-0.36174 z m -0.36637,-4.02429 c 0.57571,-2.63551 0.67038,-3.73126 0.33994,-3.93549 -0.16767,-0.10361 -0.77348,-0.10919 -1.34628,-0.0124 -0.89826,0.15176 -1.18144,0.38557 -2.05957,1.70061 l -1.01811,1.52463 -0.72695,-0.72694 -0.72694,-0.72694 0.95652,-1.2531 c 0.98155,-1.28593 1.1116,-2.03882 0.37658,-2.18038 -0.53628,-0.10329 -2.88441,3.03149 -2.88441,3.85075 0,0.39238 0.22151,0.68638 0.63577,0.84389 0.34965,0.13292 0.71387,0.36811 0.80936,0.5226 0.0955,0.15449 0.42135,0.28091 0.72414,0.28091 0.30279,0 0.69212,0.19368 0.86521,0.43037 0.25625,0.35044 0.42138,0.3733 0.88908,0.12298 0.31589,-0.16907 0.57436,-0.41111 0.57436,-0.5379 0,-0.12676 0.23813,-0.16822 0.52917,-0.0921 0.32533,0.0851 0.52916,0.36089 0.52916,0.71604 0,0.6494 0.49988,1.26569 0.91612,1.12946 0.15098,-0.0494 0.42855,-0.79502 0.61685,-1.65696 z m -8.67531,-3.55483 c 0.21529,-0.51978 0.57166,-0.84537 1.02428,-0.93581 1.8365,-0.36689 2.01422,-0.49233 2.09719,-1.48013 0.11107,-1.3227 -0.48567,-1.88368 -1.75982,-1.65435 -0.53139,0.0956 -1.09953,0.27916 -1.26249,0.40782 -0.55835,0.44077 -1.72566,3.39511 -1.55453,3.93433 0.25297,0.79703 1.07632,0.64323 1.45537,-0.27186 z m -10.78852,-3.60762 c 1.34755,-0.52 2.67517,-1.70476 3.23696,-2.8886 0.55148,-1.16215 0.57883,-3.51199 0.0527,-4.52936 -0.55685,-1.07683 -1.73739,-2.46481 -2.09643,-2.46481 -0.15751,0 -0.50104,-0.19428 -0.76343,-0.43174 -0.3271,-0.29602 -0.94538,-0.42753 -1.96678,-0.41835 -2.07203,0.0186 -3.70813,0.89588 -4.71842,2.52999 -1.97702,3.19777 -0.66141,6.91358 2.91126,8.22259 1.37528,0.50389 1.99666,0.50022 3.3441,-0.0197 z m -3.22548,-3.84725 c -1.68355,-1.80705 1.15437,-4.60623 2.90009,-2.86052 0.75896,0.75896 0.72554,2.47829 -0.0589,3.0277 -0.85865,0.60142 -2.19863,0.52258 -2.84122,-0.16718 z m -39.75722,-14.07378 c 2.88229,-0.80613 3.35531,-1.03519 6.67398,-3.23176 2.80088,-1.85387 3.64122,-2.60521 6.84763,-6.12243 2.74778,-3.01414 2.60681,-2.80865 4.42169,-6.44584 2.02917,-4.06662 2.43911,-5.37067 2.76082,-8.78199 0.15105,-1.60181 0.3365,-3.01249 0.41214,-3.13484 0.28744,-0.46512 0.13139,-4.43304 -0.27075,-6.88306 -0.80023,-4.8757 -2.85064,-8.92444 -7.39899,-14.61013 -2.29674,-2.87104 -4.40484,-4.500202 -8.29006,-6.40666 -4.53826,-2.226903 -7.71115,-3.133527 -12.431133,-3.552082 -5.54799,-0.491982 -9.46817,0.458986 -14.28361,3.46496 -4.17407,2.605598 -7.43609,5.837142 -10.39334,10.296252 -2.68718,4.05187 -3.81955,6.476 -4.63483,9.92188 -1.44616,6.11244 -1.40883,10.22851 0.14348,15.82121 1.76935,6.37467 5.56861,11.16685 12.40642,15.64886 4.06508,2.66456 4.08641,2.67597 6.29962,3.36891 4.42293,1.38479 5.49265,1.53009 10.52028,1.42893 4.135103,-0.0832 5.085833,-0.18625 7.216653,-0.78221 z m -4.835403,-11.78505 c -8.61144,-1.99906 -14.49758,-8.26049 -15.85187,-16.86256 -0.38486,-2.44449 -0.38598,-2.96956 -0.0124,-5.81992 0.2259,-1.72316 0.52425,-3.24653 0.663,-3.38528 0.13872,-0.13875 0.25225,-0.41635 0.25225,-0.6169 0,-0.53545 1.87097,-4.33442 2.43041,-4.93492 0.264,-0.28338 0.48001,-0.61782 0.48001,-0.74322 0,-0.41669 3.29189,-3.49341 4.82663,-4.51114 3.92779,-2.60465 7.85329,-3.72539 10.970243,-3.13204 3.67927,0.70041 4.92635,1.07916 6.30565,1.91509 1.68564,1.02161 3.46628,2.49312 5.08688,4.20378 1.23531,1.30396 4.18457,5.4913 3.99865,5.67724 -0.0639,0.0639 -0.93062,-0.70195 -1.92611,-1.70182 -1.23749,-1.24296 -2.36459,-2.08033 -3.56355,-2.64751 -0.96448,-0.45626 -1.99173,-0.96234 -2.28277,-1.12463 -0.97454,-0.54341 -4.52366,-0.5839 -6.21789,-0.0709 -2.06118,0.62407 -4.24746,2.35858 -5.042193,4.00027 -0.8364,1.72781 -1.02487,5.07958 -0.39571,7.03885 0.95149,2.9632 2.469753,5.64343 4.401763,7.77047 3.24911,3.57713 5.17179,4.47092 9.15107,4.25401 1.40308,-0.0765 2.79985,-0.30956 3.31226,-0.55272 0.48731,-0.23125 1.96075,-1.46591 3.2743,-2.74369 2.02571,-1.97054 2.37797,-2.22141 2.32056,-1.65253 -0.60682,6.01231 -0.9565,7.1857 -2.90121,9.73535 -1.60338,2.10214 -6.07907,4.80622 -9.5,5.73963 -2.47938,0.67651 -7.23151,0.75674 -9.780033,0.16512 z m -5.01777,-17.91025 c 0.47035,-0.30818 0.65215,-0.66554 0.65215,-1.28191 0,-1.5276 -1.57655,-2.36366 -2.73656,-1.45121 -0.85812,0.675 -0.92699,1.76191 -0.16354,2.58137 0.64072,0.68775 1.3562,0.73605 2.24795,0.15175 z m 2.35265,-5.27974 c 0.78346,-0.78346 0.81624,-1.73473 0.10398,-3.01803 -1.51021,-2.721 -4.5508,-3.2615 -5.14006,-0.91371 -0.2641,1.05224 0.10999,1.92922 1.35329,3.17252 0.99375,0.99375 1.33573,1.1746 2.22102,1.1746 0.59807,0 1.22436,-0.17797 1.46177,-0.41538 z"
           id="path974" />
        <path
           style="display:inline;fill:#060408;stroke-width:0.264583"
           d="m 171.10108,225.90553 c -1.60591,-0.52974 -3.74771,-2.55431 -4.7054,-4.44788 -0.36182,-0.71543 -0.9825,-2.49142 -1.37927,-3.94663 -0.39677,-1.45521 -1.04569,-3.83646 -1.44203,-5.29167 -0.39635,-1.45521 -1.03037,-3.18161 -1.40894,-3.83646 -0.37859,-0.65484 -0.93284,-1.63017 -1.23166,-2.16738 -1.48984,-2.6783 -2.55953,-3.92817 -4.97713,-5.81549 -3.116,-2.4325 -5.79353,-3.52301 -11.3139,-4.60788 -1.6996,-0.33398 -3.10433,-0.38182 -7.12915,-0.24273 -5.91534,0.20445 -9.33513,0.61614 -13.24035,1.59396 -1.87132,0.46855 -3.25761,0.67135 -4.00979,0.58658 -1.29598,-0.14608 -2.80718,-1.15856 -3.37204,-2.25917 -0.59719,-1.16361 -1.02449,-3.75391 -0.84389,-5.11546 0.16217,-1.22242 1.20203,-4.02246 2.28045,-6.14066 0.28485,-0.55946 0.51789,-1.17562 0.51789,-1.36924 0,-0.93015 5.28508,-9.4737 7.19839,-11.63648 0.64365,-0.72761 1.5793,-1.78782 2.0792,-2.35604 1.87801,-2.13473 7.10473,-7.18825 10.8353,-10.47626 2.07759,-1.8311 3.53822,-2.34029 6.78061,-2.36374 2.65014,-0.0192 4.75459,0.4933 7.65704,1.86465 0.889,0.42002 1.86566,0.76368 2.1704,0.76368 0.30475,0 0.63376,0.12891 0.73113,0.28648 0.0974,0.15756 0.6818,0.50283 1.2987,0.76727 0.98904,0.42395 1.23585,0.71814 2.08751,2.48844 0.53123,1.10421 0.96589,2.07625 0.96589,2.1601 0,0.0839 0.2849,0.77533 0.63312,1.53662 0.74917,1.6378 2.77728,3.74232 4.26167,4.42218 0.58209,0.2666 1.35599,0.65189 1.71979,0.85621 1.85304,1.04069 2.59557,1.35991 3.56722,1.53363 0.58465,0.10454 1.59877,0.39148 2.25362,0.63765 1.49339,0.56139 3.89226,0.40764 6.63435,-0.42524 1.90918,-0.57989 1.96553,-0.5819 3.27636,-0.11634 1.86349,0.66186 5.62829,2.73437 6.48065,3.56757 1.15501,1.12905 2.97275,3.97377 3.35875,5.25634 0.67413,2.23996 0.14275,8.52649 -0.92712,10.96836 -0.30441,0.69474 -0.68213,2.30208 -0.83939,3.57187 -0.36526,2.94936 -0.61759,4.06009 -1.44077,6.34212 -0.36732,1.01827 -0.66783,1.99527 -0.66783,2.17111 0,0.63881 -1.39975,3.93087 -3.19305,7.50973 -1.00872,2.01305 -1.83403,3.81373 -1.83403,4.00148 0,0.30583 -2.31469,3.8767 -3.40741,5.2566 -1.54792,1.95475 -3.20078,3.44136 -4.60809,4.14462 -1.80034,0.89961 -2.86327,0.9719 -4.8168,0.3275 z m -0.0594,-23.84718 c 3.04803,-1.30651 5.20862,-5.61695 4.15275,-8.28477 -0.79555,-2.01004 -2.21237,-3.9498 -3.38839,-4.63899 -3.15444,-1.84864 -8.36134,0.2367 -9.86981,3.95282 -1.80252,4.44045 1.52848,9.47465 6.26912,9.47465 1.04537,0 2.09688,-0.18674 2.83633,-0.50371 z m 14.49975,-9.0587 c 3.10809,-0.9312 4.8976,-4.87871 3.59125,-7.92194 -0.54544,-1.27064 -2.31003,-2.82583 -3.39757,-2.99437 -2.99069,-0.46347 -4.26363,-0.27461 -5.66018,0.83968 -0.49723,0.39674 -0.90405,0.81545 -0.90405,0.93049 0,0.11504 -0.23763,0.53176 -0.52809,0.92604 -0.98509,1.33736 -0.90447,4.67048 0.1382,5.71317 0.21444,0.21442 0.38989,0.49506 0.38989,0.6236 0,0.32702 1.55246,1.46193 2.50941,1.83446 1.0427,0.40592 2.6035,0.42566 3.86114,0.0489 z m -2.81956,-3.51301 c -0.48749,-0.21227 -0.95683,-0.69805 -1.16877,-1.20972 -0.76829,-1.85484 1.35631,-3.72044 3.16929,-2.78292 1.52355,0.78785 1.70106,2.43121 0.40288,3.72938 -0.72012,0.72012 -1.22671,0.77563 -2.4034,0.26326 z m -33.88259,0.35066 c 2.73873,-1.44362 4.09506,-3.56725 4.12438,-6.45753 0.0235,-2.32434 -0.65559,-3.98148 -2.29899,-5.60962 -1.57615,-1.56149 -2.54694,-1.9286 -5.09588,-1.92696 -4.03074,0.003 -7.09898,2.95445 -7.36444,7.08507 -0.19717,3.06819 1.35139,5.56744 4.32173,6.97492 2.24772,1.06505 4.20643,1.04463 6.3132,-0.0659 z m 19.20616,-9.06923 c 2.08327,-2.15763 3.56129,-4.26382 3.3601,-4.78814 -0.24561,-0.64008 -0.88011,-0.47525 -1.49508,0.38838 -0.69062,0.96988 -1.05834,1.01296 -1.05834,0.12399 0,-0.7079 -0.65828,-1.15904 -1.07833,-0.73899 -0.13695,0.13695 -0.26961,1.01598 -0.2948,1.95337 -0.0412,1.53614 -0.13219,1.79573 -0.92152,2.63038 -0.89596,0.94739 -1.17768,2.11667 -0.50998,2.11667 0.2037,0 1.10276,-0.75856 1.99795,-1.68566 z m -1.79682,-1.90693 c 0.94949,-4.02098 0.94869,-4.69416 -0.006,-4.82987 -1.21584,-0.17285 -1.88317,0.22032 -2.85289,1.68082 -0.52951,0.79748 -1.0106,1.44997 -1.0691,1.44997 -0.0585,0 -0.41699,-0.28802 -0.79664,-0.64003 -0.62428,-0.57888 -0.65093,-0.67931 -0.27895,-1.05132 1.32572,-1.32569 1.8333,-3.07115 0.89313,-3.07115 -0.33981,0 -1.90979,1.90365 -2.72135,3.2997 -0.34962,0.60142 -0.0266,1.4628 0.54846,1.4628 0.19534,0 0.50339,0.1786 0.68455,0.39688 0.18116,0.21828 0.59971,0.39687 0.93015,0.39687 0.33041,0 0.66926,0.1786 0.75303,0.39688 0.21077,0.54927 0.89567,0.49696 1.2664,-0.0967 0.40865,-0.65434 1.28376,-0.4231 1.28376,0.33919 0,0.64752 0.50003,1.26651 0.91215,1.12914 0.1488,-0.0496 0.35269,-0.43804 0.4531,-0.8632 z m -8.46936,-4.34491 c 0.17886,-0.513 0.45773,-0.79375 0.78848,-0.79375 0.28149,0 0.9247,-0.17251 1.42934,-0.38338 0.79777,-0.33333 0.91754,-0.50356 0.91754,-1.304 0,-1.28966 -0.62433,-1.84269 -1.82665,-1.61805 -0.5233,0.0978 -1.08482,0.28792 -1.24778,0.42253 -0.56533,0.46693 -1.72466,3.40913 -1.55453,3.94515 0.26056,0.82092 1.17089,0.65728 1.4936,-0.2685 z m -10.82675,-3.61098 c 1.34755,-0.52 2.67517,-1.70476 3.23696,-2.8886 0.55148,-1.16215 0.57883,-3.51199 0.0527,-4.52936 -0.55685,-1.07683 -1.73739,-2.46481 -2.09643,-2.46481 -0.15751,0 -0.50104,-0.19428 -0.76343,-0.43174 -0.3271,-0.29602 -0.94538,-0.42753 -1.96678,-0.41835 -2.07203,0.0186 -3.70813,0.89588 -4.71842,2.52999 -1.97702,3.19777 -0.66141,6.91358 2.91126,8.22259 1.37528,0.50389 1.99666,0.50022 3.3441,-0.0197 z m -3.22548,-3.84725 c -1.68355,-1.80705 1.15437,-4.60623 2.90009,-2.86052 0.75896,0.75896 0.72554,2.47829 -0.0589,3.0277 -0.85865,0.60142 -2.19863,0.52258 -2.84122,-0.16718 z m -54.646783,11.00624 c -1.45479,-0.35759 -3.06584,-1.29903 -3.21069,-1.87622 -0.40093,-1.59742 0.43664,-1.92061 3.04352,-1.17443 1.78192,0.51001 2.20576,0.54287 3.60606,0.27938 1.73726,-0.3269 3.21625,-1.26487 5.0528,-3.20445 2.05486,-2.17013 2.774193,-3.66262 1.76091,-3.65358 -0.25466,0.002 -1.17739,0.17663 -2.05052,0.38745 -0.95409,0.23037 -2.96526,0.38708 -5.0405,0.39275 -3.58346,0.01 -5.8007,-0.34177 -9.90846,-1.57101 -2.02507,-0.606 -6.08541,-2.54013 -6.08541,-2.89876 0,-0.1091 -0.2679,-0.32443 -0.59532,-0.4785 -0.32742,-0.15407 -1.45851,-1.01239 -2.51354,-1.90737 -1.65433,-1.40337 -1.91823,-1.7456 -1.91823,-2.48755 0,-1.98062 1.20536,-1.9642 3.44326,0.0469 3.27885,2.94658 6.41485,4.61264 10.84123,5.75959 3.57872,0.9273 9.43342,0.97317 12.67124,0.0993 1.37562,-0.37128 2.530523,-0.86722 3.042703,-1.3066 1.96491,-1.68558 2.96342,-1.86683 3.61165,-0.6556 0.40155,0.75032 -0.0973,2.1192 -2.01414,5.52741 -2.23169,3.96794 -4.056943,5.97758 -7.055673,7.76836 -1.30226,0.77769 -1.72691,0.88685 -3.80871,0.97914 -1.28865,0.0572 -2.58114,0.0453 -2.87218,-0.0262 z m 10.18646,-36.83784 c -5.8048,-1.30042 -9.6582,-3.96559 -13.03137,-9.01308 -1.53321,-2.29421 -2.49147,-4.87711 -2.94785,-7.94567 -0.3682,-2.47548 -0.36902,-3.06763 -0.008,-5.81992 0.22093,-1.68523 0.5152,-3.17757 0.65395,-3.31632 0.13872,-0.13875 0.25225,-0.40352 0.25225,-0.58838 0,-0.54854 1.31284,-3.25351 2.34601,-4.83371 3.66099,-5.59931 11.39899,-9.56497 16.571703,-8.49283 3.85345,0.7987 4.75094,1.07706 6.09082,1.88912 2.52433,1.52991 5.64337,4.54587 7.48784,7.24038 1.92426,2.81109 1.85036,3.06924 -0.27546,0.96241 -1.34027,-1.32829 -2.4492,-2.14998 -3.64591,-2.7015 -0.94588,-0.43593 -1.95791,-0.92626 -2.24896,-1.08961 -0.9711,-0.54506 -4.52096,-0.58667 -6.21789,-0.0729 -2.05727,0.62289 -4.24344,2.35661 -5.057993,4.0112 -0.5367,1.09018 -0.63037,1.67351 -0.63037,3.92624 0,2.38959 0.0854,2.85544 0.88213,4.81002 1.067433,2.61881 2.087273,4.2476 4.012673,6.40868 2.72087,3.05393 5.26356,4.1607 9.00231,3.91848 1.26365,-0.0819 2.70187,-0.31916 3.19606,-0.52732 0.49417,-0.20815 1.97414,-1.4374 3.2888,-2.73166 l 2.39027,-2.3532 -0.0855,0.92604 c -0.48707,5.2722 -1.00695,6.99982 -2.81715,9.36169 -1.67238,2.18206 -6.15011,4.92025 -9.5508,5.84045 -2.36487,0.63992 -7.22516,0.73623 -9.657293,0.19137 z m -5.15007,-17.93748 c 0.92425,-0.60558 0.90152,-1.98397 -0.045,-2.72849 -0.38341,-0.3016 -0.8436,-0.54837 -1.02264,-0.54837 -0.17905,0 -0.63924,0.24677 -1.02264,0.54837 -0.85223,0.67035 -0.91887,1.75969 -0.15767,2.57674 0.64072,0.68775 1.3562,0.73605 2.24795,0.15175 z m 2.35265,-5.27974 c 1.10829,-1.10829 0.47652,-3.40416 -1.3122,-4.76848 -2.42898,-1.85266 -4.88513,0.36802 -3.27988,2.96539 1.20915,1.95645 3.52817,2.86702 4.59208,1.80309 z"
           id="path972" />
      </g>
    </g>
  </g>
</svg>
