<?xml version="1.0" encoding="UTF-8" standalone="no"?>
<!-- Created with Inkscape (http://www.inkscape.org/) -->

<svg
   width="226.82385mm"
   height="222.73247mm"
   viewBox="0 0 226.82385 222.73247"
   version="1.1"
   id="svg3324"
   inkscape:version="1.1 (c68e22c387, 2021-05-23)"
   sodipodi:docname="virtualreality.svg"
   xmlns:inkscape="http://www.inkscape.org/namespaces/inkscape"
   xmlns:sodipodi="http://sodipodi.sourceforge.net/DTD/sodipodi-0.dtd"
   xmlns="http://www.w3.org/2000/svg"
   xmlns:svg="http://www.w3.org/2000/svg">
  <sodipodi:namedview
     id="namedview3326"
     pagecolor="#505050"
     bordercolor="#eeeeee"
     borderopacity="1"
     inkscape:pageshadow="0"
     inkscape:pageopacity="0"
     inkscape:pagecheckerboard="0"
     inkscape:document-units="mm"
     showgrid="false"
     inkscape:zoom="0.74118967"
     inkscape:cx="316.38325"
     inkscape:cy="404.08011"
     inkscape:window-width="1920"
     inkscape:window-height="1017"
     inkscape:window-x="-8"
     inkscape:window-y="-8"
     inkscape:window-maximized="1"
     inkscape:current-layer="g1572" />
  <defs
     id="defs3321" />
  <g
     inkscape:label="Layer 1"
     inkscape:groupmode="layer"
     id="layer1"
     transform="translate(-0.61800832,-32.810513)">
    <g
       id="g1572">
      <path
         id="path3870-1"
         style="fill:none;fill-opacity:1;stroke:#ffffff;stroke-width:7.99999;stroke-linecap:butt;stroke-linejoin:miter;stroke-miterlimit:4;stroke-dasharray:none;stroke-opacity:1"
         d="m 132.29928,36.819717 c 1.99095,0.02823 3.2763,0.150831 4.62453,0.414962 4.01079,0.785757 7.19849,1.722721 10.82156,3.180684 1.90629,0.767114 4.5375,1.777595 5.84719,2.245341 3.30999,1.18214 6.09147,2.37584 7.8052,3.34915 0.80037,0.454565 2.52677,1.39481 3.83646,2.089794 2.68425,1.42439 4.39082,2.520999 5.55625,3.569808 0.43656,0.392872 1.52642,1.217794 2.42156,1.83348 l 1.62729,1.119312 1.54771,-1.195276 c 1.54162,-1.191167 5.08283,-3.08459 7.67085,-4.101042 2.07261,-0.814038 8.69604,-2.400701 9.32966,-2.235006 1.22648,0.32073 0.83281,2.445207 -1.04438,5.639449 -0.38484,0.654844 -1.33117,2.262187 -2.10323,3.571875 -2.69965,4.579681 -4.70555,6.310354 -9.66763,8.342126 -4.13676,1.693828 -3.89285,1.505482 -3.73672,2.892848 0.25651,2.279309 0.46304,2.821559 1.2547,3.289205 0.0729,0.04308 0.12246,0.0952 0.19017,0.142626 0.62211,0.281498 0.84862,0.791512 0.67387,1.527038 0.009,0.138927 0.0152,0.202096 0.0243,0.342617 0.0496,0.771961 0.8828,3.447626 1.77096,5.688541 0.32033,0.808228 0.69687,3.42873 0.89348,6.214607 0.2154,3.052221 0.68611,5.595729 1.71359,9.263518 1.71035,6.105336 3.17158,8.466666 5.23896,8.466666 0.913,0 1.29497,-0.30114 3.35845,-2.645833 0.83246,-0.945885 1.84044,-2.076982 2.24017,-2.513541 0.39976,-0.436566 1.17814,-1.448594 1.72961,-2.248959 3.19495,-4.636987 6.79729,-7.981764 10.7177,-9.950815 1.83771,-0.923009 2.74603,-0.894776 4.67516,0.145212 1.96631,1.060034 2.33504,1.589383 2.85254,4.094839 0.38401,1.859529 0.38512,2.243596 0.0124,4.208529 -0.79761,4.204631 -3.00364,9.396828 -5.16092,12.146548 -0.60169,0.76693 -1.59123,2.06489 -2.19935,2.88458 -5.45597,7.35422 -8.50593,10.7528 -12.64161,14.08647 -3.11925,2.51437 -3.9855,3.19183 -4.36459,3.41427 -0.81031,0.47545 -1.11047,3.16272 -0.6444,5.76915 0.14097,0.78825 0.44377,2.5646 0.67282,3.94705 0.22905,1.38244 0.8168,3.82324 1.30638,5.42396 0.48959,1.60073 0.96876,3.32714 1.06454,3.83646 0.37213,1.97893 1.34831,4.97418 2.17971,6.68744 0.47853,0.98613 0.87023,1.8419 0.87023,1.9017 0,0.0598 0.72831,1.75355 1.6185,3.76359 2.21624,5.00435 7.00029,14.21207 8.01606,15.42852 0.18227,0.21827 0.72183,1.11124 1.1994,1.98437 0.47758,0.87312 1.72775,2.8972 2.77761,4.49792 3.35264,5.11173 5.92323,9.72344 7.89099,14.15521 0.22614,0.50932 0.85186,1.87853 1.3901,3.0427 3.03877,6.5726 4.40124,11.82402 4.94543,19.05982 l 0.29921,3.97857 -0.8568,3.16518 c -1.53717,5.67772 -2.16597,6.84818 -5.30406,9.87692 -1.58679,1.53148 -3.80111,2.68097 -5.16506,2.68097 -0.4675,0 -2.03067,0.17879 -3.47318,0.39739 -2.2199,0.33641 -3.537,0.35203 -8.5757,0.10129 -6.79707,-0.33827 -8.09045,-0.27131 -15.74271,0.81287 -6.01178,0.85175 -6.16704,0.89491 -16.93333,4.73769 -1.60073,0.57134 -3.3907,1.22067 -3.97805,1.44281 -1.74948,0.66167 -7.22314,0.78086 -15.08384,0.32866 -9.57908,-0.55107 -15.54948,-0.21496 -23.53603,1.32499 -3.12923,0.60338 -11.9063,3.2381 -13.62604,4.09019 -0.50932,0.25236 -2.36177,0.94251 -4.11654,1.53375 -2.83712,0.95591 -3.49645,1.08028 -5.95313,1.12448 -2.776378,0.0499 -8.096273,-0.76777 -14.007411,-2.15284 -4.912151,-1.15099 -7.611719,-1.1154 -11.641667,0.15296 -0.654841,0.20611 -1.488284,0.43618 -1.852083,0.51108 -1.070451,0.22032 -3.688615,0.86306 -5.820833,1.42937 -2.57996,0.6852 -3.521522,0.68733 -5.578473,0.0124 -2.43904,-0.80026 -2.956427,-1.11955 -4.178038,-2.57865 -2.430909,-2.90346 -3.643616,-7.1402 -3.381705,-11.81323 0.282339,-5.03768 2.614956,-12.83413 4.411617,-14.74484 0.695608,-0.73978 4.080759,-5.84975 5.305618,-8.00933 0.49525,-0.87312 1.117547,-2.18281 1.383377,-2.91042 1.424432,-3.899 2.015699,-5.85036 2.300118,-7.59282 0.173461,-1.06262 0.480637,-2.71912 0.682646,-3.68091 0.673291,-3.20574 0.730763,-5.3798 0.277503,-10.48618 -1.379569,-15.54232 -1.550551,-16.71489 -3.230811,-22.16092 -0.992849,-3.21797 -1.068692,-3.37405 -1.828311,-3.76463 -1.23698,-0.636 -9.443955,-3.22502 -11.509374,-3.63079 -3.24575,-0.63764 -6.73526,-1.82899 -11.1125,-3.79408 -2.110052,-0.94726 -3.955524,-1.80579 -4.101042,-1.90789 -0.145521,-0.1021 -1.558224,-0.86463 -3.139345,-1.69447 -4.835369,-2.53777 -6.453941,-4.03126 -7.76955,-7.16856 -0.829051,-1.97704 -0.958366,-3.10522 -0.615466,-5.36349 0.173646,-1.14349 0.21195,-1.73315 0.118856,-2.36162 -0.08649,-0.40223 -0.199932,-0.85339 -0.32608,-1.27072 -0.123378,-0.40814 -0.220901,-0.70289 -0.311608,-0.92759 -0.06425,-0.15103 -0.126849,-0.28916 -0.190169,-0.37569 -0.0013,-0.002 -0.0024,-0.005 -0.0036,-0.007 -0.01495,-0.0201 -0.03122,-0.0315 -0.04651,-0.0486 -0.09408,-0.10469 -0.198853,-0.15312 -0.33073,-0.16382 -0.02042,-0.003 -0.04382,-0.004 -0.06563,-0.005 -0.05336,-1.2e-4 -0.109215,0.003 -0.172601,0.01 -0.585738,0.0638 -1.243812,0.1021 -1.923397,0.12196 -0.438711,0.0331 -0.622885,0.0466 -1.099156,0.0827 -1.9671,0.14911 -2.76769,0.0831 -4.604371,-0.37879 -5.665388,-1.42478 -10.0013376,-4.97018 -11.5264277,-9.42475 -0.636479,-1.85912 -0.5907272,-5.09369 0.1033516,-7.27191 1.6500713,-5.1785 5.8303771,-8.96486 12.0586971,-10.92233 5.524789,-1.73635 11.129584,-0.855 15.154114,2.3828 0.68762,0.5532 1.607232,1.20038 2.043803,1.43868 0.976728,0.53309 2.320636,3.06363 2.742467,5.16402 0.16523,0.82269 0.300241,2.55154 0.300241,3.84163 0,1.47348 0.145973,2.69417 0.392224,3.28352 0.21558,0.516 0.514135,1.91139 0.663524,3.10058 0.06203,0.49387 0.10382,0.75643 0.152445,1.12862 0.14754,0.78242 0.29246,1.5027 0.405662,1.97145 0.323313,0.69529 0.899607,0.70566 2.372982,0.81494 3.85191,0.28571 8.15853,1.53153 13.665832,3.95325 3.01384,1.3253 3.937966,1.52191 4.852416,1.03249 0.49063,-0.26228 0.509244,-0.66742 0.497644,-10.52494 -0.0067,-5.63861 0.0462,-10.42712 0.117306,-10.64121 0.07109,-0.21409 0.196868,-1.8774 0.279569,-3.69641 0.390721,-8.59278 0.844341,-11.757869 2.523361,-17.594794 0.418589,-1.455211 0.838993,-3.241146 0.933794,-3.96875 0.09474,-0.727607 0.341354,-1.586627 0.548285,-1.908929 0.20696,-0.322302 0.376206,-0.839025 0.376206,-1.148249 0,-0.309221 0.369194,-1.627704 0.820105,-2.930054 0.507148,-1.464802 0.758174,-2.612192 0.658873,-3.008085 -0.0416,-0.16573 -0.03411,-0.316087 -0.0011,-0.467672 0.03756,-0.441264 0.275865,-0.809332 0.669726,-0.993222 0.03706,-0.03822 0.05873,-0.067 0.09922,-0.107485 0.510572,-0.510569 0.928111,-1.092938 0.928111,-1.294495 0,-0.201554 0.535784,-1.182177 1.190625,-2.179195 1.08109,-1.645984 1.190625,-1.960335 1.190625,-3.41788 0,-0.279754 0.01704,-0.578191 0.04599,-0.886767 0.04534,-0.861827 0.183173,-1.531432 0.465606,-2.56005 0.0978,-0.356222 0.214272,-0.717378 0.342614,-1.08004 0.320958,-0.948989 0.712845,-1.847479 1.144632,-2.577102 0.113393,-0.213693 0.227804,-0.424587 0.347784,-0.632002 0.313145,-0.573996 0.56379,-1.077147 0.56379,-1.190626 0,-0.417547 -0.68731,-0.894472 -3.018422,-2.092378 -1.150969,-0.591471 -2.536848,-1.369021 -3.079398,-1.72806 -2.43655,-1.61244 -9.248306,-11.046046 -8.509558,-11.78481 0.110781,-0.110763 1.140021,-0.395282 2.287199,-0.63252 1.809591,-0.374235 2.596999,-0.391231 5.946407,-0.127124 2.12331,0.167423 4.634142,0.494034 5.580022,0.725537 3.630801,0.888614 6.413577,2.579783 8.252725,5.015715 0.939882,1.244851 1.185926,1.419034 2.005047,1.419034 1.205158,0 4.376351,-1.720233 9.056812,-4.912878 3.904189,-2.66314 5.572207,-3.685002 8.231535,-5.041553 1.66079,-0.847169 4.70576,-1.951819 5.37952,-1.951819 0.172,0 0.78141,-0.218063 1.35444,-0.484208 0.57304,-0.266144 1.87524,-0.631492 2.89388,-0.812353 3.94309,-0.700101 6.15081,-1.11798 7.80521,-1.476913 5.28545,-1.146728 7.67173,-1.442745 12.03854,-1.493965 0.84888,-0.01 1.59099,-0.01096 2.25464,-0.0016 z M 22.523555,110.72683 c -3.543239,0.12326 -7.394514,1.5986 -10.030397,4.15014 -2.321282,2.24698 -3.4536668,5.14659 -3.1362409,7.68842 0.019897,0.14194 0.040095,0.28366 0.068212,0.42529 0.013229,0.0686 0.026379,0.1372 0.041857,0.20516 0.036518,0.16073 0.084437,0.3206 0.1317757,0.48059 0.086286,0.27434 0.1846501,0.54445 0.3100599,0.80409 1.0661893,2.20727 3.9223843,4.33537 7.0264443,5.23534 3.467399,1.00531 6.929787,0.79179 10.054167,-0.61961 1.507148,-0.68083 4.002045,-3.25929 4.869987,-5.03328 1.29468,-2.64626 1.516816,-5.92927 0.552937,-8.16229 -0.390369,-0.90435 -2.479112,-2.8448 -4.172871,-3.87625 -1.575067,-0.95917 -3.589988,-1.37155 -5.715931,-1.2976 z" />
      <path
         style="fill:#7a92ce;fill-opacity:1;stroke:none;stroke-width:0.264583px;stroke-linecap:butt;stroke-linejoin:miter;stroke-opacity:1"
         d="m 176.65603,110.30408 c -56.40145,9.63823 -97.453125,6.42549 -97.453125,6.42549 l -12.49399,-9.28125 -1.42789,-14.992792 8.92428,-28.914664 36.604195,-4.460576 48.35494,-2.678845 15.67498,-1.779051 4.31541,29.6228 z"
         id="path3870" />
      <path
         style="fill:#3968cb;fill-opacity:1;stroke-width:0.264583"
         d="m 67.735345,251.12765 c 2.13222,-0.56631 4.75038,-1.20938 5.82083,-1.4297 0.3638,-0.0749 1.19724,-0.30475 1.85208,-0.51086 4.02995,-1.26836 6.72952,-1.30381 11.64167,-0.15282 5.91114,1.38507 11.23106,2.20266 14.007435,2.15273 2.45668,-0.0442 3.116,-0.16873 5.95312,-1.12464 1.75477,-0.59124 3.6072,-1.28146 4.11652,-1.53382 1.71974,-0.85209 10.49682,-3.4866 13.62605,-4.08998 7.98655,-1.53995 13.95687,-1.87605 23.53596,-1.32498 7.86069,0.4522 13.33418,0.3329 15.08365,-0.32877 0.58735,-0.22214 2.37758,-0.87135 3.97831,-1.44269 10.76629,-3.84278 10.92155,-3.88623 16.93333,-4.73798 7.65225,-1.08418 8.94564,-1.15093 15.74271,-0.81266 5.0387,0.25074 6.356,0.23518 8.57591,-0.10123 1.44251,-0.2186 3.0053,-0.39746 3.47279,-0.39746 1.36395,0 3.5786,-1.14946 5.16538,-2.68094 3.13809,-3.02874 3.76656,-4.1991 5.30373,-9.87682 l 0.85691,-3.16505 -0.29922,-3.9787 c -0.54419,-7.2358 -1.90682,-12.48735 -4.94559,-19.05995 -0.53824,-1.16417 -1.16364,-2.53338 -1.38978,-3.04271 -1.96776,-4.43177 -4.53871,-9.04348 -7.89135,-14.15521 -1.04987,-1.60072 -2.29963,-3.62479 -2.7772,-4.49791 -0.47758,-0.87313 -1.01746,-1.7661 -1.19973,-1.98438 -1.01576,-1.21645 -5.79961,-10.42424 -8.01584,-15.42859 -0.89019,-2.01004 -1.61851,-3.70353 -1.61851,-3.76333 0,-0.0598 -0.39153,-0.91548 -0.87006,-1.90161 -0.8314,-1.71326 -1.80787,-4.70879 -2.18001,-6.68772 -0.0958,-0.50932 -0.5747,-2.23573 -1.06428,-3.83646 -0.48959,-1.60072 -1.07757,-4.04151 -1.30662,-5.42395 -0.22905,-1.38245 -0.53179,-3.15849 -0.67276,-3.94674 -0.46606,-2.60643 -0.16592,-5.29393 0.6444,-5.76938 0.37909,-0.22244 1.2451,-0.89992 4.36435,-3.41429 4.13568,-3.33368 7.18571,-6.73231 12.64169,-14.08653 0.60812,-0.81969 1.59797,-2.11785 2.19966,-2.88478 2.15728,-2.74972 4.36325,-7.941453 5.16086,-12.146084 0.37272,-1.964934 0.37158,-2.34923 -0.0124,-4.208759 -0.5175,-2.505456 -0.88612,-3.034588 -2.85242,-4.094623 -1.92913,-1.039987 -2.8375,-1.068197 -4.67521,-0.145187 -3.92041,1.96905 -7.52277,5.313547 -10.71772,9.950534 -0.55147,0.800365 -1.32972,1.812396 -1.72948,2.248959 -0.39973,0.436562 -1.40787,1.567656 -2.24033,2.513541 -2.06348,2.344699 -2.44575,2.645839 -3.35875,2.645839 -2.06738,0 -3.52846,-2.36133 -5.2388,-8.466672 -1.02749,-3.667789 -1.49794,-6.211435 -1.71334,-9.263655 -0.19661,-2.785877 -0.57348,-5.406242 -0.89382,-6.21447 -0.88815,-2.240915 -1.72098,-4.91658 -1.77059,-5.688542 -0.0327,-0.509323 -0.0728,-1.068138 -0.089,-1.241811 -0.0161,-0.173675 -0.37597,-0.520464 -0.79949,-0.770644 -0.79166,-0.467646 -0.99848,-1.009705 -1.255,-3.289014 -0.15613,-1.387367 -0.3997,-1.198835 3.73706,-2.892663 4.96207,-2.031773 6.96791,-3.762645 9.66755,-8.342326 0.77206,-1.309688 1.71858,-2.917031 2.10342,-3.571875 1.87719,-3.194243 2.27046,-5.318747 1.04399,-5.639477 -0.63363,-0.165696 -7.25668,1.420987 -9.32929,2.235025 -2.58802,1.016452 -6.12957,2.909697 -7.6712,4.100864 l -1.54749,1.195692 -1.62751,-1.119425 c -0.89513,-0.615686 -1.98472,-1.440868 -2.42128,-1.83374 -1.16543,-1.048809 -2.872,-2.145168 -5.55625,-3.569557 -1.30969,-0.694984 -3.03609,-1.635525 -3.83646,-2.09009 -1.71373,-0.973309 -4.49521,-2.166728 -7.8052,-3.348868 -1.30969,-0.467746 -3.94095,-1.47809 -5.84724,-2.245204 -3.62308,-1.457963 -6.81072,-2.39486 -10.82152,-3.180617 -1.79763,-0.352174 -3.48364,-0.453581 -6.87917,-0.413753 -4.36681,0.05122 -6.75309,0.34738 -12.03854,1.494108 -1.65439,0.358933 -3.86212,0.776636 -7.80521,1.476737 -1.01864,0.180861 -2.32092,0.546595 -2.89396,0.812739 -0.57303,0.266145 -1.18261,0.483899 -1.35461,0.483899 -0.67376,0 -3.71851,1.10489 -5.3793,1.952059 -2.659325,1.356551 -4.327305,2.378062 -8.231495,5.041202 -4.68046,3.192645 -7.85188,4.912989 -9.05704,4.912989 -0.81912,0 -1.06486,-0.173921 -2.00474,-1.418772 -1.83915,-2.435932 -4.62201,-4.12732 -8.25281,-5.015934 -0.94588,-0.231503 -3.45704,-0.557895 -5.58035,-0.725318 -3.34941,-0.264107 -4.13671,-0.247301 -5.9463,0.126934 -1.14718,0.237238 -2.17638,0.521964 -2.28716,0.632727 -0.73875,0.738764 6.07311,10.172213 8.50966,11.784653 0.54255,0.359039 1.92817,1.136726 3.07914,1.728197 2.33111,1.197906 3.01876,1.674442 3.01876,2.091989 0,0.15543 -0.41021,0.975741 -0.91157,1.822916 -1.13347,1.915308 -1.99884,4.990758 -1.99884,7.103655 0,1.457544 -0.10954,1.772002 -1.19063,3.417985 -0.65484,0.997019 -1.19062,1.977671 -1.19062,2.179225 0,0.201557 -0.41773,0.784201 -0.9283,1.294768 -0.72307,0.723074 -0.89281,1.069784 -0.76768,1.568275 0.0993,0.395893 -0.15206,1.543079 -0.65921,3.007881 -0.45091,1.302351 -0.81981,2.62091 -0.81981,2.930131 0,0.309224 -0.16931,0.825923 -0.37627,1.148226 -0.20693,0.322302 -0.45379,1.181316 -0.54853,1.908921 -0.0948,0.727604 -0.51478,2.513541 -0.93337,3.96875 -1.67902,5.836925 -2.13299,9.00201 -2.52371,17.59479 -0.0827,1.81901 -0.20857,3.48246 -0.27966,3.69655 -0.0711,0.21409 -0.12382,5.00265 -0.11716,10.64126 0.0116,9.85752 -0.007,10.26252 -0.49763,10.5248 -0.91445,0.48942 -1.8384,0.29284 -4.85224,-1.03246 -5.5073,-2.42172 -9.81387,-3.66752 -13.66578,-3.95323 -2.58088,-0.19142 -2.43994,-0.003 -2.93132,-3.91513 -0.14939,-1.18919 -0.448,-2.58436 -0.66358,-3.10036 -0.24625,-0.58935 -0.39201,-1.81032 -0.39201,-3.2838 0,-1.29009 -0.13517,-3.01874 -0.3004,-3.84143 -0.42183,-2.10039 -1.76557,-4.63074 -2.7423,-5.16384 -0.43657,-0.23829 -1.35634,-0.88586 -2.04396,-1.43906 -4.02453,-3.2378 -9.62917,-4.11903 -15.15396,-2.38268 -6.22832,1.95747 -10.4085802,5.7438 -12.0586502,10.9223 -0.69408,2.17822 -0.7402,5.41281 -0.10372,7.27193 1.52509,4.45457 5.8611102,7.99993 11.5265002,9.42471 1.83668,0.46191 2.63752,0.52773 4.60462,0.37862 1.30969,-0.0993 2.6697,-0.20162 3.02226,-0.22736 0.5635,-0.0412 0.70127,0.14502 1.13982,1.54064 0.44291,1.40952 0.46405,1.81674 0.18836,3.6322 -0.3429,2.25827 -0.21339,3.38659 0.61566,5.36363 1.31561,3.1373 2.93417,4.63064 7.76954,7.16841 1.58112,0.82984 2.99384,1.59232 3.13936,1.69442 0.14552,0.1021 1.99099,0.96068 4.10104,1.90794 4.37724,1.96509 7.86675,3.1565 11.1125,3.79415 2.06542,0.40577 10.2724,2.99477 11.50938,3.63077 0.75962,0.39058 0.83547,0.54676 1.82832,3.76473 1.68026,5.44603 1.85118,6.61847 3.23075,22.16079 0.45326,5.10638 0.39571,7.28062 -0.27758,10.48636 -0.20201,0.96179 -0.50919,2.61811 -0.68265,3.68073 -0.28442,1.74246 -0.87556,3.69395 -2.29999,7.59295 -0.26583,0.72761 -0.88847,2.0373 -1.38372,2.91042 -1.22486,2.15958 -4.60984,7.26985 -5.30545,8.00963 -1.79666,1.91071 -4.12933,9.70687 -4.41167,14.74454 -0.26191,4.67304 0.95108,8.91005 3.38199,11.81351 1.22161,1.4591 1.73873,1.77827 4.17777,2.57853 2.05695,0.67492 2.99873,0.6728 5.57869,-0.0124 z M 16.935335,129.71568 c -3.10406,-0.89996 -5.96003,-3.02793 -7.0262202,-5.23521 -1.39271,-2.8833 -0.34822,-6.76531 2.5840002,-9.60368 4.21741,-4.08246 11.54629,-5.40993 15.74647,-2.85214 1.69376,1.03145 3.78269,2.97175 4.17306,3.8761 0.96388,2.23302 0.74128,5.51603 -0.5534,8.16229 -0.86794,1.77399 -3.36259,4.35242 -4.86974,5.03325 -3.12438,1.4114 -6.58677,1.62471 -10.05417,0.61939 z m 77.93578,-16.81313 c -3.48369,-0.0795 -6.91565,-0.25487 -7.62656,-0.38969 -3.23694,-0.61388 -8.49143,-4.44571 -9.89534,-7.21617 -0.8708,-1.71846 -0.75864,-3.81821 0.26236,-4.9108 1.13602,-1.21571 1.50649,-2.333959 2.0488,-6.184488 0.46736,-3.318174 0.4966,-4.186099 0.24649,-7.318319 -0.40553,-5.07846 -0.66165,-6.03663 -2.06875,-7.739261 -0.57132,-0.691309 -2.30389,-1.807284 -2.80586,-1.807284 -0.62195,0 -0.67267,-0.351967 -0.19989,-1.38738 1.02611,-2.247297 4.89429,-5.78885 8.57433,-7.850343 2.1513,-1.205111 7.46545,-3.082798 9.76394,-3.44995 1.07199,-0.171236 2.96111,-0.477245 4.19804,-0.680022 3.658015,-0.59968 3.895425,-0.628253 8.863535,-1.066752 2.61938,-0.231193 6.19125,-0.463307 7.9375,-0.515808 3.54097,-0.10646 10.07171,-0.500044 16.27188,-0.980644 9.67949,-0.750292 20.87377,-0.0643 26.76932,1.640444 2.30752,0.667239 3.93756,1.314812 6.43589,2.55679 1.43094,0.711364 2.3785,1.472658 4.16719,3.348096 1.2733,1.335058 2.3151,2.562902 2.3151,2.728542 0,0.16564 -0.38695,0.455456 -0.8599,0.644041 -1.32783,0.52946 -2.2843,1.275537 -2.72311,2.124093 -1.18423,2.290062 -0.77841,11.195455 0.72734,15.960053 0.70707,2.237375 1.01367,2.814749 2.09883,3.952494 l 1.27082,1.332376 -0.16605,2.000631 c -0.287,3.457711 -1.93599,6.378461 -4.72461,8.368381 -1.53525,1.09552 -2.15334,1.35107 -4.58584,1.89595 -5.91167,1.32421 -13.76283,2.38021 -19.41383,2.61122 l -4.43153,0.18116 -2.32178,-2.22075 c -2.52558,-2.41569 -5.55955,-4.35746 -8.18753,-5.24005 -1.89992,-0.63809 -4.18841,-0.70157 -6.60381,-0.18319 -2.20586,0.47341 -4.12084,2.11833 -6.34651,5.45145 -2.06642,3.09467 -2.42041,3.51593 -3.55391,4.22938 -0.8513,0.53584 -1.1243,0.55841 -5.0015,0.41357 -2.25557,-0.0843 -6.951335,-0.21826 -10.435055,-0.29777 z"
         id="path3493" />
      <path
         style="fill:#04071c;stroke-width:0.264583"
         d="m 38.895755,149.34932 c 1.14472,-0.57033 1.58224,-0.97507 2.05052,-1.89685 0.64585,-1.27129 0.75751,-2.78034 0.31343,-4.23643 -0.15505,-0.50837 -0.39793,-1.75773 -0.53978,-2.77638 -0.34808,-2.49983 -1.05899,-8.54188 -1.12072,-9.525 -0.0274,-0.43656 -0.13208,-0.92267 -0.23262,-1.08024 -0.10054,-0.15758 -0.41495,-1.58633 -0.69866,-3.175 -0.28371,-1.58868 -0.66609,-3.24569 -0.84971,-3.68226 -0.20037,-0.47638 -0.31007,-1.69294 -0.27435,-3.0427 0.10041,-3.79541 -1.29561,-8.06038 -2.92999,-8.95146 -0.44516,-0.24269 -1.41999,-0.9574 -2.16633,-1.58824 -2.68941,-2.27322 -5.47608,-3.20805 -9.58289,-3.21473 -3.1264,-0.005 -5.88751,0.69291 -9.10432,2.30151 -7.4424902,3.7217 -10.9432202,11.62563 -7.9437102,17.93521 1.71955,3.61709 5.6675802,6.58445 10.5895502,7.95917 1.56649,0.43751 5.38485,0.58833 7.91705,0.31268 0.57081,-0.0621 0.69352,0.10401 1.12088,1.51773 0.26392,0.87313 0.48149,1.905 0.48347,2.29307 0.003,0.38803 0.10713,0.74522 0.23371,0.79375 0.12655,0.0485 0.62013,0.98115 1.09683,2.07256 0.4767,1.0914 1.26613,2.50751 1.75426,3.1469 0.48816,0.63939 0.88755,1.24642 0.88755,1.34898 0,0.41362 3.23646,3.33975 4.16475,3.76541 1.46058,0.66974 3.12111,0.57431 4.83108,-0.27768 z M 18.182345,130.1281 c -4.03738,-0.85552 -7.60214,-3.45228 -8.5159302,-6.20349 -1.42894,-4.30208 1.1304902,-8.97101 6.3045202,-11.50078 3.01363,-1.47348 4.73279,-1.85097 7.74157,-1.69992 2.83499,0.14232 4.09298,0.65335 6.31971,2.56721 0.87313,0.75045 1.73363,1.48281 1.91225,1.62748 0.17859,0.14467 0.52038,0.93602 0.75949,1.75855 0.97639,3.35866 -0.0892,7.3482 -2.71159,10.15169 -1.60948,1.72069 -2.95727,2.50464 -5.41054,3.14708 -2.36194,0.61853 -4.01333,0.65779 -6.39948,0.15218 z m 93.978885,-14.18451 c 1.43389,-0.28177 2.30058,-1.05617 2.52582,-2.25687 0.48131,-2.56548 4.41815,-7.19153 6.58432,-7.73698 3.89488,-0.98075 7.09239,0.36754 11.75094,4.95502 l 2.18387,2.15053 1.91717,0.0564 c 6.49915,0.19117 16.0955,-0.81304 23.38761,-2.44738 4.31226,-0.96649 5.31865,-1.40222 7.56835,-3.27683 2.7754,-2.31266 4.60999,-5.64356 4.87958,-8.859418 l 0.15737,-1.876931 h 1.03309 c 1.96988,0 4.26287,-1.754857 5.39195,-4.126571 0.55845,-1.173054 0.64167,-1.723686 0.63979,-4.233333 -0.003,-3.478956 -0.41479,-7.34259 -0.85921,-8.054224 -0.41741,-0.66839 -1.30667,-0.664173 -1.91595,0.0091 -0.43561,0.481335 -0.45099,0.7224 -0.17296,2.711979 0.16782,1.201028 0.30498,3.440298 0.3048,4.976156 0,2.634689 -0.0443,2.861712 -0.77751,4.017928 -1.13442,1.788809 -1.81009,2.160138 -3.23585,1.778365 -0.6305,-0.168825 -1.47574,-0.500554 -1.87833,-0.737171 -1.53591,-0.902737 -2.61641,-4.300003 -3.11669,-9.799312 -0.49551,-5.446998 -0.0604,-7.858998 1.52107,-8.432647 1.99958,-0.725289 3.97729,-1.173559 5.70912,-1.29405 2.67817,-0.186328 3.01813,-0.284144 3.18334,-0.915916 0.39301,-1.502852 -0.83878,-2.093201 -3.64697,-1.747846 -1.08968,0.134012 -2.14357,0.181364 -2.34198,0.10523 -0.25324,-0.09717 -0.41241,-0.914516 -0.53409,-2.742324 -0.28983,-4.353626 -0.64204,-7.33167 -0.9494,-8.027852 -0.99775,-2.259809 -3.24853,-5.09459 -4.93327,-6.213293 -3.52531,-2.340874 -7.18378,-3.280386 -13.5019,-3.467335 -4.44129,-0.131414 -19.02833,0.281474 -19.74223,0.558808 -0.37359,0.145121 -0.48797,-0.02397 -0.63399,-0.937157 -0.15248,-0.953598 -0.35378,-1.227389 -1.39629,-1.899222 -1.15165,-0.742185 -1.3263,-0.776663 -3.20246,-0.632195 -1.09141,0.08404 -5.2586,0.26126 -9.26042,0.393822 -7.26612,0.240688 -9.47708,0.521017 -10.10835,1.281652 -0.18413,0.221853 -0.39608,1.012296 -0.47101,1.756539 -0.13206,1.311283 -0.16084,1.351603 -0.93001,1.302515 -1.34184,-0.08564 -11.001825,0.454041 -12.964585,0.724294 -1.66571,0.229352 -5.39379,0.838936 -9.78958,1.600698 -2.94767,0.510812 -5.09998,1.873525 -8.96271,5.674648 -1.73051,1.70288 -3.40955,4.694513 -4.15152,7.396851 -0.50822,1.850945 -0.56047,2.51525 -0.4163,5.291666 0.0907,1.74625 0.23635,3.431889 0.32372,3.745863 0.16518,0.593566 0.13163,0.606025 -3.52044,1.306967 -0.811,0.155657 -1.19814,0.956813 -0.87413,1.809015 0.23452,0.61686 0.39293,0.67878 1.73627,0.67878 0.81299,0 2.07037,-0.193696 2.79416,-0.430437 1.61616,-0.528617 3.23826,-0.355748 4.07974,0.434782 0.33775,0.317288 0.86728,1.165497 1.17677,1.88491 1.05018,2.441252 1.02769,10.025909 -0.0427,14.38262 -0.33199,1.351344 -1.16162,2.248959 -2.07859,2.248959 -0.92726,0 -2.38905,-0.615903 -2.96053,-1.247365 -0.63944,-0.706581 -2.24827,-4.275365 -2.5655,-5.690936 -0.14722,-0.656829 -0.41072,-1.537306 -0.58561,-1.956613 -0.17486,-0.419309 -0.38623,-1.464516 -0.46968,-2.322682 -0.1763,-1.812903 -0.61953,-2.274099 -1.79142,-1.8641 -0.64484,0.225599 -0.75179,0.414991 -0.81978,1.451922 -0.043,0.655862 0.10043,1.84423 0.31877,2.640814 0.21836,0.796584 0.58925,2.16271 0.82423,3.035835 0.56901,2.114568 2.40752,5.792999 3.36161,6.72579 0.42177,0.412362 1.26524,0.957242 1.87439,1.210842 2.29142,0.95397 2.21943,0.88125 2.37619,2.40009 0.35526,3.44217 3.93409,7.61495 8.65323,10.0893 2.69245,1.41171 4.14676,1.65777 11.37708,1.9249 3.41974,0.12635 6.396295,0.28858 6.614575,0.36051 0.76642,0.25257 10.19932,0.37962 11.35298,0.15292 z m -21.776235,-3.17052 c -3.89392,-0.2464 -3.96782,-0.26278 -6.19294,-1.37264 -2.7414,-1.36736 -5.84838,-4.14127 -6.84795,-6.11382 -0.89228,-1.76085 -0.77086,-4.08219 0.26366,-5.04096 1.10958,-1.028316 1.43568,-2.00293 2.00189,-5.982787 0.47712,-3.353785 0.51186,-4.273122 0.27969,-7.401325 -0.14581,-1.964531 -0.43503,-4.169103 -0.6427,-4.899046 -0.52895,-1.859137 -1.84078,-3.457157 -3.50766,-4.27287 -0.76398,-0.37387 -1.38906,-0.731237 -1.38906,-0.794147 0,-0.37687 1.04002,-2.014921 2.08851,-3.289401 1.48088,-1.800084 4.20048,-3.982368 6.66938,-5.351684 2.58289,-1.432537 7.46858,-3.232521 9.78586,-3.605303 1.07881,-0.173548 3.33068,-0.541872 5.00417,-0.818496 1.67349,-0.276622 4.530985,-0.63077 6.349995,-0.78699 7.76443,-0.666824 9.21033,-0.765427 10.71562,-0.730734 1.5684,0.03615 7.50486,-0.318239 15.47813,-0.923984 12.00827,-0.912294 23.5335,0.137719 30.08715,2.741108 3.52451,1.400085 5.08545,2.388748 7.191,4.554659 1.10342,1.135054 2.10691,2.243616 2.22994,2.463466 0.34152,0.610278 0.0325,1.093439 -0.81881,1.28043 -1.20721,0.265145 -2.62932,1.913213 -2.96979,3.441624 -0.61785,2.773677 -0.20272,9.480441 0.83593,13.50491 0.70913,2.747695 1.54492,4.365857 2.71653,5.259485 0.89074,0.679405 0.94472,0.807749 0.94472,2.246582 0,3.930383 -2.30839,7.834453 -5.86455,9.918513 -2.75283,1.61327 -17.00138,3.80302 -25.09999,3.85744 l -2.52182,0.0169 -1.57922,-1.61045 c -2.09881,-2.1403 -4.34522,-3.72648 -7.11766,-5.02568 -2.83951,-1.33065 -4.94977,-1.58167 -7.8577,-0.93472 -1.65283,0.36771 -2.22679,0.6522 -3.62331,1.7959 -0.91266,0.74744 -1.97813,1.90608 -2.36771,2.57477 -1.42076,2.43864 -3.04501,4.55491 -3.98859,5.19686 l -0.96591,0.65715 -7.67292,-0.15271 c -4.220105,-0.084 -9.446335,-0.26493 -11.613885,-0.40209 z M 73.556175,70.850251 c 0,-3.961601 1.94411,-7.303098 6.31537,-10.854801 2.4553,-1.994945 3.17597,-2.375694 5.20488,-2.749785 9.8329,-1.813018 12.62319,-2.129251 18.774535,-2.127785 4.61415,0.0011 4.79621,0.04662 5.02306,1.255961 0.10369,0.55263 0.54507,1.316038 1.05678,1.827731 l 0.8787,0.878716 4.06136,0.004 c 4.21857,0.0042 5.88978,0.311327 3.35232,0.616053 -0.7742,0.09298 -2.71732,0.172146 -4.31805,0.175932 -1.60073,0.0038 -4.04151,0.128786 -5.42396,0.277776 -1.38245,0.148989 -4.23995,0.438494 -6.35,0.643342 -2.11005,0.204846 -4.431765,0.490921 -5.159365,0.63572 -0.72761,0.144798 -2.45402,0.45966 -3.83646,0.699693 -1.38245,0.240033 -3.70417,0.844598 -5.15938,1.343475 -2.69983,0.925568 -7.72483,3.318534 -8.5426,4.068098 -0.24929,0.228479 -0.92324,0.768998 -1.49767,1.201158 -0.57444,0.43216 -1.646,1.409034 -2.38125,2.170832 -0.73526,0.761802 -1.48564,1.38688 -1.66754,1.389063 -0.22508,0.0027 -0.33073,-0.462137 -0.33073,-1.45523 z m 91.383065,-7.377414 c -1.1474,-0.567275 -2.38385,-1.178237 -2.74765,-1.357693 -2.71055,-1.337062 -9.16929,-2.72314 -15.35507,-3.295269 -3.98475,-0.368555 -12.47119,-0.380429 -13.71095,-0.01918 -0.48834,0.142293 -1.84226,0.185121 -3.00871,0.09517 l -2.12079,-0.163546 1.68577,-0.608288 c 1.91812,-0.692124 2.87641,-1.618311 2.87641,-2.780057 0,-1.584811 0.25771,-1.738929 3.23327,-1.933527 1.49593,-0.09783 7.00611,-0.183076 12.24486,-0.189428 8.95604,-0.01088 9.65065,0.02259 11.62855,0.560138 4.45481,1.210715 7.35282,3.324096 8.8706,6.468944 0.64095,1.328047 0.78325,1.977168 0.81651,3.724981 0.0222,1.164167 0.0275,2.216082 0.0119,2.337591 -0.0156,0.121508 -0.54822,-0.23568 -1.18346,-0.79375 -0.63521,-0.558072 -2.09373,-1.478809 -3.24114,-2.046083 z m -39.33133,-4.5661 c 0.17913,-0.07247 0.53632,-0.07688 0.79375,-0.0098 0.25742,0.06708 0.11087,0.126381 -0.3257,0.131773 -0.43656,0.0054 -0.64719,-0.04949 -0.46805,-0.12197 z M 111.69872,56.19616 c -0.21024,-0.129923 -0.34571,-1.02871 -0.38249,-2.537227 l -0.0569,-2.336035 0.79375,-0.236755 c 0.43656,-0.130217 4.18703,-0.350618 8.33437,-0.489778 4.14734,-0.139163 7.69893,-0.311166 7.89239,-0.38223 0.19346,-0.07106 0.62341,-0.06102 0.95546,0.0223 0.54412,0.136565 0.61876,0.350309 0.756,2.165075 0.0838,1.107453 0.0523,2.200384 -0.0699,2.428735 -0.25323,0.473157 -1.7427,0.924353 -4.24227,1.285081 -2.07227,0.299064 -13.52018,0.365242 -13.98037,0.08082 z"
         id="path3491"
         sodipodi:nodetypes="ssssssssssscssssscssssssssssssssssscsscsssccsssscscsscscscssscsssssssscsssssssssssscssssssssscsssssssscssssssssssssssssssssssssccsssssscscccsssccccssssssssssscccsssscssscsscccccssssscccssscccscc" />
      <path
         style="fill:#000000;fill-opacity:1;stroke:#000000;stroke-width:3;stroke-linecap:butt;stroke-linejoin:miter;stroke-miterlimit:4;stroke-dasharray:none;stroke-opacity:1"
         d="m 99.563375,132.95548 c 16.206895,2.62585 21.708095,-5.29333 32.275255,-5.29333 46.36724,0 -27.22059,51.84544 -39.623795,14.63582 -2.30929,-6.92788 2.98237,-10.3512 7.34854,-9.34249 z"
         id="path989"
         sodipodi:nodetypes="cssc" />
    </g>
  </g>
</svg>
