<?xml version="1.0" encoding="UTF-8" standalone="no"?>
<!-- Created with Inkscape (http://www.inkscape.org/) -->

<svg
   width="269.64557mm"
   height="222.97282mm"
   viewBox="0 0 269.64556 222.97282"
   version="1.1"
   id="svg4822"
   inkscape:version="1.1 (c68e22c387, 2021-05-23)"
   sodipodi:docname="webdev.svg"
   xmlns:inkscape="http://www.inkscape.org/namespaces/inkscape"
   xmlns:sodipodi="http://sodipodi.sourceforge.net/DTD/sodipodi-0.dtd"
   xmlns="http://www.w3.org/2000/svg"
   xmlns:svg="http://www.w3.org/2000/svg">
  <sodipodi:namedview
     id="namedview4824"
     pagecolor="#505050"
     bordercolor="#eeeeee"
     borderopacity="1"
     inkscape:pageshadow="0"
     inkscape:pageopacity="0"
     inkscape:pagecheckerboard="0"
     inkscape:document-units="mm"
     showgrid="false"
     inkscape:zoom="0.52410025"
     inkscape:cx="441.70939"
     inkscape:cy="458.88167"
     inkscape:window-width="1920"
     inkscape:window-height="1017"
     inkscape:window-x="-8"
     inkscape:window-y="-8"
     inkscape:window-maximized="1"
     inkscape:current-layer="layer1" />
  <defs
     id="defs4819" />
  <g
     inkscape:label="Layer 1"
     inkscape:groupmode="layer"
     id="layer1"
     transform="translate(49.947528,-26.923979)">
    <path
       id="path6158-7"
       style="fill:none;fill-opacity:1;stroke:#ffffff;stroke-width:7.99999;stroke-linejoin:round;stroke-miterlimit:4;stroke-dasharray:none;stroke-opacity:1;paint-order:stroke markers fill"
       d="m 46.00689,30.927251 c -5.467175,0.07149 -10.326934,1.33643 -17.16691,3.957897 -2.638901,1.011376 -6.048314,2.321415 -7.576283,2.911451 -2.624561,1.013503 -4.117049,1.749627 -9.128125,4.501534 C 9.7583439,43.60363 7.3800361,45.14407 6.5658868,45.905148 6.2673574,46.18422 5.2639701,46.944208 4.3360499,47.59445 L 2.6488126,48.776807 0.57452162,47.347954 C -2.7702085,45.043935 -6.5508715,43.410771 -11.342581,42.199948 c -4.856692,-1.227239 -5.493721,-1.178625 -5.493721,0.419612 0,1.794224 4.953336,10.428603 7.2631216,12.660726 1.2729898,1.230191 4.7257493,3.168145 7.464663,4.189924 2.65614677,0.990938 2.82727927,1.157784 2.63394558,2.56832 -0.14292526,1.042665 -0.66341359,2.392141 -2.42207248,6.279203 -0.3292211,0.727604 -0.7431114,1.858698 -0.9193239,2.513542 -0.1762125,0.654844 -0.4159594,1.42875 -0.5333021,1.719791 -0.4740275,1.175711 -0.7971023,3.175426 -1.0541979,6.526734 -0.1488017,1.93997 -0.3818282,4.003683 -0.5177975,4.585766 -0.1359959,0.582084 -0.3742029,1.653646 -0.5291667,2.38125 -0.5101722,2.395046 -1.6331988,5.771526 -2.5486836,7.663614 -0.9238191,1.909347 -2.150166,3.052011 -3.276285,3.052011 -0.99523,0 -4.258601,-3.477368 -8.00468,-8.529711 -3.511284,-4.73565 -8.225205,-8.656318 -11.442195,-9.516732 -0.969751,-0.259371 -1.257076,-0.211836 -2.737817,0.452684 -2.184876,0.980508 -2.815547,1.781315 -3.371887,4.28191 -0.57822,2.598979 -0.259419,4.984988 1.185974,8.879044 1.455658,3.921659 2.314967,5.481457 5.090128,9.241294 6.82752,9.25013 9.363263,12.03026 15.388726,16.87132 2.137143,1.71704 3.152682,2.70926 3.249414,3.175 0.07736,0.3726 0.182713,0.88868 0.234093,1.14722 0.12827,0.64544 -0.779685,7.31452 -1.30483,9.58443 -0.235664,1.01864 -0.768099,2.92364 -1.183391,4.23333 -0.415264,1.30969 -0.83842,2.88898 -0.939993,3.50935 -0.27522,1.68116 -1.510681,4.93388 -4.093808,10.77815 -2.99151,6.76831 -8.363116,16.57887 -12.820922,23.41563 -2.197312,3.36994 -5.69614,9.40421 -6.213057,10.71562 -0.05734,0.14552 -0.432805,0.97895 -0.834575,1.85209 -4.609385,10.01732 -5.793545,13.71974 -6.60063,20.63749 -0.502047,4.30314 -0.398428,6.37546 0.484725,9.69709 1.437375,5.40615 2.164107,6.77758 5.135087,9.69191 3.118856,3.05938 5.026225,3.40552 18.059362,3.2737 8.242247,-0.0833 8.625305,-0.0641 14.440979,0.73226 5.4150153,0.74149 6.3681768,0.9523 10.1864582,2.25516 7.2727343,2.48156 8.7048868,2.9925 10.4448398,3.72484 1.493996,0.6288 2.176325,0.73391 5.800164,0.89452 2.258827,0.10016 4.642506,0.0938 5.29735,-0.0145 0.654844,-0.10826 4.7625,-0.27748 9.128125,-0.37568 6.466707,-0.14551 8.599357,-0.0999 11.509375,0.24494 4.313107,0.51113 9.923967,1.54651 12.213724,2.25413 0.922444,0.28507 3.10455,0.95733 4.849318,1.49396 1.744768,0.53663 3.709299,1.24428 4.365625,1.57252 0.656325,0.32827 2.562095,1.0498 4.2354,1.60352 4.209864,1.39314 7.110542,1.42753 13.89114,0.16433 2.619381,-0.48797 5.536335,-1.11619 6.481776,-1.39578 0.945409,-0.27961 2.909946,-0.57284 4.365625,-0.65164 2.606119,-0.1411 2.747655,-0.11693 9.260928,1.56889 7.06511,1.82866 8.47658,2.00466 10.73372,1.33842 2.95772,-0.87305 4.46922,-2.25371 6.05286,-5.52886 1.88696,-3.90252 2.07654,-8.87558 0.57929,-15.21354 -1.00992,-4.27516 -1.67212,-5.99642 -3.08198,-8.01398 -4.99575,-7.14907 -6.19022,-9.21908 -7.65845,-13.26948 -1.41798,-3.9118 -2.83019,-11.20976 -2.84479,-14.70091 -0.0145,-3.45345 1.06211,-15.80986 1.77974,-20.42459 0.41269,-2.6538 1.99905,-8.49454 2.64842,-9.75031 0.22143,-0.4282 0.82512,-0.89739 1.50481,-1.17047 2.59429,-1.04235 8.47356,-2.84859 11.18847,-3.437 1.60073,-0.34695 4.10104,-1.06275 5.55625,-1.5906 1.45521,-0.52784 3.02233,-1.08896 3.48247,-1.24747 0.36225,-0.1248 0.72155,-0.14579 1.53118,0.0419 0.13938,0.0371 0.30989,0.0855 0.47077,0.13022 0.30241,0.0801 0.62964,0.17052 1.05213,0.29973 0.12304,0.0363 0.26791,0.0813 0.39687,0.11989 0.70705,0.22148 1.54441,0.4928 2.63447,0.85266 5.45764,1.80165 7.8556,2.57522 17.81648,5.74797 3.27422,1.04288 6.78656,2.17038 7.80521,2.50527 1.01864,0.33488 4.1738,1.34591 7.01146,2.24689 2.83765,0.90101 7.1239,2.27171 9.525,3.04581 4.67233,1.50637 7.51904,2.41734 9.71982,3.10937 2.00569,0.66443 3.29054,1.0594 4.14548,1.24024 1.18603,0.29728 1.52783,0.26394 2.10272,0.19585 0.72689,-0.0861 1.4438,-0.27849 1.59318,-0.42788 0.0606,-0.0606 0.15709,-0.11077 0.25373,-0.15606 0.0526,-0.0183 0.10579,-0.0382 0.15865,-0.0574 0.093,-0.0281 0.18876,-0.0584 0.27182,-0.0584 0.55899,0 2.83036,-1.22091 4.04109,-2.17196 0.32172,-0.25271 0.65913,-0.64059 0.97772,-1.08572 0.10639,-0.13875 0.20364,-0.29022 0.29869,-0.45062 0.76522,-1.20707 1.32812,-2.63918 1.07539,-3.11144 -0.16648,-0.31104 -1.16497,-0.73793 -2.85616,-1.22111 -2.74889,-0.78537 -5.51193,-1.63944 -6.01048,-1.85002 -0.10155,-0.0738 -0.16762,-0.15164 -0.20671,-0.23823 0.025,-0.34909 0.24852,-1.27674 0.58498,-2.37195 1.18811,-3.86772 6.88035,-21.9386 9.06353,-28.77395 1.09226,-3.41974 2.9573,-9.31333 4.14496,-13.09687 1.18766,-3.78355 2.45948,-7.57056 2.82619,-8.41551 0.61479,-1.41651 0.90295,-3.02437 0.84594,-4.44366 0.0253,-0.45218 -0.0164,-0.78555 -0.14728,-1.17563 -0.0769,-0.37589 -0.17435,-0.7342 -0.31316,-1.048 -1.15848,-2.618905 -2.14265,-3.478917 -4.65656,-4.067456 -0.72761,-0.170342 -2.09682,-0.547532 -3.04271,-0.838192 -0.94589,-0.290658 -4.27964,-1.244272 -7.40833,-2.119249 -3.1287,-0.874978 -7.29589,-2.057855 -9.26042,-2.628781 -1.96453,-0.570924 -6.78655,-1.944373 -10.71562,-3.052011 -7.30911,-2.060501 -40.00666,-11.351064 -47.625,-13.53199 -2.32833,-0.666539 -4.3644,-1.31617 -4.52479,-1.443324 -0.16042,-0.12715 -0.99386,-0.299064 -1.85208,-0.382405 -0.34664,-0.03366 -0.66412,-0.03646 -0.96945,-0.02273 -0.246,-0.0024 -0.47334,0.01 -0.67283,0.04599 -0.14291,0.02577 -0.29675,0.07669 -0.45682,0.144176 -1.10927,0.354182 -2.01936,1.202746 -3.08405,2.762107 -0.0508,0.07436 -0.0862,0.141849 -0.13436,0.214456 -0.0693,0.09823 -0.14196,0.192796 -0.20877,0.293523 -0.32513,0.49017 -0.57703,0.949114 -0.84543,1.611789 -0.0719,0.165558 -0.14234,0.371684 -0.21239,0.552421 -0.002,0.0043 -0.003,0.0076 -0.005,0.01188 -0.26082,0.674547 -0.517,1.435049 -0.81907,2.475301 -2.49351,8.587081 -3.05034,10.479434 -3.19102,10.847917 -0.13382,0.35053 -0.81066,-1.716641 -2.07584,-6.339666 -0.21744,-0.794557 -0.39533,-1.810795 -0.39533,-2.258777 0,-0.447979 -0.23812,-1.281737 -0.52916,-1.852599 -0.29104,-0.570862 -0.52917,-1.296114 -0.52917,-1.611789 0,-0.579154 -1.22652,-4.105854 -2.51147,-7.221265 -0.38319,-0.929055 -1.40462,-2.801956 -2.27015,-4.16202 -2.48443,-3.90398 -4.73779,-8.52651 -4.74079,-9.723437 -0.003,-1.378375 1.05366,-2.32157 4.61522,-4.118094 2.90824,-1.466993 3.88569,-2.328821 7.02386,-6.194971 1.4369,-1.770239 3.76469,-5.464401 4.09071,-6.491593 0.22257,-0.701262 -0.29215,-0.953526 -2.80862,-1.37511 -1.62447,-0.272141 -2.81157,-0.275438 -5.99808,-0.01809 -4.25614,0.343739 -6.2782,0.761535 -8.38089,1.732194 -1.806524,0.833932 -3.853761,2.432848 -4.935611,3.854545 -1.401691,1.842013 -2.088499,1.910068 -4.76767,0.473356 -1.215239,-0.651671 -3.517521,-2.070748 -5.116483,-3.153812 -4.406868,-2.985061 -7.459469,-4.842239 -9.654191,-5.873544 -2.102199,-0.987831 -4.253502,-1.756998 -4.914429,-1.756998 -0.218995,0 -0.839851,-0.218508 -1.37976,-0.485242 -0.539908,-0.266737 -2.410602,-0.747385 -4.156852,-1.068152 -1.74625,-0.320768 -4.008438,-0.759346 -5.027084,-0.974617 -6.204828,-1.31126 -10.824342,-1.977448 -15.07659,-1.921846 z m 143.89716,61.842736 c 3.24362,0.919883 2.42395,0.691026 6.11694,1.737879 11.84566,3.357888 15.13311,4.234847 16.33078,5.158856 z m -84.20003,37.216853 -0.1049,0.38189 c -0.0664,-0.036 -0.1001,-0.0629 -0.13953,-0.092 0.0255,-0.0496 0.0786,-0.11452 0.12248,-0.17622 0.01,-1.8e-4 0.0107,-0.003 0.0212,-0.003 0.0243,0 0.0649,-0.065 0.10077,-0.11111 z" />
    <ellipse
       style="fill:#ffffff;fill-opacity:1;stroke:#ffffff;stroke-width:0.0335176;stroke-linejoin:round;stroke-miterlimit:4;stroke-dasharray:none;stroke-opacity:1;paint-order:stroke markers fill"
       id="path6158"
       cx="70.676682"
       cy="78.249176"
       rx="32.056923"
       ry="33.571423" />
    <path
       style="fill:#86d2f8;fill-opacity:1;stroke:#ffffff;stroke-width:0.00506618;stroke-linecap:butt;stroke-linejoin:miter;stroke-miterlimit:4;stroke-dasharray:none;stroke-opacity:1"
       d="m 104.2481,135.26683 14.89259,-54.005463 3.53384,-7.254465 3.53383,-0.806053 86.57894,26.599708 1.76691,3.492893 0.25242,2.95552 -18.02588,56.5945 z"
       id="path5302" />
    <path
       style="fill:#10e7e2;fill-opacity:1;stroke:#ffffff;stroke-width:0.00491041;stroke-miterlimit:4;stroke-dasharray:none;stroke-opacity:1"
       d="m 104.47524,244.22282 c -6.513277,-1.68582 -6.655117,-1.70985 -9.261237,-1.56875 -1.45568,0.0788 -3.42021,0.37206 -4.36562,0.65167 -0.94544,0.27959 -3.8621,0.9076 -6.48148,1.39557 -6.7806,1.2632 -9.6811,1.22889 -13.890965,-0.16425 -1.673304,-0.55372 -3.579362,-1.27534 -4.235688,-1.60361 -0.656325,-0.32824 -2.620857,-1.03587 -4.365625,-1.5725 -1.744768,-0.53663 -3.927025,-1.20893 -4.849469,-1.494 -2.289757,-0.70762 -7.900352,-1.7432 -12.213458,-2.25433 -2.910019,-0.34483 -5.042667,-0.39018 -11.509375,-0.24468 -4.365625,0.0982 -8.473281,0.26715 -9.128125,0.37541 -0.654844,0.1083 -3.03874,0.11497 -5.297567,0.0148 -3.623839,-0.1606 -4.306094,-0.26585 -5.80009,-0.89466 -1.739953,-0.73234 -3.172249,-1.24309 -10.444983,-3.72465 -3.818282,-1.30286 -4.771443,-1.51389 -10.186459,-2.25538 -5.815674,-0.79637 -6.198447,-0.81579 -14.440694,-0.73245 -13.033137,0.13182 -14.940836,-0.21397 -18.059692,-3.27335 -2.97098,-2.91433 -3.697499,-4.28561 -5.134874,-9.69176 -0.883153,-3.32163 -0.986764,-5.39427 -0.484717,-9.6974 0.807085,-6.91775 1.991254,-10.62017 6.60064,-20.6375 0.40177,-0.87313 0.777425,-1.70657 0.83476,-1.85209 0.516917,-1.31141 4.015555,-7.34568 6.212867,-10.71562 4.457806,-6.83676 9.829483,-16.64732 12.820994,-23.41563 2.583127,-5.84427 3.818652,-9.09717 4.093872,-10.77833 0.101573,-0.62037 0.52443,-2.19948 0.939694,-3.50917 0.41529,-1.30969 0.94787,-3.21469 1.183534,-4.23333 0.525145,-2.26991 1.432957,-8.93866 1.304687,-9.5841 -0.05138,-0.25854 -0.156739,-0.77492 -0.234103,-1.14752 -0.09673,-0.46574 -1.11215,-1.45796 -3.249295,-3.175 -6.025462,-4.84106 -8.561335,-7.6212 -15.388855,-16.87133 -2.775162,-3.75984 -3.634211,-5.319547 -5.089869,-9.241207 -1.445393,-3.894055 -1.764083,-6.280171 -1.185863,-8.879149 0.55634,-2.500596 1.186815,-3.301265 3.371691,-4.281773 1.480741,-0.66452 1.768237,-0.71205 2.737988,-0.452681 3.21699,0.860414 7.930833,4.781044 11.442118,9.516692 3.746077,5.052343 7.009289,8.529608 8.00452,8.529608 1.126119,0 2.352701,-1.142452 3.27652,-3.051799 0.915485,-1.892089 2.03835,-5.26878 2.54852,-7.663826 0.154966,-0.727604 0.393039,-1.799166 0.529034,-2.38125 0.13597,-0.582083 0.369015,-2.645579 0.517816,-4.585549 0.257096,-3.351308 0.580073,-5.35124 1.0541,-6.526951 0.117343,-0.291041 0.357532,-1.064948 0.533744,-1.719791 0.176213,-0.654844 0.58973,-1.785938 0.918951,-2.513542 1.758659,-3.887063 2.279201,-5.236522 2.422128,-6.279187 0.193332,-1.410536 0.02222,-1.57729 -2.633927,-2.568228 -2.738913,-1.021779 -6.1917,-2.959907 -7.464689,-4.190098 -2.309787,-2.232123 -7.262919,-10.866271 -7.262919,-12.660495 0,-1.598237 0.636984,-1.646897 5.493676,-0.419659 4.79171,1.210824 8.572262,2.843978 11.916993,5.147996 l 2.07428,1.428853 1.687116,-1.182262 c 0.92792,-0.650242 1.931405,-1.410591 2.229935,-1.689663 0.814149,-0.761077 3.192647,-2.301248 5.569876,-3.606745 5.011076,-2.751907 6.503564,-3.487906 9.128125,-4.501409 1.527969,-0.590036 4.937231,-1.900285 7.576132,-2.91166 12.15996,-4.660387 18.061174,-5.032978 32.243661,-2.035813 1.018646,0.215271 3.280833,0.653844 5.027083,0.974612 1.74625,0.320767 3.616749,0.801449 4.156658,1.068186 0.539908,0.266734 1.160806,0.484973 1.379802,0.484973 0.660926,0 2.812386,0.769152 4.914586,1.756984 2.19472,1.031304 5.24716,2.888396 9.65403,5.873457 1.59896,1.083064 3.90144,2.502392 5.11668,3.154063 2.67917,1.436712 3.36573,1.368526 4.76742,-0.473487 1.08185,-1.421697 3.1293,-3.020624 4.935827,-3.854556 2.10269,-0.970659 4.12488,-1.38865 8.38102,-1.732389 3.18651,-0.257352 4.37345,-0.253701 5.99792,0.01844 2.51647,0.421584 3.03138,0.673634 2.80881,1.374896 -0.32602,1.027192 -2.65398,4.721231 -4.09088,6.49147 -3.13817,3.86615 -4.11549,4.728181 -7.02373,6.195174 -3.56156,1.796524 -4.6187,2.739713 -4.61569,4.118089 0.003,1.196927 2.25648,5.819516 4.74091,9.723498 0.86553,1.360062 1.8872,3.232979 2.27039,4.162036 1.28495,3.115411 2.51145,6.641913 2.51145,7.221067 0,0.315674 0.23813,1.041019 0.52917,1.611881 0.29104,0.570863 0.52917,1.404459 0.52917,1.852438 0,0.447982 0.1779,1.464604 0.39534,2.259161 1.26518,4.623025 1.94199,6.689974 2.07581,6.339443 0.14068,-0.368483 0.69729,-2.260835 3.1908,-10.847917 0.76007,-2.617517 1.22409,-3.693564 2.22493,-5.159375 1.65722,-2.427187 2.93264,-3.148097 5.18293,-2.929591 0.85822,0.08334 1.69166,0.255553 1.85208,0.382704 0.16039,0.127151 2.19665,0.776534 4.52498,1.443072 7.61834,2.180924 40.31589,11.471479 47.625,13.53198 3.92907,1.107636 8.7511,2.481006 10.71563,3.051929 1.96453,0.570926 6.13172,1.753939 9.26042,2.628916 3.12869,0.874979 6.46244,1.828683 7.40833,2.119341 0.94589,0.290661 2.3151,0.667843 3.04271,0.838184 2.51391,0.588539 3.49821,1.448229 4.65669,4.067129 0.74742,1.68966 0.58947,4.42095 -0.3856,6.66757 -0.36671,0.84495 -1.63849,4.63189 -2.82615,8.41544 -1.18766,3.78354 -3.05305,9.67713 -4.14531,13.09687 -2.18318,6.83535 -7.87521,24.90618 -9.06332,28.77391 -0.4136,1.34631 -0.67437,2.49106 -0.57955,2.54384 0.26527,0.14766 3.3264,1.09204 6.21189,1.91643 1.69119,0.48318 2.68933,0.90993 2.85581,1.22097 0.38459,0.71864 -1.10998,3.67282 -2.35154,4.64807 -1.21073,0.95105 -3.48234,2.17178 -4.04133,2.17178 -0.22672,0 -0.53445,0.12224 -0.68384,0.27162 -0.14938,0.14939 -0.86632,0.34205 -1.59321,0.42812 -1.39211,0.16489 -1.09469,0.24956 -15.96808,-4.54564 -2.4011,-0.7741 -6.68735,-2.14464 -9.525,-3.04565 -2.83766,-0.90098 -5.99282,-1.91217 -7.01146,-2.24705 -1.01865,-0.33489 -4.53099,-1.4622 -7.80521,-2.50508 -9.96088,-3.17275 -12.35887,-3.94642 -17.81651,-5.74807 -4.64511,-1.53347 -5.34501,-1.6996 -6.08542,-1.44452 -0.46014,0.15851 -2.02724,0.72009 -3.48245,1.24793 -1.45521,0.52785 -3.95552,1.24357 -5.55625,1.59052 -2.71491,0.58841 -8.59451,2.39435 -11.1888,3.4367 -0.67969,0.27308 -1.28289,0.7425 -1.50432,1.1707 -0.64937,1.25577 -2.23605,7.09655 -2.64874,9.75035 -0.71763,4.61473 -1.79438,16.9709 -1.77985,20.42435 0.0146,3.49115 1.42708,10.78944 2.84506,14.70125 1.46823,4.0504 2.66285,6.12021 7.6586,13.26928 1.40986,2.01756 2.07174,3.73878 3.08166,8.01394 1.49725,6.33796 1.30797,11.31102 -0.57899,15.21354 -1.58364,3.27515 -3.09523,4.6559 -6.05295,5.52895 -2.25714,0.66624 -3.66864,0.49024 -10.73375,-1.33842 z m 92.54202,-87.73272 c 6.01059,-19.00491 9.07513,-28.71538 9.58162,-30.36093 0.33591,-1.09141 1.38515,-4.42516 2.33159,-7.40834 5.42549,-17.10089 5.10164,-15.82123 4.41052,-17.42779 -0.9798,-2.27761 0.16965,-1.82731 -17.31992,-6.785077 -24.7592,-7.018488 -39.70454,-11.264484 -41.01041,-11.651133 -5.94839,-1.76122 -28.51161,-8.100507 -29.26734,-8.222853 -0.52633,-0.0852 -1.20645,-0.02138 -1.51138,0.141811 -0.73374,0.392684 -2.00149,2.274414 -2.42274,3.596087 -0.18549,0.582083 -0.43542,1.183053 -0.55533,1.335484 -0.11991,0.152435 -1.35856,4.081497 -2.75254,8.73125 -4.27881,14.272371 -5.67772,18.920281 -6.6058,21.947851 -0.49067,1.60073 -1.50587,4.99401 -2.25602,7.54062 -2.47957,8.41793 -3.72409,12.17084 -4.03604,12.17084 -0.88955,0 0.59161,0.6441 3.90989,1.70026 9.84014,3.13198 34.21028,10.95859 39.1473,12.57237 5.51323,1.80213 14.03043,4.53792 23.94479,7.69125 2.83766,0.90255 7.48109,2.39437 10.31875,3.31518 2.83766,0.92083 6.52859,2.1055 8.20208,2.6326 1.67349,0.52713 3.28084,1.06254 3.57188,1.18983 1.21084,0.52959 1.3439,0.37415 2.3191,-2.70931 z m -13.89253,-15.53786 c -0.36552,-0.28753 -0.85974,-1.1194 -1.09826,-1.84859 l -0.43365,-1.32583 0.82899,-1.46889 c 1.38856,-2.46039 3.46419,-3.5011 4.56242,-2.28759 0.99465,1.09908 0.20032,2.63578 -2.23398,4.32192 -0.51909,0.35954 -0.57338,0.50395 -0.29649,0.78872 0.28003,0.288 0.55586,0.26496 1.5875,-0.13271 1.65491,-0.63794 2.17812,-0.6594 2.53547,-0.10396 0.41754,0.649 -0.0132,1.23667 -1.44211,1.96752 -1.47344,0.75362 -3.11883,0.79031 -4.00989,0.0894 z m -5.21502,-2.2402 c -0.22532,-0.27149 -0.28138,-0.78465 -0.16817,-1.53956 0.16259,-1.08418 0.13486,-1.14554 -0.65146,-1.44235 -0.62896,-0.23739 -0.801,-0.44664 -0.73472,-0.89355 0.0911,-0.6141 0.40653,-0.8667 1.62044,-1.29747 l 0.74017,-0.26265 -0.0429,-2.88835 c -0.0236,-1.58858 0.0373,-3.01813 0.13536,-3.17677 0.0981,-0.15865 0.46329,-0.28842 0.81166,-0.28842 0.80156,0 1.18385,1.21539 1.18597,3.77031 l 0.003,1.78594 0.85989,0.004 c 1.13914,0.005 1.58703,0.32321 1.47836,1.04917 -0.0665,0.44405 -0.4337,0.72459 -1.43682,1.09758 -1.32964,0.49437 -1.35189,0.52117 -1.67679,2.01937 -0.18111,0.83511 -0.42032,1.69696 -0.53158,1.91524 -0.28157,0.55235 -1.18533,0.63614 -1.59089,0.14746 z m -5.23812,-0.93335 c -0.32742,-0.3067 -0.59531,-0.80105 -0.59531,-1.09855 0,-0.2975 -0.0893,-0.49493 -0.19844,-0.43876 -1.47298,0.75822 -2.64781,1.0822 -4.34665,1.19864 -2.03454,0.13944 -2.04147,0.13769 -2.21705,-0.56184 -0.19833,-0.7902 0.23244,-1.4886 0.9181,-1.4886 0.48141,0 3.51195,-0.75472 3.6716,-0.91437 0.33883,-0.33883 -0.72583,-1.28244 -2.25809,-2.00136 -2.37905,-1.11623 -2.9778,-1.69781 -2.9778,-2.89235 0,-1.48981 1.0228,-2.70901 3.11396,-3.71189 1.86452,-0.89416 3.30404,-0.0432 2.86771,1.69527 -0.17997,0.71699 -1.11003,0.94884 -1.64806,0.41081 -0.32785,-0.32784 -2.04116,0.7434 -2.15784,1.34919 -0.0513,0.2666 0.53211,0.68115 1.75827,1.24923 1.02187,0.47348 2.19363,1.25863 2.64419,1.77179 l 0.80912,0.92154 0.90117,-0.53171 c 1.43005,-0.84373 2.35572,-0.0888 1.77239,1.4455 -0.40521,1.0658 -0.33779,1.35771 0.39013,1.68937 1.23002,0.56044 0.56618,1.98731 -1.07569,2.31214 -0.57145,0.11303 -0.93356,0.006 -1.37171,-0.40405 z m -22.85714,-5.01838 c -0.85492,-0.70157 -0.4087,-1.42465 0.98989,-1.60406 0.836,-0.10724 1.04809,-0.25082 1.11987,-0.75811 0.0487,-0.34422 -0.0406,-0.75499 -0.19843,-0.91281 -0.36312,-0.36312 -0.36963,-1.38446 -0.0132,-2.05063 0.33218,-0.62071 1.9504,-0.70654 2.52312,-0.1338 0.43862,0.4386 0.495,1.10596 0.1134,1.34181 -0.14552,0.0899 -0.26459,0.75964 -0.26459,1.48823 0,1.5975 -0.2963,2.21422 -1.31762,2.74235 -1.05492,0.54554 -2.20369,0.5016 -2.95254,-0.11298 z m -17.5087,-1.10553 c -1.17631,-0.68419 -0.97715,-2.51381 0.2481,-2.2796 0.87985,0.1682 1.15785,-0.43939 1.15785,-2.53047 0,-1.66782 -0.0127,-1.69808 -0.65657,-1.57498 -1.08812,0.208 -1.96577,-0.14547 -2.14622,-0.86438 -0.19907,-0.79322 -0.40656,-0.82121 -1.02465,-0.13823 -1.40255,1.54981 -5.1684,1.11639 -5.1684,-0.59485 0,-0.3608 -0.23288,-0.69479 -0.59531,-0.8538 -0.55782,-0.24473 -0.59531,-0.42096 -0.59531,-2.79905 v -2.53786 l 1.01327,-1.23655 c 1.62759,-1.98626 3.20387,-2.52358 4.44752,-1.51607 0.5307,0.42993 0.62463,0.74451 0.62463,2.09203 0,1.40644 0.0806,1.64949 0.71196,2.14671 0.39159,0.30839 0.78664,0.79596 0.87789,1.0835 0.12258,0.38619 0.32189,0.48364 0.76287,0.37296 0.81664,-0.20496 1.32816,0.46364 1.12641,1.47235 -0.24026,1.20141 0.27176,0.95085 0.94753,-0.46368 0.62733,-1.3131 1.26743,-1.66882 1.96347,-1.09116 0.30824,0.25581 0.36873,0.61017 0.24085,1.41091 -0.0939,0.58813 -0.26484,2.61713 -0.37983,4.5089 -0.22823,3.75552 -0.58124,4.84182 -1.74586,5.37244 -0.83888,0.38225 -1.18213,0.38619 -1.8102,0.0209 z m -3.55499,-9.28208 c 0.25466,-0.29452 0.46302,-0.82352 0.46302,-1.17556 0,-0.60322 -0.0779,-0.6358 -1.3526,-0.566 -1.05246,0.0576 -1.41909,-0.0287 -1.6523,-0.38895 -0.22667,-0.3502 -0.21804,-0.57585 0.0353,-0.92604 0.50467,-0.69748 1.36581,-2.55183 1.24238,-2.67528 -0.0596,-0.0596 -0.40421,0.0854 -0.76576,0.32233 -0.70469,0.46174 -0.84786,1.00358 -1.03349,3.91157 l -0.11218,1.75707 0.82711,0.26353 c 1.03124,0.32856 1.75094,0.16839 2.34847,-0.52267 z m 45.45272,7.87021 c -0.5293,-0.63778 -0.0837,-1.46791 0.7879,-1.46791 0.89842,0 1.39917,0.67733 1.0219,1.38224 -0.30353,0.56716 -1.36834,0.61756 -1.8098,0.0857 z m -30.18481,-0.098 c -0.89484,-0.39259 -2.63406,-2.01523 -2.63406,-2.45753 0,-0.25842 0.21381,-0.62545 0.47512,-0.81561 0.26133,-0.19015 0.75104,-0.7983 1.08825,-1.35143 0.33724,-0.55313 0.88474,-1.18364 1.21666,-1.40113 0.80918,-0.5302 1.89109,-0.24226 2.09159,0.55665 0.1928,0.7681 -0.003,1.33549 -0.85442,2.48645 l -0.66704,0.90088 1.05804,-0.1692 c 1.8623,-0.29779 2.56868,0.83764 1.09612,1.76194 -0.74248,0.46604 -2.31278,0.73356 -2.87026,0.48898 z m -4.37012,-2.63073 c -0.15446,-0.10692 -0.39571,-0.60648 -0.5361,-1.11014 -0.1774,-0.63636 -0.44733,-0.96109 -0.88474,-1.06435 -1.46529,-0.34591 -1.35956,-1.90424 0.14089,-2.07693 1.29276,-0.14878 1.60965,-0.66456 1.80843,-2.94331 0.18082,-2.07276 0.35925,-2.39237 1.33564,-2.39237 0.88615,0 0.97293,3.59091 0.15021,6.21644 -0.137,0.43726 -0.31787,1.26227 -0.40188,1.83335 -0.22101,1.50231 -0.82754,2.08058 -1.61245,1.53731 z m 9.58861,-3.3135 c -0.29716,-0.22532 -0.43911,-0.8224 -0.47816,-2.01109 -0.0455,-1.38374 0.0338,-1.75594 0.43664,-2.05052 0.61037,-0.44632 0.70086,-0.44636 1.31062,-5.3e-4 0.52334,0.38267 0.61293,1.23479 0.30268,2.87851 -0.21518,1.13993 -0.92472,1.67424 -1.57178,1.18358 z m 11.06022,-6.32772 c -0.60836,-0.723 -0.69448,-1.02501 -0.58473,-2.05052 0.0708,-0.66146 0.21944,-1.42149 0.3303,-1.68895 0.16693,-0.40277 0.0935,-0.47094 -0.42743,-0.39688 -0.49636,0.0706 -0.66233,0.29571 -0.78708,1.06775 -0.19704,1.2193 -0.66247,1.79981 -1.44304,1.79981 -0.43916,0 -0.68247,-0.22744 -0.89474,-0.83635 -0.16034,-0.45999 -0.57865,-1.21273 -0.92954,-1.67277 -1.21642,-1.59482 -0.92043,-2.51797 0.8073,-2.51797 1.01126,0 1.20367,-0.0915 1.42692,-0.67868 0.1419,-0.37327 0.25803,-1.14299 0.25803,-1.71048 0,-1.25551 0.61118,-1.72065 1.60424,-1.2209 0.65434,0.32929 0.77661,1.03559 0.48752,2.81631 -0.0941,0.57953 -0.009,0.6637 0.68636,0.67953 0.98827,0.0225 1.98438,0.34222 1.98438,0.63694 0,0.12236 0.53578,0.77375 1.19062,1.44753 0.88434,0.90992 1.19063,1.43315 1.19063,2.03396 0,1.04434 -0.80929,2.16731 -1.953,2.71005 -1.37803,0.65391 -2.1349,0.54645 -2.94674,-0.41838 z m 2.50885,-1.91866 c 0.40019,-0.48217 0.14023,-0.93763 -0.53514,-0.93763 -0.3714,0 -0.51356,0.18309 -0.51356,0.66145 0,0.73751 0.54642,0.88141 1.0487,0.27618 z m 12.06572,-8.43667 c -0.37346,-0.37344 -0.679,-0.84842 -0.679,-1.0555 0,-0.20708 -0.17859,-0.52472 -0.39688,-0.70588 -0.54165,-0.44953 -0.49889,-1.22059 0.0909,-1.63864 0.26826,-0.19015 0.69919,-0.7936 0.95766,-1.341 0.54245,-1.14891 1.81258,-2.31203 2.52476,-2.31203 0.64146,0 1.32152,0.69592 1.32152,1.35236 0,0.76126 -0.95994,2.51746 -1.63415,2.9897 -0.72308,0.50646 -0.4736,0.84048 0.31321,0.41938 0.87985,-0.47088 1.8501,-0.12277 1.8501,0.66381 0,0.75488 -1.47243,1.86747 -2.83107,2.1392 -0.67826,0.13565 -0.96747,0.0382 -1.51701,-0.5114 z m -7.6875,-3.08101 c -0.38917,-0.43004 -0.44682,-0.80408 -0.31636,-2.05235 0.24921,-2.38432 -0.1008,-2.58164 -1.64523,-0.9275 -0.71329,0.76399 -1.4687,1.38906 -1.67865,1.38906 -0.55081,0 -1.25751,-0.87114 -1.25751,-1.55011 v -0.58239 l -0.72761,0.52662 c -1.34672,0.97473 -2.86824,0.85485 -3.78748,-0.29844 -0.41042,-0.5149 -0.42384,-0.51438 -1.52392,0.059 -1.23526,0.64386 -1.95054,0.57698 -3.04612,-0.28481 -0.52729,-0.41476 -0.70445,-0.7911 -0.70445,-1.4964 0,-2.23019 1.3835,-4.57556 2.69906,-4.57556 1.22169,0 1.74882,1.31246 0.74327,1.850618 -0.57139,0.305792 -1.32567,1.578782 -1.32567,2.237282 0,1.03144 2.04901,-0.26577 2.62811,-1.66383 0.21394,-0.516506 0.7425,-0.961654 1.64219,-1.383046 2.09629,-0.981847 2.85848,-0.714938 3.52724,1.235196 0.21246,0.61954 0.54856,1.06638 0.84209,1.11954 0.26868,0.0486 0.63232,0.27295 0.80814,0.49843 0.28813,0.36953 0.40947,0.36733 1.2306,-0.0223 1.36774,-0.64903 2.41306,-0.55857 3.06076,0.26486 0.3016,0.38342 0.54837,0.8567 0.54837,1.05172 0,0.25188 0.22707,0.30916 0.78402,0.19777 2.03551,-0.4071 2.87337,0.81483 2.68237,3.91204 -0.0626,1.01482 -1.67683,0.75106 -2.01994,-0.33005 -0.16597,-0.52291 -0.2255,-0.49839 -0.96324,0.39659 -0.88699,1.07608 -1.50479,1.19629 -2.20004,0.42807 z m -6.8,-5.91072 c 0.0625,-0.73917 -0.0167,-0.97173 -0.33073,-0.97173 -0.30668,0 -0.41285,0.27785 -0.41285,1.08038 0,1.37854 0.62563,1.28713 0.74358,-0.10865 z m -10.51497,0.0468 c -0.34977,-0.32585 -0.54737,-0.84051 -0.54737,-1.42568 0,-0.503649 -0.0619,-0.91573 -0.13755,-0.91573 -0.0756,0 -0.59251,0.28721 -1.14858,0.63824 -2.14559,1.35445 -4.27538,1.51335 -5.66225,0.42244 -0.56496,-0.44439 -0.76427,-0.47055 -1.49217,-0.19579 -1.04661,0.39505 -2.22776,-0.15598 -2.36363,-1.102684 -0.12133,-0.845611 0.31991,-1.204423 1.39237,-1.1322 0.89956,0.06058 0.90657,0.0522 1.21981,-1.456735 0.41135,-1.98143 0.91329,-2.729521 1.83142,-2.729521 1.57208,0 2.27703,1.953376 1.34811,3.735554 -0.58711,1.12639 -0.46448,1.541098 0.45894,1.552062 0.4367,0.0052 2.43002,-0.993685 3.02342,-1.515057 0.24982,-0.219517 0.74917,-0.399122 1.10964,-0.399122 0.56708,0 0.69149,-0.168293 0.92329,-1.249097 0.37002,-1.725375 1.30686,-4.160793 1.78411,-4.638059 0.59629,-0.596281 1.38332,-0.491657 1.55874,0.207208 0.0874,0.348118 -0.19815,1.647693 -0.67408,3.06826 -0.60163,1.795758 -0.85148,3.08552 -0.92091,4.753906 -0.0524,1.259255 -0.104,2.364965 -0.11467,2.457135 -0.0502,0.43528 -1.09376,0.38594 -1.58864,-0.0751 z m -15.87973,-4.633398 c -0.30478,-0.387448 -0.62754,-1.012526 -0.71726,-1.389062 -0.25736,-1.080146 -0.34618,-1.123485 -1.14157,-0.557112 -0.86847,0.618402 -1.28167,0.65396 -1.92495,0.165642 -0.60219,-0.457136 -0.60952,-2.223413 -0.0209,-5.049599 0.51742,-2.484536 0.73144,-2.838403 1.65192,-2.731403 0.66307,0.07708 0.68212,0.130898 0.61958,1.750486 -0.0599,1.551776 -0.0276,1.659248 0.45302,1.506699 1.14202,-0.362463 1.97805,0.826789 2.18937,3.114419 0.0374,0.404706 0.18309,0.740844 0.32382,0.746969 0.37566,0.01635 1.45423,-3.356047 1.6441,-5.140611 0.19748,-1.856372 0.73887,-2.62618 1.60578,-2.283267 0.50369,0.199239 0.59531,0.433901 0.59531,1.524603 0,1.4761 -0.75631,4.620676 -1.55649,6.47159 -1.07129,2.478013 -2.62834,3.26064 -3.72171,1.870646 z M 79.339823,107.36071 c 2.88309,-0.79573 3.83141,-1.24542 6.89086,-3.26756 2.86891,-1.89618 3.96185,-2.86326 7.09105,-6.2744 2.19742,-2.395426 3.20439,-3.926885 4.79427,-7.291382 1.55189,-3.28413 2.000387,-4.807929 2.254917,-7.661011 0.12999,-1.457097 0.29763,-2.826316 0.3725,-3.042708 1.00389,-2.900669 -0.60423,-10.952647 -3.060667,-15.325146 -2.02843,-3.610602 -5.91614,-8.456615 -8.11795,-10.119002 -1.715,-1.294845 -6.20797,-3.640545 -8.68304,-4.533287 -6.56146,-2.366666 -14.344703,-2.488012 -19.316012,-0.301148 -2.343653,1.03097 -6.468719,3.902739 -8.867299,6.173203 -2.594743,2.456127 -6.511873,7.987609 -8.05614,11.376271 -1.945428,4.268959 -2.985691,10.5254 -2.491184,14.982547 1.017296,9.168799 4.871164,15.394673 12.847029,20.754123 4.653598,3.12703 5.673619,3.5845 10.715625,4.80591 2.927774,0.70924 10.620241,0.5532 13.626041,-0.27641 z M 74.551153,95.437741 C 66.399688,93.595373 60.40841,87.203481 58.958652,78.802614 c -0.754936,-4.374647 0.166476,-9.536904 2.428796,-13.60715 2.461048,-4.427829 7.452439,-8.282411 12.385565,-9.564722 2.14432,-0.55739 3.73018,-0.503558 7.12857,0.24198 2.4702,0.541909 3.14579,0.811244 4.70193,1.874514 2.59633,1.773997 5.42952,4.657892 7.13547,7.263181 0.80992,1.236927 1.54088,2.444596 1.62433,2.683711 0.0835,0.239114 -0.8219,-0.549749 -2.01191,-1.753029 -3.87771,-3.920932 -8.30938,-5.41905 -12.29088,-4.154924 -2.84223,0.902404 -5.05965,3.028879 -5.59927,5.369631 -0.62561,2.713707 -0.25958,5.0735 1.33114,8.58174 1.00402,2.214316 1.68611,3.169602 3.92663,5.499245 2.66523,2.771249 5.16488,3.804732 8.57809,3.546592 1.05843,-0.08005 2.35053,-0.32358 2.87131,-0.541182 0.5208,-0.217601 2.03866,-1.448847 3.37306,-2.736106 1.33438,-1.287259 2.486,-2.397842 2.55919,-2.467965 0.14036,-0.134509 -0.0201,1.469142 -0.47562,4.753605 -0.62524,4.508391 -3.60696,7.950213 -9.07677,10.477415 -3.69049,1.705115 -8.65026,2.151055 -12.99713,1.168591 z M 69.863904,77.399714 c 1.136888,-1.068052 0.487548,-2.864297 -1.035447,-2.864297 -1.661213,0 -2.35585,1.61441 -1.216474,2.827218 0.720195,0.766596 1.462378,0.778814 2.251921,0.03708 z m 2.539579,-5.704372 c 0.6468,-1.111679 0.3103,-2.232422 -1.076936,-3.587038 -1.632373,-1.593953 -3.546104,-1.503709 -4.109402,0.193781 -0.210106,0.633105 -0.143113,0.995111 0.35941,1.94238 1.287833,2.427579 3.816429,3.187629 4.826928,1.450877 z"
       id="path4979" />
    <path
       style="fill:#050d15;stroke:#ffffff;stroke-width:0.00491041;stroke-miterlimit:4;stroke-dasharray:none;stroke-opacity:1"
       d="m 191.78774,169.12086 c -2.76489,-0.92435 -8.00364,-2.6322 -11.64167,-3.79521 -14.47522,-4.62751 -18.60322,-5.94992 -20.5052,-6.56889 -1.09141,-0.35517 -4.24657,-1.35985 -7.01146,-2.2326 -2.7649,-0.87276 -7.73584,-2.47275 -11.04652,-3.5555 C 138.27219,151.8859 135.23014,151 134.82279,151 c -0.40738,0 -0.85378,-0.10819 -0.99203,-0.2404 -0.27154,-0.25972 -2.39784,-0.98875 -7.3951,-2.53553 -3.50973,-1.08635 -4.50528,-1.40973 -5.29167,-1.71876 -0.96846,-0.3806 -4.92723,-1.59073 -5.20383,-1.59073 -0.14986,0 -0.64762,-0.16494 -1.10619,-0.36655 -0.87704,-0.3856 -8.77808,-2.92375 -10.03049,-3.22223 -0.40156,-0.0957 -0.79555,-0.27987 -0.87553,-0.40928 -0.08,-0.12941 -0.40627,-0.23469 -0.72509,-0.234 -0.31885,0 -1.45185,-0.31615 -2.5178,-0.70414 -1.494577,-0.54401 -2.258587,-1.02338 -3.338647,-2.09481 -3.48919,-3.46146 -4.49247,-9.4289 -1.68873,-10.04472 0.73972,-0.16245 3.39921,0.27414 4.17158,0.68485 0.485487,0.25815 3.725837,1.30963 4.035897,1.30963 0.11727,0 0.2132,-0.16504 0.2132,-0.36676 0,-0.20175 0.3002,-1.26061 0.66712,-2.35307 0.36693,-1.09247 0.90827,-2.90688 1.20299,-4.03205 0.29469,-1.12517 0.87148,-3.07262 1.28172,-4.32767 0.41023,-1.25505 1.07677,-3.413 1.48121,-4.79545 0.40447,-1.38244 1.1788,-3.94229 1.72077,-5.68854 0.54198,-1.74625 1.42463,-4.66328 1.96147,-6.48229 1.72294,-5.838068 2.55889,-8.555628 3.21484,-10.451042 0.59785,-1.727525 1.33692,-4.199035 2.49225,-8.334375 1.34524,-4.815149 1.6956,-5.79401 2.51716,-7.032617 1.19176,-1.796706 2.81176,-3.220823 3.88374,-3.414175 0.97187,-0.175289 2.45518,0.09596 4.84444,0.885907 1.74329,0.576374 4.9906,1.51701 16.93334,4.90502 18.56158,5.265703 50.20971,14.264923 52.65208,14.971739 6.12897,1.773717 11.96158,3.40704 12.72392,3.563133 1.11321,0.22792 2.57794,1.80285 3.44739,3.70676 0.69681,1.5259 0.71088,1.64671 0.42222,3.62726 -0.16425,1.12682 -0.53102,2.55964 -0.81507,3.18402 -0.28406,0.62438 -0.75923,1.90915 -1.05596,2.85504 -0.2967,0.94588 -1.31117,4.16057 -2.25433,7.14375 -0.94318,2.98317 -2.80355,8.87677 -4.13416,13.09687 -1.33065,4.22011 -3.06118,9.69698 -3.84567,12.17084 -3.66244,11.54948 -4.87392,15.42057 -5.11358,16.33984 -0.3094,1.18674 -0.30382,1.19089 2.74191,2.04412 3.4839,0.97597 5.53654,1.6469 5.88698,1.92429 0.49686,0.39325 0.40417,1.08572 -0.3619,2.70367 -0.57092,1.20581 -1.00094,1.66777 -2.4474,2.62919 -2.11849,1.40809 -4.20703,2.24041 -5.9881,2.38636 -1.09609,0.0898 -2.18482,-0.17976 -6.35,-1.57224 z m 4.99301,-11.70471 c 0.35771,-1.12779 1.73799,-5.50334 3.06728,-9.72344 1.3293,-4.22011 2.72122,-8.62542 3.09314,-9.78959 0.37195,-1.16416 1.00963,-3.18822 1.41708,-4.49791 0.9942,-3.19577 3.59582,-11.42622 5.81253,-18.38854 4.06297,-12.76109 3.93811,-12.21976 3.18693,-13.81782 -1.02989,-2.191 -0.4791,-1.95296 -12.30955,-5.320057 -25.11933,-7.149277 -35.90388,-10.207141 -37.04167,-10.502842 -0.8459,-0.219844 -13.91774,-3.957449 -16.13958,-4.614754 -8.22495,-2.433267 -22.09861,-6.22578 -22.77499,-6.22578 -1.64738,0 -3.17053,2.55492 -4.96864,8.334375 -2.076,6.67263 -2.94309,9.535948 -4.36663,14.419788 -1.48783,5.10441 -3.84159,12.95676 -4.67926,15.61042 -0.33015,1.04586 -1.41468,4.65264 -3.73917,12.43542 -0.36944,1.23692 -0.78963,2.66567 -0.93375,3.175 -0.14411,0.50932 -0.44791,1.13514 -0.67508,1.39067 -0.2272,0.25556 -0.36417,0.5029 -0.30443,0.54965 0.28755,0.22505 0.53718,0.30636 22.06903,7.18743 6.43393,2.05613 8.8846,2.84504 22.88646,7.36748 4.29286,1.38655 10.12693,3.25544 12.96458,4.15309 2.83766,0.89765 6.35,2.02586 7.80521,2.50714 3.01802,0.99814 15.35435,4.96705 19.31458,6.21397 1.45521,0.45821 3.12209,0.99328 3.70417,1.18907 1.85047,0.6224 1.90005,0.59105 2.61176,-1.65277 z m -13.34281,-16.33048 c -0.74512,-0.40527 -1.18345,-1.19402 -1.44838,-2.60618 -0.13803,-0.73572 -0.0217,-1.18901 0.56645,-2.20636 1.29534,-2.24078 2.77087,-3.12917 3.93276,-2.36786 1.45555,0.95372 0.89731,2.44536 -1.57512,4.20865 -0.75668,0.53964 -0.86373,1.11212 -0.25188,1.34691 0.32708,0.12552 2.03893,-0.46421 3.0521,-1.05145 0.0877,-0.0508 0.37018,0.0617 0.62773,0.24998 0.78393,0.57322 0.265,1.45822 -1.27564,2.17556 -1.53651,0.71541 -2.63422,0.79126 -3.62802,0.25075 z m -5.50741,-2.45865 c -0.14102,-0.26349 -0.16113,-0.95157 -0.0462,-1.58025 0.22194,-1.21356 0.15404,-1.3926 -0.52811,-1.3926 -0.24897,0 -0.60274,-0.18082 -0.78618,-0.40185 -0.44225,-0.53287 0.2463,-1.3267 1.34057,-1.54554 l 0.78023,-0.15605 v -3.01694 c 0,-3.12796 0.22473,-3.81262 1.13662,-3.46268 0.59169,0.22704 0.73586,0.76181 0.90667,3.36283 0.13814,2.10333 0.1982,2.30584 0.64204,2.16498 0.89281,-0.28337 1.58687,0.12213 1.49723,0.87474 -0.065,0.5458 -0.3147,0.76189 -1.23238,1.06648 -1.20251,0.3991 -1.89185,1.40713 -1.89185,2.76646 0,0.75236 -0.69268,1.78715 -1.19631,1.78715 -0.20492,0 -0.48499,-0.21003 -0.62236,-0.46673 z m -5.27142,-0.92381 c -0.15164,-0.18273 -0.35222,-0.63709 -0.44575,-1.00973 l -0.17004,-0.6775 -1.24029,0.60548 c -1.51863,0.74133 -4.61574,1.1126 -5.20459,0.62388 -0.91536,-0.75967 -0.17474,-1.85576 1.25394,-1.85576 0.99986,0 3.10724,-0.8084 3.10724,-1.19197 0,-0.53554 -1.36052,-1.55882 -2.62927,-1.97755 -0.62731,-0.20704 -1.49572,-0.73157 -1.9298,-1.16565 -0.68831,-0.68834 -0.7711,-0.92678 -0.64746,-1.86505 0.10684,-0.81068 0.37971,-1.28272 1.10707,-1.91526 1.17708,-1.0236 2.49695,-1.6741 3.39683,-1.6741 0.71808,0 1.49638,0.85146 1.49638,1.63706 0,0.61293 -1.00815,1.1648 -1.40425,0.76869 -0.15899,-0.15899 -0.43474,-0.28908 -0.61275,-0.28908 -0.48813,0 -1.95175,1.31561 -1.95175,1.75437 0,0.21664 0.73249,0.71308 1.67817,1.13736 0.923,0.41413 2.1109,1.19854 2.6398,1.74311 0.94697,0.97506 0.97205,0.98335 1.64478,0.54255 0.37571,-0.24617 0.94398,-0.41047 1.26278,-0.3651 0.47466,0.0675 0.57639,0.25027 0.56158,1.00854 -0.0101,0.50932 -0.11216,1.25346 -0.22712,1.65365 -0.18013,0.62698 -0.13317,0.7276 0.33951,0.7276 0.30171,0 0.67294,0.23244 0.82497,0.51649 0.57859,1.08112 -2.03867,2.24552 -2.84998,1.26797 z m -22.4902,-4.75605 c -0.44211,-0.21508 -0.58676,-0.48223 -0.52916,-0.97729 0.0692,-0.59476 0.2192,-0.69151 1.18083,-0.76158 1.35094,-0.0984 1.52607,-0.46955 0.95216,-2.01803 -0.41691,-1.12485 -0.41434,-1.21081 0.0515,-1.72558 0.54187,-0.59875 1.71389,-0.71782 2.20745,-0.22426 0.38902,0.38901 0.41722,1.44171 0.0448,1.6719 -0.15234,0.0942 -0.20299,0.54009 -0.11472,1.01055 0.30475,1.62454 -0.62317,2.85766 -2.3907,3.17688 -0.43656,0.0788 -1.06754,0.0103 -1.40216,-0.15259 z m -18.29998,-1.77353 c -0.58243,-1.08823 -0.24318,-1.66253 1.01071,-1.711 0.56909,-0.022 0.71165,-0.19431 0.89741,-1.08451 0.12147,-0.58208 0.18624,-1.53458 0.14391,-2.11666 l -0.077,-1.05834 h -1.19063 c -1.06322,0 -1.23388,-0.0865 -1.59498,-0.80869 l -0.40439,-0.80869 -1.02402,0.74255 c -1.77456,1.28677 -4.64952,0.84786 -4.64952,-0.70984 0,-0.42047 -0.19712,-0.69014 -0.59531,-0.81441 -0.84321,-0.26314 -0.98439,-0.58396 -0.98182,-2.23112 0.003,-2.07056 0.34949,-3.30119 1.2179,-4.32818 1.50802,-1.78341 3.27457,-2.31169 4.38439,-1.31116 0.45402,0.4093 0.51202,0.70636 0.39388,2.01774 -0.12763,1.41695 -0.0903,1.55973 0.47445,1.81706 0.33711,0.15361 0.82553,0.674 1.08532,1.15643 0.37209,0.69089 0.56693,0.82655 0.91766,0.63885 0.65688,-0.35156 1.25537,0.46595 1.12054,1.53061 -0.16018,1.2647 0.32189,1.0472 0.99885,-0.45067 0.65241,-1.44358 1.03193,-1.72403 1.6859,-1.24583 0.5057,0.36977 0.50035,0.22613 0.19362,5.21536 -0.22786,3.70606 -0.43873,4.60689 -1.3131,5.60927 -0.57518,0.65939 -2.33183,0.62761 -2.6938,-0.0488 z m -3.07555,-8.76893 c 0.78156,-0.92883 0.85151,-1.36419 0.29364,-1.8272 -0.29144,-0.24187 -0.5973,-0.25299 -1.19809,-0.0436 -1.6936,0.59039 -1.99459,-0.18214 -0.89598,-2.29965 0.88469,-1.70523 0.74443,-2.17666 -0.36891,-1.23985 -0.72628,0.61112 -0.85214,0.89442 -0.86561,1.94835 -0.009,0.67829 -0.10888,1.7988 -0.22265,2.49002 -0.18214,1.10662 -0.15052,1.25677 0.26474,1.25677 0.2594,0 0.5452,0.11907 0.63514,0.26459 0.35681,0.57733 1.66639,0.27214 2.35772,-0.54947 z m 45.71707,7.90488 c -0.39238,-0.39237 -0.41349,-1.17943 -0.0379,-1.41158 0.1538,-0.0951 0.57052,-0.0998 0.92604,-0.0106 1.0818,0.27152 0.76057,1.73966 -0.38063,1.73966 -0.10451,0 -0.3329,-0.14287 -0.50752,-0.3175 z m -30.88349,-0.48696 c -0.0936,-0.15142 -0.6364,-0.56965 -1.20626,-0.92938 -1.16361,-0.73456 -1.27651,-1.14154 -0.50927,-1.83589 0.28974,-0.26223 0.82984,-0.99385 1.20023,-1.62588 0.42746,-0.7294 0.92649,-1.21264 1.36623,-1.32301 1.5617,-0.39197 2.11153,1.03049 1.02004,2.63891 -0.37055,0.54604 -0.67373,1.09608 -0.67373,1.22232 0,0.12623 0.56555,0.21026 1.25677,0.18669 1.10781,-0.0378 1.26656,0.0259 1.33932,0.53721 0.06,0.42156 -0.1352,0.69262 -0.71448,0.99219 -0.90308,0.46698 -2.8221,0.55229 -3.07885,0.13684 z m -4.22204,-2.70127 c -0.0611,-0.1819 -0.14663,-0.62134 -0.19015,-0.97655 -0.058,-0.47325 -0.30134,-0.70308 -0.9108,-0.86015 -1.09181,-0.28136 -1.36261,-0.99146 -0.6104,-1.60056 0.31607,-0.25594 0.84455,-0.46534 1.17441,-0.46534 0.89834,0 1.12215,-0.45479 1.36728,-2.77813 l 0.22331,-2.11666 h 0.79375 c 0.76769,0 0.79632,0.0442 0.87225,1.34672 0.0432,0.74069 -0.11943,2.22897 -0.36136,3.30729 -0.24194,1.07831 -0.49975,2.37729 -0.57288,2.88661 -0.16182,1.12663 -0.50128,1.5875 -1.16932,1.5875 -0.27779,0 -0.55505,-0.14882 -0.61609,-0.33073 z m 9.68055,-3.20747 c -0.49554,-0.59708 -0.27088,-3.34903 0.30279,-3.7091 0.7752,-0.48656 1.37872,0.11518 1.45785,1.45357 0.11184,1.89168 -0.94207,3.24183 -1.76064,2.25553 z m 11.37261,-6.02255 c -0.68543,-0.73574 -0.90805,-1.80759 -0.56356,-2.71363 0.43185,-1.13585 0.34624,-1.74853 -0.24434,-1.74853 -0.59965,0 -0.92602,0.52694 -1.17232,1.89268 -0.2754,1.52723 -1.47505,1.65055 -1.9795,0.20349 -0.14799,-0.4245 -0.57301,-1.17033 -0.94451,-1.65741 -1.14361,-1.49934 -0.84365,-2.14034 0.96832,-2.06933 0.94774,0.0371 1.06212,-0.0361 1.42944,-0.91521 0.21957,-0.52557 0.33565,-1.12131 0.25791,-1.32387 -0.23418,-0.61033 0.31666,-1.6866 0.86323,-1.6866 0.88617,0 1.18436,0.67278 0.99862,2.25321 l -0.17055,1.45095 h 0.94575 c 1.08895,0 1.9693,0.39589 1.9693,0.8856 0,0.18579 0.35522,0.60043 0.78938,0.92142 1.92513,1.42331 1.93805,3.4244 0.029,4.49733 -1.31164,0.73719 -2.49515,0.74089 -3.17619,0.01 z m 2.24108,-1.66854 c 0.41121,-0.30537 0.45511,-0.47676 0.22016,-0.8599 -0.46871,-0.76441 -1.02016,-0.57536 -1.11242,0.38138 -0.0911,0.94495 0.11515,1.05557 0.89226,0.47852 z m 12.19626,-8.83373 c -0.24085,-0.26612 -0.43789,-0.56859 -0.43789,-0.67217 0,-0.10358 -0.25593,-0.53447 -0.56869,-0.95754 l -0.56873,-0.76921 0.83331,-0.94907 c 0.45829,-0.52199 0.83328,-1.10092 0.83328,-1.28651 0,-0.18559 0.37722,-0.72328 0.83828,-1.19486 0.64825,-0.66304 1.02314,-0.83938 1.65364,-0.77783 1.42751,0.13934 1.28802,1.92202 -0.28678,3.66513 -1.09201,1.20871 -1.03687,1.53963 0.15391,0.92386 0.62018,-0.32071 0.94946,-0.35553 1.3475,-0.1425 0.9222,0.49354 0.6504,1.20406 -0.79613,2.08111 -1.14057,0.69154 -2.41726,0.7254 -3.0017,0.0796 z m -7.75954,-3.02187 c -0.11504,-0.1819 -0.21138,-1.15372 -0.21408,-2.15958 -0.003,-1.224 -0.11432,-1.86572 -0.33578,-1.94033 -0.18198,-0.0613 -0.8391,0.43425 -1.46026,1.10125 -1.5788,1.69525 -2.83906,1.51613 -2.83906,-0.40351 v -0.59268 l -0.63545,0.59698 c -0.34949,0.32834 -1.11435,0.66121 -1.69968,0.73972 -0.90496,0.12138 -1.16991,0.0371 -1.77033,-0.56337 l -0.70612,-0.70611 -1.15467,0.44097 c -2.06364,0.78812 -3.82333,-0.0176 -3.82333,-1.7506 0,-1.21894 0.8192,-3.137638 1.63142,-3.821089 0.95911,-0.807037 1.3132,-0.829019 1.95371,-0.12129 0.48357,0.534358 0.47744,0.557532 -0.3537,1.334283 -0.88971,0.831506 -1.28119,1.804536 -1.01015,2.510806 0.1447,0.37708 0.25188,0.36864 1.02058,-0.0803 0.47238,-0.27589 1.11442,-0.95717 1.42673,-1.51396 0.57486,-1.024803 2.50915,-2.265463 3.53209,-2.265463 0.61214,0 1.49606,1.091673 1.72392,2.129093 0.1152,0.52453 0.33369,0.78132 0.66476,0.78132 0.27123,0 0.65694,0.23385 0.85712,0.51967 0.36118,0.51567 0.3724,0.5155 1.46092,-0.0231 1.49498,-0.73966 2.58599,-0.49536 3.1596,0.70749 0.40529,0.84994 0.47557,0.88347 1.5443,0.73699 1.00229,-0.13738 1.16792,-0.0799 1.57977,0.54875 0.28819,0.43979 0.47138,1.26755 0.49025,2.21504 0.0274,1.3731 -0.0243,1.52056 -0.55841,1.59649 -0.42047,0.0598 -0.72654,-0.14323 -1.07172,-0.71082 l -0.48315,-0.79448 -0.72552,0.90925 c -0.7502,0.94023 -1.80067,1.21599 -2.20376,0.57853 z m -6.71058,-5.20813 c 0.3955,-0.73898 0.337,-1.3327 -0.14967,-1.51946 -0.52113,-0.19997 -0.8899,0.33704 -0.8953,1.30363 -0.005,0.85829 0.63087,0.98958 1.04497,0.21583 z m -10.36002,-0.55905 c -0.25697,-0.14986 -0.52197,-0.75761 -0.62238,-1.42729 l -0.17492,-1.166292 -1.62658,0.877492 c -2.29896,1.24023 -3.22418,1.34981 -4.77366,0.56537 -1.01135,-0.512 -1.42666,-0.59224 -2.0863,-0.40307 -1.3612,0.39039 -2.78111,-0.851223 -2.02094,-1.76719 0.22728,-0.273849 0.59169,-0.36708 1.06487,-0.272444 0.90498,0.180997 1.12379,-0.107286 1.53617,-2.023903 0.48906,-2.273038 1.70694,-2.85954 2.91508,-1.403832 0.55176,0.664832 0.45003,2.179817 -0.20596,3.067077 -0.32646,0.4416 -0.5131,0.933156 -0.41473,1.092348 0.3184,0.515178 2.36164,0.07835 3.59156,-0.767842 0.64302,-0.442423 1.45513,-0.845746 1.80464,-0.896274 0.54052,-0.07814 0.70049,-0.348885 1.07032,-1.81166 0.89329,-3.533016 2.05158,-5.127943 2.94355,-4.053176 0.25852,0.311483 0.22592,0.639281 -0.16174,1.626333 -0.93409,2.378295 -1.4351,4.692243 -1.45024,6.698014 -0.0119,1.590289 -0.10464,2.056519 -0.43376,2.182809 -0.49964,0.19174 -0.40722,0.20301 -0.95498,-0.11647 z M 134.1689,94.004826 c -0.34206,-0.342053 -0.6621,-1.033351 -1.10154,-2.379287 -0.15854,-0.485563 -0.18489,-0.483057 -0.69657,0.06615 -1.05915,1.136873 -2.63088,0.477047 -2.62438,-1.10173 0.006,-1.401739 1.00796,-5.80748 1.3738,-6.039564 0.51117,-0.324268 0.90101,-0.271389 1.26913,0.17214 0.31152,0.375383 0.28236,0.89667 -0.1456,2.601823 -0.16267,0.64811 -0.12875,0.673036 0.72707,0.534156 1.1497,-0.186568 1.45833,0.183373 1.8229,2.184879 0.15605,0.856711 0.37629,1.653897 0.48943,1.771531 0.34197,0.355574 1.07,-1.523651 1.64713,-4.251703 0.2998,-1.417217 0.634,-2.755352 0.74264,-2.973634 0.26532,-0.53314 1.07333,-0.50334 1.42396,0.05251 0.62733,0.99451 -0.97052,7.035847 -2.33352,8.822809 -0.76084,0.997513 -1.89982,1.234543 -2.59445,0.539919 z m -59.459287,1.453153 c -4.197056,-1.017567 -7.118189,-2.616764 -9.88954,-5.414143 -3.342032,-3.373429 -5.166069,-6.965058 -5.850097,-11.519151 -0.221773,-1.476655 -0.347345,-3.127158 -0.279029,-3.667778 0.452226,-3.578352 0.76954,-5.377117 0.970518,-5.50132 0.127317,-0.07869 0.231484,-0.323938 0.231484,-0.545 0,-0.564004 1.850443,-4.349699 2.430409,-4.97223 0.264002,-0.283371 0.480008,-0.620828 0.480008,-0.749905 0,-0.129075 0.834442,-1.051119 1.854332,-2.048984 3.966951,-3.881311 9.590665,-6.258592 13.457025,-5.688616 2.12373,0.313079 5.19904,1.11365 6.13998,1.598375 1.60181,0.825174 3.82021,2.607529 5.75225,4.621606 1.18546,1.235787 4.38441,5.806443 4.19587,5.995004 -0.0591,0.05908 -0.95933,-0.771136 -2.00054,-1.844935 -1.13112,-1.16654 -2.45002,-2.225601 -3.27674,-2.631217 -3.30898,-1.6235 -3.40968,-1.651143 -6.01384,-1.651143 -2.17115,0 -2.71886,0.09624 -4.02074,0.706485 -3.45665,1.620268 -4.88945,4.170129 -4.64432,8.265176 0.2149,3.589919 1.9766,7.16834 5.25931,10.68284 2.79765,2.995197 5.00103,3.924657 8.73088,3.683008 1.27847,-0.08283 2.71669,-0.338098 3.19604,-0.567267 0.47934,-0.229166 1.95778,-1.472535 3.28541,-2.763041 2.73418,-2.65775 2.49782,-2.862283 1.95141,1.688632 -0.47345,3.943096 -1.88775,6.320544 -5.23068,8.792758 -3.64895,2.698519 -6.74579,3.743886 -11.57002,3.905554 -2.45076,0.08213 -3.62765,-0.0034 -5.15938,-0.374708 z M 69.897215,77.435525 c 1.592369,-1.483508 -0.449712,-3.964281 -2.157492,-2.620957 -0.858123,0.675008 -0.926994,1.761916 -0.163539,2.581376 0.675429,0.725011 1.568953,0.740248 2.321031,0.03958 z m 2.279568,-5.167569 c 0.78346,-0.783463 0.81624,-1.734733 0.10398,-3.018033 -1.510211,-2.720996 -4.550803,-3.2615 -5.140056,-0.913712 -0.260324,1.037248 0.08149,1.835933 1.339903,3.130753 1.012957,1.042239 1.332388,1.216369 2.231496,1.216369 0.60071,0 1.226873,-0.17758 1.464677,-0.415377 z"
       id="path4977"
       sodipodi:nodetypes="ssssssssssssscscsssssssssssssssssssssssssssssssssssssssssssssssssssssssssscsssscssscssscsssssssssssscssssssssssssssssccsssscsssssscsccssscsscssscssssssssssscccscsscsssccsscsssssssssssssscssssscssscscsssscssssssscsscssssccssssssccssssssssssccssscssccsssssssssssscssccsscsccsscssccsssssssscsscsscssssscsssssssssssscsscssssssssssssssssssssscssssssssss" />
    <path
       style="fill:#000000;stroke:none;stroke-width:0.264583px;stroke-linecap:butt;stroke-linejoin:miter;stroke-opacity:1;fill-opacity:1"
       d="m 68.688329,124.86167 c -18.639725,0.61749 -28.345739,-13.83272 -35.93475,-10.02825 -16.838233,8.44121 -3.838518,35.84164 37.701667,26.94017 9.792113,-2.09831 36.131424,-24.24837 -1.766917,-16.91192 z"
       id="path1251"
       sodipodi:nodetypes="cssc" />
  </g>
</svg>
