<svg width="51" height="51" viewBox="0 0 51 51" fill="none" xmlns="http://www.w3.org/2000/svg">
<path d="M50.3871 25.6536C50.3871 38.1877 41.2692 48.5802 29.3439 50.4829V32.8038C29.4711 32.8038 35.0182 32.8123 35.1284 32.8038C35.1539 32.7014 35.5949 30.0648 35.7815 28.8362C35.9342 27.8379 36.2904 25.6451 36.3074 25.5341H29.3439C29.3439 25.4232 29.3439 22.087 29.3523 20.5256C29.3523 20.0734 29.4287 19.6382 29.5729 19.2031C29.9121 18.2218 30.5567 17.5392 31.5237 17.1638C32.1089 16.9249 32.7196 16.8396 33.3388 16.8311C34.3057 16.814 36.3328 16.8225 36.5873 16.8225C36.5873 16.7628 36.5873 10.9437 36.5873 10.9437V10.6792C36.5109 10.6621 36.4092 10.6365 36.3413 10.628C35.7815 10.5512 35.2217 10.4659 34.6619 10.4061C34.0767 10.3379 33.4914 10.2952 32.9062 10.2526C32.4058 10.2184 31.8969 10.1843 31.388 10.1758C30.9724 10.1672 30.5568 10.1928 30.1411 10.2099C29.3439 10.2355 28.5551 10.372 27.7832 10.5939C26.6127 10.9266 25.5525 11.4556 24.6195 12.2491C23.6271 13.0768 22.9062 14.1007 22.4058 15.2867C21.8205 16.6604 21.5661 18.1024 21.5491 19.5956V25.5341H15.1623V32.8038H21.5491V50.5C9.56438 48.6485 0.387115 38.2304 0.387115 25.6536C0.387115 11.7628 11.5746 0.5 25.3829 0.5C39.1912 0.5 50.3871 11.7628 50.3871 25.6536Z" fill="white"/>
</svg>
