<svg width="51" height="51" viewBox="0 0 51 51" fill="none" xmlns="http://www.w3.org/2000/svg">
<path d="M25.3812 50.5C21.7299 50.4526 18.0786 50.5 14.4273 50.3103C10.365 50.1048 6.80852 48.6345 4.08979 45.4569C2.73043 43.8602 1.86107 42.0106 1.33946 40.0028C0.83365 38.09 0.707198 36.1296 0.612359 34.1851C0.312034 28.3042 0.312034 22.4233 0.612359 16.5423C0.723004 14.7243 0.865263 12.8905 1.24462 11.1199C2.14559 6.99371 4.53238 3.99001 8.42078 2.25102C10.3492 1.39734 12.3724 1.00211 14.4431 0.828214C20.3389 0.322326 26.2347 0.543652 32.1306 0.57527C34.059 0.591079 35.9874 0.764978 37.9 1.01792C41.3774 1.49219 44.4755 2.82014 46.8306 5.5551C48.2532 7.21504 49.1858 9.14373 49.5652 11.2938C49.8655 12.9853 50.0552 14.6927 50.15 16.4001C50.4661 22.4233 50.4661 28.4465 50.15 34.4697C50.0552 36.2561 49.9129 38.0583 49.5336 39.7815C48.5694 44.1448 46.0403 47.2908 41.899 49.0614C39.6071 50.0415 37.1887 50.3893 34.6912 50.3893C31.5773 50.3893 28.4793 50.3893 25.3654 50.3893C25.3812 50.421 25.3812 50.4684 25.3812 50.5ZM25.7131 6.04517C22.5992 6.04517 19.4695 6.02937 16.3557 6.06098C14.6011 6.07679 12.8782 6.25069 11.2027 6.804C8.9424 7.57864 7.31433 8.98564 6.50819 11.2779C5.97077 12.7956 5.82851 14.3607 5.78109 15.9258C5.67045 20.8424 5.60722 25.7432 5.62303 30.6597C5.63883 33.2366 5.67045 35.8135 6.20787 38.3587C6.66626 40.4455 7.77272 42.0896 9.6695 43.133C11.4556 44.129 13.4156 44.4452 15.4073 44.5084C22.046 44.7297 28.6848 44.7139 35.3393 44.5084C36.8567 44.461 38.3583 44.2396 39.7967 43.718C41.8042 42.9907 43.29 41.7102 44.1277 39.7025C44.7916 38.09 44.9497 36.3984 44.9813 34.691C45.0919 29.7428 45.1552 24.7788 45.1393 19.8306C45.1235 17.317 45.0919 14.7875 44.5703 12.3055C43.9697 9.50734 42.2626 7.68931 39.5596 6.7882C37.8209 6.20326 36.0032 6.04517 34.1854 6.02937C31.3561 6.02937 28.5425 6.04517 25.7131 6.04517Z" fill="white"/>
<path d="M13.1158 26.0115C13.1158 20.842 16.2139 16.2575 20.9875 14.392C25.6346 12.574 31.0088 13.8861 34.344 17.7277C37.0943 20.8737 38.0743 24.5571 37.1733 28.6358C36.1617 33.2678 33.3165 36.398 28.8117 37.8682C23.0739 39.7337 16.6249 36.7458 14.2065 31.2127C13.511 29.5527 13.1 27.8296 13.1158 26.0115ZM32.3523 26.0432C32.4156 22.1384 29.3017 18.8817 25.4291 18.8185C21.5091 18.7553 18.332 21.9012 18.2529 25.9167C18.1739 29.7899 21.351 33.1097 25.1604 33.173C29.1278 33.252 32.3523 29.9954 32.3523 26.0432Z" fill="white"/>
<path d="M35.7507 13.7283C35.7507 12.1473 36.9994 10.8826 38.5642 10.8826C40.1133 10.8826 41.3778 12.1789 41.3778 13.7441C41.3778 15.325 40.0975 16.5898 38.5484 16.5898C36.9678 16.5898 35.7507 15.325 35.7507 13.7283Z" fill="white"/>
</svg>
