<svg width="51" height="51" viewBox="0 0 51 51" fill="none" xmlns="http://www.w3.org/2000/svg">
<path d="M46.0874 50.5C32.2872 50.5 18.487 50.5 4.68037 50.5C4.62244 50.4743 4.57095 50.4292 4.51302 50.4163C2.00915 49.8821 0.387115 47.906 0.387115 45.3442C0.387115 32.1105 0.387115 18.8831 0.393552 5.65577C0.393552 5.2052 0.438609 4.74176 0.548032 4.30407C1.12733 1.99974 3.1227 0.5 5.58794 0.5C18.7831 0.5 31.9847 0.5 45.1799 0.5C45.3279 0.5 45.4759 0.5 45.6175 0.506437C47.0207 0.590113 48.1729 1.17585 49.1191 2.20572C49.7949 2.94593 50.1297 3.84706 50.3871 4.79325C50.3871 18.5935 50.3871 32.3937 50.3871 46.2003C50.3549 46.2711 50.3099 46.3419 50.297 46.4127C50.0524 47.6035 49.4538 48.5754 48.5269 49.3543C47.8125 49.9593 46.9628 50.2554 46.0874 50.5ZM42.8562 42.9691C42.8627 42.8211 42.8755 42.7309 42.8755 42.6344C42.8755 38.0129 42.8948 33.3913 42.8691 28.7698C42.8498 25.7188 41.5238 23.3051 39.0457 21.5736C36.3745 19.707 33.0532 19.3272 30.0988 21.3548C29.307 21.8955 28.6376 22.6035 27.9039 23.2407C27.9039 22.3847 27.9039 21.4706 27.9039 20.5309C25.3807 20.5309 22.9154 20.5309 20.4438 20.5309C20.4438 28.0232 20.4438 35.4961 20.4438 42.9562C22.9347 42.9562 25.3871 42.9562 27.8974 42.9562C27.8974 42.7374 27.8974 42.5507 27.8974 42.3576C27.8974 38.3218 27.8974 34.286 27.8974 30.2503C27.8974 29.9284 27.9039 29.6002 27.936 29.2783C28.142 27.1092 30.5558 25.5129 32.6284 26.163C34.3663 26.7037 35.3768 28.1197 35.3768 30.0314C35.3833 34.1509 35.3768 38.2639 35.3768 42.3834C35.3768 42.57 35.3768 42.7631 35.3768 42.9691C37.9 42.9691 40.3588 42.9691 42.8562 42.9691ZM15.3588 42.9691C15.3588 35.4575 15.3588 27.9974 15.3588 20.5373C12.8614 20.5373 10.3961 20.5373 7.93088 20.5373C7.93088 28.0296 7.93088 35.4897 7.93088 42.9691C10.4154 42.9691 12.8678 42.9691 15.3588 42.9691ZM16.1248 11.7577C16.1312 9.27961 14.1101 7.24562 11.6384 7.24562C9.17316 7.24562 7.11986 9.29892 7.13917 11.7577C7.15848 14.223 9.14098 16.2119 11.6127 16.2312C14.0972 16.257 16.1119 14.2551 16.1248 11.7577Z" fill="white"/>
</svg>
