<svg width="95" height="189" viewBox="0 0 95 189" fill="none" xmlns="http://www.w3.org/2000/svg">
<path d="M5.32086 73.5507C5.32086 72.8364 6.6656 72.5233 7.5629 72.5233H87.9231C88.8204 72.5233 89.0043 72.8364 89.0043 73.5507V170.869C89.0016 171.284 88.8879 171.688 88.6784 172.027C88.4689 172.367 88.1734 172.626 87.8312 172.77L49.3756 188.747C48.4528 189.075 47.4638 189.075 46.541 188.747L7.04532 172.773C6.24477 172.449 5.32086 171.594 5.32086 170.869V73.5507Z" fill="#F7F7F7"/>
<path opacity="0.42" d="M86.131 107.323V96.1537H8.33685L86.131 107.323Z" fill="#E0E0E0"/>
<path d="M91.2535 91.3436C91.2535 91.3436 52.6092 105.851 3.85516 91.3436V63.1089C48.841 76.4076 91.2535 63.1089 91.2535 63.1089V91.3436Z" fill="white"/>
<path d="M91.2527 63.109V91.3436C91.2527 91.3436 74.0758 97.7965 48.1823 97.7965C33.2242 97.8066 18.3267 95.638 3.85429 91.3436V63.109C18.8496 67.54 33.5547 69.018 46.5014 69.018C72.3997 69.018 91.2454 63.109 91.2454 63.109H91.2527ZM95.0136 57.4857L90.2441 58.9828C90.041 59.046 71.5073 64.738 46.4941 64.738C31.7794 64.738 17.7491 62.7958 4.79513 58.9691L0.0861206 57.5708V94.6566L2.90137 95.4835C17.6858 99.87 32.9043 102.086 48.1847 102.077C74.383 102.077 91.7195 95.684 92.4451 95.4121L95.0305 94.4423V57.4857H95.0136Z" fill="#F7F7F7"/>
<path d="M18.2991 74.1468C18.5587 74.1987 18.8059 74.3119 19.0246 74.4792C19.2325 74.635 19.4129 74.8334 19.5567 75.0643C19.6953 75.2933 19.7953 75.5494 19.8518 75.8198C19.915 76.1037 19.9241 76.3996 19.8784 76.6879L18.5433 85.2698C18.4986 85.5587 18.3978 85.8328 18.2483 86.0719C18.1006 86.3084 17.9162 86.5123 17.7041 86.6736C17.4841 86.8364 17.2372 86.9467 16.9785 86.9977C16.7069 87.057 16.4278 87.057 16.1562 86.9977C14.0923 86.5508 12.0325 86.0628 9.97666 85.5335C9.70644 85.4622 9.4499 85.3356 9.21964 85.1599C8.99982 84.9935 8.81083 84.7798 8.66337 84.5308C8.51913 84.2909 8.4203 84.0197 8.37314 83.7342C8.32395 83.4457 8.33056 83.1486 8.39248 82.8633C8.98746 80.043 9.58405 77.2217 10.1822 74.3995C10.2404 74.1203 10.3472 73.8571 10.4964 73.6254C10.6455 73.3938 10.8339 73.1984 11.0505 73.0507C11.2683 72.9076 11.5065 72.809 11.7543 72.7595C12.0116 72.7055 12.2758 72.712 12.5307 72.7787C14.4462 73.275 16.369 73.7311 18.2991 74.1468ZM16.7826 77.0477C15.4814 76.7584 14.1826 76.4516 12.8862 76.1274L11.6092 82.6875C12.9507 83.0263 14.2963 83.345 15.6459 83.6435C16.0183 81.4477 16.3972 79.2491 16.7826 77.0477Z" fill="#122F4C"/>
<path d="M31.4876 76.4489C31.5139 76.4848 31.5335 76.5265 31.5452 76.5714C31.5568 76.6163 31.5603 76.6634 31.5553 76.7098L31.3304 79.163C31.3207 79.2577 31.2783 79.3441 31.2126 79.4033C31.1468 79.4625 31.0631 79.4897 30.9797 79.4789C29.1061 79.2518 27.2357 78.989 25.3686 78.6905C25.3105 78.6905 25.2815 78.6905 25.2742 78.7509C25.192 79.4212 25.1114 80.0933 25.0324 80.7673C25.0293 80.7798 25.0289 80.7929 25.0312 80.8056C25.0334 80.8183 25.0383 80.8302 25.0453 80.8404C25.0524 80.8505 25.0615 80.8587 25.0718 80.8641C25.0822 80.8696 25.0935 80.8721 25.1049 80.8717C26.5384 81.1024 27.9734 81.3112 29.41 81.498C29.4511 81.5017 29.491 81.515 29.5273 81.5373C29.5635 81.5595 29.5952 81.5901 29.6204 81.6271C29.6718 81.706 29.6935 81.8048 29.6809 81.9018L29.439 84.2204C29.4357 84.2667 29.4241 84.3118 29.405 84.3528C29.3859 84.3939 29.3596 84.4302 29.3278 84.4594C29.2948 84.4913 29.256 84.5145 29.2142 84.5273C29.1724 84.5402 29.1286 84.5423 29.0859 84.5335C27.6348 84.3504 26.1772 84.1389 24.7131 83.899C24.7022 83.8946 24.6906 83.8932 24.6791 83.895C24.6677 83.8968 24.6568 83.9016 24.6473 83.9092C24.6379 83.9167 24.6301 83.9267 24.6247 83.9383C24.6194 83.9499 24.6165 83.9628 24.6164 83.9759C24.4438 85.3641 24.2705 86.7514 24.0964 88.1377C24.0674 88.374 23.9416 88.4729 23.7191 88.4372C22.9088 88.3026 22.101 88.1625 21.3005 88.0196C21.078 87.9784 20.9837 87.8438 21.0175 87.6075C21.5915 83.5382 22.1655 79.4679 22.7395 75.3967C22.7406 75.3479 22.7516 75.3 22.7717 75.2569C22.7918 75.2137 22.8204 75.1764 22.8554 75.1479C22.8903 75.1194 22.9305 75.1006 22.973 75.0927C23.0154 75.0849 23.0589 75.0883 23.0999 75.1028C25.8184 75.5918 28.5442 76.0011 31.2772 76.3307C31.3583 76.3372 31.4338 76.3796 31.4876 76.4489Z" fill="#122F4C"/>
<path d="M41.9891 77.3087C42.0173 77.3427 42.0391 77.3829 42.0533 77.4269C42.0674 77.4708 42.0736 77.5175 42.0714 77.5642C42.0424 78.3883 42.0157 79.2124 41.9867 80.0365C41.9863 80.0836 41.977 80.13 41.9595 80.1726C41.942 80.2153 41.9166 80.2532 41.8851 80.2838C41.8528 80.3177 41.8146 80.3435 41.7729 80.3596C41.7313 80.3757 41.6871 80.3817 41.6433 80.3772C39.7616 80.2893 37.8824 80.1656 36.0055 80.0063C35.9499 80.0063 35.9209 80.0228 35.9161 80.0722C35.8725 80.7517 35.8274 81.4284 35.7806 82.1023C35.7783 82.1153 35.7787 82.1287 35.7818 82.1414C35.7848 82.1542 35.7904 82.166 35.7982 82.1758C35.8059 82.1857 35.8156 82.1934 35.8264 82.1982C35.8372 82.2031 35.8488 82.2051 35.8604 82.204C37.3003 82.3285 38.7418 82.4302 40.1849 82.5089C40.2259 82.5098 40.2663 82.5205 40.3034 82.5404C40.3405 82.5603 40.3735 82.5889 40.4001 82.6243C40.4273 82.6588 40.4479 82.6993 40.4608 82.7433C40.4737 82.7872 40.4785 82.8336 40.4751 82.8798C40.4445 83.6563 40.4122 84.4337 40.3784 85.212C40.3759 85.3057 40.3412 85.3945 40.2816 85.4593C40.2512 85.4921 40.215 85.5171 40.1753 85.5328C40.1357 85.5484 40.0936 85.5542 40.0518 85.5499C38.5862 85.4675 37.1221 85.3641 35.6597 85.2395C35.6016 85.2395 35.5702 85.2642 35.5678 85.3247C35.4726 86.7239 35.3791 88.1212 35.2872 89.5167C35.2727 89.753 35.1518 89.8601 34.9268 89.8409C34.1118 89.7695 33.2991 89.6898 32.4865 89.6074C32.2616 89.5827 32.16 89.4535 32.1793 89.2173C32.5179 85.1131 32.8573 81.009 33.1975 76.9049C33.1957 76.8562 33.2038 76.8076 33.2212 76.7631C33.2386 76.7185 33.2648 76.6791 33.2978 76.648C33.3308 76.6169 33.3698 76.5948 33.4115 76.5836C33.4533 76.5724 33.4968 76.5724 33.5386 76.5834C36.2796 76.8691 39.0207 77.0761 41.7618 77.2043C41.804 77.2027 41.846 77.2111 41.8852 77.2291C41.9244 77.2471 41.9598 77.2742 41.9891 77.3087Z" fill="#122F4C"/>
<path d="M46.5361 90.058C46.5361 90.2942 46.42 90.4124 46.1951 90.4096C45.38 90.3959 44.5625 90.3794 43.7475 90.3547C43.5226 90.3547 43.4137 90.2256 43.4186 89.9893L43.7305 77.6274C43.7259 77.5789 43.7311 77.5299 43.7459 77.4841C43.7607 77.4384 43.7846 77.3971 43.8157 77.3636C43.8469 77.3301 43.8845 77.3052 43.9255 77.2909C43.9665 77.2766 44.0099 77.2733 44.0522 77.2812C44.8149 77.3069 45.5767 77.3243 46.3378 77.3334C46.3805 77.3269 46.424 77.3318 46.4648 77.3477C46.5056 77.3635 46.5426 77.39 46.5729 77.4249C46.6032 77.4598 46.6259 77.5022 46.6392 77.5488C46.6526 77.5954 46.6562 77.6449 46.6498 77.6933C46.6111 81.8139 46.5732 85.9355 46.5361 90.058Z" fill="#122F4C"/>
<path d="M52.2779 80.564C52.2482 80.5948 52.225 80.6327 52.2099 80.675C52.1948 80.7173 52.1883 80.763 52.1908 80.8085L52.3142 86.8521C52.3138 86.8985 52.3228 86.9444 52.3404 86.9863C52.358 87.0282 52.3838 87.065 52.4158 87.0939C52.4841 87.1557 52.5705 87.1861 52.6576 87.179C54.5248 87.1277 56.3911 87.0362 58.2567 86.9043C58.3 86.8995 58.3436 86.9045 58.3852 86.9192C58.4267 86.9338 58.4652 86.9577 58.4985 86.9895C58.5311 87.0195 58.5577 87.0571 58.5764 87.0997C58.5952 87.1424 58.6058 87.1891 58.6074 87.2367L58.738 89.6954C58.7408 89.7432 58.7348 89.7911 58.7202 89.8361C58.7056 89.8811 58.6828 89.922 58.6533 89.9563C58.5896 90.0304 58.5026 90.0728 58.4115 90.0745C57.178 90.155 55.9437 90.2219 54.7086 90.275C53.6896 90.3153 52.6721 90.3473 51.6563 90.3711H51.3371C51.0616 90.3791 50.7874 90.3269 50.5293 90.2173C50.2817 90.1155 50.0541 89.9596 49.8593 89.7585C49.6706 89.5629 49.5192 89.3254 49.4143 89.0608C49.3071 88.7944 49.2518 88.5048 49.2523 88.2119V87.907C49.2523 87.4537 49.2523 86.9977 49.2523 86.5334L49.2305 82.1793C49.2305 81.7755 49.2305 81.3717 49.2305 80.9651V79.5284C49.2281 79.2363 49.2775 78.9467 49.3756 78.6768C49.4703 78.4155 49.611 78.179 49.7892 77.9818C49.9687 77.7835 50.1774 77.6226 50.4059 77.5065C50.6426 77.3855 50.8986 77.321 51.1581 77.317H51.4556C53.5517 77.2693 55.6535 77.1778 57.7609 77.0422C57.8021 77.0385 57.8436 77.0442 57.8829 77.059C57.9222 77.0738 57.9584 77.0974 57.9896 77.1284C58.0207 77.1594 58.046 77.1971 58.0641 77.2394C58.0821 77.2817 58.0925 77.3277 58.0946 77.3746L58.2252 79.847C58.2284 79.894 58.2229 79.9412 58.2092 79.9856C58.1954 80.0301 58.1737 80.0708 58.1454 80.1053C58.1176 80.1407 58.0837 80.1694 58.0459 80.1897C58.0081 80.21 57.9671 80.2214 57.9253 80.2234C56.1227 80.3406 54.3208 80.4257 52.5198 80.4789C52.4765 80.4739 52.4328 80.4789 52.3912 80.4935C52.3497 80.5081 52.3111 80.5321 52.2779 80.564Z" fill="#122F4C"/>
<path d="M64.6514 89.1926C64.6708 89.4289 64.5692 89.558 64.3467 89.5799C63.5316 89.6678 62.719 89.7475 61.9039 89.8189C61.679 89.8382 61.5605 89.731 61.5435 89.4948C61.2662 85.3851 60.9889 81.2746 60.7116 77.1631C60.7024 77.1154 60.7032 77.066 60.7138 77.0187C60.7244 76.9714 60.7447 76.9276 60.7729 76.8908C60.8011 76.854 60.8364 76.8251 60.8762 76.8066C60.9159 76.788 60.9589 76.7803 61.0018 76.784C61.7612 76.7163 62.5206 76.6421 63.2801 76.5615C63.3218 76.55 63.3654 76.5497 63.4073 76.5605C63.4491 76.5713 63.4883 76.593 63.5215 76.6239C63.5548 76.6547 63.5813 76.6939 63.599 76.7384C63.6167 76.7829 63.6251 76.8314 63.6235 76.8802C63.967 80.9843 64.3096 85.0885 64.6514 89.1926Z" fill="#122F4C"/>
<path d="M73.9146 75.0341C74.1712 74.9853 74.4339 74.9975 74.6861 75.0698C74.9274 75.1387 75.1559 75.2559 75.3609 75.416C75.5636 75.579 75.7382 75.7829 75.8761 76.0176C76.0197 76.261 76.1161 76.5363 76.1591 76.8252C76.6863 80.2865 77.2128 83.747 77.7384 87.2065C77.7471 87.2543 77.7464 87.3037 77.7364 87.3512C77.7263 87.3987 77.7072 87.443 77.6804 87.4812C77.6262 87.5618 77.5463 87.6151 77.4579 87.6295C76.6517 87.7852 75.8374 87.9363 75.0151 88.0828C74.9306 88.0989 74.8439 88.0773 74.7732 88.0224C74.7376 87.9975 74.7073 87.9639 74.6847 87.9239C74.6621 87.884 74.6477 87.8387 74.6426 87.7916L74.1928 84.4951C74.1878 84.4487 74.1748 84.404 74.1544 84.3634C74.1341 84.3229 74.1068 84.2873 74.0742 84.2588C74.04 84.2298 74.0008 84.2094 73.9591 84.1989C73.9174 84.1885 73.8742 84.1883 73.8324 84.1984C72.694 84.3925 71.5557 84.5757 70.4173 84.7478C70.3742 84.7524 70.3324 84.7666 70.2942 84.7897C70.256 84.8129 70.2222 84.8444 70.1948 84.8824C70.1667 84.9199 70.1463 84.9639 70.135 85.0114C70.1237 85.059 70.1218 85.1087 70.1295 85.1571L70.5044 88.4564C70.531 88.6899 70.4318 88.8245 70.2093 88.8575C69.3967 88.9728 68.5865 89.0855 67.7738 89.1899C67.5489 89.2173 67.4255 89.113 67.4038 88.8794L66.3807 78.4075C66.3511 78.118 66.3733 77.8246 66.446 77.545C66.516 77.2737 66.6336 77.0214 66.7919 76.8032C66.9535 76.5838 67.1474 76.3979 67.3651 76.2538C67.5876 76.1064 67.8347 76.0128 68.0906 75.9791C70.0352 75.7026 71.9765 75.3876 73.9146 75.0341ZM73.7623 81.3524C73.6171 80.2701 73.4704 79.1868 73.3221 78.1026C72.016 78.3315 70.7084 78.5421 69.3991 78.7344L69.7691 81.9952C71.1026 81.8011 72.4352 81.5887 73.7671 81.3579L73.7623 81.3524Z" fill="#122F4C"/>
<path d="M87.7804 81.987C87.8211 81.9745 87.8636 81.9717 87.9052 81.9788C87.9468 81.9859 87.9867 82.0027 88.0223 82.0282C88.0572 82.0527 88.0872 82.0851 88.1105 82.1234C88.1338 82.1616 88.1499 82.205 88.1577 82.2507L88.6657 84.6462C88.6769 84.6923 88.6795 84.7406 88.6733 84.7879C88.667 84.8352 88.6521 84.8805 88.6294 84.9209C88.6072 84.9623 88.5777 84.9981 88.5427 85.026C88.5078 85.0539 88.4681 85.0733 88.4262 85.0829C85.9222 85.7587 83.4101 86.3713 80.8899 86.9207C80.6698 86.9674 80.5392 86.8768 80.5005 86.646C79.8233 82.5968 79.1477 78.5467 78.4737 74.4956C78.4599 74.4501 78.4554 74.4017 78.4607 74.3539C78.4661 74.3062 78.481 74.2605 78.5044 74.2203C78.5278 74.1802 78.559 74.1468 78.5956 74.1226C78.6323 74.0984 78.6733 74.0841 78.7156 74.0808C79.4677 73.916 80.2175 73.7484 80.9673 73.5726C81.0079 73.5554 81.0514 73.5492 81.0945 73.5544C81.1376 73.5597 81.179 73.5764 81.2154 73.6031C81.2518 73.6297 81.2823 73.6657 81.3043 73.7081C81.3263 73.7505 81.3392 73.7982 81.3422 73.8473C81.8936 76.8526 82.4442 79.857 82.9941 82.8605C83.0016 82.9064 83.0181 82.9497 83.0424 82.9872C83.0667 83.0248 83.0981 83.0557 83.1343 83.0776C83.2083 83.1229 83.2945 83.1356 83.3762 83.1133C84.8531 82.7598 86.3212 82.3844 87.7804 81.987Z" fill="#122F4C"/>
<path d="M95.0795 57.4802L90.2665 54.7688L90.2133 0H4.35317L4.44508 55.2166L0.0263062 57.6889L4.44508 61.175V61.2602H4.54424L4.81271 61.4744L4.83689 61.2602H6.32433C6.32433 61.2602 47.542 75.317 89.6401 61.4744H90.269V61.2602H90.2956L95.0795 57.4802Z" fill="#F7F7F7"/>
<path d="M21.2691 154.23C21.4962 154.336 21.7019 154.494 21.8737 154.694C22.0435 154.894 22.181 155.127 22.28 155.381C22.3832 155.64 22.436 155.921 22.4348 156.205V159.691C22.4366 159.981 22.3838 160.269 22.28 160.534C22.1823 160.792 22.0447 161.027 21.8737 161.229C21.7025 161.43 21.4967 161.588 21.2691 161.693C21.0341 161.806 20.7815 161.863 20.5266 161.861H14.0133C13.9728 161.867 13.9316 161.863 13.8926 161.849C13.8537 161.835 13.8181 161.811 13.7884 161.779C13.7587 161.747 13.7356 161.708 13.721 161.665C13.7063 161.621 13.7004 161.575 13.7037 161.529V159.284C13.703 159.238 13.7106 159.192 13.7259 159.149C13.7413 159.106 13.764 159.067 13.7929 159.034C13.8218 159.001 13.8562 158.975 13.894 158.958C13.9319 158.94 13.9724 158.932 14.0133 158.933H19.576C19.6573 158.935 19.7363 158.902 19.7961 158.839C19.8254 158.809 19.8486 158.771 19.864 158.729C19.8795 158.688 19.8868 158.643 19.8856 158.598V157.059C19.8861 157.013 19.8784 156.967 19.863 156.924C19.8477 156.881 19.8249 156.842 19.7961 156.809C19.7676 156.776 19.7333 156.75 19.6954 156.732C19.6575 156.715 19.6169 156.706 19.576 156.708H15.612C15.2369 156.71 14.8697 156.586 14.5563 156.352C14.243 156.118 13.9977 155.784 13.8512 155.392C13.7532 155.131 13.7029 154.851 13.7037 154.568V151.06C13.7021 150.77 13.7523 150.483 13.8512 150.216C13.9434 149.958 14.0818 149.724 14.2576 149.529C14.4366 149.337 14.6436 149.181 14.8695 149.068C15.1032 148.95 15.3563 148.89 15.612 148.892H21.7673C21.8094 148.885 21.8523 148.889 21.8926 148.905C21.9329 148.92 21.9696 148.946 21.9996 148.98C22.0297 149.014 22.0523 149.056 22.0657 149.101C22.0791 149.147 22.083 149.196 22.0769 149.244V151.524C22.0784 151.569 22.0712 151.614 22.0557 151.656C22.0403 151.698 22.0169 151.735 21.9874 151.766C21.9268 151.826 21.8481 151.859 21.7673 151.856H16.5601C16.52 151.855 16.4803 151.864 16.4435 151.882C16.4068 151.9 16.3739 151.927 16.3472 151.961C16.2926 152.029 16.2632 152.118 16.265 152.211V153.71C16.2632 153.803 16.2926 153.892 16.3472 153.96C16.3739 153.994 16.4068 154.021 16.4435 154.039C16.4803 154.057 16.52 154.066 16.5601 154.065H20.5266C20.7812 154.064 21.0335 154.12 21.2691 154.23Z" fill="#122F4C"/>
<path d="M33.5604 148.994C33.5894 149.027 33.6123 149.066 33.6277 149.109C33.643 149.151 33.6506 149.198 33.6499 149.244V151.579C33.6508 151.624 33.6432 151.669 33.6278 151.711C33.6124 151.752 33.5894 151.79 33.5604 151.821C33.5 151.882 33.4214 151.916 33.3403 151.914H27.8719C27.8162 151.914 27.7896 151.944 27.7896 152.005V154.027C27.7896 154.076 27.8162 154.101 27.8719 154.101H32.5397C32.5796 154.099 32.6193 154.107 32.6561 154.125C32.6928 154.142 32.7258 154.169 32.7526 154.202C32.8061 154.271 32.8346 154.361 32.8324 154.452V156.309C32.8349 156.401 32.8063 156.491 32.7526 156.559C32.7258 156.593 32.6928 156.62 32.6561 156.637C32.6193 156.655 32.5796 156.663 32.5397 156.661H27.8719C27.8607 156.659 27.8493 156.66 27.8386 156.664C27.8278 156.668 27.8181 156.675 27.8101 156.684C27.8021 156.693 27.7961 156.705 27.7926 156.717C27.789 156.729 27.788 156.742 27.7896 156.755V158.757C27.788 158.77 27.789 158.783 27.7926 158.795C27.7961 158.807 27.8021 158.818 27.8101 158.827C27.8181 158.836 27.8278 158.843 27.8386 158.847C27.8493 158.851 27.8607 158.852 27.8719 158.851H33.3403C33.3812 158.849 33.4218 158.858 33.4597 158.875C33.4975 158.893 33.5318 158.919 33.5604 158.952C33.5892 158.985 33.6119 159.024 33.6273 159.067C33.6426 159.11 33.6503 159.156 33.6499 159.202V161.529C33.6503 161.575 33.6426 161.621 33.6273 161.664C33.6119 161.707 33.5892 161.746 33.5604 161.779C33.5318 161.812 33.4975 161.838 33.4597 161.856C33.4218 161.873 33.3812 161.882 33.3403 161.881H25.2259C25.1835 161.888 25.14 161.885 25.099 161.87C25.0581 161.855 25.0208 161.83 24.9901 161.795C24.9595 161.761 24.9364 161.719 24.9227 161.673C24.9091 161.627 24.9052 161.577 24.9115 161.529V149.244C24.9108 149.198 24.9183 149.151 24.9337 149.109C24.9491 149.066 24.972 149.027 25.001 148.994C25.0295 148.961 25.0638 148.935 25.1017 148.917C25.1396 148.9 25.1802 148.891 25.2211 148.892H33.3355C33.3771 148.89 33.4187 148.898 33.4574 148.916C33.4962 148.933 33.5313 148.96 33.5604 148.994Z" fill="#122F4C"/>
<path d="M43.9168 148.892C44.1724 148.891 44.4255 148.951 44.6593 149.068C44.8839 149.179 45.0888 149.335 45.2639 149.53C45.4358 149.728 45.5736 149.961 45.6703 150.216C45.7746 150.482 45.8282 150.769 45.8275 151.06V161.529C45.828 161.576 45.8202 161.622 45.8043 161.665C45.7885 161.708 45.7651 161.747 45.7356 161.779C45.7072 161.812 45.6729 161.839 45.635 161.856C45.5971 161.874 45.5564 161.882 45.5155 161.881H43.2468C43.206 161.881 43.1655 161.873 43.1276 161.855C43.0897 161.838 43.0554 161.812 43.0265 161.779C42.9976 161.746 42.9748 161.707 42.9595 161.664C42.9442 161.621 42.9366 161.575 42.9373 161.529V158.199C42.9397 158.106 42.9102 158.016 42.855 157.947C42.828 157.913 42.7951 157.887 42.7583 157.87C42.7216 157.852 42.682 157.844 42.6422 157.845H39.423C39.3823 157.845 39.3418 157.853 39.304 157.871C39.2662 157.888 39.2319 157.914 39.203 157.947C39.1736 157.98 39.1506 158.019 39.1352 158.063C39.1198 158.106 39.1124 158.153 39.1135 158.199V161.529C39.1195 161.577 39.1157 161.625 39.1023 161.671C39.0889 161.717 39.0663 161.759 39.0362 161.793C39.0062 161.827 38.9695 161.853 38.9292 161.868C38.8889 161.883 38.846 161.887 38.8039 161.881H36.5498C36.5077 161.887 36.4648 161.883 36.4245 161.868C36.3841 161.853 36.3475 161.827 36.3174 161.793C36.2874 161.759 36.2647 161.717 36.2513 161.671C36.2379 161.625 36.2341 161.577 36.2402 161.529V151.06C36.2386 150.77 36.2888 150.483 36.3877 150.216C36.4808 149.958 36.62 149.724 36.7965 149.53C36.9751 149.336 37.1822 149.18 37.4084 149.068C37.6421 148.95 37.8952 148.89 38.1509 148.892H43.9168ZM42.9373 155.065V151.801H39.1014V155.065H42.9373Z" fill="#122F4C"/>
<path d="M55.9227 154.23C56.1491 154.337 56.354 154.495 56.5249 154.694C56.6954 154.894 56.8337 155.127 56.9336 155.381C57.0368 155.64 57.0896 155.921 57.0884 156.205V159.691C57.0902 159.982 57.0374 160.269 56.9336 160.535C56.835 160.792 56.6966 161.028 56.5249 161.23C56.3546 161.43 56.1495 161.588 55.9227 161.694C55.6877 161.806 55.4351 161.863 55.1802 161.861H48.6669C48.6248 161.868 48.5819 161.864 48.5416 161.849C48.5012 161.834 48.4646 161.808 48.4345 161.774C48.4045 161.74 48.3819 161.698 48.3684 161.652C48.355 161.606 48.3512 161.558 48.3573 161.51V159.265C48.3563 159.219 48.3637 159.173 48.3791 159.13C48.3945 159.087 48.4176 159.048 48.4468 159.015C48.4752 158.982 48.5094 158.956 48.5473 158.938C48.5853 158.921 48.626 158.912 48.6669 158.914H54.2176C54.2988 158.916 54.3777 158.883 54.4377 158.82C54.4669 158.79 54.4901 158.752 54.5055 158.711C54.521 158.669 54.5283 158.624 54.5271 158.579V157.04C54.5276 156.994 54.5199 156.948 54.5045 156.905C54.4892 156.862 54.4664 156.823 54.4377 156.79C54.4089 156.757 54.3746 156.731 54.3368 156.714C54.2989 156.696 54.2584 156.688 54.2176 156.689H50.2656C50.0106 156.69 49.758 156.633 49.5231 156.521C49.2939 156.414 49.0859 156.256 48.9112 156.057C48.738 155.86 48.5993 155.628 48.5024 155.373C48.4062 155.112 48.3569 154.832 48.3573 154.549V151.06C48.3563 150.771 48.4057 150.484 48.5024 150.217C48.5963 149.959 48.7354 149.725 48.9112 149.53C49.0898 149.337 49.2969 149.18 49.5231 149.068C49.7568 148.951 50.0099 148.891 50.2656 148.892H56.4185C56.4607 148.885 56.5039 148.889 56.5446 148.904C56.5852 148.919 56.6222 148.945 56.6525 148.979C56.6829 149.013 56.7057 149.055 56.7193 149.101C56.7328 149.147 56.7367 149.196 56.7305 149.244V151.524C56.7314 151.569 56.7239 151.614 56.7084 151.656C56.693 151.698 56.67 151.735 56.641 151.766C56.5796 151.827 56.5001 151.86 56.4185 151.857H51.2137C51.1736 151.855 51.1338 151.864 51.097 151.882C51.0602 151.9 51.0274 151.927 51.0008 151.961C50.9453 152.029 50.9158 152.119 50.9186 152.211V153.711C50.9158 153.803 50.9453 153.893 51.0008 153.961C51.0274 153.995 51.0602 154.022 51.097 154.04C51.1338 154.058 51.1736 154.067 51.2137 154.065H55.1802C55.4348 154.064 55.6871 154.12 55.9227 154.23Z" fill="#122F4C"/>
<path d="M67.2369 148.892C67.4926 148.89 67.7457 148.95 67.9794 149.068C68.204 149.179 68.4089 149.335 68.5841 149.53C68.7567 149.728 68.8953 149.961 68.9928 150.216C69.0952 150.482 69.1479 150.769 69.1476 151.06V159.699C69.1481 159.99 69.0954 160.277 68.9928 160.543C68.8942 160.8 68.7558 161.036 68.5841 161.238C68.4129 161.438 68.207 161.596 67.9794 161.702C67.7445 161.815 67.4919 161.872 67.2369 161.87H61.4468C61.1918 161.871 60.9392 161.814 60.7043 161.702C60.4752 161.595 60.2671 161.437 60.0924 161.238C59.9149 161.036 59.7746 160.796 59.6795 160.532C59.5844 160.268 59.5365 159.985 59.5385 159.699V151.06C59.5376 150.771 59.5869 150.484 59.6836 150.216C59.7776 149.958 59.9166 149.725 60.0924 149.53C60.271 149.336 60.4781 149.18 60.7043 149.068C60.9381 148.951 61.1911 148.891 61.4468 148.892H67.2369ZM66.2574 152.043H62.3997V158.716H66.2453L66.2574 152.043Z" fill="#122F4C"/>
<path d="M81.2067 148.994C81.2357 149.027 81.2586 149.066 81.274 149.109C81.2894 149.152 81.2969 149.198 81.2962 149.244V161.529C81.2966 161.575 81.289 161.621 81.2736 161.664C81.2582 161.707 81.2355 161.746 81.2067 161.779C81.1781 161.812 81.1438 161.838 81.106 161.856C81.0681 161.873 81.0275 161.882 80.9866 161.881H78.6357C78.5435 161.88 78.4533 161.85 78.3745 161.796C78.2934 161.747 78.2257 161.673 78.1786 161.584L74.5701 154.019V161.529C74.5761 161.577 74.5723 161.626 74.5589 161.671C74.5455 161.717 74.5229 161.759 74.4928 161.793C74.4628 161.827 74.4261 161.853 74.3858 161.868C74.3455 161.883 74.3026 161.888 74.2605 161.881H72.0088C71.9666 161.887 71.9236 161.883 71.8832 161.868C71.8428 161.853 71.8061 161.827 71.7759 161.793C71.7456 161.759 71.7228 161.717 71.709 161.672C71.6953 161.626 71.6911 161.577 71.6968 161.529V149.244C71.6906 149.196 71.6944 149.147 71.708 149.101C71.7215 149.055 71.7444 149.013 71.7747 148.979C71.8051 148.945 71.842 148.919 71.8827 148.904C71.9233 148.889 71.9665 148.885 72.0088 148.892H74.3258C74.4176 148.894 74.5076 148.922 74.587 148.975C74.669 149.024 74.737 149.098 74.7829 149.189L78.4108 156.771V149.244C78.4101 149.198 78.4176 149.152 78.433 149.109C78.4484 149.066 78.4713 149.027 78.5003 148.994C78.5289 148.961 78.5631 148.935 78.601 148.917C78.6389 148.9 78.6795 148.891 78.7204 148.892H80.9914C81.0315 148.892 81.0712 148.901 81.1082 148.918C81.1452 148.936 81.1787 148.962 81.2067 148.994Z" fill="#122F4C"/>
<path d="M19.5591 43.2667C19.6237 43.2996 19.6826 43.3451 19.7332 43.4013C19.7827 43.4582 19.8222 43.5253 19.8493 43.5991C19.8802 43.6748 19.8959 43.7574 19.8953 43.8408V46.8626C19.8953 46.876 19.893 46.8892 19.8884 46.9014C19.8838 46.9137 19.8771 46.9248 19.8687 46.9341C19.8604 46.9433 19.8506 46.9505 19.8397 46.9552C19.8289 46.9599 19.8174 46.9621 19.8058 46.9615H19.1528C19.1415 46.9626 19.1302 46.9607 19.1197 46.9559C19.1092 46.9512 19.0998 46.9437 19.0923 46.9341C19.0842 46.9247 19.0779 46.9135 19.0737 46.9012C19.0695 46.8889 19.0676 46.8758 19.0681 46.8626V44.1348H18.5409V46.8626C18.5415 46.8887 18.5338 46.9141 18.5191 46.9341C18.5109 46.9434 18.5011 46.9507 18.4903 46.9555C18.4794 46.9602 18.4678 46.9623 18.4562 46.9615H17.8661C17.8541 46.9623 17.8421 46.9603 17.8309 46.9555C17.8197 46.9508 17.8094 46.9435 17.8008 46.9341C17.7927 46.9247 17.7863 46.9135 17.7822 46.9012C17.778 46.8889 17.7761 46.8758 17.7766 46.8626V44.1348H17.2493V46.8626C17.251 46.8763 17.2499 46.8903 17.2459 46.9033C17.242 46.9164 17.2354 46.9282 17.2267 46.9379C17.218 46.9475 17.2074 46.9547 17.1958 46.9588C17.1841 46.9629 17.1718 46.9638 17.1599 46.9615H16.5117C16.4998 46.9633 16.4877 46.9619 16.4763 46.9576C16.4649 46.9533 16.4545 46.9461 16.4459 46.9366C16.4373 46.9271 16.4307 46.9155 16.4266 46.9027C16.4225 46.8899 16.421 46.8762 16.4222 46.8626V43.3189C16.4206 43.3051 16.4218 43.2911 16.4258 43.278C16.4297 43.2648 16.4362 43.2529 16.4449 43.243C16.4535 43.2332 16.4641 43.2258 16.4756 43.2213C16.4872 43.2168 16.4995 43.2155 16.5117 43.2173H19.3487C19.421 43.2174 19.4926 43.2342 19.5591 43.2667Z" fill="#242425"/>
<path d="M22.8436 43.2173C22.9175 43.217 22.9908 43.2338 23.0588 43.2667C23.1234 43.2996 23.1823 43.3452 23.2329 43.4013C23.2825 43.4582 23.3219 43.5254 23.349 43.5991C23.3788 43.6753 23.3944 43.7576 23.395 43.8409V46.8627C23.395 46.876 23.3927 46.8892 23.3881 46.9015C23.3835 46.9137 23.3768 46.9248 23.3684 46.9341C23.3601 46.9433 23.3503 46.9505 23.3395 46.9552C23.3286 46.96 23.3171 46.9621 23.3055 46.9616H22.6525C22.6409 46.9623 22.6293 46.9602 22.6185 46.9555C22.6076 46.9508 22.5978 46.9435 22.5896 46.9341C22.5808 46.9252 22.5738 46.9141 22.5692 46.9018C22.5646 46.8894 22.5625 46.8761 22.563 46.8627V45.9067C22.5635 45.8935 22.5616 45.8804 22.5574 45.8681C22.5533 45.8558 22.5469 45.8447 22.5388 45.8353C22.5312 45.8256 22.5219 45.8179 22.5115 45.8127C22.501 45.8075 22.4897 45.8049 22.4783 45.805H21.5472C21.5236 45.8057 21.5012 45.8167 21.4846 45.8356C21.4679 45.8545 21.4583 45.8799 21.4577 45.9067V46.8627C21.4594 46.8764 21.4582 46.8903 21.4543 46.9034C21.4503 46.9164 21.4437 46.9283 21.435 46.9379C21.4263 46.9475 21.4157 46.9547 21.4041 46.9588C21.3925 46.9629 21.3802 46.9639 21.3682 46.9616H20.72C20.7082 46.9634 20.6962 46.9621 20.6849 46.9577C20.6736 46.9534 20.6634 46.9462 20.6549 46.9366C20.6465 46.927 20.6401 46.9154 20.6363 46.9026C20.6325 46.8897 20.6314 46.8761 20.633 46.8627V43.8409C20.6318 43.7579 20.6458 43.6756 20.6741 43.5991C20.7037 43.5249 20.7465 43.4585 20.7998 43.4041C20.8509 43.3485 20.9097 43.303 20.974 43.2695C21.042 43.2366 21.1153 43.2197 21.1892 43.22L22.8436 43.2173ZM22.563 44.9947V44.0551H21.4577V44.9947H22.563Z" fill="#242425"/>
<path d="M26.3626 43.2475C26.3712 43.2566 26.378 43.2677 26.3826 43.28C26.3871 43.2923 26.3894 43.3055 26.3892 43.3189V46.3269C26.3895 46.411 26.3747 46.4941 26.3457 46.5714C26.3162 46.6444 26.2761 46.7113 26.2272 46.7692C26.1779 46.8272 26.1186 46.873 26.0531 46.9038C25.9857 46.9359 25.9132 46.9518 25.8402 46.9505H24.4253C24.3523 46.9518 24.2799 46.9359 24.2125 46.9038C24.1466 46.8723 24.0866 46.8266 24.0359 46.7692C23.9854 46.7127 23.9452 46.6455 23.9174 46.5714C23.8904 46.4936 23.8764 46.4107 23.8763 46.3269V45.1869C23.8742 45.173 23.8751 45.1588 23.8788 45.1453C23.8825 45.1319 23.8891 45.1197 23.8979 45.1097C23.9066 45.0998 23.9174 45.0923 23.9292 45.0881C23.941 45.0838 23.9536 45.0829 23.9658 45.0853H24.614C24.6261 45.0835 24.6385 45.0849 24.65 45.0893C24.6616 45.0938 24.6721 45.1012 24.6808 45.111C24.6894 45.1209 24.696 45.1328 24.6999 45.146C24.7038 45.1591 24.7051 45.1731 24.7035 45.1869V45.9478C24.7026 45.9613 24.7046 45.9748 24.7092 45.9872C24.7138 45.9996 24.721 46.0106 24.7301 46.0193C24.7475 46.0364 24.77 46.0452 24.793 46.044H25.4726C25.4956 46.0452 25.5181 46.0364 25.5355 46.0193C25.5446 46.0106 25.5517 45.9996 25.5564 45.9872C25.561 45.9748 25.5629 45.9613 25.5621 45.9478V43.3189C25.5614 43.3057 25.5633 43.2925 25.5674 43.2802C25.5716 43.2679 25.578 43.2567 25.5863 43.2475C25.5935 43.2373 25.6028 43.2293 25.6133 43.2241C25.6238 43.2188 25.6353 43.2165 25.6467 43.2172H26.2998C26.3116 43.2167 26.3233 43.2191 26.3342 43.2243C26.3451 43.2296 26.3548 43.2374 26.3626 43.2475Z" fill="#242425"/>
<path d="M29.323 43.2173C29.3962 43.217 29.4686 43.2338 29.5358 43.2667C29.667 43.3314 29.7716 43.4502 29.8285 43.5991C29.8575 43.6755 29.8723 43.7578 29.872 43.8409V46.3133C29.8723 46.3973 29.8575 46.4805 29.8285 46.5578C29.799 46.6307 29.7589 46.6976 29.71 46.7555C29.6607 46.8135 29.6014 46.8593 29.5358 46.8902C29.4685 46.9222 29.396 46.9381 29.323 46.9369H27.659C27.586 46.9381 27.5135 46.9222 27.4462 46.8902C27.3802 46.8587 27.3203 46.8129 27.2696 46.7555C27.2191 46.6996 27.1795 46.6322 27.1535 46.5578C27.1245 46.4805 27.1097 46.3973 27.11 46.3133V43.8409C27.1097 43.7578 27.1245 43.6755 27.1535 43.5991C27.179 43.5244 27.2187 43.4569 27.2696 43.4013C27.3215 43.3457 27.3812 43.3002 27.4462 43.2667C27.5134 43.2338 27.5858 43.217 27.659 43.2173H29.323ZM29.04 44.1238H27.9371V46.0468H29.04V44.1238Z" fill="#242425"/>
<path d="M33.4757 46.8654C33.4808 46.8749 33.4835 46.8858 33.4835 46.897C33.4835 46.9081 33.4808 46.9191 33.4757 46.9286C33.4757 46.945 33.4491 46.9505 33.4225 46.9505H32.6751C32.6489 46.9508 32.623 46.9432 32.6002 46.9286C32.5771 46.9134 32.5579 46.8916 32.5445 46.8654L32.0463 45.8517C32.0434 45.8453 32.0388 45.84 32.0332 45.8365C32.0276 45.8331 32.0212 45.8317 32.0149 45.8325H31.4538C31.4508 45.832 31.4478 45.8323 31.445 45.8334C31.4422 45.8345 31.4396 45.8363 31.4375 45.8387C31.4354 45.8411 31.4338 45.844 31.4328 45.8472C31.4319 45.8504 31.4316 45.8538 31.432 45.8572V46.8516C31.4332 46.8652 31.4317 46.8789 31.4275 46.8917C31.4234 46.9045 31.4168 46.9161 31.4082 46.9256C31.3996 46.9351 31.3893 46.9423 31.3779 46.9466C31.3665 46.9509 31.3544 46.9523 31.3425 46.9505H30.6943C30.6823 46.9528 30.67 46.9519 30.6584 46.9478C30.6468 46.9437 30.6362 46.9365 30.6275 46.9269C30.6188 46.9172 30.6122 46.9054 30.6083 46.8923C30.6043 46.8793 30.6031 46.8653 30.6048 46.8516V43.3189C30.6027 43.305 30.6036 43.2907 30.6073 43.2773C30.6111 43.2639 30.6176 43.2517 30.6264 43.2417C30.6351 43.2317 30.6459 43.2243 30.6577 43.22C30.6695 43.2158 30.6821 43.2148 30.6943 43.2172H32.8178C32.891 43.2169 32.9635 43.2338 33.0307 43.2667C33.1618 43.3313 33.2664 43.4501 33.3233 43.5991C33.3523 43.6754 33.3671 43.7577 33.3669 43.8408V45.2446C33.3672 45.3763 33.3299 45.5045 33.2604 45.61C33.1937 45.7142 33.0998 45.7921 32.992 45.8325H32.9775C32.9557 45.8325 32.9509 45.849 32.9629 45.8627L33.4757 46.8654ZM32.5397 44.0853H31.4078V44.9946H32.5397V44.0853Z" fill="#242425"/>
<path d="M37.9042 46.044C37.9159 46.0438 37.9276 46.0464 37.9384 46.0516C37.9492 46.0568 37.959 46.0645 37.967 46.0742C37.9817 46.0942 37.9894 46.1196 37.9888 46.1456V46.8516C37.9894 46.8777 37.9817 46.903 37.967 46.9231C37.9589 46.9324 37.949 46.9397 37.9382 46.9444C37.9273 46.9492 37.9157 46.9512 37.9042 46.9505H35.875C35.863 46.9522 35.851 46.9509 35.8396 46.9466C35.8282 46.9423 35.8178 46.9351 35.8092 46.9256C35.8006 46.9161 35.794 46.9045 35.7899 46.8917C35.7858 46.8789 35.7843 46.8652 35.7855 46.8516V43.3189C35.7839 43.3051 35.7851 43.2911 35.789 43.2779C35.793 43.2648 35.7995 43.2528 35.8082 43.243C35.8168 43.2332 35.8273 43.2258 35.8389 43.2213C35.8505 43.2168 35.8628 43.2154 35.875 43.2172H36.5207C36.5329 43.2148 36.5455 43.2158 36.5573 43.22C36.5691 43.2243 36.5799 43.2317 36.5887 43.2417C36.5974 43.2517 36.604 43.2639 36.6077 43.2773C36.6115 43.2907 36.6123 43.305 36.6102 43.3189V45.9478C36.61 45.9612 36.6123 45.9744 36.6169 45.9867C36.6215 45.999 36.6282 46.0101 36.6368 46.0193C36.6544 46.0359 36.6768 46.0447 36.6997 46.044H37.9042Z" fill="#242425"/>
<path d="M40.9371 43.2475C40.9457 43.2566 40.9525 43.2677 40.9571 43.28C40.9616 43.2923 40.9639 43.3056 40.9637 43.3189V43.9892C40.9639 44.0026 40.9616 44.0158 40.9571 44.0281C40.9525 44.0404 40.9457 44.0515 40.9371 44.0606C40.9195 44.0773 40.8972 44.0861 40.8742 44.0853H39.2997C39.2852 44.0853 39.278 44.0854 39.278 44.1128V44.6952C39.278 44.7089 39.278 44.7172 39.2997 44.7172H40.6445C40.6557 44.7167 40.6669 44.7189 40.6773 44.7236C40.6877 44.7283 40.6971 44.7355 40.7049 44.7447C40.7206 44.7652 40.7292 44.7916 40.7291 44.8188V45.3518C40.7289 45.3781 40.7203 45.4034 40.7049 45.4232C40.6973 45.4327 40.6879 45.4403 40.6775 45.4455C40.6671 45.4507 40.6559 45.4534 40.6445 45.4534H39.2997C39.2968 45.453 39.2938 45.4533 39.291 45.4544C39.2881 45.4554 39.2856 45.4573 39.2835 45.4596C39.2814 45.462 39.2798 45.465 39.2788 45.4682C39.2779 45.4714 39.2776 45.4748 39.278 45.4781V45.7528V46.0633C39.278 46.0825 39.278 46.0907 39.2997 46.0907H40.8742C40.8858 46.0902 40.8974 46.0923 40.9082 46.0971C40.919 46.1018 40.9289 46.109 40.9371 46.1182C40.9541 46.1381 40.9636 46.1647 40.9637 46.1924V46.8599C40.9638 46.8733 40.9614 46.8864 40.9569 46.8987C40.9523 46.911 40.9456 46.9221 40.9371 46.9313C40.9289 46.9406 40.919 46.9478 40.9082 46.9525C40.8974 46.9572 40.8858 46.9594 40.8742 46.9588H38.5403C38.5283 46.9611 38.516 46.9602 38.5044 46.956C38.4928 46.9519 38.4822 46.9448 38.4735 46.9351C38.4648 46.9255 38.4582 46.9137 38.4542 46.9006C38.4503 46.8875 38.4491 46.8736 38.4508 46.8599V43.3189C38.4502 43.3057 38.452 43.2926 38.4562 43.2803C38.4604 43.2679 38.4668 43.2568 38.475 43.2475C38.4831 43.2371 38.4932 43.229 38.5046 43.2237C38.5159 43.2185 38.5281 43.2163 38.5403 43.2173H40.8742C40.886 43.2167 40.8978 43.2191 40.9087 43.2244C40.9195 43.2296 40.9293 43.2375 40.9371 43.2475Z" fill="#242425"/>
<path d="M43.9168 43.2173C43.9908 43.2167 44.0641 43.2335 44.1321 43.2667C44.1966 43.2996 44.2556 43.3452 44.3062 43.4014C44.3557 43.4582 44.3951 43.5254 44.4223 43.5991C44.4532 43.6749 44.4689 43.7574 44.4682 43.8409V46.8627C44.4683 46.876 44.4659 46.8892 44.4614 46.9015C44.4568 46.9138 44.4501 46.9249 44.4416 46.9341C44.4334 46.9434 44.4235 46.9506 44.4127 46.9553C44.4019 46.96 44.3903 46.9622 44.3788 46.9616H43.7257C43.7141 46.9623 43.7025 46.9603 43.6917 46.9555C43.6809 46.9508 43.671 46.9435 43.6628 46.9341C43.6544 46.9249 43.6477 46.9138 43.6431 46.9015C43.6386 46.8892 43.6362 46.876 43.6362 46.8627V45.9067C43.6367 45.8936 43.6348 45.8804 43.6307 45.8682C43.6265 45.8559 43.6202 45.8447 43.6121 45.8353C43.6045 45.8256 43.5951 45.818 43.5847 45.8127C43.5743 45.8075 43.563 45.8049 43.5516 45.8051H42.6204C42.5969 45.8058 42.5745 45.8167 42.5578 45.8356C42.5412 45.8545 42.5316 45.88 42.5309 45.9067V46.8627C42.5325 46.8761 42.5314 46.8898 42.5276 46.9026C42.5238 46.9154 42.5174 46.9271 42.509 46.9367C42.5005 46.9462 42.4903 46.9535 42.479 46.9578C42.4677 46.9621 42.4557 46.9634 42.4439 46.9616H41.7957C41.7837 46.9639 41.7714 46.963 41.7598 46.9588C41.7482 46.9547 41.7376 46.9476 41.7289 46.9379C41.7202 46.9283 41.7136 46.9165 41.7096 46.9034C41.7057 46.8903 41.7045 46.8764 41.7062 46.8627V43.8409C41.7063 43.7581 41.7202 43.676 41.7473 43.5991C41.7745 43.5247 41.8148 43.4574 41.8658 43.4014C41.9169 43.3458 41.9757 43.3003 42.04 43.2667C42.108 43.2338 42.1813 43.217 42.2552 43.2173H43.9168ZM43.6362 44.9947V44.0552H42.5309V44.9947H43.6362Z" fill="#242425"/>
<path d="M47.9365 44.9424C47.945 44.9517 47.9517 44.9628 47.9563 44.975C47.9608 44.9873 47.9632 45.0005 47.9632 45.0138V46.3269C47.9638 46.4113 47.9481 46.4948 47.9172 46.5714C47.8894 46.6448 47.8501 46.7119 47.8011 46.7692C47.7518 46.8272 47.6925 46.873 47.627 46.9038C47.5588 46.9361 47.4855 46.952 47.4117 46.9505H45.7501C45.6778 46.9516 45.6059 46.9363 45.5389 46.9053C45.4718 46.8744 45.4109 46.8285 45.3597 46.7704C45.3086 46.7122 45.2682 46.643 45.2409 46.5669C45.2137 46.4907 45.2001 46.4091 45.2011 46.3269V43.8546C45.2 43.7716 45.214 43.6893 45.2422 43.6128C45.2694 43.5384 45.3097 43.471 45.3607 43.415C45.4118 43.3594 45.4706 43.3139 45.5349 43.2804C45.6029 43.2475 45.6762 43.2307 45.7501 43.231H47.685C47.6968 43.2304 47.7086 43.2328 47.7194 43.2381C47.7303 43.2433 47.74 43.2512 47.7479 43.2612C47.7565 43.2703 47.7632 43.2814 47.7678 43.2937C47.7724 43.306 47.7747 43.3193 47.7745 43.3326V44.0359C47.7739 44.0626 47.7643 44.0881 47.7476 44.107C47.731 44.1259 47.7086 44.1368 47.685 44.1375H46.1105C46.0989 44.137 46.0874 44.1391 46.0766 44.1438C46.0657 44.1486 46.0559 44.1558 46.0476 44.165C46.0391 44.1736 46.0324 44.1842 46.0278 44.1961C46.0232 44.2079 46.0209 44.2207 46.021 44.2337V45.9616C46.0208 45.9749 46.0231 45.9882 46.0277 46.0005C46.0323 46.0128 46.0391 46.0239 46.0476 46.033C46.0652 46.0497 46.0876 46.0584 46.1105 46.0577H47.0417C47.0639 46.0588 47.0856 46.05 47.1021 46.033C47.1104 46.0237 47.1168 46.0125 47.121 46.0002C47.1251 45.9879 47.127 45.9748 47.1263 45.9616V45.0276C47.1258 45.0142 47.128 45.0008 47.1326 44.9885C47.1372 44.9761 47.1441 44.9651 47.1529 44.9561C47.161 44.9464 47.1707 44.9387 47.1816 44.9335C47.1924 44.9283 47.2041 44.9257 47.2158 44.9259H47.8688C47.8805 44.9233 47.8925 44.9234 47.9042 44.9262C47.9158 44.929 47.9269 44.9346 47.9365 44.9424Z" fill="#242425"/>
<path d="M51.4023 43.2475C51.4109 43.2566 51.4177 43.2677 51.4223 43.28C51.4269 43.2923 51.4291 43.3055 51.4289 43.3189V46.3269C51.4292 46.411 51.4144 46.4941 51.3854 46.5714C51.3559 46.6444 51.3158 46.7113 51.2669 46.7692C51.2176 46.8272 51.1583 46.873 51.0928 46.9038C51.0254 46.9359 50.9529 46.9518 50.8799 46.9505H49.2159C49.1429 46.9518 49.0704 46.9359 49.0031 46.9038C48.9371 46.8723 48.8772 46.8266 48.8265 46.7692C48.776 46.7127 48.7358 46.6455 48.708 46.5714C48.6809 46.4936 48.667 46.4106 48.6669 46.3269V43.3189C48.6648 43.305 48.6656 43.2907 48.6694 43.2773C48.6731 43.2639 48.6797 43.2517 48.6884 43.2417C48.6972 43.2317 48.708 43.2243 48.7198 43.22C48.7316 43.2158 48.7442 43.2148 48.7564 43.2172H49.4046C49.4167 43.2154 49.429 43.2168 49.4406 43.2213C49.4522 43.2258 49.4627 43.2332 49.4714 43.243C49.48 43.2528 49.4866 43.2648 49.4905 43.2779C49.4944 43.2911 49.4957 43.3051 49.4941 43.3189V45.9478C49.4934 45.961 49.4953 45.9742 49.4994 45.9865C49.5036 45.9988 49.51 46.01 49.5183 46.0193C49.5368 46.0359 49.5599 46.0446 49.5836 46.044H50.5123C50.5238 46.0458 50.5355 46.0446 50.5465 46.0404C50.5575 46.0362 50.5675 46.0292 50.5757 46.0199C50.5839 46.0106 50.5901 45.9992 50.5938 45.9867C50.5975 45.9742 50.5986 45.9609 50.597 45.9478V43.3189C50.5968 43.3055 50.5991 43.2923 50.6036 43.28C50.6082 43.2677 50.615 43.2566 50.6236 43.2475C50.6314 43.2374 50.6411 43.2295 50.652 43.2243C50.6629 43.2191 50.6746 43.2167 50.6864 43.2172H51.3395C51.3513 43.2167 51.363 43.2191 51.3739 43.2243C51.3848 43.2295 51.3945 43.2374 51.4023 43.2475Z" fill="#242425"/>
<path d="M54.6602 43.2475C54.6687 43.2566 54.6755 43.2677 54.6801 43.28C54.6847 43.2923 54.6869 43.3056 54.6868 43.3189V43.9892C54.6869 44.0025 54.6847 44.0158 54.6801 44.0281C54.6755 44.0404 54.6687 44.0515 54.6602 44.0606C54.6428 44.0777 54.6203 44.0866 54.5973 44.0853H53.0252C53.0219 44.0849 53.0186 44.0853 53.0155 44.0865C53.0124 44.0878 53.0096 44.0898 53.0072 44.0924C53.0049 44.0951 53.0031 44.0983 53.0021 44.1018C53.001 44.1053 53.0006 44.1091 53.001 44.1128V44.6952C53.001 44.7089 53.001 44.7172 53.0252 44.7172H54.3675C54.3787 44.7165 54.39 44.7186 54.4004 44.7233C54.4109 44.7281 54.4203 44.7354 54.428 44.7446C54.4363 44.7545 54.4427 44.7661 54.4469 44.7789C54.451 44.7916 54.4528 44.8052 54.4522 44.8188V45.3518C54.4527 45.3649 54.4508 45.378 54.4466 45.3903C54.4424 45.4026 54.4361 45.4138 54.428 45.4232C54.4204 45.4328 54.4111 45.4405 54.4006 45.4457C54.3902 45.4509 54.3789 45.4536 54.3675 45.4534H53.0252C53.0083 45.4534 53.001 45.4534 53.001 45.4781V45.7528V46.0633C53.001 46.0825 53.001 46.0907 53.0252 46.0907H54.5973C54.6089 46.09 54.6205 46.0921 54.6313 46.0968C54.6422 46.1015 54.652 46.1088 54.6602 46.1182C54.6771 46.1381 54.6867 46.1647 54.6868 46.1924V46.8599C54.6868 46.8732 54.6845 46.8864 54.6799 46.8987C54.6753 46.911 54.6686 46.9221 54.6602 46.9313C54.652 46.9407 54.6422 46.948 54.6313 46.9527C54.6205 46.9575 54.6089 46.9595 54.5973 46.9588H52.2633C52.2513 46.9611 52.239 46.9601 52.2274 46.956C52.2158 46.9519 52.2052 46.9448 52.1965 46.9351C52.1878 46.9255 52.1812 46.9137 52.1773 46.9006C52.1733 46.8875 52.1722 46.8736 52.1738 46.8599V43.3189C52.1737 43.3056 52.1759 43.2923 52.1805 43.28C52.1851 43.2677 52.1919 43.2566 52.2005 43.2475C52.2083 43.2375 52.218 43.2296 52.2289 43.2243C52.2398 43.2191 52.2515 43.2167 52.2633 43.2173H54.5973C54.6091 43.2163 54.621 43.2185 54.6319 43.2238C54.6429 43.229 54.6525 43.2371 54.6602 43.2475Z" fill="#242425"/>
<path d="M59.7006 43.2172C59.7127 43.2167 59.7248 43.219 59.7361 43.2243C59.7474 43.2295 59.7575 43.2374 59.7659 43.2475C59.7741 43.2568 59.7805 43.2679 59.7847 43.2802C59.7889 43.2925 59.7907 43.3057 59.7901 43.3189V46.8517C59.7905 46.8648 59.7886 46.8779 59.7845 46.8902C59.7803 46.9025 59.774 46.9137 59.7659 46.9231C59.7481 46.9416 59.7247 46.9515 59.7006 46.9506H59.0475C59.036 46.9511 59.0244 46.949 59.0136 46.9442C59.0028 46.9395 58.9929 46.9323 58.9847 46.9231C58.9762 46.9138 58.9695 46.9027 58.9649 46.8905C58.9604 46.8782 58.958 46.865 58.9581 46.8517V45.6182C58.959 45.593 58.9512 45.5683 58.9363 45.5495C58.9281 45.5402 58.9183 45.5329 58.9074 45.5281C58.8966 45.5234 58.885 45.5213 58.8734 45.5221H57.9447C57.9331 45.5215 57.9215 45.5237 57.9107 45.5284C57.8999 45.5331 57.8901 45.5403 57.8818 45.5495C57.8733 45.5582 57.8665 45.5687 57.8619 45.5806C57.8573 45.5924 57.855 45.6053 57.8552 45.6182V46.8517C57.8569 46.8653 57.8557 46.8793 57.8518 46.8923C57.8478 46.9054 57.8412 46.9172 57.8325 46.9269C57.8238 46.9365 57.8132 46.9437 57.8016 46.9478C57.79 46.9519 57.7777 46.9528 57.7657 46.9506H57.1175C57.1056 46.9523 57.0935 46.9509 57.0821 46.9466C57.0708 46.9423 57.0604 46.9351 57.0518 46.9256C57.0432 46.9161 57.0366 46.9045 57.0325 46.8917C57.0284 46.8789 57.0268 46.8652 57.028 46.8517V43.3189C57.0264 43.3051 57.0277 43.2911 57.0316 43.278C57.0355 43.2648 57.0421 43.2529 57.0507 43.243C57.0594 43.2332 57.0699 43.2258 57.0815 43.2213C57.093 43.2168 57.1054 43.2154 57.1175 43.2172H57.7657C57.7779 43.2148 57.7905 43.2158 57.8023 43.2201C57.8141 43.2243 57.8249 43.2317 57.8336 43.2417C57.8424 43.2517 57.849 43.2639 57.8527 43.2773C57.8564 43.2907 57.8573 43.305 57.8552 43.3189V44.5029C57.8536 44.5167 57.8548 44.5307 57.8588 44.5438C57.8627 44.557 57.8692 44.5689 57.8779 44.5787C57.8865 44.5886 57.897 44.596 57.9086 44.6005C57.9202 44.6049 57.9325 44.6063 57.9447 44.6045H58.8734C58.8852 44.6047 58.8968 44.6021 58.9076 44.5969C58.9185 44.5917 58.9282 44.584 58.9363 44.5743C58.9509 44.5543 58.9587 44.5289 58.9581 44.5029V43.3079C58.9579 43.2945 58.9602 43.2813 58.9647 43.269C58.9693 43.2567 58.9761 43.2456 58.9847 43.2365C58.9925 43.2265 59.0022 43.2186 59.0131 43.2133C59.024 43.2081 59.0357 43.2057 59.0475 43.2063L59.7006 43.2172Z" fill="#242425"/>
<path d="M62.7456 43.2173C62.8187 43.217 62.8912 43.2338 62.9584 43.2667C63.0895 43.3314 63.1941 43.4502 63.251 43.5991C63.28 43.6755 63.2949 43.7578 63.2946 43.8409V46.8627C63.2951 46.8758 63.2932 46.889 63.289 46.9012C63.2848 46.9135 63.2785 46.9247 63.2704 46.9341C63.2526 46.9526 63.2292 46.9625 63.2051 46.9616H62.5521C62.5405 46.9621 62.5289 46.96 62.5181 46.9553C62.5073 46.9505 62.4975 46.9433 62.4892 46.9341C62.4807 46.9249 62.474 46.9138 62.4695 46.9015C62.4649 46.8892 62.4626 46.876 62.4626 46.8627V45.9067C62.4632 45.8807 62.4555 45.8553 62.4408 45.8353C62.4328 45.8255 62.423 45.8178 62.4122 45.8126C62.4013 45.8074 62.3897 45.8049 62.3779 45.8051H61.4492C61.4374 45.8049 61.4258 45.8074 61.415 45.8126C61.4041 45.8178 61.3944 45.8255 61.3863 45.8353C61.3779 45.8445 61.3712 45.8556 61.3666 45.8679C61.362 45.8802 61.3597 45.8934 61.3597 45.9067V46.8627C61.3614 46.8764 61.3602 46.8903 61.3563 46.9034C61.3523 46.9164 61.3457 46.9283 61.337 46.9379C61.3283 46.9475 61.3177 46.9547 61.3061 46.9588C61.2945 46.9629 61.2822 46.9639 61.2702 46.9616H60.622C60.61 46.9639 60.5977 46.9629 60.5861 46.9588C60.5745 46.9547 60.5639 46.9475 60.5552 46.9379C60.5465 46.9283 60.5399 46.9164 60.536 46.9034C60.532 46.8903 60.5309 46.8764 60.5325 46.8627V43.8409C60.5323 43.7578 60.5471 43.6755 60.5761 43.5991C60.6016 43.5244 60.6412 43.4569 60.6922 43.4013C60.7441 43.3457 60.8037 43.3002 60.8687 43.2667C60.9359 43.2338 61.0084 43.217 61.0816 43.2173H62.7456ZM62.4626 44.9947V44.0551H61.3597V44.9947H62.4626Z" fill="#242425"/>
<path d="M64.8763 44.1513C64.8678 44.1599 64.861 44.1705 64.8565 44.1823C64.8519 44.1942 64.8496 44.207 64.8497 44.2199V45.9479C64.8495 45.9612 64.8518 45.9744 64.8564 45.9867C64.861 45.999 64.8677 46.0101 64.8763 46.0193C64.8939 46.0359 64.9163 46.0447 64.9392 46.044H66.4484C66.4601 46.044 66.4717 46.0466 66.4825 46.0518C66.4933 46.057 66.5031 46.0646 66.5113 46.0742C66.5194 46.0836 66.5257 46.0948 66.5299 46.1071C66.534 46.1194 66.5359 46.1325 66.5354 46.1456V46.8516C66.5361 46.8648 66.5344 46.8781 66.5303 46.8904C66.5261 46.9028 66.5197 46.914 66.5115 46.9234C66.5033 46.9327 66.4934 46.94 66.4825 46.9446C66.4716 46.9493 66.46 46.9513 66.4484 46.9505H64.5764C64.5026 46.952 64.4293 46.9361 64.3611 46.9038C64.2952 46.8723 64.2352 46.8266 64.1846 46.7692C64.1348 46.7126 64.0954 46.6454 64.0685 46.5714C64.0395 46.4942 64.0247 46.411 64.025 46.327V43.8546C64.0247 43.7714 64.0395 43.6891 64.0685 43.6128C64.0948 43.5385 64.1343 43.4711 64.1846 43.415C64.2365 43.3594 64.2961 43.3139 64.3611 43.2804C64.4291 43.2472 64.5024 43.2304 64.5764 43.231H66.4508C66.4626 43.2304 66.4743 43.2328 66.4852 43.2381C66.4961 43.2433 66.5058 43.2512 66.5137 43.2612C66.5219 43.2705 66.5283 43.2817 66.5325 43.294C66.5367 43.3063 66.5385 43.3195 66.5379 43.3326V44.0359C66.5383 44.049 66.5365 44.0622 66.5323 44.0744C66.5281 44.0867 66.5218 44.0979 66.5137 44.1073C66.5055 44.1169 66.4958 44.1245 66.4849 44.1297C66.4741 44.1349 66.4625 44.1376 66.4508 44.1375H64.9392C64.9174 44.1326 64.8949 44.1375 64.8763 44.1513Z" fill="#242425"/>
<path d="M69.1524 44.7913C69.1491 44.7965 69.1473 44.8028 69.1473 44.8092C69.1473 44.8156 69.1491 44.8218 69.1524 44.827L70.2529 46.8654C70.258 46.8749 70.2607 46.8858 70.2607 46.897C70.2607 46.9081 70.258 46.919 70.2529 46.9285C70.2529 46.945 70.2263 46.9505 70.1997 46.9505H69.4136C69.3873 46.951 69.3614 46.9435 69.3386 46.9285C69.3155 46.9134 69.2964 46.8916 69.283 46.8654L68.5719 45.4094C68.5719 45.3929 68.555 45.3902 68.5502 45.4094L68.1584 45.8956C68.1406 45.9177 68.1274 45.944 68.1197 45.9726C68.1087 46.0022 68.103 46.0339 68.1027 46.066V46.8571C68.1044 46.8708 68.1033 46.8847 68.0993 46.8978C68.0954 46.9109 68.0888 46.9227 68.0801 46.9323C68.0713 46.942 68.0608 46.9491 68.0491 46.9532C68.0375 46.9574 68.0252 46.9583 68.0132 46.956H67.3651C67.3532 46.9577 67.3411 46.9564 67.3297 46.9521C67.3183 46.9477 67.3079 46.9406 67.2993 46.9311C67.2907 46.9216 67.2841 46.91 67.28 46.8972C67.2759 46.8844 67.2744 46.8707 67.2756 46.8571V43.3189C67.274 43.3051 67.2752 43.2911 67.2791 43.2779C67.2831 43.2648 67.2896 43.2528 67.2983 43.243C67.3069 43.2332 67.3174 43.2258 67.329 43.2213C67.3406 43.2168 67.3529 43.2154 67.3651 43.2172H68.0132C68.0255 43.2148 68.038 43.2158 68.0499 43.22C68.0617 43.2243 68.0724 43.2317 68.0812 43.2417C68.09 43.2517 68.0965 43.2639 68.1003 43.2773C68.104 43.2907 68.1049 43.305 68.1027 43.3189V44.9039L69.312 43.2914C69.3302 43.2688 69.3525 43.251 69.3773 43.2392C69.402 43.2248 69.4294 43.2172 69.4571 43.2172H70.2384C70.2625 43.2172 70.277 43.2172 70.2819 43.2392C70.2867 43.2612 70.2819 43.2694 70.265 43.2914L69.1524 44.7913Z" fill="#242425"/>
<path d="M71.6847 46.8516C71.6864 46.8653 71.6852 46.8793 71.6813 46.8923C71.6773 46.9054 71.6708 46.9172 71.662 46.9269C71.6533 46.9365 71.6427 46.9437 71.6311 46.9478C71.6195 46.9519 71.6072 46.9528 71.5952 46.9505H70.947C70.9351 46.9523 70.923 46.9509 70.9117 46.9466C70.9003 46.9423 70.8899 46.9351 70.8813 46.9256C70.8727 46.9161 70.8661 46.9045 70.862 46.8917C70.8579 46.8789 70.8564 46.8652 70.8575 46.8516V43.3189C70.856 43.3051 70.8572 43.2911 70.8611 43.2779C70.8651 43.2648 70.8716 43.2528 70.8803 43.243C70.8889 43.2332 70.8994 43.2258 70.911 43.2213C70.9226 43.2168 70.9349 43.2154 70.947 43.2172H71.5904C71.6026 43.2148 71.6152 43.2158 71.627 43.22C71.6388 43.2243 71.6496 43.2317 71.6583 43.2417C71.6671 43.2517 71.6737 43.2639 71.6774 43.2773C71.6811 43.2907 71.682 43.305 71.6799 43.3189L71.6847 46.8516Z" fill="#242425"/>
<path d="M74.8482 43.2667C74.9793 43.3313 75.0839 43.4501 75.1408 43.5991C75.1698 43.6754 75.1846 43.7577 75.1844 43.8408V46.8626C75.1849 46.876 75.1827 46.8894 75.1781 46.9017C75.1735 46.9141 75.1666 46.9251 75.1578 46.934C75.1496 46.9434 75.1397 46.9507 75.1289 46.9554C75.1181 46.9602 75.1065 46.9622 75.0949 46.9615H74.4419C74.4306 46.9622 74.4194 46.9601 74.409 46.9554C74.3985 46.9506 74.3891 46.9433 74.3814 46.934C74.3661 46.9143 74.3575 46.8889 74.3572 46.8626V44.2282C74.3578 44.2154 74.356 44.2027 74.3518 44.1908C74.3476 44.1789 74.3412 44.1682 74.333 44.1595C74.3153 44.141 74.2918 44.1311 74.2677 44.132H73.339C73.3274 44.1315 73.3159 44.1336 73.305 44.1383C73.2942 44.1431 73.2844 44.1503 73.2761 44.1595C73.2672 44.1677 73.2601 44.1782 73.2555 44.1902C73.2509 44.2021 73.2488 44.2151 73.2495 44.2282V46.8599C73.2512 46.8735 73.25 46.8875 73.2461 46.9006C73.2421 46.9136 73.2355 46.9254 73.2268 46.9351C73.2181 46.9447 73.2075 46.9519 73.1959 46.956C73.1843 46.9601 73.172 46.9611 73.16 46.9588H72.5118C72.4998 46.9611 72.4875 46.9601 72.4759 46.956C72.4643 46.9519 72.4537 46.9447 72.445 46.9351C72.4363 46.9254 72.4297 46.9136 72.4258 46.9006C72.4218 46.8875 72.4207 46.8735 72.4223 46.8599V43.3189C72.4202 43.305 72.4211 43.2907 72.4248 43.2773C72.4286 43.2639 72.4351 43.2517 72.4439 43.2417C72.4526 43.2317 72.4634 43.2243 72.4752 43.22C72.4871 43.2158 72.4996 43.2148 72.5118 43.2172H74.6353C74.7085 43.2169 74.781 43.2338 74.8482 43.2667Z" fill="#242425"/>
<path d="M78.6527 44.9424C78.6611 44.9517 78.6678 44.9628 78.6724 44.9751C78.677 44.9873 78.6793 45.0005 78.6793 45.0139V46.327C78.6796 46.411 78.6647 46.4942 78.6358 46.5715C78.6062 46.6445 78.5662 46.7113 78.5172 46.7693C78.4679 46.8272 78.4087 46.873 78.3431 46.9039C78.2758 46.9359 78.2033 46.9518 78.1303 46.9506H76.4663C76.3932 46.9518 76.3208 46.9359 76.2534 46.9039C76.1875 46.8724 76.1275 46.8267 76.0769 46.7693C76.0263 46.7128 75.9861 46.6456 75.9583 46.5715C75.9313 46.4936 75.9173 46.4107 75.9172 46.327V43.8546C75.9173 43.7718 75.9313 43.6897 75.9583 43.6128C75.9855 43.5384 76.0258 43.4711 76.0769 43.4151C76.1288 43.3594 76.1884 43.3139 76.2534 43.2805C76.3206 43.2475 76.3931 43.2307 76.4663 43.231H78.4011C78.4133 43.23 78.4256 43.2322 78.4369 43.2375C78.4482 43.2427 78.4583 43.2508 78.4664 43.2612C78.4747 43.2705 78.4811 43.2817 78.4853 43.294C78.4894 43.3063 78.4913 43.3195 78.4906 43.3326V44.0359C78.4911 44.0491 78.4892 44.0622 78.4851 44.0745C78.4809 44.0868 78.4746 44.0979 78.4664 44.1073C78.4579 44.1171 78.4478 44.1249 78.4365 44.13C78.4253 44.1352 78.4133 44.1378 78.4011 44.1375H76.8291C76.8175 44.1368 76.8059 44.1389 76.795 44.1436C76.7842 44.1484 76.7743 44.1557 76.7662 44.165C76.7573 44.1733 76.7502 44.1838 76.7456 44.1957C76.741 44.2077 76.7389 44.2207 76.7396 44.2337V45.9616C76.7387 45.9751 76.7407 45.9886 76.7453 46.001C76.7499 46.0134 76.7571 46.0244 76.7662 46.033C76.7835 46.0502 76.8061 46.059 76.8291 46.0578H77.7578C77.7693 46.0596 77.781 46.0584 77.792 46.0542C77.803 46.05 77.813 46.043 77.8212 46.0337C77.8294 46.0243 77.8356 46.013 77.8393 46.0005C77.843 45.988 77.8441 45.9747 77.8424 45.9616V45.0276C77.8431 45.0009 77.8527 44.9754 77.8693 44.9565C77.886 44.9376 77.9084 44.9267 77.9319 44.926H78.585C78.5966 44.9231 78.6087 44.9231 78.6204 44.926C78.632 44.9288 78.6431 44.9344 78.6527 44.9424Z" fill="#242425"/>
<path d="M36.2402 17.5045C36.6491 17.7057 37.0215 17.9917 37.3382 18.3478C37.6523 18.7061 37.9041 19.1282 38.0807 19.5923C38.2676 20.0744 38.3632 20.5957 38.3613 21.1224V40.7174C38.3634 40.8016 38.3501 40.8854 38.3223 40.9634C38.2944 41.0414 38.2525 41.112 38.1993 41.1707C38.1471 41.2313 38.0846 41.2791 38.0155 41.3113C37.9465 41.3434 37.8724 41.3591 37.7978 41.3575H33.6716C33.5991 41.3603 33.5268 41.345 33.46 41.3127C33.3931 41.2804 33.3333 41.232 33.2847 41.1707C33.185 41.0474 33.132 40.8846 33.1371 40.7174V22.9053H29.8116V40.7174C29.8167 40.8846 29.7637 41.0474 29.664 41.1707C29.6154 41.232 29.5556 41.2804 29.4887 41.3127C29.4219 41.345 29.3496 41.3603 29.2771 41.3575H25.5379C25.4633 41.3591 25.3892 41.3434 25.3201 41.3113C25.2511 41.2791 25.1886 41.2313 25.1364 41.1707C25.0829 41.1122 25.0406 41.0417 25.0123 40.9636C24.984 40.8856 24.9703 40.8018 24.972 40.7174V22.9053H21.6488V40.7174C21.6593 40.8045 21.6518 40.8932 21.6271 40.9764C21.6023 41.0597 21.5609 41.1353 21.506 41.1973C21.4512 41.2594 21.3844 41.3061 21.311 41.3339C21.2376 41.3617 21.1595 41.3697 21.0828 41.3575H16.9882C16.9115 41.3697 16.8334 41.3617 16.76 41.3339C16.6866 41.3061 16.6198 41.2594 16.565 41.1973C16.5102 41.1353 16.4687 41.0597 16.4439 40.9764C16.4192 40.8932 16.4117 40.8045 16.4222 40.7174V17.8259C16.4117 17.7388 16.4192 17.6501 16.4439 17.5668C16.4687 17.4836 16.5102 17.408 16.565 17.3459C16.6198 17.2839 16.6866 17.2372 16.76 17.2094C16.8334 17.1816 16.9115 17.1735 16.9882 17.1858H34.8858C35.3519 17.1834 35.8133 17.2919 36.2402 17.5045Z" fill="#E73427"/>
<path d="M36.2402 17.5045C36.6491 17.7057 37.0215 17.9917 37.3382 18.3478C37.6523 18.7061 37.9041 19.1282 38.0807 19.5923C38.2676 20.0744 38.3631 20.5957 38.3613 21.1224V22.8695L33.1371 22.9053H21.6488L16.4222 22.8695V17.8259C16.4117 17.7388 16.4192 17.6501 16.4439 17.5668C16.4687 17.4836 16.5102 17.408 16.565 17.3459C16.6198 17.2839 16.6866 17.2372 16.76 17.2094C16.8334 17.1816 16.9115 17.1735 16.9882 17.1858H34.8858C35.3519 17.1834 35.8133 17.2919 36.2402 17.5045Z" fill="#E73427"/>
<path d="M56.3532 35.4899C56.4293 35.4869 56.505 35.5023 56.5755 35.535C56.6459 35.5676 56.7095 35.6169 56.762 35.6794C56.8661 35.8058 56.9225 35.9734 56.9192 36.1464V40.7039C56.9225 40.8769 56.8661 41.0445 56.762 41.1709C56.7095 41.2334 56.6459 41.2827 56.5755 41.3153C56.505 41.348 56.4293 41.3634 56.3532 41.3604H42.2214C42.1418 41.3748 42.0603 41.3679 41.9834 41.3403C41.9065 41.3127 41.8363 41.2652 41.7784 41.2015C41.7205 41.1378 41.6763 41.0597 41.6496 40.9734C41.6228 40.887 41.614 40.7947 41.624 40.7039V17.8563C41.614 17.7654 41.6228 17.6731 41.6496 17.5868C41.6763 17.5004 41.7205 17.4223 41.7784 17.3586C41.8363 17.2949 41.9065 17.2474 41.9834 17.2199C42.0603 17.1923 42.1418 17.1854 42.2214 17.1997H46.5749C46.6538 17.1873 46.7341 17.1956 46.8098 17.224C46.8854 17.2524 46.9543 17.3002 47.011 17.3636C47.0678 17.4271 47.111 17.5045 47.1373 17.5899C47.1636 17.6753 47.1722 17.7665 47.1626 17.8563V34.8883C47.1596 34.9732 47.1735 35.0578 47.2032 35.1358C47.2329 35.2138 47.2777 35.2832 47.3343 35.3388C47.452 35.4551 47.604 35.5169 47.76 35.5119L56.3532 35.4899Z" fill="#1D539F"/>
<path d="M47.1142 41.3604H42.2189C42.1395 41.3743 42.0583 41.367 41.9817 41.3392C41.9051 41.3114 41.8353 41.2639 41.7776 41.2002C41.72 41.1366 41.6761 41.0587 41.6494 40.9725C41.6228 40.8864 41.6141 40.7944 41.624 40.7038V17.8563C41.6141 17.7657 41.6228 17.6737 41.6494 17.5876C41.6761 17.5014 41.72 17.4235 41.7776 17.3599C41.8353 17.2963 41.9051 17.2487 41.9817 17.2209C42.0583 17.1931 42.1395 17.1859 42.2189 17.1997H46.5506C46.6301 17.1859 46.7113 17.1931 46.7878 17.2209C46.8644 17.2487 46.9343 17.2963 46.9919 17.3599C47.0496 17.4235 47.0935 17.5014 47.1201 17.5876C47.1468 17.6737 47.1555 17.7657 47.1456 17.8563V34.8882C47.1456 35.0531 47.1142 41.3604 47.1142 41.3604Z" fill="#1D539F"/>
<path d="M78.0794 17.1857C78.1579 17.1837 78.236 17.1994 78.309 17.2319C78.3821 17.2645 78.4488 17.3132 78.5051 17.3752C78.5614 17.4354 78.606 17.5082 78.636 17.5892C78.6659 17.6701 78.6807 17.7572 78.6793 17.845V40.7694C78.681 40.8568 78.6663 40.9437 78.6363 41.0242C78.6063 41.1047 78.5616 41.177 78.5051 41.2365C78.4492 41.2994 78.3827 41.3488 78.3095 41.3819C78.2364 41.4149 78.1581 41.4308 78.0794 41.4287H73.6824C73.6034 41.4311 73.5247 41.4152 73.4511 41.3822C73.3776 41.3491 73.3106 41.2996 73.2544 41.2365C73.1982 41.1769 73.1539 41.1044 73.1243 41.0239C73.0947 40.9434 73.0805 40.8567 73.0826 40.7694V32.7699C73.0854 32.6863 73.0725 32.603 73.045 32.5253C73.0175 32.4477 72.976 32.3776 72.923 32.3194C72.868 32.2611 72.8033 32.2157 72.7327 32.186C72.6621 32.1563 72.587 32.1428 72.5118 32.1463H66.3468C66.1901 32.1411 66.0373 32.2029 65.9187 32.3194C65.862 32.375 65.8169 32.4443 65.7868 32.5223C65.7567 32.6002 65.7423 32.6848 65.7446 32.7699V40.7694C65.7546 40.8607 65.7458 40.9533 65.7189 41.04C65.6919 41.1267 65.6476 41.2051 65.5895 41.269C65.5313 41.3329 65.4609 41.3807 65.3837 41.4084C65.3065 41.4361 65.2248 41.4431 65.1448 41.4287H60.7792C60.6992 41.4437 60.6172 41.4371 60.5398 41.4096C60.4624 41.3821 60.3917 41.3344 60.3334 41.2703C60.2751 41.2063 60.2309 41.1276 60.2041 41.0406C60.1774 40.9537 60.1689 40.8608 60.1794 40.7694V17.8559C60.1689 17.7646 60.1774 17.6717 60.2041 17.5848C60.2309 17.4978 60.2751 17.4191 60.3334 17.3551C60.3917 17.291 60.4624 17.2433 60.5398 17.2158C60.6172 17.1883 60.6992 17.1817 60.7792 17.1966H65.1448C65.2248 17.1823 65.3065 17.1893 65.3837 17.217C65.4609 17.2447 65.5313 17.2924 65.5895 17.3564C65.6476 17.4203 65.6919 17.4987 65.7189 17.5854C65.7458 17.6721 65.7546 17.7647 65.7446 17.8559V25.6C65.7446 26.0395 65.9454 26.2593 66.3468 26.2593H72.5118C72.5883 26.2625 72.6644 26.2472 72.7353 26.2145C72.8062 26.1819 72.8701 26.1325 72.923 26.0698C72.9756 26.0073 73.0168 25.9337 73.0442 25.853C73.0716 25.7724 73.0847 25.6864 73.0826 25.6V17.8559C73.0807 17.7684 73.095 17.6813 73.1246 17.6004C73.1542 17.5195 73.1984 17.4465 73.2544 17.3862C73.3111 17.3239 73.3781 17.2751 73.4516 17.2426C73.5251 17.21 73.6036 17.1944 73.6824 17.1966L78.0794 17.1857Z" fill="#F8B92A"/>
<path d="M65.7446 32.7695V40.769C65.7546 40.8602 65.7458 40.9529 65.7189 41.0395C65.6919 41.1262 65.6477 41.2046 65.5895 41.2686C65.5313 41.3325 65.4609 41.3802 65.3837 41.4079C65.3065 41.4357 65.2248 41.4426 65.1448 41.4283H60.7792C60.6992 41.4432 60.6172 41.4367 60.5398 41.4092C60.4624 41.3817 60.3917 41.334 60.3334 41.2699C60.2751 41.2058 60.2309 41.1272 60.2041 41.0402C60.1774 40.9532 60.1689 40.8604 60.1794 40.769V17.8555C60.1689 17.7642 60.1774 17.6713 60.2041 17.5843C60.2309 17.4973 60.2751 17.4187 60.3334 17.3546C60.3917 17.2906 60.4624 17.2429 60.5398 17.2154C60.6172 17.1879 60.6992 17.1813 60.7792 17.1962H65.1448C65.2248 17.1819 65.3065 17.1889 65.3837 17.2166C65.4609 17.2443 65.5313 17.292 65.5895 17.3559C65.6477 17.4199 65.6919 17.4983 65.7189 17.585C65.7458 17.6717 65.7546 17.7643 65.7446 17.8555V32.7805V32.7695Z" fill="#F8B92A"/>
<path d="M78.0794 17.1857C78.1579 17.1837 78.2359 17.1994 78.309 17.2319C78.3821 17.2645 78.4487 17.3132 78.5051 17.3752C78.5614 17.4354 78.606 17.5082 78.6359 17.5892C78.6659 17.6701 78.6807 17.7572 78.6792 17.845V40.7695C78.681 40.8569 78.6663 40.9437 78.6363 41.0242C78.6063 41.1047 78.5616 41.177 78.5051 41.2365C78.4492 41.2994 78.3827 41.3488 78.3095 41.3819C78.2364 41.4149 78.1581 41.4309 78.0794 41.4288H73.6824C73.6033 41.4311 73.5247 41.4152 73.4511 41.3822C73.3775 41.3492 73.3106 41.2996 73.2543 41.2365C73.1982 41.1769 73.1538 41.1045 73.1242 41.0239C73.0946 40.9434 73.0804 40.8567 73.0826 40.7695V17.8559C73.0807 17.7684 73.095 17.6813 73.1246 17.6004C73.1542 17.5195 73.1984 17.4465 73.2543 17.3862C73.3111 17.3239 73.3781 17.2751 73.4516 17.2426C73.5251 17.21 73.6036 17.1944 73.6824 17.1966L78.0794 17.1857Z" fill="#F8B92A"/>
<path d="M18.5386 134.011V136.805C18.5508 136.942 18.6099 137.068 18.7031 137.156C18.7963 137.244 18.9161 137.286 19.0368 137.275H28.2976C28.3648 137.272 28.4316 137.286 28.4935 137.316C28.5553 137.346 28.6107 137.391 28.6555 137.448C28.7476 137.564 28.797 137.715 28.7934 137.871V141.659C28.797 141.815 28.7476 141.967 28.6555 142.082C28.6107 142.139 28.5553 142.184 28.4935 142.214C28.4316 142.244 28.3648 142.258 28.2976 142.255H14.7341C14.6629 142.267 14.5903 142.26 14.5221 142.234C14.4539 142.208 14.392 142.164 14.3413 142.106C14.2905 142.048 14.2524 141.978 14.2299 141.9C14.2074 141.823 14.2012 141.74 14.2117 141.659V132.685C14.2069 132.201 14.2892 131.721 14.4535 131.275C14.6159 130.842 14.8499 130.449 15.1429 130.116C15.4386 129.779 15.7905 129.513 16.178 129.333C16.5754 129.148 17.0013 129.054 17.4308 129.058H23.9611C24.0301 129.06 24.0988 129.046 24.1629 129.016C24.227 128.987 24.2852 128.943 24.3342 128.888C24.3832 128.833 24.4218 128.767 24.4479 128.694C24.474 128.621 24.4869 128.544 24.4859 128.465V125.927C24.4873 125.849 24.4745 125.771 24.4483 125.699C24.4221 125.626 24.383 125.561 24.3335 125.506C24.2852 125.45 24.2272 125.406 24.1631 125.376C24.099 125.346 24.0303 125.332 23.9611 125.333H15.3146C15.2488 125.336 15.1833 125.323 15.1221 125.295C15.0609 125.268 15.0053 125.226 14.9587 125.174C14.9121 125.121 14.8754 125.058 14.8509 124.989C14.8264 124.919 14.8147 124.845 14.8163 124.77V120.924C14.813 120.768 14.8623 120.617 14.9542 120.501C15.0006 120.446 15.0565 120.402 15.1186 120.373C15.1806 120.344 15.2474 120.329 15.3146 120.331H25.5984C26.0259 120.328 26.449 120.429 26.8392 120.628C27.2167 120.82 27.562 121.085 27.8598 121.411C28.1557 121.741 28.3901 122.135 28.5491 122.57C28.7127 123.022 28.7949 123.507 28.791 123.996V124.872C28.8014 124.884 28.8093 124.899 28.8143 124.915C28.8193 124.931 28.8213 124.948 28.82 124.965V132.959C28.8223 133.036 28.8099 133.112 28.7836 133.182C28.7572 133.252 28.7177 133.315 28.6676 133.366C28.5646 133.465 28.4324 133.516 28.2976 133.509H19.0368C18.9128 133.504 18.792 133.554 18.6993 133.647C18.6066 133.741 18.549 133.871 18.5386 134.011Z" fill="#122F4C"/>
<path d="M43.2155 120.323C43.6476 120.32 44.0752 120.422 44.4707 120.619C44.8508 120.806 45.197 121.071 45.4914 121.402C45.7816 121.738 46.0152 122.131 46.1807 122.562C46.3551 123.011 46.4441 123.496 46.4419 123.987V138.58C46.4436 139.071 46.3546 139.556 46.1807 140.006C46.0138 140.44 45.7804 140.837 45.4914 141.179C45.2021 141.516 44.8547 141.783 44.4707 141.962C44.0729 142.148 43.6459 142.242 43.2155 142.236H34.9172C34.4868 142.242 34.0598 142.148 33.662 141.962C33.2757 141.78 32.9247 141.514 32.6292 141.179C32.3337 140.843 32.0994 140.444 31.94 140.006C31.7758 139.554 31.6935 139.069 31.6981 138.58V123.99C31.6931 123.501 31.7753 123.016 31.94 122.564C32.0972 122.128 32.3318 121.734 32.6293 121.405C32.9294 121.076 33.2792 120.811 33.662 120.622C34.0574 120.424 34.4851 120.323 34.9172 120.325H43.2155V120.323ZM41.7643 125.647H36.3781V136.91H41.7546L41.7643 125.647Z" fill="#122F4C"/>
<path d="M53.5839 134.011V136.805C53.5956 136.939 53.6525 137.063 53.7426 137.151C53.8328 137.238 53.9492 137.283 54.0677 137.275H63.3309C63.3981 137.272 63.4649 137.286 63.5268 137.316C63.5886 137.346 63.6439 137.391 63.6888 137.448C63.7809 137.564 63.8303 137.715 63.8267 137.871V141.659C63.8303 141.815 63.7809 141.967 63.6888 142.082C63.6439 142.139 63.5886 142.184 63.5268 142.214C63.4649 142.244 63.3981 142.258 63.3309 142.255H49.7771C49.7059 142.267 49.6333 142.26 49.5651 142.234C49.4969 142.208 49.435 142.164 49.3842 142.106C49.3335 142.048 49.2954 141.978 49.2729 141.9C49.2504 141.823 49.2441 141.74 49.2547 141.659V132.685C49.2498 132.201 49.3321 131.721 49.4965 131.275C49.6597 130.843 49.8936 130.45 50.1858 130.116C50.4815 129.779 50.8335 129.513 51.221 129.333C51.6191 129.147 52.0459 129.054 52.4762 129.058H59.0064C59.0755 129.06 59.1441 129.046 59.2083 129.016C59.2724 128.987 59.3306 128.943 59.3796 128.888C59.4286 128.833 59.4672 128.767 59.4933 128.694C59.5193 128.621 59.5323 128.544 59.5313 128.465V125.927C59.5327 125.849 59.5199 125.771 59.4937 125.699C59.4674 125.626 59.4284 125.561 59.3789 125.506C59.3306 125.45 59.2726 125.406 59.2085 125.376C59.1444 125.346 59.0756 125.332 59.0064 125.333H50.3575C50.292 125.335 50.2268 125.322 50.1659 125.294C50.1049 125.267 50.0496 125.225 50.0033 125.173C49.9569 125.12 49.9204 125.057 49.8961 124.988C49.8718 124.919 49.8601 124.845 49.8617 124.77V120.924C49.8584 120.768 49.9077 120.617 49.9996 120.501C50.0449 120.445 50.1004 120.401 50.1621 120.372C50.2239 120.342 50.2906 120.328 50.3575 120.331H60.6414C61.0689 120.328 61.492 120.429 61.8821 120.628C62.26 120.819 62.6054 121.084 62.9028 121.411C63.1986 121.741 63.4331 122.135 63.5921 122.57C63.7556 123.022 63.8379 123.507 63.8339 123.996V124.872C63.8443 124.884 63.8523 124.899 63.8573 124.915C63.8623 124.931 63.8642 124.948 63.863 124.965V132.959C63.8653 133.036 63.8529 133.112 63.8265 133.182C63.8002 133.252 63.7606 133.315 63.7106 133.366C63.6088 133.47 63.4754 133.527 63.3381 133.522H54.0798C53.9581 133.518 53.8395 133.566 53.7476 133.657C53.6557 133.747 53.5973 133.874 53.5839 134.011Z" fill="#122F4C"/>
<path d="M71.0075 134.011V136.805C71.0198 136.942 71.0789 137.068 71.172 137.156C71.2652 137.244 71.3851 137.287 71.5057 137.275H80.7811C80.8482 137.272 80.9151 137.287 80.977 137.316C81.0388 137.346 81.0941 137.391 81.139 137.448C81.2311 137.564 81.2805 137.715 81.2769 137.871V141.659C81.2805 141.815 81.2311 141.967 81.139 142.082C81.0941 142.139 81.0388 142.184 80.977 142.214C80.9151 142.244 80.8482 142.258 80.7811 142.256H67.2031C67.1318 142.267 67.0591 142.259 66.9909 142.234C66.9226 142.208 66.8606 142.164 66.8097 142.106C66.7588 142.048 66.7204 141.978 66.6976 141.9C66.6748 141.823 66.6681 141.74 66.6782 141.659V132.685C66.6734 132.201 66.7557 131.721 66.9201 131.275C67.0815 130.842 67.3156 130.448 67.6094 130.116C67.9051 129.779 68.257 129.513 68.6445 129.333C69.0419 129.148 69.4678 129.054 69.8974 129.058H76.4276C76.4967 129.06 76.5653 129.046 76.6294 129.016C76.6935 128.987 76.7518 128.943 76.8007 128.888C76.8497 128.833 76.8884 128.767 76.9144 128.694C76.9405 128.621 76.9534 128.544 76.9524 128.465V125.927C76.9538 125.849 76.941 125.771 76.9148 125.699C76.8886 125.626 76.8495 125.561 76.8001 125.506C76.7517 125.45 76.6937 125.406 76.6296 125.376C76.5656 125.346 76.4968 125.332 76.4276 125.333H67.7835C67.7178 125.336 67.6523 125.323 67.5911 125.295C67.5299 125.268 67.4743 125.226 67.4276 125.174C67.381 125.121 67.3443 125.058 67.3199 124.989C67.2954 124.919 67.2836 124.845 67.2853 124.77V120.924C67.282 120.768 67.3313 120.617 67.4231 120.501C67.4695 120.446 67.5255 120.402 67.5875 120.373C67.6496 120.344 67.7163 120.329 67.7835 120.331H78.0674C78.4949 120.328 78.918 120.429 79.3081 120.628C79.6856 120.82 80.031 121.085 80.3288 121.411C80.6246 121.741 80.8591 122.135 81.0181 122.57C81.1816 123.022 81.2639 123.507 81.26 123.996V124.872C81.2699 124.884 81.2774 124.899 81.282 124.915C81.2866 124.931 81.2881 124.948 81.2866 124.965V132.959C81.2889 133.035 81.2766 133.111 81.2508 133.181C81.2249 133.251 81.1859 133.314 81.1366 133.366C81.0373 133.461 80.9109 133.512 80.7811 133.509H71.5178C71.3918 133.5 71.268 133.548 71.1726 133.642C71.0773 133.736 71.018 133.869 71.0075 134.011Z" fill="#122F4C"/>
</svg>
