<svg width="51" height="51" viewBox="0 0 51 51" fill="none" xmlns="http://www.w3.org/2000/svg">
<path d="M15.3882 39.6579C10.3803 38.7593 6.73201 35.3168 5.98422 30.865C7.35516 30.865 8.70345 30.865 10.0517 30.865C5.24775 28.6392 2.55118 24.616 2.15462 18.3255C3.63887 18.837 5.04381 19.3071 6.43742 19.791C6.49407 19.708 6.55072 19.6112 6.60737 19.5283C2.15462 14.9106 1.22555 9.39435 3.59355 2.7582C9.28129 10.8598 16.2947 15.2563 24.747 16.0028C24.8376 14.0258 24.7243 12.0903 25.0415 10.2792C26.6731 1.00239 36.0771 -2.67514 41.8668 3.67067C42.49 4.36194 43.0225 4.51401 43.7363 4.18221C45.4698 3.39416 47.2147 2.60612 49.0162 1.79043C48.3024 4.48636 46.8068 6.53251 45.028 8.46805C46.7388 7.90121 48.4497 7.3482 50.1605 6.78136C50.2398 6.85049 50.3078 6.93344 50.3871 7.00257C49.0955 8.62013 47.8945 10.3621 46.4782 11.7861C45.6171 12.6571 45.4018 13.5143 45.4018 14.7724C45.4358 29.9664 37.2328 44.0129 25.3815 48.6444C17.0198 51.921 8.9074 50.8426 1.22555 45.5337C1.03293 45.3954 0.851652 45.2434 0.387115 44.8977C6.02954 45.354 10.9015 43.7641 15.3882 39.6579Z" fill="white"/>
</svg>
